<?xml version="1.0" standalone="no"?>
<!DOCTYPE svg PUBLIC "-//W3C//DTD SVG 1.1//EN" "http://www.w3.org/Graphics/SVG/1.1/DTD/svg11.dtd" >
<svg xmlns="http://www.w3.org/2000/svg" xmlns:xlink="http://www.w3.org/1999/xlink" version="1.1">
<metadata>
Created by FontForge 20161013 at Mon Mar 19 21:03:49 2012
 By ,,,
Copyright (c) 2011, Edgar Tolentino, Pablo Impallari, Igino Marini (impallari.com), with Reserved Font Name Dosis.
</metadata>
<defs>
<font id="Dosis-SemiBold" horiz-adv-x="215" >
  <font-face 
    font-family="Dosis"
    font-weight="600"
    font-stretch="normal"
    units-per-em="1000"
    panose-1="2 1 7 3 2 2 2 6 0 3"
    ascent="800"
    descent="-200"
    x-height="474"
    cap-height="731"
    bbox="-133 -237 1071 1016"
    underline-thickness="26"
    underline-position="-77"
    unicode-range="U+000D-FB02"
  />
<missing-glyph horiz-adv-x="370" 
d="M43 83q0 15 7 23l86 130l-86 130q-7 9 -7 23q0 16 13 27.5t30 11.5q20 0 32 -17l67 -110l67 110q12 17 32 17q17 0 30.5 -11.5t13.5 -27.5q0 -12 -8 -23l-86 -130l86 -130q7 -8 7 -23q0 -16 -13.5 -27t-30.5 -11q-20 0 -31 17l-67 108l-67 -108q-11 -17 -32 -17
q-17 0 -30 11.5t-13 26.5z" />
    <glyph glyph-name="uniFB01" unicode="fi" horiz-adv-x="544" 
d="M56 34v513q0 86 63.5 147.5t169.5 61.5q62 0 113 -20t51 -48q0 -15 -11 -37.5t-27 -22.5q-8 0 -23 9.5t-41 19t-61 9.5q-63 0 -96 -32t-33 -82v-78h112q13 0 21 -11.5t8 -27.5t-8 -27.5t-21 -11.5h-112v-362q0 -15 -16 -24.5t-38 -9.5t-36.5 9.5t-14.5 24.5zM385 35v405
q0 15 14.5 24.5t36.5 9.5q23 0 38.5 -9.5t15.5 -24.5v-405q0 -13 -16 -24t-38 -11q-21 0 -36 11t-15 24z" />
    <glyph glyph-name="uniFB02" unicode="fl" horiz-adv-x="555" 
d="M56 34v513q0 96 72 152.5t173 56.5q55 0 108 -16.5t82 -47.5v-657q0 -13 -16 -24t-38 -11q-21 0 -36 11t-15 24v607q-32 27 -89 27q-55 0 -95.5 -31.5t-40.5 -85.5v-78h112q13 0 21 -11.5t8 -27.5t-8 -27.5t-21 -11.5h-112v-362q0 -15 -16 -24.5t-38 -9.5t-36.5 9.5
t-14.5 24.5z" />
    <glyph glyph-name=".notdef" horiz-adv-x="370" 
d="M43 83q0 15 7 23l86 130l-86 130q-7 9 -7 23q0 16 13 27.5t30 11.5q20 0 32 -17l67 -110l67 110q12 17 32 17q17 0 30.5 -11.5t13.5 -27.5q0 -12 -8 -23l-86 -130l86 -130q7 -8 7 -23q0 -16 -13.5 -27t-30.5 -11q-20 0 -31 17l-67 108l-67 -108q-11 -17 -32 -17
q-17 0 -30 11.5t-13 26.5z" />
    <glyph glyph-name=".null" horiz-adv-x="0" 
 />
    <glyph glyph-name="nonmarkingreturn" horiz-adv-x="333" 
 />
    <glyph glyph-name="NULL" horiz-adv-x="0" 
 />
    <glyph glyph-name="NULL" horiz-adv-x="0" 
 />
    <glyph glyph-name="uni000D" unicode="&#xd;" horiz-adv-x="0" 
 />
    <glyph glyph-name="space" unicode=" " horiz-adv-x="200" 
 />
    <glyph glyph-name="exclam" unicode="!" horiz-adv-x="210" 
d="M46 54q0 25 17.5 42.5t42.5 17.5q24 0 41.5 -17.5t17.5 -42.5q0 -24 -17.5 -42t-41.5 -18q-25 0 -42.5 18t-17.5 42zM52 690q0 23 15 35.5t38 12.5t38 -13t15 -35q0 -72 -6.5 -235t-6.5 -235q0 -15 -13 -23.5t-27 -8.5q-41 0 -41 32q0 72 -6 235t-6 235z" />
    <glyph glyph-name="quotedbl" unicode="&#x22;" horiz-adv-x="291" 
d="M32 739q0 12 12.5 20.5t28.5 8.5t29.5 -8.5t13.5 -20.5l-10 -141q0 -12 -8.5 -21t-24.5 -9q-31 0 -31 30zM175 739q0 12 13 20.5t29 8.5t29 -8.5t13 -20.5l-10 -141q0 -12 -8.5 -21t-23.5 -9q-32 0 -32 30z" />
    <glyph glyph-name="numbersign" unicode="#" horiz-adv-x="642" 
d="M24 271q0 17 8.5 29t21.5 12h102l23 137h-85q-32 0 -32 39q0 17 8.5 28.5t21.5 11.5h103l27 162q1 10 14 16.5t29 6.5q21 0 35 -10.5t14 -31.5l-24 -143h116l28 162q1 10 14 16.5t29 6.5q20 0 34 -10.5t15 -31.5l-25 -143h85q13 0 23 -11t10 -28t-9.5 -28.5t-21.5 -11.5
h-101l-24 -137h85q13 0 23.5 -11.5t10.5 -28.5t-10 -28.5t-22 -11.5h-102l-30 -175q-2 -11 -15 -18.5t-27 -7.5q-21 0 -36 11t-15 30l27 160h-115l-30 -174q-2 -11 -15 -19t-26 -8q-21 0 -36 11t-15 30l25 160h-84q-15 0 -23.5 11t-8.5 28zM252 312h115l24 137h-116z" />
    <glyph glyph-name="dollar" unicode="$" horiz-adv-x="515" 
d="M31 120q0 19 14 38t32 19q12 0 31.5 -17.5t53 -37.5t77.5 -23v235q-30 11 -46 17.5t-42.5 19t-41 26t-30.5 32.5t-23 44.5t-7 56.5q0 87 54.5 132t135.5 54v29q0 9 8.5 16t20.5 7q11 0 20.5 -7t9.5 -16v-27q61 -2 112.5 -20.5t51.5 -51.5q0 -18 -12 -37.5t-32 -19.5
q-8 0 -44 17t-76 20v-203q40 -15 66.5 -28.5t56 -37.5t44.5 -60.5t15 -85.5q0 -89 -49 -141.5t-133 -64.5v-34q0 -9 -9.5 -16t-20.5 -7q-12 0 -20.5 7t-8.5 16v31q-87 1 -147.5 39.5t-60.5 78.5zM149 540q0 -39 24 -59.5t72 -38.5v182q-96 -12 -96 -84zM292 101q88 16 88 99
q0 44 -23 69t-65 43v-211z" />
    <glyph glyph-name="percent" unicode="%" horiz-adv-x="774" 
d="M31 460v148q0 123 135 123q61 0 98 -29.5t37 -93.5v-148q0 -64 -37 -93.5t-98 -29.5q-135 0 -135 123zM104 460q0 -59 62 -59q63 0 63 59v148q0 59 -63 59q-62 0 -62 -59v-148zM168 2q0 8 4 15l367 735q8 18 30 18q16 0 29 -11t13 -27q0 -8 -3 -16l-367 -732
q-9 -19 -34 -19q-17 0 -28 11.5t-11 25.5zM473 120v148q0 123 135 123q61 0 98 -29.5t37 -93.5v-148q0 -64 -37 -93.5t-98 -29.5q-135 0 -135 123zM546 120q0 -59 62 -59q63 0 63 59v148q0 59 -63 59q-62 0 -62 -59v-148z" />
    <glyph glyph-name="ampersand" unicode="&#x26;" horiz-adv-x="629" 
d="M26 207q0 68 37 120.5t92 81.5q-36 41 -55 78t-19 84q0 82 57 129.5t142 47.5q80 0 132 -37t52 -72q0 -19 -15.5 -34t-34.5 -15q-15 0 -30.5 18t-40 36t-61.5 18q-45 0 -72 -25.5t-27 -70.5q0 -22 8 -43.5t26.5 -46t29.5 -36.5l35 -39l177 -190q21 49 26 152
q2 18 12 26.5t36 8.5t35 -12t9 -39q0 -109 -53 -203l85 -90q7 -8 7 -19q0 -16 -15 -29.5t-34 -13.5q-14 0 -27 13l-69 72q-80 -87 -202 -87q-109 0 -176 63.5t-67 153.5zM133 216q0 -57 39.5 -95t109.5 -38q82 0 126 59l-193 204q-82 -56 -82 -130z" />
    <glyph glyph-name="quotesingle" unicode="'" horiz-adv-x="148" 
d="M32 739q0 12 12.5 20.5t28.5 8.5t29.5 -8.5t13.5 -20.5l-10 -141q0 -12 -8.5 -21t-24.5 -9q-31 0 -31 30z" />
    <glyph glyph-name="parenleft" unicode="(" horiz-adv-x="325" 
d="M53 160v414q0 82 62 138t141 56q52 0 52 -46q0 -21 -10 -34t-25 -13q-52 0 -83.5 -30.5t-31.5 -70.5v-414q0 -48 34 -67.5t81 -19.5q35 0 35 -47q0 -46 -55 -46q-83 0 -141.5 46.5t-58.5 133.5z" />
    <glyph glyph-name="parenright" unicode=")" horiz-adv-x="326" 
d="M18 26q0 47 34 47q47 0 81 19.5t34 67.5v414q0 40 -31.5 70.5t-83.5 30.5q-15 0 -24.5 13t-9.5 34q0 46 51 46q79 0 141.5 -56t62.5 -138v-414q0 -87 -59 -133.5t-142 -46.5q-31 0 -42.5 12t-11.5 34z" />
    <glyph glyph-name="asterisk" unicode="*" horiz-adv-x="451" 
d="M25 579q0 16 11 28.5t28 12.5q6 0 11 -2l117 -40l-5 118q1 17 12 26t27 9t26.5 -9t11.5 -26l-4 -120l117 42q8 2 11 2q16 0 27 -14t11 -31q0 -26 -25 -32l-115 -30l76 -106q6 -7 6 -21q0 -17 -13.5 -28t-30.5 -11q-18 0 -27 14l-71 106l-72 -107q-8 -13 -25 -13
q-15 0 -30 10.5t-15 27.5q0 13 8 23l74 101l-117 34q-24 6 -24 36z" />
    <glyph glyph-name="plus" unicode="+" horiz-adv-x="433" 
d="M22 240q0 19 9.5 32t24.5 13h116v115q0 14 13.5 24.5t31.5 10.5q19 0 31.5 -10.5t12.5 -24.5v-115h115q14 0 24.5 -13.5t10.5 -31.5q0 -19 -10.5 -31.5t-24.5 -12.5h-115v-116q0 -15 -12.5 -24.5t-31.5 -9.5t-32 9.5t-13 24.5v116h-116q-15 0 -24.5 12.5t-9.5 31.5z" />
    <glyph glyph-name="comma" unicode="," horiz-adv-x="185" 
d="M33 54q0 25 17 42.5t42 17.5q24 0 42 -17.5t18 -42.5q0 -16 -49 -133q-7 -15 -24 -15q-13 0 -24.5 7.5t-11.5 20.5q0 8 3 13l22 53q-35 15 -35 54z" />
    <glyph glyph-name="hyphen" unicode="-" horiz-adv-x="412" 
d="M41 240q0 19 9.5 32t24.5 13h260q14 0 25 -13.5t11 -31.5q0 -19 -11 -31.5t-25 -12.5h-260q-15 0 -24.5 12.5t-9.5 31.5z" />
    <glyph glyph-name="period" unicode="." horiz-adv-x="184" 
d="M33 54q0 25 17 42.5t43 17.5q24 0 41.5 -17.5t17.5 -42.5q0 -24 -17.5 -42t-41.5 -18q-26 0 -43 17.5t-17 42.5z" />
    <glyph glyph-name="slash" unicode="/" horiz-adv-x="481" 
d="M19 2q0 8 3 15l368 735q8 18 30 18q16 0 29 -11t13 -27q0 -9 -4 -16l-367 -732q-9 -19 -33 -19q-17 0 -28 11.5t-11 25.5z" />
    <glyph glyph-name="zero" unicode="0" horiz-adv-x="551" 
d="M52 217v291q0 115 61 169t163 54t163.5 -54t61.5 -169v-291q0 -115 -61.5 -169t-163.5 -54t-163 54t-61 169zM158 217q0 -129 118 -129q57 0 88 32t31 97v291q0 65 -31 97t-88 32q-118 0 -118 -129v-291zM234 362q0 19 12 30.5t31 11.5t30.5 -11.5t11.5 -30.5t-11.5 -31
t-30.5 -12t-31 12t-12 31z" />
    <glyph glyph-name="one" unicode="1" horiz-adv-x="267" 
d="M7 580q0 26 21 41l104 100q11 11 27 11q18 0 32.5 -9.5t14.5 -25.5v-662q0 -16 -16 -25.5t-37 -9.5q-22 0 -37.5 9.5t-15.5 25.5v556l-35 -44q-10 -10 -22 -10q-15 0 -25.5 13.5t-10.5 29.5z" />
    <glyph glyph-name="two" unicode="2" horiz-adv-x="495" 
d="M30 35v97q0 45 33.5 88t82.5 78l96 70q48 35 81.5 77t33.5 84t-27.5 73.5t-80.5 31.5q-45 0 -73 -25t-28 -74q0 -16 -15.5 -28t-40.5 -12q-48 0 -48 59q0 78 60.5 127.5t144.5 49.5q89 0 151.5 -55.5t62.5 -143.5q0 -60 -33.5 -112.5t-81 -89t-95 -69t-81 -65.5
t-33.5 -64v-38h294q14 0 24.5 -13.5t10.5 -32.5t-10.5 -33.5t-24.5 -14.5h-356q-16 0 -31.5 10t-15.5 25z" />
    <glyph glyph-name="three" unicode="3" horiz-adv-x="509" 
d="M24 170q0 26 11 35.5t38 9.5q32 0 43.5 -9.5t11.5 -30.5q0 -36 30.5 -61.5t87.5 -25.5q62 0 91.5 29.5t29.5 94.5v19q0 109 -122 109q-34 0 -34 42q0 43 34 43q51 0 77.5 23t26.5 87q0 103 -100 103q-56 0 -80 -23.5t-24 -58.5q0 -43 -50 -43q-34 0 -44.5 10t-10.5 39
q0 27 10 54t32.5 54t66 44t101.5 17q201 0 201 -178q0 -61 -21.5 -105t-58.5 -62q102 -40 102 -155v-19q0 -113 -63 -165.5t-165 -52.5q-108 0 -164.5 54t-56.5 122z" />
    <glyph glyph-name="four" unicode="4" horiz-adv-x="482" 
d="M3 203q0 11 6 22l242 477q15 29 46 29q17 0 35 -12t18 -29q0 -6 -5 -16l-206 -411h147v138q0 35 53 35q22 0 37.5 -9t15.5 -26v-138h49q17 0 26.5 -15t9.5 -35q0 -18 -11 -33.5t-25 -15.5h-49v-129q0 -16 -16 -25.5t-37 -9.5q-22 0 -37.5 9.5t-15.5 25.5v129h-246
q-16 0 -26.5 10.5t-10.5 28.5z" />
    <glyph glyph-name="five" unicode="5" horiz-adv-x="497" 
d="M22 171q0 49 52 49q54 0 54 -42t33.5 -66t83.5 -24q120 0 120 126v19q0 63 -31 94.5t-88 31.5h-145q-45 0 -45 41q0 10 2 24l23 272q3 35 24 35h297q16 0 24.5 -14t8.5 -33t-8.5 -33t-24.5 -14h-231l-14 -194h89q103 0 164 -50.5t61 -159.5v-19q0 -113 -61.5 -166.5
t-162.5 -53.5q-104 0 -164.5 51.5t-60.5 125.5z" />
    <glyph glyph-name="six" unicode="6" horiz-adv-x="536" 
d="M50 217v291q0 115 62.5 169t166.5 54q105 0 162.5 -53.5t57.5 -124.5q0 -25 -12 -35t-38 -10q-55 0 -55 40t-33.5 64.5t-83.5 24.5q-122 0 -122 -129v-126q46 57 140 57q204 0 204 -204v-18q0 -115 -61 -169t-163 -54t-163.5 54t-61.5 169zM155 211q0 -129 120 -129
q118 0 118 129v17q0 126 -119 126t-119 -117v-26z" />
    <glyph glyph-name="seven" unicode="7" horiz-adv-x="484" 
d="M21 543v153q0 13 15 24t32 11h355q16 0 31.5 -11t15.5 -24v-103q0 -23 -19 -59l-269 -521q-9 -16 -32 -16q-26 0 -46 15t-20 37q0 11 5 20l275 506v62h-237v-94q0 -15 -16.5 -25t-37.5 -10t-36.5 10t-15.5 25z" />
    <glyph glyph-name="eight" unicode="8" horiz-adv-x="521" 
d="M36 200v12q0 145 115 187q-93 36 -93 156q0 91 54.5 133.5t148.5 42.5t148.5 -42.5t54.5 -133.5q0 -121 -94 -156q115 -42 115 -187v-12q0 -106 -61 -156t-163 -50t-163.5 50t-61.5 156zM142 211q0 -65 31.5 -97t87.5 -32q118 0 118 129v18q0 125 -118 125
q-119 0 -119 -125v-18zM161 543q0 -101 100 -101t100 101q0 100 -100 100t-100 -100z" />
    <glyph glyph-name="nine" unicode="9" horiz-adv-x="536" 
d="M37 172q0 25 12 35t38 10q55 0 55 -40t33.5 -64.5t83.5 -24.5q121 0 121 129v126q-45 -57 -139 -57q-204 0 -204 204v18q0 115 61 169t163 54t163.5 -54t61.5 -169v-291q0 -115 -62.5 -169t-167.5 -54q-104 0 -161.5 53.5t-57.5 124.5zM143 497q0 -126 119 -126
q118 0 118 117v26q0 129 -119 129q-118 0 -118 -129v-17z" />
    <glyph glyph-name="colon" unicode=":" horiz-adv-x="219" 
d="M50 54q0 25 17 42.5t43 17.5q24 0 41.5 -17.5t17.5 -42.5q0 -24 -17.5 -42t-41.5 -18q-26 0 -43 17.5t-17 42.5zM50 362q0 25 17 42.5t43 17.5q24 0 41.5 -17.5t17.5 -42.5q0 -24 -17.5 -42t-41.5 -18q-26 0 -43 17.5t-17 42.5z" />
    <glyph glyph-name="semicolon" unicode=";" horiz-adv-x="219" 
d="M48 54q0 25 17 42.5t42 17.5q24 0 42 -17.5t18 -42.5q0 -16 -49 -133q-7 -15 -24 -15q-13 0 -24.5 7.5t-11.5 20.5q0 8 3 13l22 53q-35 15 -35 54zM52 362q0 25 17 42.5t43 17.5q24 0 41.5 -17.5t17.5 -42.5q0 -24 -17.5 -42t-41.5 -18q-26 0 -43 17.5t-17 42.5z" />
    <glyph glyph-name="less" unicode="&#x3c;" horiz-adv-x="411" 
d="M21 277q0 26 22 41l263 172q5 4 15 4q17 0 32.5 -15t15.5 -35q0 -19 -15 -29l-210 -138l210 -138q15 -8 15 -29q0 -20 -15.5 -34.5t-32.5 -14.5q-10 0 -15 4l-263 172q-22 15 -22 40z" />
    <glyph glyph-name="equal" unicode="=" horiz-adv-x="442" 
d="M58 152q0 19 10 32t25 13h255q14 0 25 -13.5t11 -31.5q0 -19 -11 -31.5t-25 -12.5h-255q-16 0 -25.5 12t-9.5 32zM58 355q0 19 10 32t25 13h255q14 0 25 -13.5t11 -31.5q0 -19 -11 -31.5t-25 -12.5h-255q-16 0 -25.5 12t-9.5 32z" />
    <glyph glyph-name="greater" unicode="&#x3e;" horiz-adv-x="410" 
d="M42 110q0 20 14 29l211 138l-211 138q-14 11 -14 29q0 20 15.5 35t32.5 15q9 0 14 -4l263 -172q22 -15 22 -41t-22 -40l-263 -172q-5 -4 -14 -4q-17 0 -32.5 14.5t-15.5 34.5z" />
    <glyph glyph-name="question" unicode="?" horiz-adv-x="422" 
d="M22 636q0 35 49 68.5t124 33.5q93 0 146.5 -48.5t53.5 -123.5q0 -31 -9 -59.5t-26 -52t-30.5 -39t-34 -34t-24.5 -22.5q-30 -27 -37 -55t-7 -85q0 -31 -42 -31q-21 0 -30 10t-9 36q0 114 54 164q6 6 25.5 22t30 26.5t24.5 28t20.5 38t6.5 43.5q0 48 -30.5 74.5
t-84.5 26.5q-32 0 -54.5 -9.5t-31.5 -21.5t-20 -21.5t-23 -9.5q-15 0 -28 11t-13 30zM127 54q0 25 17 42.5t42 17.5q24 0 41.5 -17.5t17.5 -42.5q0 -24 -17.5 -42t-41.5 -18q-25 0 -42 18t-17 42z" />
    <glyph glyph-name="at" unicode="@" horiz-adv-x="729" 
d="M44 212q0 157 83.5 255t248.5 98q153 0 237.5 -86t84.5 -242q0 -95 -34 -156.5t-103 -61.5q-40 0 -68 20t-34 50q-55 -63 -124 -63q-53 0 -89.5 28t-36.5 85q0 66 51.5 92.5t147.5 26.5h37v17q0 75 -88 75q-37 0 -65.5 -13t-31.5 -13q-11 0 -19 14.5t-8 26.5
q0 24 43 41.5t93 17.5q68 0 111 -34.5t43 -96.5v-168q7 -49 44 -49q61 0 61 147q0 278 -253 278q-72 0 -124.5 -23t-81 -64.5t-41.5 -91t-13 -109.5q0 -56 11.5 -102.5t37 -85.5t71.5 -60.5t109 -21.5q50 0 92 13.5t45 13.5q12 0 19.5 -10.5t7.5 -20.5q0 -26 -58.5 -43
t-117.5 -17q-57 0 -108 20.5t-91.5 60t-64.5 104.5t-24 148zM295 140q0 -27 15.5 -40.5t41.5 -13.5q39 0 67.5 25.5t28.5 55.5v41h-30q-61 0 -92 -15t-31 -53z" />
    <glyph glyph-name="A" unicode="A" horiz-adv-x="562" 
d="M14 44q0 6 1 9l199 648q12 36 67 36q56 0 68 -36l198 -648q2 -6 2 -9q0 -18 -21.5 -31t-45.5 -13q-29 0 -36 22l-41 142h-247l-41 -142q-7 -22 -37 -22q-24 0 -45 13t-21 31zM181 249h200l-100 343z" />
    <glyph glyph-name="B" unicode="B" horiz-adv-x="553" 
d="M66 34v662q0 16 14 25.5t33 9.5h182q92 0 147 -38t55 -135q0 -124 -85 -162q51 -20 77 -57.5t26 -109.5v-19q0 -110 -54 -160t-145 -50h-203q-21 0 -34 10t-13 24zM171 94h125q113 0 113 124v16q0 64 -28.5 92t-84.5 28h-125v-260zM171 438h119q101 0 101 103
q0 96 -103 96h-117v-199z" />
    <glyph glyph-name="C" unicode="C" horiz-adv-x="541" 
d="M59 217v291q0 115 61.5 169t160.5 54q102 0 164.5 -50.5t62.5 -130.5q0 -32 -12 -43.5t-41 -11.5q-52 0 -53 35q-6 107 -117 107q-120 0 -120 -129v-291q0 -129 122 -129q36 0 60 10.5t34.5 30.5t14.5 35t6 37q3 35 52 35q29 0 41.5 -11.5t12.5 -43.5q0 -83 -63 -135
t-165 -52q-99 0 -160 54t-61 169z" />
    <glyph glyph-name="D" unicode="D" horiz-adv-x="573" 
d="M66 34v663q0 14 13.5 24t33.5 10h177q102 0 163.5 -54t61.5 -169v-285q0 -115 -61.5 -169t-163.5 -54h-177q-20 0 -33.5 10t-13.5 24zM172 94h118q119 0 119 129v285q0 129 -119 129h-118v-543z" />
    <glyph glyph-name="E" unicode="E" horiz-adv-x="523" 
d="M66 35v661q0 16 14 25.5t33 9.5h356q17 0 26 -14t9 -32q0 -20 -9.5 -34t-25.5 -14h-297v-229h154q16 0 25.5 -12.5t9.5 -30.5q0 -16 -9 -28.5t-26 -12.5h-154v-230h297q16 0 25.5 -14t9.5 -34q0 -18 -9 -32t-26 -14h-356q-19 0 -33 9.5t-14 25.5z" />
    <glyph glyph-name="F" unicode="F" horiz-adv-x="502" 
d="M66 35v661q0 16 14 25.5t33 9.5h351q17 0 25.5 -13.5t8.5 -32.5q0 -20 -9 -34t-25 -14h-292v-229h155q16 0 25 -12.5t9 -30.5q0 -16 -8.5 -28.5t-25.5 -12.5h-155v-289q0 -17 -15.5 -26t-37.5 -9q-21 0 -37 9t-16 26z" />
    <glyph glyph-name="G" unicode="G" horiz-adv-x="556" 
d="M59 217v291q0 115 61 169t160 54q101 0 164.5 -50.5t63.5 -134.5q0 -29 -12.5 -40t-40.5 -11q-52 0 -53 35q-11 107 -119 107q-118 0 -118 -129v-291q0 -129 118 -129q57 0 88 32t31 97v82h-101q-16 0 -25 12.5t-9 30.5q0 16 9 29t25 13h172q16 0 25.5 -10.5t9.5 -25.5
v-131q0 -115 -61.5 -169t-163.5 -54t-163 54t-61 169z" />
    <glyph glyph-name="H" unicode="H" horiz-adv-x="593" 
d="M66 35v662q0 17 15.5 25.5t37.5 8.5t37.5 -8.5t15.5 -25.5v-276h249v276q0 17 15.5 25.5t37.5 8.5t37.5 -8.5t15.5 -25.5v-662q0 -16 -15.5 -25.5t-37.5 -9.5q-21 0 -37 9.5t-16 25.5v302h-249v-302q0 -16 -15.5 -25.5t-37.5 -9.5q-21 0 -37 9.5t-16 25.5z" />
    <glyph glyph-name="I" unicode="I" horiz-adv-x="238" 
d="M66 35v662q0 17 15.5 25.5t37.5 8.5t37.5 -8.5t15.5 -25.5v-662q0 -16 -15.5 -25.5t-37.5 -9.5q-21 0 -37 9.5t-16 25.5z" />
    <glyph glyph-name="J" unicode="J" horiz-adv-x="530" 
d="M17 185q0 29 13 40t41 11q51 0 52 -35q2 -49 31 -81t87 -32q120 0 120 129v420h-117q-16 0 -25.5 14t-9.5 34q0 19 9 32.5t26 13.5h176q19 0 33 -9.5t14 -25.5v-479q0 -115 -61 -169t-161 -54q-101 0 -164.5 52.5t-63.5 138.5z" />
    <glyph glyph-name="K" unicode="K" horiz-adv-x="541" 
d="M66 35v662q0 17 15.5 25.5t37.5 8.5t37.5 -8.5t15.5 -25.5v-304l244 323q10 15 30 15q21 0 41 -17.5t20 -37.5q0 -12 -8 -21l-192 -240l228 -347q6 -9 6 -19q0 -19 -19.5 -35.5t-42.5 -16.5q-25 0 -38 20l-204 309l-65 -82v-209q0 -16 -15.5 -25.5t-37.5 -9.5
q-21 0 -37 9.5t-16 25.5z" />
    <glyph glyph-name="L" unicode="L" horiz-adv-x="477" 
d="M66 35v662q0 17 15.5 25.5t37.5 8.5t37.5 -8.5t15.5 -25.5v-603h260q15 0 23.5 -14t8.5 -33t-8.5 -33t-23.5 -14h-319q-19 0 -33 9.5t-14 25.5z" />
    <glyph glyph-name="M" unicode="M" horiz-adv-x="687" 
d="M66 35v643q0 27 15 40t38 13q29 0 47.5 -12.5t36.5 -47.5l140 -265l142 265q18 35 36 47.5t47 12.5q23 0 38 -13t15 -40v-643q0 -16 -15.5 -25.5t-37.5 -9.5q-21 0 -37 9.5t-16 25.5v480l-134 -248q-15 -24 -39 -24t-36 24l-134 254v-486q0 -16 -15.5 -25.5t-37.5 -9.5
q-21 0 -37 9.5t-16 25.5z" />
    <glyph glyph-name="N" unicode="N" horiz-adv-x="593" 
d="M66 35v661q0 35 53 35q28 0 45 -12.5t35 -47.5l222 -433v459q0 17 15.5 25.5t37.5 8.5t37.5 -8.5t15.5 -25.5v-662q0 -16 -15.5 -25.5t-37.5 -9.5q-42 0 -63 39l-239 455v-459q0 -16 -15.5 -25.5t-37.5 -9.5q-21 0 -37 9.5t-16 25.5z" />
    <glyph glyph-name="O" unicode="O" horiz-adv-x="566" 
d="M59 217v291q0 115 61 169t163 54t163.5 -54t61.5 -169v-291q0 -115 -61.5 -169t-163.5 -54t-163 54t-61 169zM165 217q0 -129 118 -129q57 0 88 32t31 97v291q0 65 -31 97t-88 32q-118 0 -118 -129v-291z" />
    <glyph glyph-name="P" unicode="P" horiz-adv-x="545" 
d="M66 35v662q0 14 11.5 24t29.5 10h195q100 0 159.5 -53t59.5 -167v-8q0 -114 -61.5 -167.5t-163.5 -53.5h-124v-247q0 -16 -15.5 -25.5t-37.5 -9.5q-21 0 -37 9.5t-16 25.5zM172 366h124q57 0 88 32.5t31 97.5v12q0 65 -31 97t-88 32h-124v-271z" />
    <glyph glyph-name="Q" unicode="Q" horiz-adv-x="566" 
d="M59 217v291q0 116 61 169.5t163 53.5t163.5 -53.5t61.5 -169.5v-291q0 -105 -51 -159t-138 -62v-70q0 -16 -10.5 -25.5t-25.5 -9.5q-14 0 -24.5 9.5t-10.5 25.5v70q-87 8 -138 61.5t-51 159.5zM165 217q0 -106 83 -123v61q0 34 35 34q15 0 25.5 -8.5t10.5 -25.5v-60
q83 18 83 122v291q0 65 -31 97t-88 32q-118 0 -118 -129v-291z" />
    <glyph glyph-name="R" unicode="R" horiz-adv-x="559" 
d="M66 35v662q0 14 10 24t25 10h190q230 0 230 -204q0 -85 -38 -133.5t-103 -64.5l140 -263q4 -7 4 -15q0 -20 -20.5 -37t-43.5 -17q-26 0 -42 31l-146 286h-101v-279q0 -16 -15.5 -25.5t-37.5 -9.5q-21 0 -36.5 9.5t-15.5 25.5zM171 399h120q124 0 124 119t-124 119h-120
v-238z" />
    <glyph glyph-name="S" unicode="S" horiz-adv-x="512" 
d="M29 110q0 19 14 38t32 19q11 0 26.5 -12.5t30.5 -27t45.5 -27t68.5 -12.5q57 0 91.5 27t34.5 79q0 48 -33.5 80t-81 51t-95.5 41t-81.5 66t-33.5 110q0 53 20.5 92t55.5 60t73.5 30.5t81.5 9.5q27 0 56.5 -3.5t58.5 -11.5t48 -23t19 -34t-12 -38t-32 -19q-10 0 -27 9.5
t-45.5 19t-65.5 9.5q-57 0 -91 -22.5t-34 -68.5q0 -30 18 -51.5t46.5 -35.5t63.5 -27.5t69.5 -31.5t63 -41.5t46.5 -64.5t18 -95q0 -104 -62.5 -158.5t-165.5 -54.5q-92 0 -156.5 38.5t-64.5 79.5z" />
    <glyph glyph-name="T" unicode="T" horiz-adv-x="513" 
d="M14 683q0 19 9 33.5t26 14.5h415q17 0 26 -14t9 -33q0 -21 -9.5 -35.5t-25.5 -14.5h-154v-599q0 -16 -16 -25.5t-37 -9.5q-22 0 -37.5 9.5t-15.5 25.5v599h-155q-16 0 -25.5 14.5t-9.5 34.5z" />
    <glyph glyph-name="U" unicode="U" horiz-adv-x="583" 
d="M63 217v480q0 17 15.5 25.5t37.5 8.5t37.5 -8.5t15.5 -25.5v-480q0 -65 32 -97t90 -32q123 0 123 129v480q0 17 15.5 25.5t37.5 8.5t37.5 -8.5t15.5 -25.5v-480q0 -115 -62.5 -169t-166.5 -54q-103 0 -165.5 54t-62.5 169z" />
    <glyph glyph-name="V" unicode="V" horiz-adv-x="561" 
d="M13 687q0 18 21 31t45 13q30 0 37 -22l165 -570l164 570q7 22 36 22q24 0 45.5 -13t21.5 -31q0 -3 -2 -9l-198 -648q-5 -17 -24 -26.5t-43 -9.5q-55 0 -67 36l-200 648q-1 3 -1 9z" />
    <glyph glyph-name="W" unicode="W" horiz-adv-x="847" 
d="M14 688q0 18 21 30.5t45 12.5q31 0 37 -22l164 -570l90 358q7 31 53 31q44 0 52 -31l91 -358l163 570q6 22 37 22q24 0 45 -12.5t21 -30.5q0 -7 -1 -10l-198 -648q-6 -17 -25.5 -26.5t-42.5 -9.5t-42.5 9.5t-23.5 26.5l-76 302l-76 -302q-4 -17 -23.5 -26.5t-43.5 -9.5
t-43 9.5t-24 26.5l-199 648q-1 3 -1 10z" />
    <glyph glyph-name="X" unicode="X" horiz-adv-x="533" 
d="M18 49q0 9 6 21l173 296l-168 294q-8 14 -8 26q0 20 21 34t46 14q24 0 40 -30l138 -256l140 256q14 30 40 30q24 0 45 -14t21 -34q0 -12 -8 -26l-168 -294l173 -296q7 -14 7 -21q0 -21 -22.5 -36.5t-46.5 -15.5q-21 0 -33 24l-148 266l-146 -266q-14 -24 -34 -24
q-23 0 -45.5 15.5t-22.5 36.5z" />
    <glyph glyph-name="Y" unicode="Y" horiz-adv-x="558" 
d="M13 687q0 18 22 31t45 13q22 0 35 -24l165 -317l164 317q12 24 35 24t44.5 -13t21.5 -31q0 -9 -3 -15l-207 -373q-2 -6 -2 -11v-253q0 -16 -16 -25.5t-37 -9.5q-22 0 -37.5 9.5t-15.5 25.5v253q0 2 -3 11l-207 373q-4 8 -4 15z" />
    <glyph glyph-name="Z" unicode="Z" horiz-adv-x="508" 
d="M18 31q0 19 11 37l310 569h-271q-16 0 -25.5 13.5t-9.5 33.5q0 19 9 33t26 14h373q34 0 34 -30q0 -18 -12 -39l-310 -568h303q16 0 25.5 -14.5t9.5 -32.5t-9.5 -32.5t-25.5 -14.5h-405q-33 0 -33 31z" />
    <glyph glyph-name="bracketleft" unicode="[" horiz-adv-x="328" 
d="M60 14v719q0 16 14.5 25.5t33.5 9.5h167q16 0 25.5 -14t9.5 -32q0 -20 -10 -34t-25 -14h-109v-601h109q15 0 25 -14t10 -34q0 -18 -9.5 -32t-25.5 -14h-167q-19 0 -33.5 9.5t-14.5 25.5z" />
    <glyph glyph-name="backslash" unicode="\" horiz-adv-x="362" 
d="M21 717q0 15 12.5 26.5t29.5 11.5q23 0 32 -22l245 -685q1 -4 1 -11q0 -15 -11.5 -26.5t-27.5 -11.5q-26 0 -34 24l-244 682q-3 6 -3 12z" />
    <glyph glyph-name="bracketright" unicode="]" horiz-adv-x="327" 
d="M18 25q0 20 9.5 34t24.5 14h109v601h-109q-15 0 -24.5 14t-9.5 34q0 18 9 32t25 14h168q19 0 33 -9.5t14 -25.5v-719q0 -16 -14 -25.5t-33 -9.5h-168q-16 0 -25 14t-9 32z" />
    <glyph glyph-name="asciicircum" unicode="^" horiz-adv-x="279" 
d="M0 617q0 21 18 31l104 56q10 5 17 5q9 0 17 -5l104 -55q19 -12 19 -33q0 -13 -7.5 -23.5t-18.5 -10.5q-2 0 -6 1q-2 2 -4 2l-104 56l-104 -56q-5 -3 -9 -3q-11 0 -18.5 10.5t-7.5 24.5z" />
    <glyph glyph-name="underscore" unicode="_" horiz-adv-x="324" 
d="M-32 -45q0 19 9.5 32t24.5 13h320q14 0 25 -13.5t11 -31.5q0 -19 -11 -31.5t-25 -12.5h-320q-15 0 -24.5 12.5t-9.5 31.5z" />
    <glyph glyph-name="grave" unicode="`" horiz-adv-x="184" 
d="M0 668q0 15 10 28t24 13q3 0 11 -2l124 -63q15 -8 15 -26q0 -15 -10 -28t-24 -13q-7 0 -13 3l-121 61q-16 7 -16 27z" />
    <glyph glyph-name="a" unicode="a" horiz-adv-x="460" 
d="M25 124q0 80 60 111.5t174 31.5h44v18q0 44 -24.5 76t-74.5 32q-43 0 -75.5 -15t-35.5 -15q-17 0 -27.5 16.5t-10.5 36.5q0 26 48.5 45t102.5 19q103 0 152.5 -55.5t49.5 -138.5v-251q0 -14 -14.5 -24.5t-36.5 -10.5q-20 0 -34 10.5t-14 24.5v35q-67 -78 -151 -78
q-58 0 -95.5 34t-37.5 98zM131 137q0 -32 18 -48.5t47 -16.5q38 0 72.5 32t34.5 68v37h-25q-45 0 -73.5 -4t-51 -21t-22.5 -47z" />
    <glyph glyph-name="b" unicode="b" horiz-adv-x="506" 
d="M56 35v687q0 15 14 24.5t37 9.5t38.5 -9.5t15.5 -24.5v-318q17 32 51 54t78 22q74 0 126.5 -58t52.5 -139v-92q0 -78 -53 -138.5t-123 -60.5q-45 0 -83 23t-55 55v-35q0 -13 -14.5 -24t-33.5 -11q-22 0 -36.5 11t-14.5 24zM161 168q0 -22 31.5 -52.5t70.5 -30.5
q41 0 71 32.5t30 73.5v92q0 40 -30.5 72t-71.5 32q-39 0 -70 -29t-31 -75v-115z" />
    <glyph glyph-name="c" unicode="c" horiz-adv-x="426" 
d="M39 191v90q0 89 52 144t155 55q65 0 109 -22.5t44 -50.5q0 -17 -12.5 -34t-29.5 -17q-5 0 -35.5 15.5t-67.5 15.5q-110 0 -110 -106v-90q0 -106 111 -106q38 0 68.5 16.5t36.5 16.5q20 0 32.5 -16t12.5 -34q0 -28 -46 -52t-112 -24q-104 0 -156 54.5t-52 144.5z" />
    <glyph glyph-name="d" unicode="d" horiz-adv-x="507" 
d="M37 191v92q0 81 52.5 139t126.5 58q44 0 78 -22t52 -54v318q0 15 15 24.5t38 9.5t37.5 -9.5t14.5 -24.5v-687q0 -13 -15 -24t-37 -11q-19 0 -33.5 11t-14.5 24v35q-16 -32 -54.5 -55t-83.5 -23q-70 0 -123 60.5t-53 138.5zM142 191q0 -41 30 -73.5t71 -32.5q39 0 71 30.5
t32 52.5v115q0 46 -31 75t-71 29q-41 0 -71.5 -32t-30.5 -72v-92z" />
    <glyph glyph-name="e" unicode="e" horiz-adv-x="474" 
d="M37 191v95q0 79 61 136.5t147 57.5q82 0 140.5 -52.5t58.5 -132.5q0 -30 -7 -48.5t-22 -26t-28 -9.5t-34 -2h-211v-23q0 -50 36 -79.5t94 -29.5q41 0 77.5 19t44.5 19q17 0 29 -16t12 -31q0 -25 -48 -50.5t-118 -25.5q-102 0 -167 55t-65 144zM142 274h166q22 0 29.5 6
t7.5 24q0 40 -29 68t-72 28q-42 0 -72 -26.5t-30 -67.5v-32z" />
    <glyph glyph-name="f" unicode="f" horiz-adv-x="328" 
d="M56 34v531q0 80 52 135.5t125 55.5h46q19 0 30 -13.5t11 -31.5t-11 -31.5t-30 -13.5h-26q-40 0 -66 -26t-26 -65v-101h130q13 0 21 -11.5t8 -27.5t-8 -27.5t-21 -11.5h-130v-362q0 -15 -16 -24.5t-38 -9.5t-36.5 9.5t-14.5 24.5z" />
    <glyph glyph-name="g" unicode="g" horiz-adv-x="463" 
d="M19 -87q0 70 77 107q-47 20 -47 66q0 44 50 76q-59 46 -59 126v28q0 72 51.5 118t134.5 46q70 0 116 -34q29 67 65 67q19 0 31 -11.5t12 -24.5q0 -16 -17 -25q-32 -14 -50 -40q32 -40 32 -96v-28q0 -72 -53 -119t-136 -47q-39 0 -69 12q-19 -13 -19 -28q0 -20 31.5 -29
t76 -14t89 -14.5t76 -40.5t31.5 -82q0 -75 -59.5 -113t-150.5 -38t-152 37.5t-61 100.5zM118 -76q0 -36 31.5 -57.5t81.5 -21.5q49 0 79 21t30 57q0 23 -14 38.5t-41.5 23t-47 10t-52.5 4.5q-67 -25 -67 -75zM142 289q0 -44 23 -72t63 -28q39 0 62 27.5t23 71.5v28
q0 42 -23 69.5t-63 27.5q-39 0 -62 -27.5t-23 -69.5v-27z" />
    <glyph glyph-name="h" unicode="h" horiz-adv-x="514" 
d="M56 35v687q0 15 14.5 24.5t37.5 9.5q22 0 37.5 -9.5t15.5 -24.5v-318q16 32 49.5 54t78.5 22q71 0 122.5 -58t51.5 -139v-248q0 -16 -16 -25.5t-37 -9.5q-20 0 -36 9.5t-16 25.5v248q0 40 -30 72t-71 32q-38 0 -67 -28.5t-29 -75.5v-248q0 -13 -16 -24t-37 -11
q-22 0 -37 11t-15 24z" />
    <glyph glyph-name="i" unicode="i" 
d="M46 648q0 23 18 39t43 16t43 -16t18 -39q0 -22 -18 -38.5t-43 -16.5t-43 16.5t-18 38.5zM55 35v405q0 15 14.5 24.5t37.5 9.5t38 -9.5t15 -24.5v-405q0 -13 -15.5 -24t-37.5 -11t-37 11t-15 24z" />
    <glyph glyph-name="j" unicode="j" 
d="M-38 -181q0 20 12 33t29 13q32 0 42 24.5t10 74.5v476q0 15 14.5 24.5t37.5 9.5t38 -9.5t15 -24.5v-476q0 -87 -36 -138t-107 -51q-55 0 -55 44zM46 648q0 23 18 39t43 16t43 -16t18 -39q0 -22 -18 -38.5t-43 -16.5t-43 16.5t-18 38.5z" />
    <glyph glyph-name="k" unicode="k" horiz-adv-x="480" 
d="M56 35v687q0 15 14 24.5t37 9.5t38.5 -9.5t15.5 -24.5v-445l209 192q9 9 22 9q17 0 34 -16t17 -34q0 -13 -9 -22l-129 -115l157 -226q6 -9 6 -18q0 -18 -20 -35.5t-39 -17.5q-17 0 -28 15l-147 217l-73 -66v-125q0 -13 -16 -24t-38 -11t-36.5 11t-14.5 24z" />
    <glyph glyph-name="l" unicode="l" horiz-adv-x="233" 
d="M64 35v687q0 15 14.5 24.5t37.5 9.5q22 0 37.5 -9.5t15.5 -24.5v-687q0 -13 -16 -24t-37 -11q-22 0 -37 11t-15 24z" />
    <glyph glyph-name="m" unicode="m" horiz-adv-x="794" 
d="M55 35v405q0 15 14.5 24.5t37.5 9.5q19 0 33 -9.5t14 -24.5v-36q43 76 133 76q44 0 78.5 -27.5t52.5 -72.5q25 49 65.5 74.5t85.5 25.5q71 0 122.5 -53.5t51.5 -143.5v-248q0 -13 -16 -24t-37 -11q-20 0 -36 11t-16 24v248q0 49 -28 77t-65 28t-65.5 -28t-28.5 -75v-251
q0 -17 -15.5 -25.5t-37.5 -8.5q-20 0 -36 8.5t-16 25.5v250q0 45 -27.5 74t-65.5 29t-65.5 -28t-27.5 -76v-248q0 -13 -16 -24t-37 -11q-22 0 -37 11t-15 24z" />
    <glyph glyph-name="n" unicode="n" horiz-adv-x="513" 
d="M55 35v405q0 15 14.5 24.5t37.5 9.5q20 0 33.5 -9.5t13.5 -24.5v-36q16 32 51.5 54t82.5 22q71 0 122.5 -58t51.5 -139v-248q0 -16 -15.5 -25.5t-37.5 -9.5q-20 0 -36 9.5t-16 25.5v248q0 40 -30 72t-71 32q-38 0 -67 -28.5t-29 -75.5v-248q0 -13 -16 -24t-37 -11
q-22 0 -37 11t-15 24z" />
    <glyph glyph-name="o" unicode="o" horiz-adv-x="487" 
d="M36 191v92q0 79 61 138t146 59q83 0 145 -58.5t62 -138.5v-92q0 -78 -62.5 -138.5t-144.5 -60.5q-83 0 -145 60t-62 139zM141 191q0 -41 30 -73.5t72 -32.5q41 0 71.5 32.5t30.5 73.5v92q0 40 -30.5 72t-71.5 32q-42 0 -72 -32t-30 -72v-92z" />
    <glyph glyph-name="p" unicode="p" horiz-adv-x="506" 
d="M56 -190v630q0 15 14.5 24.5t35.5 9.5t35 -9.5t14 -24.5v-36q18 32 53.5 54t80.5 22q75 0 127.5 -58t52.5 -139v-92q0 -78 -53 -138.5t-123 -60.5q-43 0 -79.5 23t-52.5 55v-260q0 -14 -16 -24.5t-38 -10.5t-36.5 10.5t-14.5 24.5zM161 168q0 -22 30.5 -52.5t70.5 -30.5
t71 32.5t31 73.5v92q0 40 -31 72t-73 32q-39 0 -69 -28.5t-30 -75.5v-115z" />
    <glyph glyph-name="q" unicode="q" horiz-adv-x="507" 
d="M37 191v92q0 81 52.5 139t127.5 58q46 0 81 -22t53 -54v36q0 15 14 24.5t35 9.5t36 -9.5t15 -24.5v-630q0 -14 -15 -24.5t-37 -10.5t-37.5 10.5t-15.5 24.5v260q-17 -32 -53.5 -55t-79.5 -23q-70 0 -123 60.5t-53 138.5zM142 191q0 -41 31 -73.5t71 -32.5t71 30.5
t31 52.5v115q0 46 -30.5 75t-69.5 29q-42 0 -73 -32t-31 -72v-92z" />
    <glyph glyph-name="r" unicode="r" horiz-adv-x="360" 
d="M55 35v405q0 15 14.5 24.5t36.5 9.5q20 0 34 -9.5t14 -24.5v-44q17 35 51.5 59.5t75.5 24.5h32q16 0 28 -13.5t12 -32.5t-12 -33t-28 -14h-32q-48 0 -84.5 -41t-36.5 -106v-205q0 -13 -16 -24t-38 -11t-36.5 11t-14.5 24z" />
    <glyph glyph-name="s" unicode="s" horiz-adv-x="404" 
d="M27 72q0 15 10.5 31t25.5 16q9 0 25 -11.5t43 -23t65 -11.5q85 0 85 54q0 29 -25 45.5t-60.5 26t-70.5 21.5t-60 41t-25 75q0 59 42 101.5t129 42.5q57 0 103.5 -17.5t46.5 -41.5q0 -14 -11.5 -32.5t-28.5 -18.5q-6 0 -41 14.5t-67 14.5q-40 0 -60.5 -18t-20.5 -40
q0 -24 25 -38t61 -23t71.5 -22t60.5 -45t25 -82q0 -65 -46 -102t-130 -37q-71 0 -121.5 25t-50.5 55z" />
    <glyph glyph-name="t" unicode="t" horiz-adv-x="329" 
d="M54 156v501q0 14 16 24t36 10t36.5 -10t16.5 -24v-183h122q13 0 21 -11.5t8 -27.5t-8 -27.5t-21 -11.5h-122v-240q0 -36 15.5 -51t54.5 -15h35q21 0 33 -13t12 -32t-12 -32t-33 -13h-35q-175 0 -175 156z" />
    <glyph glyph-name="u" unicode="u" horiz-adv-x="515" 
d="M51 189v250q0 14 16 24.5t37 10.5t36.5 -10.5t15.5 -24.5v-250q0 -40 30.5 -72t71.5 -32q42 0 72 31.5t30 72.5v251q0 14 15.5 24t37.5 10t36.5 -10t14.5 -24v-251q0 -79 -61 -138t-145 -59t-145.5 59t-61.5 138z" />
    <glyph glyph-name="v" unicode="v" horiz-adv-x="459" 
d="M9 433q0 18 23 31.5t46 13.5q25 0 32 -19l119 -316l119 314q8 21 32 21q19 0 44 -14t25 -31q0 -7 -4 -17l-168 -405q-9 -21 -48 -21t-48 21l-167 405q-5 10 -5 17z" />
    <glyph glyph-name="w" unicode="w" horiz-adv-x="684" 
d="M10 434q0 18 22 31t45 13q25 0 32 -19l111 -311l85 276q7 23 37 23t37 -23l84 -278l112 313q6 19 31 19q22 0 44.5 -13t22.5 -32q0 -8 -4 -16l-155 -406q-8 -21 -42 -21t-43 20l-87 258l-86 -255q-9 -23 -45 -23q-33 0 -42 23l-155 404q-4 12 -4 17z" />
    <glyph glyph-name="x" unicode="x" horiz-adv-x="444" 
d="M20 44q0 10 7 19l124 178l-118 168q-7 9 -7 18q0 18 23.5 35.5t45.5 17.5q18 0 25 -12l102 -160l102 159q8 13 26 13q20 0 44 -17.5t24 -35.5q0 -8 -7 -18l-119 -169l125 -177q7 -9 7 -19q0 -17 -23 -34.5t-44 -17.5q-19 0 -27 12l-108 165l-108 -165q-9 -12 -28 -12
t-42.5 17t-23.5 35z" />
    <glyph glyph-name="y" unicode="y" horiz-adv-x="457" 
d="M10 -180q0 45 29 45q45 0 89 43t54 121l-168 388q-4 5 -4 14q0 19 23 34.5t46 15.5q25 0 32 -19l126 -325l108 325q9 19 30 19t45.5 -15.5t24.5 -36.5q0 -9 -2 -12l-148 -391l-17 -45q-6 -14 -18.5 -43t-21.5 -44l-24 -37q-15 -23 -30 -34.5t-34 -24t-42 -18t-49 -5.5
q-49 0 -49 45z" />
    <glyph glyph-name="z" unicode="z" horiz-adv-x="425" 
d="M23 38q0 17 18 42l214 307h-190q-13 0 -23 13t-10 31t9 30.5t24 12.5h289q15 0 25.5 -9.5t10.5 -27.5q0 -21 -16 -43l-215 -307h212q14 0 24 -12.5t10 -31.5q0 -18 -9.5 -30.5t-24.5 -12.5h-311q-18 0 -27.5 11.5t-9.5 26.5z" />
    <glyph glyph-name="braceleft" unicode="{" horiz-adv-x="343" 
d="M25 386q0 18 9.5 27.5t20.5 11t20.5 7t9.5 17.5q0 9 -9 71t-9 79q0 66 62 117.5t139 51.5q30 0 44 -13.5t14 -33.5q0 -17 -9.5 -30.5t-25.5 -13.5q-43 0 -80.5 -25.5t-37.5 -66.5q0 -14 9 -75.5t9 -71.5q0 -18 -12.5 -34t-23.5 -20q11 -3 23.5 -18.5t12.5 -34.5
q0 -12 -9 -90t-9 -92q0 -29 22.5 -47.5t47 -24.5t48.5 -6q18 0 26.5 -14.5t8.5 -30.5q0 -46 -59 -46q-79 0 -139.5 45t-60.5 113q0 19 9 96t9 86q0 12 -9.5 18.5t-20.5 8t-20.5 11t-9.5 28.5z" />
    <glyph glyph-name="bar" unicode="|" horiz-adv-x="226" 
d="M60 14v720q0 15 15 24.5t38 9.5q22 0 37.5 -9.5t15.5 -24.5v-720q0 -14 -16 -24.5t-37 -10.5q-23 0 -38 10.5t-15 24.5z" />
    <glyph glyph-name="braceright" unicode="}" horiz-adv-x="343" 
d="M17 26q0 16 8.5 30.5t26.5 14.5q24 0 48.5 6t47 24.5t22.5 47.5q0 14 -9 92t-9 90q0 19 12.5 34.5t23.5 18.5q-11 4 -23.5 20t-12.5 34q0 10 9 71.5t9 75.5q0 41 -37.5 66.5t-80.5 25.5q-16 0 -25.5 13.5t-9.5 30.5q0 20 14 33.5t44 13.5q77 0 139 -51.5t62 -117.5
q0 -17 -9 -79t-9 -71q0 -12 9.5 -17.5t20.5 -7t20.5 -11t9.5 -27.5q0 -19 -9.5 -28.5t-20.5 -11t-20.5 -8t-9.5 -18.5q0 -9 9 -86t9 -96q0 -68 -60.5 -113t-139.5 -45q-59 0 -59 46z" />
    <glyph glyph-name="asciitilde" unicode="~" horiz-adv-x="408" 
d="M39 245q0 34 29 49t58 15q28 0 69.5 -15.5t68.5 -15.5q24 0 47 12.5t30 12.5q14 0 21 -12t7 -22q0 -36 -28 -50t-57 -14q-32 0 -73 15.5t-66 15.5q-24 0 -47.5 -13.5t-30.5 -13.5q-14 0 -21 12.5t-7 23.5z" />
    <glyph glyph-name="uni00A0" unicode="&#xa0;" horiz-adv-x="200" 
 />
    <glyph glyph-name="exclamdown" unicode="&#xa1;" horiz-adv-x="210" 
d="M45 678q0 24 17.5 42t41.5 18q25 0 42.5 -18t17.5 -42q0 -25 -17.5 -42.5t-42.5 -17.5q-24 0 -41.5 17.5t-17.5 42.5zM52 42q0 73 6.5 235.5t6.5 234.5q0 15 12.5 23.5t27.5 8.5q17 0 29 -8t12 -24q0 -72 6 -234.5t6 -235.5q0 -23 -15 -35.5t-38 -12.5t-38 13t-15 35z
" />
    <glyph glyph-name="cent" unicode="&#xa2;" horiz-adv-x="423" 
d="M27 359v19q0 81 43 134.5t129 63.5v88q0 13 9.5 22t23.5 9q13 0 23 -9t10 -22v-89q53 -5 89 -25t36 -45q0 -17 -12.5 -33t-30.5 -16q-5 0 -29 13.5t-53 16.5v-234q28 3 52 17.5t30 14.5q20 0 33 -15.5t13 -33.5q0 -24 -38 -45.5t-90 -27.5v-91q0 -12 -10 -22t-23 -10
q-14 0 -23.5 10t-9.5 22v91q-86 9 -129 62.5t-43 134.5zM120 359q0 -89 79 -107v234q-79 -19 -79 -108v-19z" />
    <glyph glyph-name="sterling" unicode="&#xa3;" horiz-adv-x="521" 
d="M22 47q0 19 9 33t25 14h56l37 272h-63q-14 0 -21.5 11.5t-7.5 28.5q0 15 8 27t21 12h75l17 119q13 87 83 145.5t158 58.5h30q17 0 27 -14t10 -33q0 -18 -10 -32t-27 -14h-35q-54 0 -89 -32t-42 -79l-17 -119h130q13 0 21 -12t8 -27q0 -16 -7.5 -28t-21.5 -12h-142
l-38 -272h237q16 0 24.5 -14t8.5 -33t-8.5 -33t-24.5 -14h-397q-16 0 -25 14t-9 33z" />
    <glyph glyph-name="currency" unicode="&#xa4;" horiz-adv-x="461" 
d="M53 327q0 7 6 13l29 28q-34 46 -34 104t34 104l-26 25q-6 6 -6 13q0 10 7.5 17.5t17.5 7.5q8 0 14 -5l24 -24q48 42 112 42q59 0 109 -39l26 24q5 5 14 5q10 0 17.5 -8t7.5 -17q0 -7 -6 -13l-27 -26q37 -47 37 -105q0 -59 -37 -107l27 -26q6 -6 6 -13q0 -9 -7.5 -17
t-17.5 -8q-8 0 -13 5l-27 24q-49 -41 -109 -41q-63 0 -112 43l-28 -26q-5 -5 -13 -5q-10 0 -17.5 8t-7.5 17zM116 472q0 -47 34 -83t81 -36t81.5 36t34.5 82t-34 82t-82 36q-47 0 -81 -35.5t-34 -81.5z" />
    <glyph glyph-name="yen" unicode="&#xa5;" horiz-adv-x="541" 
d="M22 691q0 16 20.5 30t41.5 14q19 0 32 -25l153 -291l156 291q13 25 32 25q21 0 41 -14t20 -30q0 -8 -3 -14l-170 -290h79q14 0 25 -11.5t11 -27.5t-11 -27t-25 -11h-103v-68h103q14 0 25 -11.5t11 -26.5q0 -17 -11 -27.5t-25 -10.5h-103v-131q0 -16 -15.5 -25.5
t-36.5 -9.5t-37 9.5t-16 25.5v131h-99q-16 0 -25.5 10t-9.5 27t9.5 28t25.5 11h99v68h-99q-16 0 -25.5 10t-9.5 27t9.5 28.5t25.5 11.5h75l-166 290q-4 5 -4 14z" />
    <glyph glyph-name="brokenbar" unicode="&#xa6;" horiz-adv-x="225" 
d="M60 14v258q0 15 15 25t37 10t37.5 -10t15.5 -25v-258q0 -14 -16 -24.5t-37 -10.5q-22 0 -37 10.5t-15 24.5zM60 475v259q0 15 14.5 24.5t37.5 9.5q22 0 37.5 -9.5t15.5 -24.5v-259q0 -13 -16 -24t-37 -11q-22 0 -37 11t-15 24z" />
    <glyph glyph-name="section" unicode="&#xa7;" horiz-adv-x="472" 
d="M43 99q0 43 46 43q45 0 45 -31q0 -35 20 -62.5t72 -27.5q48 0 73 24t25 66q0 37 -28 61t-68.5 39t-81 35t-68.5 62.5t-28 107.5v114q0 58 17.5 99.5t47 62.5t59.5 30t63 9q83 0 128.5 -48t45.5 -116q0 -44 -41 -44q-46 0 -46 38q0 32 -19 57.5t-64 25.5q-42 0 -67.5 -24
t-25.5 -70q0 -37 29 -61t70.5 -39t83 -35t70.5 -62.5t29 -107.5v-113q0 -105 -57.5 -152.5t-139.5 -47.5q-87 0 -138.5 50t-51.5 117zM139 398q0 -41 24 -68t54.5 -37.5t68.5 -26.5t56 -34v24q0 41 -24 68t-54.5 37.5t-68.5 26.5t-56 34v-24z" />
    <glyph glyph-name="dieresis" unicode="&#xa8;" horiz-adv-x="230" 
d="M0 630q0 19 13.5 32.5t32.5 13.5t31.5 -13.5t12.5 -32.5t-13 -33t-31 -14q-19 0 -32.5 14t-13.5 33zM140 630q0 19 13 32.5t32 13.5t32 -13.5t13 -32.5t-13 -33t-32 -14t-32 14t-13 33z" />
    <glyph glyph-name="copyright" unicode="&#xa9;" horiz-adv-x="702" 
d="M44 358q0 80 28.5 144.5t74.5 103t99.5 59t107.5 20.5t107 -20.5t97.5 -59t72 -102t27.5 -141.5q0 -80 -28.5 -144.5t-74.5 -103t-99.5 -59t-107.5 -20.5t-107 20.5t-97.5 59t-72 102t-27.5 141.5zM99 358q0 -118 68.5 -193t180.5 -75q113 0 184 75.5t71 196.5
q0 118 -68.5 193t-180.5 75q-113 0 -184 -75.5t-71 -196.5zM238 294v146q0 64 31.5 94t82.5 30q52 0 84.5 -28t32.5 -74q0 -19 -7 -25.5t-24 -6.5q-31 0 -32 21q-3 57 -52 57q-54 0 -54 -68v-146q0 -68 55 -68q16 0 27 5.5t15.5 17t6 18.5t2.5 20q1 21 31 21q17 0 24.5 -7
t7.5 -26q0 -47 -32.5 -76t-84.5 -29q-51 0 -82.5 30t-31.5 94z" />
    <glyph glyph-name="ordfeminine" unicode="&#xaa;" horiz-adv-x="326" 
d="M29 519q0 52 39.5 73t113.5 21h28v11q0 28 -15 48t-47 20q-29 0 -50 -10t-24 -10q-12 0 -19 11.5t-7 25.5q0 17 33 30.5t68 13.5q69 0 101.5 -37t32.5 -92v-162q0 -10 -10 -17.5t-26 -7.5q-13 0 -22.5 7.5t-9.5 17.5v21q-37 -41 -79 -48q-9 -2 -29 -2q-34 2 -56 24
t-22 62zM103 528q0 -40 40 -40q24 0 45.5 20t21.5 44v21h-23q-84 0 -84 -45z" />
    <glyph glyph-name="guillemotleft" unicode="&#xab;" horiz-adv-x="465" 
d="M28 276q0 11 18 42l79 148q8 14 32 14t43.5 -17t19.5 -35q0 -6 -3 -12l-74 -139l74 -139q3 -4 3 -11q0 -18 -19.5 -35.5t-44.5 -17.5q-24 0 -31 15l-79 147q-18 31 -18 40zM234 276q0 9 19 42l79 148q6 14 31 14q24 0 44 -17.5t20 -34.5q0 -6 -3 -12l-74 -139l74 -139
q3 -4 3 -11q0 -18 -20 -35.5t-45 -17.5q-22 0 -30 15l-79 147l-7 12q-5 7 -7 10.5t-3.5 8t-1.5 9.5z" />
    <glyph glyph-name="logicalnot" unicode="&#xac;" horiz-adv-x="491" 
d="M38 240q0 19 9.5 32t24.5 13h328q14 0 25 -13.5t11 -31.5v-142q0 -14 -15.5 -24.5t-37.5 -10.5t-37 10.5t-15 24.5v98h-259q-15 0 -24.5 12.5t-9.5 31.5z" />
    <glyph glyph-name="uni00AD" unicode="&#xad;" horiz-adv-x="472" 
d="M41 240q0 19 9.5 32t24.5 13h320q14 0 25 -13.5t11 -31.5q0 -19 -11 -31.5t-25 -12.5h-320q-15 0 -24.5 12.5t-9.5 31.5z" />
    <glyph glyph-name="registered" unicode="&#xae;" horiz-adv-x="702" 
d="M44 358q0 80 28.5 144.5t74.5 103t99.5 59t107.5 20.5t107 -20.5t97.5 -59t72 -102t27.5 -141.5q0 -80 -28.5 -144.5t-74.5 -103t-99.5 -59t-107.5 -20.5t-107 20.5t-97.5 59t-72 102t-27.5 141.5zM99 358q0 -118 68.5 -193t180.5 -75q113 0 184 75.5t71 196.5
q0 118 -68.5 193t-180.5 75q-113 0 -184 -75.5t-71 -196.5zM249 198v336q0 8 5.5 14t14.5 6h93q114 0 114 -107q0 -83 -66 -103l63 -130q1 -2 1 -7q0 -12 -10 -21.5t-22 -9.5t-21 17l-67 141h-46v-136q0 -21 -29 -21q-30 0 -30 21zM308 385h54q55 0 55 56q0 60 -55 60h-54
v-116z" />
    <glyph glyph-name="macron" unicode="&#xaf;" horiz-adv-x="278" 
d="M0 655q0 16 9.5 26.5t24.5 10.5h209q14 0 24.5 -11t10.5 -26t-10.5 -25t-24.5 -10h-209q-15 0 -24.5 9.5t-9.5 25.5z" />
    <glyph glyph-name="degree" unicode="&#xb0;" horiz-adv-x="407" 
d="M26 588q0 72 52.5 126t124.5 54q71 0 124.5 -53t53.5 -126t-53.5 -128t-124.5 -55t-124 55t-53 127zM88 588q0 -47 34 -83t81 -36t81.5 36t34.5 82t-34 82t-82 36q-47 0 -81 -35.5t-34 -81.5z" />
    <glyph glyph-name="plusminus" unicode="&#xb1;" horiz-adv-x="469" 
d="M40 85q0 19 9.5 32t24.5 13h320q14 0 24.5 -13.5t10.5 -31.5q0 -19 -10.5 -31.5t-24.5 -12.5h-320q-15 0 -24.5 12.5t-9.5 31.5zM40 362q0 20 9.5 32.5t24.5 12.5h116v110q0 13 13.5 24t31.5 11q19 0 31.5 -11t12.5 -24v-110h115q14 0 24.5 -13t10.5 -32t-10.5 -31
t-24.5 -12h-115v-111q0 -15 -12.5 -24.5t-31.5 -9.5t-32 9.5t-13 24.5v111h-116q-15 0 -24.5 12t-9.5 31z" />
    <glyph glyph-name="uni00B2" unicode="&#xb2;" horiz-adv-x="317" 
d="M28 363v52q0 28 29.5 57t64.5 49.5t64.5 47t29.5 51.5q0 18 -14 31.5t-42 13.5q-53 0 -53 -45q0 -10 -11 -18.5t-28 -8.5q-32 0 -32 38q0 45 36.5 72.5t86.5 27.5q53 0 91.5 -30t38.5 -79q0 -38 -29 -71.5t-64 -53t-64 -41t-29 -38.5v-14h164q9 0 16 -9.5t7 -22.5
q0 -12 -7 -22t-16 -10h-207q-11 0 -21.5 6.5t-10.5 16.5z" />
    <glyph glyph-name="uni00B3" unicode="&#xb3;" horiz-adv-x="324" 
d="M24 435q0 16 7.5 22t26.5 6q22 0 29.5 -6t7.5 -19q0 -37 63 -37q34 0 49.5 13t15.5 42v10q0 49 -66 49q-23 0 -23 28t23 29q27 1 41 11t14 40q0 46 -53 46q-54 0 -54 -35q0 -27 -34 -27q-24 0 -31 6t-7 24q0 36 30 65t96 29q122 0 122 -96q0 -68 -46 -89q60 -21 60 -80
v-10q0 -62 -38 -90.5t-101 -28.5q-64 0 -98 30t-34 68z" />
    <glyph glyph-name="acute" unicode="&#xb4;" horiz-adv-x="184" 
d="M0 618q0 18 15 26l124 63q8 2 11 2q14 0 24 -13t10 -28q0 -20 -16 -27l-121 -61q-6 -3 -12 -3q-14 0 -24.5 13t-10.5 28z" />
    <glyph glyph-name="uni00B5" unicode="&#xb5;" horiz-adv-x="508" 
d="M62 -190v629q0 14 16 24.5t37 10.5t36.5 -10.5t15.5 -24.5v-260q0 -32 32 -63t71 -31t68.5 32t29.5 72v250q0 15 16 25t37 10q22 0 37 -10t15 -25v-250q0 -80 -60 -138.5t-144 -58.5q-67 0 -113 48v-230q0 -14 -12.5 -24.5t-29.5 -10.5q-22 0 -37 10.5t-15 24.5z" />
    <glyph glyph-name="paragraph" unicode="&#xb6;" horiz-adv-x="541" 
d="M25 513v12q0 107 53.5 156.5t142.5 49.5h218q14 0 24.5 -9.5t10.5 -25.5v-662q0 -17 -10.5 -25.5t-24.5 -8.5q-15 0 -25.5 8.5t-10.5 25.5v644h-81v-643q0 -16 -10.5 -25.5t-24.5 -9.5q-15 0 -25.5 9.5t-10.5 25.5v271h-30q-89 0 -142.5 50t-53.5 157z" />
    <glyph glyph-name="periodcentered" unicode="&#xb7;" horiz-adv-x="197" 
d="M36 300q0 23 18 39.5t45 16.5q25 0 43.5 -16.5t18.5 -39.5t-18.5 -40t-43.5 -17q-27 0 -45 17t-18 40z" />
    <glyph glyph-name="cedilla" unicode="&#xb8;" horiz-adv-x="181" 
d="M0 -186q0 8 5.5 20t14.5 12q2 0 20 -7t37 -7q50 0 50 36q0 33 -54 38l-48 5l26 98h51l-18 -64q48 -1 72.5 -22.5t24.5 -52.5q0 -32 -24.5 -58t-74.5 -26q-28 0 -55 7.5t-27 20.5z" />
    <glyph glyph-name="uni00B9" unicode="&#xb9;" horiz-adv-x="184" 
d="M11 654q0 18 13 26l68 47q7 5 16 5q12 0 22 -6.5t10 -16.5v-346q0 -23 -36 -23q-37 0 -37 23v282l-19 -15q-7 -4 -13 -4q-10 0 -17 8.5t-7 19.5z" />
    <glyph glyph-name="ordmasculine" unicode="&#xba;" horiz-adv-x="339" 
d="M32 563v59q0 53 40 92t97 39q56 0 97 -38.5t41 -92.5v-59q0 -52 -41.5 -91.5t-96.5 -39.5t-96 39.5t-41 91.5zM105 563q0 -26 19 -46t45 -20t45 20t19 46v59q0 25 -19 45t-45 20t-45 -20t-19 -45v-59z" />
    <glyph glyph-name="guillemotright" unicode="&#xbb;" horiz-adv-x="465" 
d="M38 127q0 7 3 11l74 139l-74 139q-3 6 -3 12q0 18 19.5 35t43.5 17t32 -14l79 -148q18 -31 18 -42q0 -9 -18 -40l-79 -147q-7 -15 -31 -15q-25 0 -44.5 17.5t-19.5 35.5zM244 127q0 7 3 11l75 139l-75 139q-3 6 -3 12q0 17 20 34.5t44 17.5t32 -14l79 -148q18 -34 18 -42
q0 -6 -2 -11t-7 -15l-9 -14l-79 -147q-9 -15 -31 -15q-25 0 -45 17.5t-20 35.5z" />
    <glyph glyph-name="onequarter" unicode="&#xbc;" horiz-adv-x="641" 
d="M27 654q0 18 13 26l68 47q7 5 16 5q12 0 22 -6.5t10 -16.5v-346q0 -23 -36 -23q-37 0 -37 23v282l-19 -15q-7 -4 -13 -4q-10 0 -17 8.5t-7 19.5zM74 2q0 8 4 15l367 735q8 18 30 18q16 0 29 -11t13 -27q0 -8 -3 -16l-367 -732q-9 -19 -34 -19q-17 0 -28 11.5t-11 25.5z
M331 110q0 7 4 14l139 248q10 19 31 19q11 0 23.5 -8t12.5 -19q0 -6 -3 -10l-114 -202h73v52q0 23 36 23q37 0 37 -23v-52h27q23 0 23 -34q0 -12 -7 -22.5t-16 -10.5h-27v-62q0 -23 -37 -23q-36 0 -36 23v62h-141q-25 0 -25 25z" />
    <glyph glyph-name="onehalf" unicode="&#xbd;" horiz-adv-x="638" 
d="M24 654q0 18 13 26l68 47q7 5 16 5q12 0 22 -6.5t10 -16.5v-346q0 -23 -36 -23q-37 0 -37 23v282l-19 -15q-7 -4 -13 -4q-10 0 -17 8.5t-7 19.5zM55 2q0 8 4 15l367 735q8 18 30 18q16 0 29 -11t13 -27q0 -8 -3 -16l-367 -732q-10 -19 -34 -19q-17 0 -28 11.5t-11 25.5z
M348 23v52q0 28 29.5 57t64.5 49.5t64.5 47t29.5 51.5q0 18 -14 31.5t-42 13.5q-53 0 -53 -45q0 -10 -11 -18.5t-28 -8.5q-32 0 -32 38q0 45 36.5 72.5t86.5 27.5q53 0 91.5 -30t38.5 -79q0 -38 -29 -71.5t-64 -53t-64 -41t-29 -38.5v-14h164q9 0 16 -9.5t7 -22.5
q0 -12 -7 -22t-16 -10h-207q-11 0 -21.5 6.5t-10.5 16.5z" />
    <glyph glyph-name="threequarters" unicode="&#xbe;" horiz-adv-x="774" 
d="M29 435q0 16 7.5 22t26.5 6q22 0 29.5 -6t7.5 -19q0 -37 63 -37q34 0 49.5 13t15.5 42v10q0 49 -66 49q-23 0 -23 28t23 29q27 1 41 11t14 40q0 46 -53 46q-54 0 -54 -35q0 -27 -34 -27q-24 0 -31 6t-7 24q0 36 30 65t96 29q122 0 122 -96q0 -68 -46 -89q60 -21 60 -80
v-10q0 -62 -38 -90.5t-101 -28.5q-64 0 -98 30t-34 68zM201 2q0 8 4 15l367 735q8 18 30 18q16 0 29 -11t13 -27q0 -8 -3 -16l-367 -732q-10 -19 -34 -19q-17 0 -28 11.5t-11 25.5zM464 110q0 7 4 14l139 248q10 19 31 19q11 0 23.5 -8t12.5 -19q0 -6 -3 -10l-114 -202h73
v52q0 23 36 23q37 0 37 -23v-52h27q23 0 23 -34q0 -12 -7 -22.5t-16 -10.5h-27v-62q0 -23 -37 -23q-36 0 -36 23v62h-141q-25 0 -25 25z" />
    <glyph glyph-name="questiondown" unicode="&#xbf;" horiz-adv-x="421" 
d="M27 166q0 31 9 59.5t26 52t30.5 39t34 34t24.5 22.5q30 27 37 55t7 85q0 31 41 31q21 0 30 -10t9 -36q0 -68 -14.5 -103.5t-39.5 -60.5q-7 -7 -31 -28t-37 -35t-25.5 -40t-12.5 -55q0 -48 30.5 -74.5t84.5 -26.5q32 0 54 9.5t31 21.5t20 21.5t23 9.5q15 0 28 -11t13 -30
q0 -36 -48.5 -69t-124.5 -33q-92 0 -145.5 48.5t-53.5 123.5zM176 678q0 24 17.5 42t41.5 18q25 0 42.5 -18t17.5 -42q0 -25 -17.5 -42.5t-42.5 -17.5q-24 0 -41.5 17.5t-17.5 42.5z" />
    <glyph glyph-name="Agrave" unicode="&#xc0;" horiz-adv-x="562" 
d="M14 44q0 6 1 9l199 648q12 36 67 36q56 0 68 -36l198 -648q2 -6 2 -9q0 -18 -21.5 -31t-45.5 -13q-29 0 -36 22l-41 142h-247l-41 -142q-7 -22 -37 -22q-24 0 -45 13t-21 31zM178 915q0 15 10 28t24 13q3 0 11 -2l124 -63q15 -8 15 -26q0 -15 -10 -28t-24 -13q-7 0 -13 3
l-121 61q-16 7 -16 27zM181 249h200l-100 343z" />
    <glyph glyph-name="Aacute" unicode="&#xc1;" horiz-adv-x="562" 
d="M14 44q0 6 1 9l199 648q12 36 67 36q56 0 68 -36l198 -648q2 -6 2 -9q0 -18 -21.5 -31t-45.5 -13q-29 0 -36 22l-41 142h-247l-41 -142q-7 -22 -37 -22q-24 0 -45 13t-21 31zM181 249h200l-100 343zM210 865q0 18 15 26l124 63q8 2 11 2q14 0 24 -13t10 -28
q0 -20 -16 -27l-121 -61q-6 -3 -12 -3q-14 0 -24.5 13t-10.5 28z" />
    <glyph glyph-name="Acircumflex" unicode="&#xc2;" horiz-adv-x="562" 
d="M14 44q0 6 1 9l199 648q12 36 67 36q56 0 68 -36l198 -648q2 -6 2 -9q0 -18 -21.5 -31t-45.5 -13q-29 0 -36 22l-41 142h-247l-41 -142q-7 -22 -37 -22q-24 0 -45 13t-21 31zM141 864q0 21 18 31l104 56q10 5 17 5q9 0 17 -5l104 -55q19 -12 19 -33q0 -13 -7.5 -23.5
t-18.5 -10.5q-2 0 -6 1q-2 2 -4 2l-104 56l-104 -56q-4 -3 -9 -3q-11 0 -18.5 10.5t-7.5 24.5zM181 249h200l-100 343z" />
    <glyph glyph-name="Atilde" unicode="&#xc3;" horiz-adv-x="562" 
d="M14 44q0 6 1 9l199 648q12 36 67 36q56 0 68 -36l198 -648q2 -6 2 -9q0 -18 -21.5 -31t-45.5 -13q-29 0 -36 22l-41 142h-247l-41 -142q-7 -22 -37 -22q-24 0 -45 13t-21 31zM116 883q0 34 29 49t58 15q28 0 69.5 -15.5t68.5 -15.5q24 0 47 12.5t30 12.5q14 0 21 -12
t7 -22q0 -36 -28 -50t-57 -14q-32 0 -73 15.5t-66 15.5q-24 0 -47.5 -13.5t-30.5 -13.5q-14 0 -21 12.5t-7 23.5zM181 249h200l-100 343z" />
    <glyph glyph-name="Adieresis" unicode="&#xc4;" horiz-adv-x="562" 
d="M14 44q0 6 1 9l199 648q12 36 67 36q56 0 68 -36l198 -648q2 -6 2 -9q0 -18 -21.5 -31t-45.5 -13q-29 0 -36 22l-41 142h-247l-41 -142q-7 -22 -37 -22q-24 0 -45 13t-21 31zM166 877q0 19 13.5 32.5t32.5 13.5t31.5 -13.5t12.5 -32.5t-13 -33t-31 -14q-19 0 -32.5 14
t-13.5 33zM181 249h200l-100 343zM306 877q0 19 13 32.5t32 13.5t32 -13.5t13 -32.5t-13 -33t-32 -14t-32 14t-13 33z" />
    <glyph glyph-name="Aring" unicode="&#xc5;" horiz-adv-x="562" 
d="M14 44q0 6 1 9l199 648q12 36 67 36q56 0 68 -36l198 -648q2 -6 2 -9q0 -18 -21.5 -31t-45.5 -13q-29 0 -36 22l-41 142h-247l-41 -142q-7 -22 -37 -22q-24 0 -45 13t-21 31zM181 249h200l-100 343zM185 919q0 38 28 67.5t67 29.5q38 0 67.5 -29.5t29.5 -67.5
q0 -39 -29.5 -69t-67.5 -30q-39 0 -67 30t-28 69zM229 918q0 -20 15.5 -37t36.5 -17q20 0 35 16.5t15 37.5q0 19 -15 34.5t-35 15.5q-21 0 -36.5 -15.5t-15.5 -34.5z" />
    <glyph glyph-name="AE" unicode="&#xc6;" horiz-adv-x="761" 
d="M63 40v468q0 115 60.5 169t159.5 54h423q17 0 26 -14t9 -32q0 -20 -9.5 -34t-25.5 -14h-230v-229h129q16 0 25.5 -12.5t9.5 -30.5q0 -16 -9 -28.5t-26 -12.5h-129v-230h230q16 0 25.5 -14t9.5 -34q0 -18 -9 -32t-26 -14h-289q-19 0 -33 9.5t-14 25.5v289h-207v-284
q0 -20 -10.5 -30t-42.5 -10q-47 0 -47 40zM163 408h207v229h-87q-120 0 -120 -129v-100z" />
    <glyph glyph-name="Ccedilla" unicode="&#xc7;" horiz-adv-x="540" 
d="M58 217v291q0 115 61.5 169t160.5 54q102 0 164.5 -50.5t62.5 -130.5q0 -32 -12 -43.5t-41 -11.5q-52 0 -53 35q-6 107 -117 107q-120 0 -120 -129v-291q0 -129 122 -129q36 0 60 10.5t34.5 30.5t14.5 35t6 37q3 35 52 35q29 0 41.5 -11.5t12.5 -43.5q0 -75 -52 -125.5
t-140 -59.5l-14 -51q48 -1 72.5 -22.5t24.5 -52.5q0 -32 -24.5 -58t-74.5 -26q-28 0 -55 7.5t-27 20.5q0 8 5.5 20t14.5 12q2 0 20 -7t37 -7q50 0 50 36q0 33 -54 38l-48 5l22 84q-93 4 -149.5 58t-56.5 164z" />
    <glyph glyph-name="Egrave" unicode="&#xc8;" horiz-adv-x="523" 
d="M66 35v661q0 16 14 25.5t33 9.5h356q17 0 26 -14t9 -32q0 -20 -9.5 -34t-25.5 -14h-297v-229h154q16 0 25.5 -12.5t9.5 -30.5q0 -16 -9 -28.5t-26 -12.5h-154v-230h297q16 0 25.5 -14t9.5 -34q0 -18 -9 -32t-26 -14h-356q-19 0 -33 9.5t-14 25.5zM189 915q0 15 10 28
t24 13q3 0 11 -2l124 -63q15 -8 15 -26q0 -15 -10 -28t-24 -13q-7 0 -13 3l-121 61q-16 7 -16 27z" />
    <glyph glyph-name="Eacute" unicode="&#xc9;" horiz-adv-x="523" 
d="M66 35v661q0 16 14 25.5t33 9.5h356q17 0 26 -14t9 -32q0 -20 -9.5 -34t-25.5 -14h-297v-229h154q16 0 25.5 -12.5t9.5 -30.5q0 -16 -9 -28.5t-26 -12.5h-154v-230h297q16 0 25.5 -14t9.5 -34q0 -18 -9 -32t-26 -14h-356q-19 0 -33 9.5t-14 25.5zM207 865q0 18 15 26
l124 63q8 2 11 2q14 0 24 -13t10 -28q0 -20 -16 -27l-121 -61q-6 -3 -12 -3q-14 0 -24.5 13t-10.5 28z" />
    <glyph glyph-name="Ecircumflex" unicode="&#xca;" horiz-adv-x="523" 
d="M66 35v661q0 16 14 25.5t33 9.5h356q17 0 26 -14t9 -32q0 -20 -9.5 -34t-25.5 -14h-297v-229h154q16 0 25.5 -12.5t9.5 -30.5q0 -16 -9 -28.5t-26 -12.5h-154v-230h297q16 0 25.5 -14t9.5 -34q0 -18 -9 -32t-26 -14h-356q-19 0 -33 9.5t-14 25.5zM151 864q0 21 18 31
l104 56q10 5 17 5q9 0 17 -5l104 -55q19 -12 19 -33q0 -13 -7.5 -23.5t-18.5 -10.5q-2 0 -6 1q-2 2 -4 2l-104 56l-104 -56q-4 -3 -9 -3q-11 0 -18.5 10.5t-7.5 24.5z" />
    <glyph glyph-name="Edieresis" unicode="&#xcb;" horiz-adv-x="523" 
d="M66 35v661q0 16 14 25.5t33 9.5h356q17 0 26 -14t9 -32q0 -20 -9.5 -34t-25.5 -14h-297v-229h154q16 0 25.5 -12.5t9.5 -30.5q0 -16 -9 -28.5t-26 -12.5h-154v-230h297q16 0 25.5 -14t9.5 -34q0 -18 -9 -32t-26 -14h-356q-19 0 -33 9.5t-14 25.5zM171 877q0 19 13.5 32.5
t32.5 13.5t31.5 -13.5t12.5 -32.5t-13 -33t-31 -14q-19 0 -32.5 14t-13.5 33zM311 877q0 19 13 32.5t32 13.5t32 -13.5t13 -32.5t-13 -33t-32 -14t-32 14t-13 33z" />
    <glyph glyph-name="Igrave" unicode="&#xcc;" horiz-adv-x="238" 
d="M22 915q0 15 10 28t24 13q3 0 11 -2l124 -63q15 -8 15 -26q0 -15 -10 -28t-24 -13q-7 0 -13 3l-121 61q-16 7 -16 27zM66 35v662q0 17 15.5 25.5t37.5 8.5t37.5 -8.5t15.5 -25.5v-662q0 -16 -15.5 -25.5t-37.5 -9.5q-21 0 -37 9.5t-16 25.5z" />
    <glyph glyph-name="Iacute" unicode="&#xcd;" horiz-adv-x="238" 
d="M32 865q0 18 15 26l124 63q8 2 11 2q14 0 24 -13t10 -28q0 -20 -16 -27l-121 -61q-6 -3 -12 -3q-14 0 -24.5 13t-10.5 28zM66 35v662q0 17 15.5 25.5t37.5 8.5t37.5 -8.5t15.5 -25.5v-662q0 -16 -15.5 -25.5t-37.5 -9.5q-21 0 -37 9.5t-16 25.5z" />
    <glyph glyph-name="Icircumflex" unicode="&#xce;" horiz-adv-x="238" 
d="M-19 864q0 21 18 31l104 56q10 5 17 5q9 0 17 -5l104 -55q19 -12 19 -33q0 -13 -7.5 -23.5t-18.5 -10.5q-2 0 -6 1q-2 2 -4 2l-104 56l-104 -56q-4 -3 -9 -3q-11 0 -18.5 10.5t-7.5 24.5zM66 35v662q0 17 15.5 25.5t37.5 8.5t37.5 -8.5t15.5 -25.5v-662
q0 -16 -15.5 -25.5t-37.5 -9.5q-21 0 -37 9.5t-16 25.5z" />
    <glyph glyph-name="Idieresis" unicode="&#xcf;" horiz-adv-x="238" 
d="M5 877q0 19 13.5 32.5t32.5 13.5t31.5 -13.5t12.5 -32.5t-13 -33t-31 -14q-19 0 -32.5 14t-13.5 33zM66 35v662q0 17 15.5 25.5t37.5 8.5t37.5 -8.5t15.5 -25.5v-662q0 -16 -15.5 -25.5t-37.5 -9.5q-21 0 -37 9.5t-16 25.5zM145 877q0 19 13 32.5t32 13.5t32 -13.5
t13 -32.5t-13 -33t-32 -14t-32 14t-13 33z" />
    <glyph glyph-name="Eth" unicode="&#xd0;" horiz-adv-x="581" 
d="M-4 383q0 16 8 27.5t21 11.5h49v275q0 14 13.5 24t33.5 10h177q102 0 163.5 -54t61.5 -169v-285q0 -115 -61.5 -169t-163.5 -54h-177q-20 0 -33.5 10t-13.5 24v310h-49q-13 0 -21 11.5t-8 27.5zM180 94h118q119 0 119 129v285q0 129 -119 129h-118v-215h91q14 0 22 -11.5
t8 -27.5t-8 -27.5t-22 -11.5h-91v-250z" />
    <glyph glyph-name="Ntilde" unicode="&#xd1;" horiz-adv-x="593" 
d="M66 35v661q0 35 53 35q28 0 45 -12.5t35 -47.5l222 -433v459q0 17 15.5 25.5t37.5 8.5t37.5 -8.5t15.5 -25.5v-662q0 -16 -15.5 -25.5t-37.5 -9.5q-42 0 -63 39l-239 455v-459q0 -16 -15.5 -25.5t-37.5 -9.5q-21 0 -37 9.5t-16 25.5zM126 883q0 34 29 49t58 15
q28 0 69.5 -15.5t68.5 -15.5q24 0 47 12.5t30 12.5q14 0 21 -12t7 -22q0 -36 -28 -50t-57 -14q-32 0 -73 15.5t-66 15.5q-24 0 -47.5 -13.5t-30.5 -13.5q-14 0 -21 12.5t-7 23.5z" />
    <glyph glyph-name="Ograve" unicode="&#xd2;" horiz-adv-x="566" 
d="M59 217v291q0 115 61 169t163 54t163.5 -54t61.5 -169v-291q0 -115 -61.5 -169t-163.5 -54t-163 54t-61 169zM165 217q0 -129 118 -129q57 0 88 32t31 97v291q0 65 -31 97t-88 32q-118 0 -118 -129v-291zM182 915q0 15 10 28t24 13q3 0 11 -2l124 -63q15 -8 15 -26
q0 -15 -10 -28t-24 -13q-7 0 -13 3l-121 61q-16 7 -16 27z" />
    <glyph glyph-name="Oacute" unicode="&#xd3;" horiz-adv-x="566" 
d="M59 217v291q0 115 61 169t163 54t163.5 -54t61.5 -169v-291q0 -115 -61.5 -169t-163.5 -54t-163 54t-61 169zM165 217q0 -129 118 -129q57 0 88 32t31 97v291q0 65 -31 97t-88 32q-118 0 -118 -129v-291zM217 865q0 18 15 26l124 63q8 2 11 2q14 0 24 -13t10 -28
q0 -20 -16 -27l-121 -61q-6 -3 -12 -3q-14 0 -24.5 13t-10.5 28z" />
    <glyph glyph-name="Ocircumflex" unicode="&#xd4;" horiz-adv-x="566" 
d="M59 217v291q0 115 61 169t163 54t163.5 -54t61.5 -169v-291q0 -115 -61.5 -169t-163.5 -54t-163 54t-61 169zM143 864q0 21 18 31l104 56q10 5 17 5q9 0 17 -5l104 -55q19 -12 19 -33q0 -13 -7.5 -23.5t-18.5 -10.5q-2 0 -6 1q-2 2 -4 2l-104 56l-104 -56q-4 -3 -9 -3
q-11 0 -18.5 10.5t-7.5 24.5zM165 217q0 -129 118 -129q57 0 88 32t31 97v291q0 65 -31 97t-88 32q-118 0 -118 -129v-291z" />
    <glyph glyph-name="Otilde" unicode="&#xd5;" horiz-adv-x="566" 
d="M59 217v291q0 115 61 169t163 54t163.5 -54t61.5 -169v-291q0 -115 -61.5 -169t-163.5 -54t-163 54t-61 169zM118 883q0 34 29 49t58 15q28 0 69.5 -15.5t68.5 -15.5q24 0 47 12.5t30 12.5q14 0 21 -12t7 -22q0 -36 -28 -50t-57 -14q-32 0 -73 15.5t-66 15.5
q-24 0 -47.5 -13.5t-30.5 -13.5q-14 0 -21 12.5t-7 23.5zM165 217q0 -129 118 -129q57 0 88 32t31 97v291q0 65 -31 97t-88 32q-118 0 -118 -129v-291z" />
    <glyph glyph-name="Odieresis" unicode="&#xd6;" horiz-adv-x="566" 
d="M59 217v291q0 115 61 169t163 54t163.5 -54t61.5 -169v-291q0 -115 -61.5 -169t-163.5 -54t-163 54t-61 169zM165 217q0 -129 118 -129q57 0 88 32t31 97v291q0 65 -31 97t-88 32q-118 0 -118 -129v-291zM169 877q0 19 13.5 32.5t32.5 13.5t31.5 -13.5t12.5 -32.5
t-13 -33t-31 -14q-19 0 -32.5 14t-13.5 33zM309 877q0 19 13 32.5t32 13.5t32 -13.5t13 -32.5t-13 -33t-32 -14t-32 14t-13 33z" />
    <glyph glyph-name="multiply" unicode="&#xd7;" horiz-adv-x="403" 
d="M48 171q0 11 9 22l88 82l-87 81q-9 9 -9 23q0 18 15 33.5t34 15.5q13 0 22 -9l81 -82l82 82q9 9 22 9q19 0 34 -15.5t15 -33.5q0 -13 -8 -23l-88 -81l88 -82q10 -10 10 -23q0 -17 -16 -33t-34 -16q-13 0 -22 9l-83 83l-82 -83q-9 -9 -22 -9q-17 0 -33 16t-16 34z" />
    <glyph glyph-name="Oslash" unicode="&#xd8;" horiz-adv-x="566" 
d="M59 217v291q0 115 61 169t163 54q75 0 127 -29l25 50q8 18 30 18q16 0 29 -11t13 -27q0 -9 -4 -16l-33 -66q38 -55 38 -142v-291q0 -115 -61.5 -169t-163.5 -54q-75 0 -128 28l-19 -38q-10 -19 -33 -19q-17 0 -28 11.5t-11 25.5q0 8 3 15l29 58q-37 56 -37 142zM165 212
l199 399q-31 26 -81 26q-118 0 -118 -129v-296zM201 114q29 -26 82 -26q57 0 88 32t31 97v297z" />
    <glyph glyph-name="Ugrave" unicode="&#xd9;" horiz-adv-x="583" 
d="M63 217v480q0 17 15.5 25.5t37.5 8.5t37.5 -8.5t15.5 -25.5v-480q0 -65 32 -97t90 -32q123 0 123 129v480q0 17 15.5 25.5t37.5 8.5t37.5 -8.5t15.5 -25.5v-480q0 -115 -62.5 -169t-166.5 -54q-103 0 -165.5 54t-62.5 169zM186 915q0 15 10 28t24 13q3 0 11 -2l124 -63
q15 -8 15 -26q0 -15 -10 -28t-24 -13q-7 0 -13 3l-121 61q-16 7 -16 27z" />
    <glyph glyph-name="Uacute" unicode="&#xda;" horiz-adv-x="583" 
d="M63 217v480q0 17 15.5 25.5t37.5 8.5t37.5 -8.5t15.5 -25.5v-480q0 -65 32 -97t90 -32q123 0 123 129v480q0 17 15.5 25.5t37.5 8.5t37.5 -8.5t15.5 -25.5v-480q0 -115 -62.5 -169t-166.5 -54q-103 0 -165.5 54t-62.5 169zM216 865q0 18 15 26l124 63q8 2 11 2
q14 0 24 -13t10 -28q0 -20 -16 -27l-121 -61q-6 -3 -12 -3q-14 0 -24.5 13t-10.5 28z" />
    <glyph glyph-name="Ucircumflex" unicode="&#xdb;" horiz-adv-x="583" 
d="M63 217v480q0 17 15.5 25.5t37.5 8.5t37.5 -8.5t15.5 -25.5v-480q0 -65 32 -97t90 -32q123 0 123 129v480q0 17 15.5 25.5t37.5 8.5t37.5 -8.5t15.5 -25.5v-480q0 -115 -62.5 -169t-166.5 -54q-103 0 -165.5 54t-62.5 169zM148 864q0 21 18 31l104 56q10 5 17 5
q9 0 17 -5l104 -55q19 -12 19 -33q0 -13 -7.5 -23.5t-18.5 -10.5q-2 0 -6 1q-2 2 -4 2l-104 56l-104 -56q-5 -3 -9 -3q-11 0 -18.5 10.5t-7.5 24.5z" />
    <glyph glyph-name="Udieresis" unicode="&#xdc;" horiz-adv-x="583" 
d="M63 217v480q0 17 15.5 25.5t37.5 8.5t37.5 -8.5t15.5 -25.5v-480q0 -65 32 -97t90 -32q123 0 123 129v480q0 17 15.5 25.5t37.5 8.5t37.5 -8.5t15.5 -25.5v-480q0 -115 -62.5 -169t-166.5 -54q-103 0 -165.5 54t-62.5 169zM176 877q0 19 13.5 32.5t32.5 13.5t31.5 -13.5
t12.5 -32.5t-13 -33t-31 -14q-19 0 -32.5 14t-13.5 33zM316 877q0 19 13 32.5t32 13.5t32 -13.5t13 -32.5t-13 -33t-32 -14t-32 14t-13 33z" />
    <glyph glyph-name="Yacute" unicode="&#xdd;" horiz-adv-x="558" 
d="M13 687q0 18 22 31t45 13q22 0 35 -24l165 -317l164 317q12 24 35 24t44.5 -13t21.5 -31q0 -9 -3 -15l-207 -373q-2 -6 -2 -11v-253q0 -16 -16 -25.5t-37 -9.5q-22 0 -37.5 9.5t-15.5 25.5v253q0 2 -3 11l-207 373q-4 8 -4 15zM199 865q0 18 15 26l124 63q8 2 11 2
q14 0 24 -13t10 -28q0 -20 -16 -27l-121 -61q-6 -3 -12 -3q-14 0 -24.5 13t-10.5 28z" />
    <glyph glyph-name="Thorn" unicode="&#xde;" horiz-adv-x="511" 
d="M66 35v672q0 15 14.5 24.5t36.5 9.5q24 0 39 -9.5t15 -25.5v-161q18 33 52.5 54.5t80.5 21.5q73 0 124.5 -52t51.5 -131v-121q0 -77 -52 -131t-119 -54q-45 0 -84 23t-54 56v-176q0 -13 -15.5 -24t-37.5 -11t-37 11t-15 24zM171 310q0 -28 31 -56t74 -28q39 0 69 25.5
t30 65.5v121q0 39 -30 64.5t-71 25.5q-42 0 -72.5 -25t-30.5 -65v-128z" />
    <glyph glyph-name="germandbls" unicode="&#xdf;" horiz-adv-x="581" 
d="M4 435q0 16 7.5 27.5t21.5 11.5h62v99q0 85 45.5 140t139.5 55q83 0 134.5 -46.5t51.5 -136.5q0 -54 -18.5 -100t-50.5 -62q57 -11 104.5 -68t47.5 -134v-15q0 -107 -60 -166.5t-146 -59.5q-102 0 -102 54q0 18 7.5 34t19.5 16q4 0 27 -7.5t45 -7.5q50 0 78.5 33.5
t28.5 95.5v15q0 65 -34.5 104.5t-98.5 50.5q-20 3 -28.5 11.5t-8.5 31.5q0 15 5.5 23.5t11.5 11t21 5.5q63 9 63 109q0 115 -91 115q-87 0 -87 -102v-539q0 -15 -16 -24.5t-38 -9.5t-36.5 9.5t-14.5 24.5v362h-62q-14 0 -21.5 11t-7.5 28z" />
    <glyph glyph-name="agrave" unicode="&#xe0;" horiz-adv-x="460" 
d="M25 124q0 80 60 111.5t174 31.5h44v18q0 44 -24.5 76t-74.5 32q-43 0 -75.5 -15t-35.5 -15q-17 0 -27.5 16.5t-10.5 36.5q0 26 48.5 45t102.5 19q103 0 152.5 -55.5t49.5 -138.5v-251q0 -14 -14.5 -24.5t-36.5 -10.5q-20 0 -34 10.5t-14 24.5v35q-67 -78 -151 -78
q-58 0 -95.5 34t-37.5 98zM127 668q0 15 10 28t24 13q3 0 11 -2l124 -63q15 -8 15 -26q0 -15 -10 -28t-24 -13q-7 0 -13 3l-121 61q-16 7 -16 27zM131 137q0 -32 18 -48.5t47 -16.5q38 0 72.5 32t34.5 68v37h-25q-45 0 -73.5 -4t-51 -21t-22.5 -47z" />
    <glyph glyph-name="aacute" unicode="&#xe1;" horiz-adv-x="460" 
d="M25 124q0 80 60 111.5t174 31.5h44v18q0 44 -24.5 76t-74.5 32q-43 0 -75.5 -15t-35.5 -15q-17 0 -27.5 16.5t-10.5 36.5q0 26 48.5 45t102.5 19q103 0 152.5 -55.5t49.5 -138.5v-251q0 -14 -14.5 -24.5t-36.5 -10.5q-20 0 -34 10.5t-14 24.5v35q-67 -78 -151 -78
q-58 0 -95.5 34t-37.5 98zM131 137q0 -32 18 -48.5t47 -16.5q38 0 72.5 32t34.5 68v37h-25q-45 0 -73.5 -4t-51 -21t-22.5 -47zM139 618q0 18 15 26l124 63q8 2 11 2q14 0 24 -13t10 -28q0 -20 -16 -27l-121 -61q-6 -3 -12 -3q-14 0 -24.5 13t-10.5 28z" />
    <glyph glyph-name="acircumflex" unicode="&#xe2;" horiz-adv-x="460" 
d="M25 124q0 80 60 111.5t174 31.5h44v18q0 44 -24.5 76t-74.5 32q-43 0 -75.5 -15t-35.5 -15q-17 0 -27.5 16.5t-10.5 36.5q0 26 48.5 45t102.5 19q103 0 152.5 -55.5t49.5 -138.5v-251q0 -14 -14.5 -24.5t-36.5 -10.5q-20 0 -34 10.5t-14 24.5v35q-67 -78 -151 -78
q-58 0 -95.5 34t-37.5 98zM76 617q0 21 18 31l104 56q10 5 17 5q9 0 17 -5l104 -55q19 -12 19 -33q0 -13 -7.5 -23.5t-18.5 -10.5q-2 0 -6 1q-2 2 -4 2l-104 56l-104 -56q-5 -3 -9 -3q-11 0 -18.5 10.5t-7.5 24.5zM131 137q0 -32 18 -48.5t47 -16.5q38 0 72.5 32t34.5 68v37
h-25q-45 0 -73.5 -4t-51 -21t-22.5 -47z" />
    <glyph glyph-name="atilde" unicode="&#xe3;" horiz-adv-x="460" 
d="M25 124q0 80 60 111.5t174 31.5h44v18q0 44 -24.5 76t-74.5 32q-43 0 -75.5 -15t-35.5 -15q-17 0 -27.5 16.5t-10.5 36.5q0 26 48.5 45t102.5 19q103 0 152.5 -55.5t49.5 -138.5v-251q0 -14 -14.5 -24.5t-36.5 -10.5q-20 0 -34 10.5t-14 24.5v35q-67 -78 -151 -78
q-58 0 -95.5 34t-37.5 98zM54 636q0 34 29 49t58 15q28 0 69.5 -15.5t68.5 -15.5q24 0 47 12.5t30 12.5q14 0 21 -12t7 -22q0 -36 -28 -50t-57 -14q-32 0 -73 15.5t-66 15.5q-24 0 -47.5 -13.5t-30.5 -13.5q-14 0 -21 12.5t-7 23.5zM131 137q0 -32 18 -48.5t47 -16.5
q38 0 72.5 32t34.5 68v37h-25q-45 0 -73.5 -4t-51 -21t-22.5 -47z" />
    <glyph glyph-name="adieresis" unicode="&#xe4;" horiz-adv-x="460" 
d="M25 124q0 80 60 111.5t174 31.5h44v18q0 44 -24.5 76t-74.5 32q-43 0 -75.5 -15t-35.5 -15q-17 0 -27.5 16.5t-10.5 36.5q0 26 48.5 45t102.5 19q103 0 152.5 -55.5t49.5 -138.5v-251q0 -14 -14.5 -24.5t-36.5 -10.5q-20 0 -34 10.5t-14 24.5v35q-67 -78 -151 -78
q-58 0 -95.5 34t-37.5 98zM103 630q0 19 13.5 32.5t32.5 13.5t31.5 -13.5t12.5 -32.5t-13 -33t-31 -14q-19 0 -32.5 14t-13.5 33zM131 137q0 -32 18 -48.5t47 -16.5q38 0 72.5 32t34.5 68v37h-25q-45 0 -73.5 -4t-51 -21t-22.5 -47zM243 630q0 19 13 32.5t32 13.5t32 -13.5
t13 -32.5t-13 -33t-32 -14t-32 14t-13 33z" />
    <glyph glyph-name="aring" unicode="&#xe5;" horiz-adv-x="460" 
d="M25 124q0 80 60 111.5t174 31.5h44v18q0 44 -24.5 76t-74.5 32q-43 0 -75.5 -15t-35.5 -15q-17 0 -27.5 16.5t-10.5 36.5q0 26 48.5 45t102.5 19q103 0 152.5 -55.5t49.5 -138.5v-251q0 -14 -14.5 -24.5t-36.5 -10.5q-20 0 -34 10.5t-14 24.5v35q-67 -78 -151 -78
q-58 0 -95.5 34t-37.5 98zM124 672q0 38 28 67.5t67 29.5q38 0 67.5 -29.5t29.5 -67.5q0 -39 -29.5 -69t-67.5 -30q-39 0 -67 30t-28 69zM131 137q0 -32 18 -48.5t47 -16.5q38 0 72.5 32t34.5 68v37h-25q-45 0 -73.5 -4t-51 -21t-22.5 -47zM168 671q0 -20 15.5 -37t36.5 -17
q20 0 35 16.5t15 37.5q0 19 -15 34.5t-35 15.5q-21 0 -36.5 -15.5t-15.5 -34.5z" />
    <glyph glyph-name="ae" unicode="&#xe6;" horiz-adv-x="740" 
d="M25 124q0 80 59.5 111.5t173.5 31.5h44v18q0 45 -24 77t-76 32q-42 0 -74.5 -15.5t-36.5 -15.5q-16 0 -26.5 17t-10.5 37q0 25 48.5 44.5t102.5 19.5q105 0 155 -84q59 83 151 83q80 0 139.5 -51t59.5 -140q0 -50 -21.5 -65t-69.5 -15h-210v-23q0 -50 35.5 -79.5
t92.5 -29.5q40 0 77.5 19t45.5 19q17 0 29 -15.5t12 -31.5q0 -27 -52 -51.5t-119 -24.5q-58 0 -106 25.5t-77 72.5q-33 -47 -79.5 -72.5t-93.5 -25.5q-64 0 -106.5 34t-42.5 98zM131 136q0 -31 18 -47.5t47 -16.5q39 0 72.5 32t33.5 68v37h-25q-70 0 -108 -14.5t-38 -58.5z
M409 274h165q22 0 29.5 6t7.5 23q0 41 -29 69t-72 28q-42 0 -71.5 -26.5t-29.5 -66.5v-33z" />
    <glyph glyph-name="ccedilla" unicode="&#xe7;" horiz-adv-x="425" 
d="M38 191v90q0 89 52 144t155 55q65 0 109 -22.5t44 -50.5q0 -17 -12.5 -34t-29.5 -17q-5 0 -35.5 15.5t-67.5 15.5q-110 0 -110 -106v-90q0 -106 111 -106q38 0 68.5 16.5t36.5 16.5q20 0 32.5 -16t12.5 -34q0 -25 -39 -48t-97 -27l-13 -48q48 -1 72.5 -22.5t24.5 -52.5
q0 -32 -24.5 -58t-74.5 -26q-28 0 -55 7.5t-27 20.5q0 8 5.5 20t14.5 12q2 0 20 -7t37 -7q50 0 50 36q0 33 -54 38l-48 5l22 82q-90 7 -135 60.5t-45 137.5z" />
    <glyph glyph-name="egrave" unicode="&#xe8;" horiz-adv-x="474" 
d="M37 191v95q0 79 61 136.5t147 57.5q82 0 140.5 -52.5t58.5 -132.5q0 -30 -7 -48.5t-22 -26t-28 -9.5t-34 -2h-211v-23q0 -50 36 -79.5t94 -29.5q41 0 77.5 19t44.5 19q17 0 29 -16t12 -31q0 -25 -48 -50.5t-118 -25.5q-102 0 -167 55t-65 144zM142 274h166q22 0 29.5 6
t7.5 24q0 40 -29 68t-72 28q-42 0 -72 -26.5t-30 -67.5v-32zM142 668q0 15 10 28t24 13q3 0 11 -2l124 -63q15 -8 15 -26q0 -15 -10 -28t-24 -13q-7 0 -13 3l-121 61q-16 7 -16 27z" />
    <glyph glyph-name="eacute" unicode="&#xe9;" horiz-adv-x="474" 
d="M37 191v95q0 79 61 136.5t147 57.5q82 0 140.5 -52.5t58.5 -132.5q0 -30 -7 -48.5t-22 -26t-28 -9.5t-34 -2h-211v-23q0 -50 36 -79.5t94 -29.5q41 0 77.5 19t44.5 19q17 0 29 -16t12 -31q0 -25 -48 -50.5t-118 -25.5q-102 0 -167 55t-65 144zM142 274h166q22 0 29.5 6
t7.5 24q0 40 -29 68t-72 28q-42 0 -72 -26.5t-30 -67.5v-32zM154 618q0 18 15 26l124 63q8 2 11 2q14 0 24 -13t10 -28q0 -20 -16 -27l-121 -61q-6 -3 -12 -3q-14 0 -24.5 13t-10.5 28z" />
    <glyph glyph-name="ecircumflex" unicode="&#xea;" horiz-adv-x="474" 
d="M37 191v95q0 79 61 136.5t147 57.5q82 0 140.5 -52.5t58.5 -132.5q0 -30 -7 -48.5t-22 -26t-28 -9.5t-34 -2h-211v-23q0 -50 36 -79.5t94 -29.5q41 0 77.5 19t44.5 19q17 0 29 -16t12 -31q0 -25 -48 -50.5t-118 -25.5q-102 0 -167 55t-65 144zM104 617q0 21 18 31l104 56
q10 5 17 5q9 0 17 -5l104 -55q19 -12 19 -33q0 -13 -7.5 -23.5t-18.5 -10.5q-2 0 -6 1q-2 2 -4 2l-104 56l-104 -56q-5 -3 -9 -3q-11 0 -18.5 10.5t-7.5 24.5zM142 274h166q22 0 29.5 6t7.5 24q0 40 -29 68t-72 28q-42 0 -72 -26.5t-30 -67.5v-32z" />
    <glyph glyph-name="edieresis" unicode="&#xeb;" horiz-adv-x="474" 
d="M37 191v95q0 79 61 136.5t147 57.5q82 0 140.5 -52.5t58.5 -132.5q0 -30 -7 -48.5t-22 -26t-28 -9.5t-34 -2h-211v-23q0 -50 36 -79.5t94 -29.5q41 0 77.5 19t44.5 19q17 0 29 -16t12 -31q0 -25 -48 -50.5t-118 -25.5q-102 0 -167 55t-65 144zM128 630q0 19 13.5 32.5
t32.5 13.5t31.5 -13.5t12.5 -32.5t-13 -33t-31 -14q-19 0 -32.5 14t-13.5 33zM142 274h166q22 0 29.5 6t7.5 24q0 40 -29 68t-72 28q-42 0 -72 -26.5t-30 -67.5v-32zM268 630q0 19 13 32.5t32 13.5t32 -13.5t13 -32.5t-13 -33t-32 -14t-32 14t-13 33z" />
    <glyph glyph-name="igrave" unicode="&#xec;" 
d="M4 668q0 15 10 28t24 13q3 0 11 -2l124 -63q15 -8 15 -26q0 -15 -10 -28t-24 -13q-7 0 -13 3l-121 61q-16 7 -16 27zM55 35v405q0 15 14.5 24.5t37.5 9.5t38 -9.5t15 -24.5v-405q0 -13 -15.5 -24t-37.5 -11t-37 11t-15 24z" />
    <glyph glyph-name="iacute" unicode="&#xed;" 
d="M28 618q0 18 15 26l124 63q8 2 11 2q14 0 24 -13t10 -28q0 -20 -16 -27l-121 -61q-6 -3 -12 -3q-14 0 -24.5 13t-10.5 28zM55 35v405q0 15 14.5 24.5t37.5 9.5t38 -9.5t15 -24.5v-405q0 -13 -15.5 -24t-37.5 -11t-37 11t-15 24z" />
    <glyph glyph-name="icircumflex" unicode="&#xee;" 
d="M-31 617q0 21 18 31l104 56q10 5 17 5q9 0 17 -5l104 -55q19 -12 19 -33q0 -13 -7.5 -23.5t-18.5 -10.5q-2 0 -6 1q-2 2 -4 2l-104 56l-104 -56q-4 -3 -9 -3q-11 0 -18.5 10.5t-7.5 24.5zM55 35v405q0 15 14.5 24.5t37.5 9.5t38 -9.5t15 -24.5v-405q0 -13 -15.5 -24
t-37.5 -11t-37 11t-15 24z" />
    <glyph glyph-name="idieresis" unicode="&#xef;" 
d="M-5 630q0 19 13.5 32.5t32.5 13.5t31.5 -13.5t12.5 -32.5t-13 -33t-31 -14q-19 0 -32.5 14t-13.5 33zM55 35v405q0 15 14.5 24.5t37.5 9.5t38 -9.5t15 -24.5v-405q0 -13 -15.5 -24t-37.5 -11t-37 11t-15 24zM135 630q0 19 13 32.5t32 13.5t32 -13.5t13 -32.5t-13 -33
t-32 -14t-32 14t-13 33z" />
    <glyph glyph-name="eth" unicode="&#xf0;" horiz-adv-x="502" 
d="M37 191v92q0 81 52 139t125 58q44 0 81.5 -22.5t51.5 -57.5q-6 101 -55 178l-64 -38q-5 -4 -12 -4q-14 0 -26 14.5t-12 29.5t13 22l57 34q-27 29 -62 32q-23 15 -23 37q0 19 13 35.5t41 16.5q65 0 122 -66l62 36q6 3 12 3q14 0 26 -13.5t12 -28.5q0 -13 -13 -23l-59 -35
q73 -125 73 -278v-161q0 -79 -62 -139t-145 -60q-84 0 -146 60t-62 139zM142 191q0 -41 30.5 -73.5t72.5 -32.5q41 0 71.5 32.5t30.5 73.5v94q0 42 -31.5 72t-72.5 30q-42 0 -71.5 -32t-29.5 -72v-92z" />
    <glyph glyph-name="ntilde" unicode="&#xf1;" horiz-adv-x="513" 
d="M55 35v405q0 15 14.5 24.5t37.5 9.5q20 0 33.5 -9.5t13.5 -24.5v-36q16 32 51.5 54t82.5 22q71 0 122.5 -58t51.5 -139v-248q0 -16 -15.5 -25.5t-37.5 -9.5q-20 0 -36 9.5t-16 25.5v248q0 40 -30 72t-71 32q-38 0 -67 -28.5t-29 -75.5v-248q0 -13 -16 -24t-37 -11
q-22 0 -37 11t-15 24zM90 636q0 34 29 49t58 15q28 0 69.5 -15.5t68.5 -15.5q24 0 47 12.5t30 12.5q14 0 21 -12t7 -22q0 -36 -28 -50t-57 -14q-32 0 -73 15.5t-66 15.5q-24 0 -47.5 -13.5t-30.5 -13.5q-14 0 -21 12.5t-7 23.5z" />
    <glyph glyph-name="ograve" unicode="&#xf2;" horiz-adv-x="487" 
d="M36 191v92q0 79 61 138t146 59q83 0 145 -58.5t62 -138.5v-92q0 -78 -62.5 -138.5t-144.5 -60.5q-83 0 -145 60t-62 139zM141 191q0 -41 30 -73.5t72 -32.5q41 0 71.5 32.5t30.5 73.5v92q0 40 -30.5 72t-71.5 32q-42 0 -72 -32t-30 -72v-92zM142 668q0 15 10 28t24 13
q3 0 11 -2l124 -63q15 -8 15 -26q0 -15 -10 -28t-24 -13q-7 0 -13 3l-121 61q-16 7 -16 27z" />
    <glyph glyph-name="oacute" unicode="&#xf3;" horiz-adv-x="487" 
d="M36 191v92q0 79 61 138t146 59q83 0 145 -58.5t62 -138.5v-92q0 -78 -62.5 -138.5t-144.5 -60.5q-83 0 -145 60t-62 139zM141 191q0 -41 30 -73.5t72 -32.5q41 0 71.5 32.5t30.5 73.5v92q0 40 -30.5 72t-71.5 32q-42 0 -72 -32t-30 -72v-92zM153 618q0 18 15 26l124 63
q8 2 11 2q14 0 24 -13t10 -28q0 -20 -16 -27l-121 -61q-6 -3 -12 -3q-14 0 -24.5 13t-10.5 28z" />
    <glyph glyph-name="ocircumflex" unicode="&#xf4;" horiz-adv-x="487" 
d="M36 191v92q0 79 61 138t146 59q83 0 145 -58.5t62 -138.5v-92q0 -78 -62.5 -138.5t-144.5 -60.5q-83 0 -145 60t-62 139zM103 617q0 21 18 31l104 56q10 5 17 5q9 0 17 -5l104 -55q19 -12 19 -33q0 -13 -7.5 -23.5t-18.5 -10.5q-2 0 -6 1q-2 2 -4 2l-104 56l-104 -56
q-4 -3 -9 -3q-11 0 -18.5 10.5t-7.5 24.5zM141 191q0 -41 30 -73.5t72 -32.5q41 0 71.5 32.5t30.5 73.5v92q0 40 -30.5 72t-71.5 32q-42 0 -72 -32t-30 -72v-92z" />
    <glyph glyph-name="otilde" unicode="&#xf5;" horiz-adv-x="487" 
d="M36 191v92q0 79 61 138t146 59q83 0 145 -58.5t62 -138.5v-92q0 -78 -62.5 -138.5t-144.5 -60.5q-83 0 -145 60t-62 139zM79 636q0 34 29 49t58 15q28 0 69.5 -15.5t68.5 -15.5q24 0 47 12.5t30 12.5q14 0 21 -12t7 -22q0 -36 -28 -50t-57 -14q-32 0 -73 15.5t-66 15.5
q-24 0 -47.5 -13.5t-30.5 -13.5q-14 0 -21 12.5t-7 23.5zM141 191q0 -41 30 -73.5t72 -32.5q41 0 71.5 32.5t30.5 73.5v92q0 40 -30.5 72t-71.5 32q-42 0 -72 -32t-30 -72v-92z" />
    <glyph glyph-name="odieresis" unicode="&#xf6;" horiz-adv-x="487" 
d="M36 191v92q0 79 61 138t146 59q83 0 145 -58.5t62 -138.5v-92q0 -78 -62.5 -138.5t-144.5 -60.5q-83 0 -145 60t-62 139zM128 630q0 19 13.5 32.5t32.5 13.5t31.5 -13.5t12.5 -32.5t-13 -33t-31 -14q-19 0 -32.5 14t-13.5 33zM141 191q0 -41 30 -73.5t72 -32.5
q41 0 71.5 32.5t30.5 73.5v92q0 40 -30.5 72t-71.5 32q-42 0 -72 -32t-30 -72v-92zM268 630q0 19 13 32.5t32 13.5t32 -13.5t13 -32.5t-13 -33t-32 -14t-32 14t-13 33z" />
    <glyph glyph-name="divide" unicode="&#xf7;" horiz-adv-x="446" 
d="M28 239q0 18 10 30t26 12h318q14 0 25 -12.5t11 -29.5q0 -18 -11 -30t-25 -12h-318q-16 0 -26 11.5t-10 30.5zM163 72q0 23 17 38.5t40 15.5q22 0 39 -15.5t17 -38.5q0 -22 -17.5 -38.5t-38.5 -16.5q-23 0 -40 16.5t-17 38.5zM163 407q0 22 17 38.5t40 16.5
q21 0 38.5 -16.5t17.5 -38.5q0 -23 -17 -39t-39 -16q-23 0 -40 16t-17 39z" />
    <glyph glyph-name="oslash" unicode="&#xf8;" horiz-adv-x="487" 
d="M36 191v92q0 79 61 138t146 59q56 0 107 -30l32 49q7 11 18 11t19 -8t8 -19q0 -5 -6 -17l-31 -47q60 -57 60 -136v-92q0 -78 -62.5 -138.5t-144.5 -60.5q-62 0 -113 34l-32 -49q-6 -9 -17 -9q-9 0 -17 7t-8 17q0 7 5 14l32 50q-57 59 -57 135zM141 191q0 -26 10 -46
l146 224q-26 18 -54 18q-42 0 -72 -32t-30 -72v-92zM183 106q27 -21 60 -21q41 0 71.5 32.5t30.5 73.5v92q0 24 -13 48z" />
    <glyph glyph-name="ugrave" unicode="&#xf9;" horiz-adv-x="515" 
d="M51 189v250q0 14 16 24.5t37 10.5t36.5 -10.5t15.5 -24.5v-250q0 -40 30.5 -72t71.5 -32q42 0 72 31.5t30 72.5v251q0 14 15.5 24t37.5 10t36.5 -10t14.5 -24v-251q0 -79 -61 -138t-145 -59t-145.5 59t-61.5 138zM156 668q0 15 10 28t24 13q3 0 11 -2l124 -63
q15 -8 15 -26q0 -15 -10 -28t-24 -13q-7 0 -13 3l-121 61q-16 7 -16 27z" />
    <glyph glyph-name="uacute" unicode="&#xfa;" horiz-adv-x="515" 
d="M51 189v250q0 14 16 24.5t37 10.5t36.5 -10.5t15.5 -24.5v-250q0 -40 30.5 -72t71.5 -32q42 0 72 31.5t30 72.5v251q0 14 15.5 24t37.5 10t36.5 -10t14.5 -24v-251q0 -79 -61 -138t-145 -59t-145.5 59t-61.5 138zM174 618q0 18 15 26l124 63q8 2 11 2q14 0 24 -13t10 -28
q0 -20 -16 -27l-121 -61q-6 -3 -12 -3q-14 0 -24.5 13t-10.5 28z" />
    <glyph glyph-name="ucircumflex" unicode="&#xfb;" horiz-adv-x="515" 
d="M51 189v250q0 14 16 24.5t37 10.5t36.5 -10.5t15.5 -24.5v-250q0 -40 30.5 -72t71.5 -32q42 0 72 31.5t30 72.5v251q0 14 15.5 24t37.5 10t36.5 -10t14.5 -24v-251q0 -79 -61 -138t-145 -59t-145.5 59t-61.5 138zM119 617q0 21 18 31l104 56q10 5 17 5q9 0 17 -5l104 -55
q19 -12 19 -33q0 -13 -7.5 -23.5t-18.5 -10.5q-2 0 -6 1q-2 2 -4 2l-104 56l-104 -56q-4 -3 -9 -3q-11 0 -18.5 10.5t-7.5 24.5z" />
    <glyph glyph-name="udieresis" unicode="&#xfc;" horiz-adv-x="515" 
d="M51 189v250q0 14 16 24.5t37 10.5t36.5 -10.5t15.5 -24.5v-250q0 -40 30.5 -72t71.5 -32q42 0 72 31.5t30 72.5v251q0 14 15.5 24t37.5 10t36.5 -10t14.5 -24v-251q0 -79 -61 -138t-145 -59t-145.5 59t-61.5 138zM143 630q0 19 13.5 32.5t32.5 13.5t31.5 -13.5
t12.5 -32.5t-13 -33t-31 -14q-19 0 -32.5 14t-13.5 33zM283 630q0 19 13 32.5t32 13.5t32 -13.5t13 -32.5t-13 -33t-32 -14t-32 14t-13 33z" />
    <glyph glyph-name="yacute" unicode="&#xfd;" horiz-adv-x="457" 
d="M10 -180q0 45 29 45q45 0 89 43t54 121l-168 388q-4 5 -4 14q0 19 23 34.5t46 15.5q25 0 32 -19l126 -325l108 325q9 19 30 19t45.5 -15.5t24.5 -36.5q0 -9 -2 -12l-148 -391l-17 -45q-6 -14 -18.5 -43t-21.5 -44l-24 -37q-15 -23 -30 -34.5t-34 -24t-42 -18t-49 -5.5
q-49 0 -49 45zM165 618q0 18 15 26l124 63q8 2 11 2q14 0 24 -13t10 -28q0 -20 -16 -27l-121 -61q-6 -3 -12 -3q-14 0 -24.5 13t-10.5 28z" />
    <glyph glyph-name="thorn" unicode="&#xfe;" horiz-adv-x="506" 
d="M56 -190v912q0 15 14.5 24.5t35.5 9.5q23 0 39 -9.5t16 -24.5v-318q17 32 51 54t77 22q75 0 127.5 -58t52.5 -139v-92q0 -78 -53 -138.5t-123 -60.5q-43 0 -79.5 23t-52.5 55v-260q0 -14 -16 -24.5t-38 -10.5t-36.5 10.5t-14.5 24.5zM161 168q0 -22 30.5 -52.5
t70.5 -30.5t71 32.5t31 73.5v92q0 40 -31 72t-73 32q-39 0 -69 -28.5t-30 -75.5v-115z" />
    <glyph glyph-name="ydieresis" unicode="&#xff;" horiz-adv-x="457" 
d="M10 -180q0 45 29 45q45 0 89 43t54 121l-168 388q-4 5 -4 14q0 19 23 34.5t46 15.5q25 0 32 -19l126 -325l108 325q9 19 30 19t45.5 -15.5t24.5 -36.5q0 -9 -2 -12l-148 -391l-17 -45q-6 -14 -18.5 -43t-21.5 -44l-24 -37q-15 -23 -30 -34.5t-34 -24t-42 -18t-49 -5.5
q-49 0 -49 45zM121 630q0 19 13.5 32.5t32.5 13.5t31.5 -13.5t12.5 -32.5t-13 -33t-31 -14q-19 0 -32.5 14t-13.5 33zM261 630q0 19 13 32.5t32 13.5t32 -13.5t13 -32.5t-13 -33t-32 -14t-32 14t-13 33z" />
    <glyph glyph-name="Amacron" unicode="&#x100;" horiz-adv-x="562" 
d="M14 44q0 6 1 9l199 648q12 36 67 36q56 0 68 -36l198 -648q2 -6 2 -9q0 -18 -21.5 -31t-45.5 -13q-29 0 -36 22l-41 142h-247l-41 -142q-7 -22 -37 -22q-24 0 -45 13t-21 31zM142 902q0 16 9.5 26.5t24.5 10.5h209q14 0 24.5 -11t10.5 -26t-10.5 -25t-24.5 -10h-209
q-15 0 -24.5 9.5t-9.5 25.5zM181 249h200l-100 343z" />
    <glyph glyph-name="amacron" unicode="&#x101;" horiz-adv-x="460" 
d="M25 124q0 80 60 111.5t174 31.5h44v18q0 44 -24.5 76t-74.5 32q-43 0 -75.5 -15t-35.5 -15q-17 0 -27.5 16.5t-10.5 36.5q0 26 48.5 45t102.5 19q103 0 152.5 -55.5t49.5 -138.5v-251q0 -14 -14.5 -24.5t-36.5 -10.5q-20 0 -34 10.5t-14 24.5v35q-67 -78 -151 -78
q-58 0 -95.5 34t-37.5 98zM86 655q0 16 9.5 26.5t24.5 10.5h209q14 0 24.5 -11t10.5 -26t-10.5 -25t-24.5 -10h-209q-15 0 -24.5 9.5t-9.5 25.5zM131 137q0 -32 18 -48.5t47 -16.5q38 0 72.5 32t34.5 68v37h-25q-45 0 -73.5 -4t-51 -21t-22.5 -47z" />
    <glyph glyph-name="Abreve" unicode="&#x102;" horiz-adv-x="562" 
d="M14 44q0 6 1 9l199 648q12 36 67 36q56 0 68 -36l198 -648q2 -6 2 -9q0 -18 -21.5 -31t-45.5 -13q-29 0 -36 22l-41 142h-247l-41 -142q-7 -22 -37 -22q-24 0 -45 13t-21 31zM154 965h60q0 -32 20.5 -54.5t46.5 -22.5t46 22.5t20 54.5h61q0 -50 -39 -88t-88 -38
q-50 0 -88.5 37.5t-38.5 88.5zM181 249h200l-100 343z" />
    <glyph glyph-name="abreve" unicode="&#x103;" horiz-adv-x="460" 
d="M25 124q0 80 60 111.5t174 31.5h44v18q0 44 -24.5 76t-74.5 32q-43 0 -75.5 -15t-35.5 -15q-17 0 -27.5 16.5t-10.5 36.5q0 26 48.5 45t102.5 19q103 0 152.5 -55.5t49.5 -138.5v-251q0 -14 -14.5 -24.5t-36.5 -10.5q-20 0 -34 10.5t-14 24.5v35q-67 -78 -151 -78
q-58 0 -95.5 34t-37.5 98zM96 718h60q0 -32 20.5 -54.5t46.5 -22.5t46 22.5t20 54.5h61q0 -50 -39 -88t-88 -38q-50 0 -88.5 37.5t-38.5 88.5zM131 137q0 -32 18 -48.5t47 -16.5q38 0 72.5 32t34.5 68v37h-25q-45 0 -73.5 -4t-51 -21t-22.5 -47z" />
    <glyph glyph-name="Aogonek" unicode="&#x104;" horiz-adv-x="562" 
d="M14 44q0 6 1 9l199 648q12 36 67 36q56 0 68 -36l198 -648q2 -6 2 -9q0 -12 -11 -22.5t-27 -16.5q-75 -54 -75 -120q0 -46 60 -46q22 0 22 -25q0 -22 -28 -22q-50 0 -79.5 22.5t-29.5 61.5q0 76 71 134q-4 4 -6 12l-41 142h-247l-41 -142q-7 -22 -37 -22q-24 0 -45 13
t-21 31zM181 249h200l-100 343z" />
    <glyph glyph-name="aogonek" unicode="&#x105;" horiz-adv-x="460" 
d="M25 124q0 80 60 111.5t174 31.5h44v18q0 44 -24.5 76t-74.5 32q-43 0 -75.5 -15t-35.5 -15q-17 0 -27.5 16.5t-10.5 36.5q0 26 48.5 45t102.5 19q103 0 152.5 -55.5t49.5 -138.5v-251q0 -19 -22 -29q-34 -24 -55 -56.5t-21 -64.5q0 -46 60 -46q22 0 22 -25q0 -22 -28 -22
q-50 0 -79.5 22.5t-29.5 61.5q0 75 69 133q-15 10 -15 26v35q-67 -78 -151 -78q-58 0 -95.5 34t-37.5 98zM131 137q0 -32 18 -48.5t47 -16.5q38 0 72.5 32t34.5 68v37h-25q-45 0 -73.5 -4t-51 -21t-22.5 -47z" />
    <glyph glyph-name="Cacute" unicode="&#x106;" horiz-adv-x="541" 
d="M59 217v291q0 115 61.5 169t160.5 54q102 0 164.5 -50.5t62.5 -130.5q0 -32 -12 -43.5t-41 -11.5q-52 0 -53 35q-6 107 -117 107q-120 0 -120 -129v-291q0 -129 122 -129q36 0 60 10.5t34.5 30.5t14.5 35t6 37q3 35 52 35q29 0 41.5 -11.5t12.5 -43.5q0 -83 -63 -135
t-165 -52q-99 0 -160 54t-61 169zM205 865q0 18 15 26l124 63q8 2 11 2q14 0 24 -13t10 -28q0 -20 -16 -27l-121 -61q-6 -3 -12 -3q-14 0 -24.5 13t-10.5 28z" />
    <glyph glyph-name="cacute" unicode="&#x107;" horiz-adv-x="426" 
d="M39 191v90q0 89 52 144t155 55q65 0 109 -22.5t44 -50.5q0 -17 -12.5 -34t-29.5 -17q-5 0 -35.5 15.5t-67.5 15.5q-110 0 -110 -106v-90q0 -106 111 -106q38 0 68.5 16.5t36.5 16.5q20 0 32.5 -16t12.5 -34q0 -28 -46 -52t-112 -24q-104 0 -156 54.5t-52 144.5zM144 618
q0 18 15 26l124 63q8 2 11 2q14 0 24 -13t10 -28q0 -20 -16 -27l-121 -61q-6 -3 -12 -3q-14 0 -24.5 13t-10.5 28z" />
    <glyph glyph-name="Ccircumflex" unicode="&#x108;" horiz-adv-x="541" 
d="M59 217v291q0 115 61.5 169t160.5 54q102 0 164.5 -50.5t62.5 -130.5q0 -32 -12 -43.5t-41 -11.5q-52 0 -53 35q-6 107 -117 107q-120 0 -120 -129v-291q0 -129 122 -129q36 0 60 10.5t34.5 30.5t14.5 35t6 37q3 35 52 35q29 0 41.5 -11.5t12.5 -43.5q0 -83 -63 -135
t-165 -52q-99 0 -160 54t-61 169zM143 864q0 21 18 31l104 56q10 5 17 5q9 0 17 -5l104 -55q19 -12 19 -33q0 -13 -7.5 -23.5t-18.5 -10.5q-2 0 -6 1q-2 2 -4 2l-104 56l-104 -56q-4 -3 -9 -3q-11 0 -18.5 10.5t-7.5 24.5z" />
    <glyph glyph-name="ccircumflex" unicode="&#x109;" horiz-adv-x="426" 
d="M39 191v90q0 89 52 144t155 55q65 0 109 -22.5t44 -50.5q0 -17 -12.5 -34t-29.5 -17q-5 0 -35.5 15.5t-67.5 15.5q-110 0 -110 -106v-90q0 -106 111 -106q38 0 68.5 16.5t36.5 16.5q20 0 32.5 -16t12.5 -34q0 -28 -46 -52t-112 -24q-104 0 -156 54.5t-52 144.5zM91 617
q0 21 18 31l104 56q10 5 17 5q9 0 17 -5l104 -55q19 -12 19 -33q0 -13 -7.5 -23.5t-18.5 -10.5q-2 0 -6 1q-2 2 -4 2l-104 56l-104 -56q-4 -3 -9 -3q-11 0 -18.5 10.5t-7.5 24.5z" />
    <glyph glyph-name="Cdotaccent" unicode="&#x10a;" horiz-adv-x="541" 
d="M59 217v291q0 115 61.5 169t160.5 54q102 0 164.5 -50.5t62.5 -130.5q0 -32 -12 -43.5t-41 -11.5q-52 0 -53 35q-6 107 -117 107q-120 0 -120 -129v-291q0 -129 122 -129q36 0 60 10.5t34.5 30.5t14.5 35t6 37q3 35 52 35q29 0 41.5 -11.5t12.5 -43.5q0 -83 -63 -135
t-165 -52q-99 0 -160 54t-61 169zM239 877q0 19 13 32.5t32 13.5t32 -13.5t13 -32.5t-13 -33t-32 -14t-32 14t-13 33z" />
    <glyph glyph-name="cdotaccent" unicode="&#x10b;" horiz-adv-x="426" 
d="M39 191v90q0 89 52 144t155 55q65 0 109 -22.5t44 -50.5q0 -17 -12.5 -34t-29.5 -17q-5 0 -35.5 15.5t-67.5 15.5q-110 0 -110 -106v-90q0 -106 111 -106q38 0 68.5 16.5t36.5 16.5q20 0 32.5 -16t12.5 -34q0 -28 -46 -52t-112 -24q-104 0 -156 54.5t-52 144.5zM183 630
q0 19 13 32.5t32 13.5t32 -13.5t13 -32.5t-13 -33t-32 -14t-32 14t-13 33z" />
    <glyph glyph-name="Ccaron" unicode="&#x10c;" horiz-adv-x="541" 
d="M59 217v291q0 115 61.5 169t160.5 54q102 0 164.5 -50.5t62.5 -130.5q0 -32 -12 -43.5t-41 -11.5q-52 0 -53 35q-6 107 -117 107q-120 0 -120 -129v-291q0 -129 122 -129q36 0 60 10.5t34.5 30.5t14.5 35t6 37q3 35 52 35q29 0 41.5 -11.5t12.5 -43.5q0 -83 -63 -135
t-165 -52q-99 0 -160 54t-61 169zM143 946q0 13 7 23t17 10q7 0 13 -6l101 -75l102 75q6 6 13 6q10 0 17 -10t7 -23q0 -21 -18 -33l-102 -75q-10 -7 -19 -7q-7 0 -18 7l-103 75q-17 13 -17 33z" />
    <glyph glyph-name="ccaron" unicode="&#x10d;" horiz-adv-x="426" 
d="M39 191v90q0 89 52 144t155 55q65 0 109 -22.5t44 -50.5q0 -17 -12.5 -34t-29.5 -17q-5 0 -35.5 15.5t-67.5 15.5q-110 0 -110 -106v-90q0 -106 111 -106q38 0 68.5 16.5t36.5 16.5q20 0 32.5 -16t12.5 -34q0 -28 -46 -52t-112 -24q-104 0 -156 54.5t-52 144.5zM87 699
q0 13 7 23t17 10q7 0 13 -6l101 -75l102 75q6 6 13 6q10 0 17 -10t7 -23q0 -21 -18 -33l-102 -75q-10 -7 -19 -7q-7 0 -18 7l-103 75q-17 13 -17 33z" />
    <glyph glyph-name="Dcaron" unicode="&#x10e;" horiz-adv-x="573" 
d="M66 34v663q0 14 13.5 24t33.5 10h177q102 0 163.5 -54t61.5 -169v-285q0 -115 -61.5 -169t-163.5 -54h-177q-20 0 -33.5 10t-13.5 24zM137 946q0 13 7 23t17 10q7 0 13 -6l101 -75l102 75q6 6 13 6q10 0 17 -10t7 -23q0 -21 -18 -33l-102 -75q-10 -7 -19 -7q-7 0 -18 7
l-103 75q-17 13 -17 33zM172 94h118q119 0 119 129v285q0 129 -119 129h-118v-543z" />
    <glyph glyph-name="dcaron" unicode="&#x10f;" horiz-adv-x="507" 
d="M37 191v92q0 81 52.5 139t126.5 58q44 0 78 -22t52 -54v318q0 15 15 24.5t38 9.5t37.5 -9.5t14.5 -24.5v-687q0 -13 -15 -24t-37 -11q-19 0 -33.5 11t-14.5 24v35q-16 -32 -54.5 -55t-83.5 -23q-70 0 -123 60.5t-53 138.5zM142 191q0 -41 30 -73.5t71 -32.5q39 0 71 30.5
t32 52.5v115q0 46 -31 75t-71 29q-41 0 -71.5 -32t-30.5 -72v-92zM504 681q0 25 17 42.5t42 17.5t42.5 -17.5t17.5 -41.5q0 -21 -50 -134q-7 -15 -23 -15q-13 0 -24.5 8t-11.5 21q0 8 2 12l23 53q-35 17 -35 54z" />
    <glyph glyph-name="Dcroat" unicode="&#x110;" horiz-adv-x="581" 
d="M-4 383q0 16 8 27.5t21 11.5h49v275q0 14 13.5 24t33.5 10h177q102 0 163.5 -54t61.5 -169v-285q0 -115 -61.5 -169t-163.5 -54h-177q-20 0 -33.5 10t-13.5 24v310h-49q-13 0 -21 11.5t-8 27.5zM180 94h118q119 0 119 129v285q0 129 -119 129h-118v-215h91q14 0 22 -11.5
t8 -27.5t-8 -27.5t-22 -11.5h-91v-250z" />
    <glyph glyph-name="dcroat" unicode="&#x111;" horiz-adv-x="507" 
d="M37 191v92q0 81 52.5 139t126.5 58q44 0 78 -22t52 -54v157h-94q-13 0 -21 11.5t-8 27.5t8 28t21 12h94v82q0 15 15 24.5t38 9.5t37.5 -9.5t14.5 -24.5v-82h36q13 0 21.5 -12t8.5 -28t-8.5 -27.5t-21.5 -11.5h-36v-526q0 -13 -15 -24t-37 -11q-19 0 -33.5 11t-14.5 24v35
q-16 -32 -54.5 -55t-83.5 -23q-70 0 -123 60.5t-53 138.5zM142 191q0 -41 30 -73.5t71 -32.5q39 0 71 30.5t32 52.5v115q0 46 -31 75t-71 29q-41 0 -71.5 -32t-30.5 -72v-92z" />
    <glyph glyph-name="Emacron" unicode="&#x112;" horiz-adv-x="523" 
d="M66 35v661q0 16 14 25.5t33 9.5h356q17 0 26 -14t9 -32q0 -20 -9.5 -34t-25.5 -14h-297v-229h154q16 0 25.5 -12.5t9.5 -30.5q0 -16 -9 -28.5t-26 -12.5h-154v-230h297q16 0 25.5 -14t9.5 -34q0 -18 -9 -32t-26 -14h-356q-19 0 -33 9.5t-14 25.5zM149 902q0 16 9.5 26.5
t24.5 10.5h209q14 0 24.5 -11t10.5 -26t-10.5 -25t-24.5 -10h-209q-15 0 -24.5 9.5t-9.5 25.5z" />
    <glyph glyph-name="emacron" unicode="&#x113;" horiz-adv-x="474" 
d="M37 191v95q0 79 61 136.5t147 57.5q82 0 140.5 -52.5t58.5 -132.5q0 -30 -7 -48.5t-22 -26t-28 -9.5t-34 -2h-211v-23q0 -50 36 -79.5t94 -29.5q41 0 77.5 19t44.5 19q17 0 29 -16t12 -31q0 -25 -48 -50.5t-118 -25.5q-102 0 -167 55t-65 144zM106 655q0 16 9.5 26.5
t24.5 10.5h209q14 0 24.5 -11t10.5 -26t-10.5 -25t-24.5 -10h-209q-15 0 -24.5 9.5t-9.5 25.5zM142 274h166q22 0 29.5 6t7.5 24q0 40 -29 68t-72 28q-42 0 -72 -26.5t-30 -67.5v-32z" />
    <glyph glyph-name="Ebreve" unicode="&#x114;" horiz-adv-x="523" 
d="M66 35v661q0 16 14 25.5t33 9.5h356q17 0 26 -14t9 -32q0 -20 -9.5 -34t-25.5 -14h-297v-229h154q16 0 25.5 -12.5t9.5 -30.5q0 -16 -9 -28.5t-26 -12.5h-154v-230h297q16 0 25.5 -14t9.5 -34q0 -18 -9 -32t-26 -14h-356q-19 0 -33 9.5t-14 25.5zM157 965h60
q0 -32 20.5 -54.5t46.5 -22.5t46 22.5t20 54.5h61q0 -50 -39 -88t-88 -38q-50 0 -88.5 37.5t-38.5 88.5z" />
    <glyph glyph-name="ebreve" unicode="&#x115;" horiz-adv-x="474" 
d="M37 191v95q0 79 61 136.5t147 57.5q82 0 140.5 -52.5t58.5 -132.5q0 -30 -7 -48.5t-22 -26t-28 -9.5t-34 -2h-211v-23q0 -50 36 -79.5t94 -29.5q41 0 77.5 19t44.5 19q17 0 29 -16t12 -31q0 -25 -48 -50.5t-118 -25.5q-102 0 -167 55t-65 144zM117 718h60
q0 -32 20.5 -54.5t46.5 -22.5t46 22.5t20 54.5h61q0 -50 -39 -88t-88 -38q-50 0 -88.5 37.5t-38.5 88.5zM142 274h166q22 0 29.5 6t7.5 24q0 40 -29 68t-72 28q-42 0 -72 -26.5t-30 -67.5v-32z" />
    <glyph glyph-name="Edotaccent" unicode="&#x116;" horiz-adv-x="523" 
d="M66 35v661q0 16 14 25.5t33 9.5h356q17 0 26 -14t9 -32q0 -20 -9.5 -34t-25.5 -14h-297v-229h154q16 0 25.5 -12.5t9.5 -30.5q0 -16 -9 -28.5t-26 -12.5h-154v-230h297q16 0 25.5 -14t9.5 -34q0 -18 -9 -32t-26 -14h-356q-19 0 -33 9.5t-14 25.5zM248 877q0 19 13 32.5
t32 13.5t32 -13.5t13 -32.5t-13 -33t-32 -14t-32 14t-13 33z" />
    <glyph glyph-name="edotaccent" unicode="&#x117;" horiz-adv-x="474" 
d="M37 191v95q0 79 61 136.5t147 57.5q82 0 140.5 -52.5t58.5 -132.5q0 -30 -7 -48.5t-22 -26t-28 -9.5t-34 -2h-211v-23q0 -50 36 -79.5t94 -29.5q41 0 77.5 19t44.5 19q17 0 29 -16t12 -31q0 -25 -48 -50.5t-118 -25.5q-102 0 -167 55t-65 144zM142 274h166q22 0 29.5 6
t7.5 24q0 40 -29 68t-72 28q-42 0 -72 -26.5t-30 -67.5v-32zM199 630q0 19 13 32.5t32 13.5t32 -13.5t13 -32.5t-13 -33t-32 -14t-32 14t-13 33z" />
    <glyph glyph-name="Eogonek" unicode="&#x118;" horiz-adv-x="523" 
d="M66 35v661q0 16 14 25.5t33 9.5h356q17 0 26 -14t9 -32q0 -20 -9.5 -34t-25.5 -14h-297v-229h154q16 0 25.5 -12.5t9.5 -30.5q0 -16 -9 -28.5t-26 -12.5h-154v-230h297q16 0 25.5 -14t9.5 -34q0 -31 -21 -43q-72 -53 -72 -118q0 -46 60 -46q22 0 22 -25q0 -22 -28 -22
q-50 0 -79.5 22.5t-29.5 61.5q0 68 59 124h-302q-19 0 -33 9.5t-14 25.5z" />
    <glyph glyph-name="eogonek" unicode="&#x119;" horiz-adv-x="474" 
d="M37 191v95q0 79 61 136.5t147 57.5q82 0 140.5 -52.5t58.5 -132.5q0 -30 -7 -48.5t-22 -26t-28 -9.5t-34 -2h-211v-23q0 -50 36 -79.5t94 -29.5q41 0 77.5 19t44.5 19q17 0 29 -16t12 -31q0 -13 -15.5 -28t-42.5 -27q-71 -54 -71 -118q0 -46 60 -46q22 0 22 -25
q0 -22 -28 -22q-50 0 -79.5 22.5t-29.5 61.5q0 58 44 108q-9 -2 -26 -2q-102 0 -167 55t-65 144zM142 274h166q22 0 29.5 6t7.5 24q0 40 -29 68t-72 28q-42 0 -72 -26.5t-30 -67.5v-32z" />
    <glyph glyph-name="Ecaron" unicode="&#x11a;" horiz-adv-x="523" 
d="M66 35v661q0 16 14 25.5t33 9.5h356q17 0 26 -14t9 -32q0 -20 -9.5 -34t-25.5 -14h-297v-229h154q16 0 25.5 -12.5t9.5 -30.5q0 -16 -9 -28.5t-26 -12.5h-154v-230h297q16 0 25.5 -14t9.5 -34q0 -18 -9 -32t-26 -14h-356q-19 0 -33 9.5t-14 25.5zM145 946q0 13 7 23
t17 10q7 0 13 -6l101 -75l102 75q6 6 13 6q10 0 17 -10t7 -23q0 -21 -18 -33l-102 -75q-10 -7 -19 -7q-7 0 -18 7l-103 75q-17 13 -17 33z" />
    <glyph glyph-name="ecaron" unicode="&#x11b;" horiz-adv-x="474" 
d="M37 191v95q0 79 61 136.5t147 57.5q82 0 140.5 -52.5t58.5 -132.5q0 -30 -7 -48.5t-22 -26t-28 -9.5t-34 -2h-211v-23q0 -50 36 -79.5t94 -29.5q41 0 77.5 19t44.5 19q17 0 29 -16t12 -31q0 -25 -48 -50.5t-118 -25.5q-102 0 -167 55t-65 144zM106 699q0 13 7 23t17 10
q7 0 13 -6l101 -75l102 75q6 6 13 6q10 0 17 -10t7 -23q0 -21 -18 -33l-102 -75q-11 -7 -19 -7t-18 7l-103 75q-17 13 -17 33zM142 274h166q22 0 29.5 6t7.5 24q0 40 -29 68t-72 28q-42 0 -72 -26.5t-30 -67.5v-32z" />
    <glyph glyph-name="Gcircumflex" unicode="&#x11c;" horiz-adv-x="556" 
d="M59 217v291q0 115 61 169t160 54q101 0 164.5 -50.5t63.5 -134.5q0 -29 -12.5 -40t-40.5 -11q-52 0 -53 35q-11 107 -119 107q-118 0 -118 -129v-291q0 -129 118 -129q57 0 88 32t31 97v82h-101q-16 0 -25 12.5t-9 30.5q0 16 9 29t25 13h172q16 0 25.5 -10.5t9.5 -25.5
v-131q0 -115 -61.5 -169t-163.5 -54t-163 54t-61 169zM135 864q0 21 18 31l104 56q10 5 17 5q9 0 17 -5l104 -55q19 -12 19 -33q0 -13 -7.5 -23.5t-18.5 -10.5q-2 0 -6 1q-2 2 -4 2l-104 56l-104 -56q-4 -3 -9 -3q-11 0 -18.5 10.5t-7.5 24.5z" />
    <glyph glyph-name="gcircumflex" unicode="&#x11d;" horiz-adv-x="463" 
d="M19 -87q0 70 77 107q-47 20 -47 66q0 44 50 76q-59 46 -59 126v28q0 72 51.5 118t134.5 46q70 0 116 -34q29 67 65 67q19 0 31 -11.5t12 -24.5q0 -16 -17 -25q-32 -14 -50 -40q32 -40 32 -96v-28q0 -72 -53 -119t-136 -47q-39 0 -69 12q-19 -13 -19 -28q0 -20 31.5 -29
t76 -14t89 -14.5t76 -40.5t31.5 -82q0 -75 -59.5 -113t-150.5 -38t-152 37.5t-61 100.5zM94 617q0 21 18 31l104 56q10 5 17 5q9 0 17 -5l104 -55q19 -12 19 -33q0 -13 -7.5 -23.5t-18.5 -10.5q-2 0 -6 1q-2 2 -4 2l-104 56l-104 -56q-5 -3 -9 -3q-11 0 -18.5 10.5
t-7.5 24.5zM118 -76q0 -36 31.5 -57.5t81.5 -21.5q49 0 79 21t30 57q0 23 -14 38.5t-41.5 23t-47 10t-52.5 4.5q-67 -25 -67 -75zM142 289q0 -44 23 -72t63 -28q39 0 62 27.5t23 71.5v28q0 42 -23 69.5t-63 27.5q-39 0 -62 -27.5t-23 -69.5v-27z" />
    <glyph glyph-name="Gbreve" unicode="&#x11e;" horiz-adv-x="556" 
d="M59 217v291q0 115 61 169t160 54q101 0 164.5 -50.5t63.5 -134.5q0 -29 -12.5 -40t-40.5 -11q-52 0 -53 35q-11 107 -119 107q-118 0 -118 -129v-291q0 -129 118 -129q57 0 88 32t31 97v82h-101q-16 0 -25 12.5t-9 30.5q0 16 9 29t25 13h172q16 0 25.5 -10.5t9.5 -25.5
v-131q0 -115 -61.5 -169t-163.5 -54t-163 54t-61 169zM155 965h60q0 -32 20.5 -54.5t46.5 -22.5t46 22.5t20 54.5h61q0 -50 -39 -88t-88 -38q-50 0 -88.5 37.5t-38.5 88.5z" />
    <glyph glyph-name="gbreve" unicode="&#x11f;" horiz-adv-x="463" 
d="M19 -87q0 70 77 107q-47 20 -47 66q0 44 50 76q-59 46 -59 126v28q0 72 51.5 118t134.5 46q70 0 116 -34q29 67 65 67q19 0 31 -11.5t12 -24.5q0 -16 -17 -25q-32 -14 -50 -40q32 -40 32 -96v-28q0 -72 -53 -119t-136 -47q-39 0 -69 12q-19 -13 -19 -28q0 -20 31.5 -29
t76 -14t89 -14.5t76 -40.5t31.5 -82q0 -75 -59.5 -113t-150.5 -38t-152 37.5t-61 100.5zM106 718h60q0 -32 20.5 -54.5t46.5 -22.5t46 22.5t20 54.5h61q0 -50 -39 -88t-88 -38q-50 0 -88.5 37.5t-38.5 88.5zM118 -76q0 -36 31.5 -57.5t81.5 -21.5q49 0 79 21t30 57
q0 23 -14 38.5t-41.5 23t-47 10t-52.5 4.5q-67 -25 -67 -75zM142 289q0 -44 23 -72t63 -28q39 0 62 27.5t23 71.5v28q0 42 -23 69.5t-63 27.5q-39 0 -62 -27.5t-23 -69.5v-27z" />
    <glyph glyph-name="Gdotaccent" unicode="&#x120;" horiz-adv-x="556" 
d="M59 217v291q0 115 61 169t160 54q101 0 164.5 -50.5t63.5 -134.5q0 -29 -12.5 -40t-40.5 -11q-52 0 -53 35q-11 107 -119 107q-118 0 -118 -129v-291q0 -129 118 -129q57 0 88 32t31 97v82h-101q-16 0 -25 12.5t-9 30.5q0 16 9 29t25 13h172q16 0 25.5 -10.5t9.5 -25.5
v-131q0 -115 -61.5 -169t-163.5 -54t-163 54t-61 169zM235 877q0 19 13 32.5t32 13.5t32 -13.5t13 -32.5t-13 -33t-32 -14t-32 14t-13 33z" />
    <glyph glyph-name="gdotaccent" unicode="&#x121;" horiz-adv-x="463" 
d="M19 -87q0 70 77 107q-47 20 -47 66q0 44 50 76q-59 46 -59 126v28q0 72 51.5 118t134.5 46q70 0 116 -34q29 67 65 67q19 0 31 -11.5t12 -24.5q0 -16 -17 -25q-32 -14 -50 -40q32 -40 32 -96v-28q0 -72 -53 -119t-136 -47q-39 0 -69 12q-19 -13 -19 -28q0 -20 31.5 -29
t76 -14t89 -14.5t76 -40.5t31.5 -82q0 -75 -59.5 -113t-150.5 -38t-152 37.5t-61 100.5zM118 -76q0 -36 31.5 -57.5t81.5 -21.5q49 0 79 21t30 57q0 23 -14 38.5t-41.5 23t-47 10t-52.5 4.5q-67 -25 -67 -75zM142 289q0 -44 23 -72t63 -28q39 0 62 27.5t23 71.5v28
q0 42 -23 69.5t-63 27.5q-39 0 -62 -27.5t-23 -69.5v-27zM188 630q0 19 13 32.5t32 13.5t32 -13.5t13 -32.5t-13 -33t-32 -14t-32 14t-13 33z" />
    <glyph glyph-name="Gcommaaccent" unicode="&#x122;" horiz-adv-x="555" 
d="M58 217v291q0 115 61 169t160 54q101 0 164.5 -50.5t63.5 -134.5q0 -29 -12.5 -40t-40.5 -11q-52 0 -53 35q-11 107 -119 107q-118 0 -118 -129v-291q0 -129 118 -129q57 0 88 32t31 97v82h-101q-16 0 -25 12.5t-9 30.5q0 16 9 29t25 13h172q16 0 25.5 -10.5t9.5 -25.5
v-131q0 -115 -61.5 -169t-163.5 -54t-163 54t-61 169zM188 -139q0 18 15 26l124 62q6 3 11 3q14 0 24 -13t10 -28q0 -19 -16 -28l-121 -60q-8 -4 -12 -4q-14 0 -24.5 13t-10.5 29z" />
    <glyph glyph-name="gcommaaccent" unicode="&#x123;" horiz-adv-x="463" 
d="M19 -87q0 70 77 107q-47 20 -47 66q0 44 50 76q-59 46 -59 126v28q0 72 51.5 118t134.5 46q70 0 116 -34q29 67 65 67q19 0 31 -11.5t12 -24.5q0 -16 -17 -25q-32 -14 -50 -40q32 -40 32 -96v-28q0 -72 -53 -119t-136 -47q-39 0 -69 12q-19 -13 -19 -28q0 -20 31.5 -29
t76 -14t89 -14.5t76 -40.5t31.5 -82q0 -75 -59.5 -113t-150.5 -38t-152 37.5t-61 100.5zM118 -76q0 -36 31.5 -57.5t81.5 -21.5q49 0 79 21t30 57q0 23 -14 38.5t-41.5 23t-47 10t-52.5 4.5q-67 -25 -67 -75zM142 289q0 -44 23 -72t63 -28q39 0 62 27.5t23 71.5v28
q0 42 -23 69.5t-63 27.5q-39 0 -62 -27.5t-23 -69.5v-27zM150 618q0 18 15 26l124 63q8 2 11 2q14 0 24 -13t10 -28q0 -20 -16 -27l-121 -61q-6 -3 -12 -3q-14 0 -24.5 13t-10.5 28zM174 852q0 20 50 133q5 15 23 15q13 0 24.5 -8t11.5 -21q0 -5 -3 -12l-22 -53
q35 -15 35 -54q0 -25 -17.5 -42.5t-42.5 -17.5q-24 0 -41.5 17.5t-17.5 42.5z" />
    <glyph glyph-name="Hcircumflex" unicode="&#x124;" horiz-adv-x="593" 
d="M66 35v662q0 17 15.5 25.5t37.5 8.5t37.5 -8.5t15.5 -25.5v-276h249v276q0 17 15.5 25.5t37.5 8.5t37.5 -8.5t15.5 -25.5v-662q0 -16 -15.5 -25.5t-37.5 -9.5q-21 0 -37 9.5t-16 25.5v302h-249v-302q0 -16 -15.5 -25.5t-37.5 -9.5q-21 0 -37 9.5t-16 25.5zM158 864
q0 21 18 31l104 56q10 5 17 5q9 0 17 -5l104 -55q19 -12 19 -33q0 -13 -7.5 -23.5t-18.5 -10.5q-2 0 -6 1q-2 2 -4 2l-104 56l-104 -56q-5 -3 -9 -3q-11 0 -18.5 10.5t-7.5 24.5z" />
    <glyph glyph-name="hcircumflex" unicode="&#x125;" horiz-adv-x="514" 
d="M-33 872q0 21 18 31l104 56q10 5 17 5q9 0 17 -5l104 -55q19 -12 19 -33q0 -13 -7.5 -23.5t-18.5 -10.5q-2 0 -6 1q-2 2 -4 2l-104 56l-104 -56q-4 -3 -9 -3q-11 0 -18.5 10.5t-7.5 24.5zM56 35v687q0 15 14.5 24.5t37.5 9.5q22 0 37.5 -9.5t15.5 -24.5v-318
q16 32 49.5 54t78.5 22q71 0 122.5 -58t51.5 -139v-248q0 -16 -16 -25.5t-37 -9.5q-20 0 -36 9.5t-16 25.5v248q0 40 -30 72t-71 32q-38 0 -67 -28.5t-29 -75.5v-248q0 -13 -16 -24t-37 -11q-22 0 -37 11t-15 24z" />
    <glyph glyph-name="Hbar" unicode="&#x126;" horiz-adv-x="598" 
d="M19 572q0 15 7.5 25.5t21.5 10.5h20v89q0 17 15.5 25.5t37.5 8.5t37.5 -8.5t15.5 -25.5v-89h249v89q0 17 15.5 25.5t37.5 8.5t37.5 -8.5t15.5 -25.5v-89h20q13 0 21.5 -11t8.5 -25q0 -15 -8.5 -25t-21.5 -10h-20v-502q0 -16 -15.5 -25.5t-37.5 -9.5q-21 0 -37 9.5
t-16 25.5v302h-249v-302q0 -16 -15.5 -25.5t-37.5 -9.5q-21 0 -37 9.5t-16 25.5v502h-20q-14 0 -21.5 10t-7.5 25zM174 421h249v116h-249v-116z" />
    <glyph glyph-name="hbar" unicode="&#x127;" horiz-adv-x="514" 
d="M-6 600q0 16 9.5 26.5t24.5 10.5h28v85q0 15 14.5 24.5t37.5 9.5q22 0 37.5 -9.5t15.5 -24.5v-85h76q14 0 24.5 -11t10.5 -26t-10.5 -25t-24.5 -10h-76v-161q16 32 49.5 54t78.5 22q71 0 122.5 -58t51.5 -139v-248q0 -16 -16 -25.5t-37 -9.5q-20 0 -36 9.5t-16 25.5v248
q0 40 -30 72t-71 32q-38 0 -67 -28.5t-29 -75.5v-248q0 -13 -16 -24t-37 -11q-22 0 -37 11t-15 24v530h-28q-15 0 -24.5 9.5t-9.5 25.5z" />
    <glyph glyph-name="Itilde" unicode="&#x128;" horiz-adv-x="238" 
d="M-46 883q0 34 29 49t58 15q28 0 69.5 -15.5t68.5 -15.5q24 0 47 12.5t30 12.5q14 0 21 -12t7 -22q0 -36 -28 -50t-57 -14q-32 0 -73 15.5t-66 15.5q-24 0 -47.5 -13.5t-30.5 -13.5q-14 0 -21 12.5t-7 23.5zM66 35v662q0 17 15.5 25.5t37.5 8.5t37.5 -8.5t15.5 -25.5v-662
q0 -16 -15.5 -25.5t-37.5 -9.5q-21 0 -37 9.5t-16 25.5z" />
    <glyph glyph-name="itilde" unicode="&#x129;" 
d="M-57 636q0 34 29 49t58 15q28 0 69.5 -15.5t68.5 -15.5q24 0 47 12.5t30 12.5q14 0 21 -12t7 -22q0 -36 -28 -50t-57 -14q-32 0 -73 15.5t-66 15.5q-24 0 -47.5 -13.5t-30.5 -13.5q-14 0 -21 12.5t-7 23.5zM55 35v405q0 15 14.5 24.5t37.5 9.5t38 -9.5t15 -24.5v-405
q0 -13 -15.5 -24t-37.5 -11t-37 11t-15 24z" />
    <glyph glyph-name="Imacron" unicode="&#x12a;" horiz-adv-x="238" 
d="M-20 902q0 16 9.5 26.5t24.5 10.5h209q14 0 24.5 -11t10.5 -26t-10.5 -25t-24.5 -10h-209q-15 0 -24.5 9.5t-9.5 25.5zM66 35v662q0 17 15.5 25.5t37.5 8.5t37.5 -8.5t15.5 -25.5v-662q0 -16 -15.5 -25.5t-37.5 -9.5q-21 0 -37 9.5t-16 25.5z" />
    <glyph glyph-name="imacron" unicode="&#x12b;" 
d="M-31 655q0 16 9.5 26.5t24.5 10.5h209q14 0 24.5 -11t10.5 -26t-10.5 -25t-24.5 -10h-209q-15 0 -24.5 9.5t-9.5 25.5zM55 35v405q0 15 14.5 24.5t37.5 9.5t38 -9.5t15 -24.5v-405q0 -13 -15.5 -24t-37.5 -11t-37 11t-15 24z" />
    <glyph glyph-name="Ibreve" unicode="&#x12c;" horiz-adv-x="238" 
d="M-7 965h60q0 -32 20.5 -54.5t46.5 -22.5t46 22.5t20 54.5h61q0 -50 -39 -88t-88 -38q-50 0 -88.5 37.5t-38.5 88.5zM66 35v662q0 17 15.5 25.5t37.5 8.5t37.5 -8.5t15.5 -25.5v-662q0 -16 -15.5 -25.5t-37.5 -9.5q-21 0 -37 9.5t-16 25.5z" />
    <glyph glyph-name="ibreve" unicode="&#x12d;" 
d="M-19 718h60q0 -32 20.5 -54.5t46.5 -22.5t46 22.5t20 54.5h61q0 -50 -39 -88t-88 -38q-50 0 -88.5 37.5t-38.5 88.5zM55 35v405q0 15 14.5 24.5t37.5 9.5t38 -9.5t15 -24.5v-405q0 -13 -15.5 -24t-37.5 -11t-37 11t-15 24z" />
    <glyph glyph-name="Iogonek" unicode="&#x12e;" horiz-adv-x="238" 
d="M21 -122q0 70 65 129q-20 10 -20 28v662q0 17 15.5 25.5t37.5 8.5t37.5 -8.5t15.5 -25.5v-662q0 -21 -24 -30q-72 -54 -72 -118q0 -46 60 -46q22 0 22 -25q0 -22 -28 -22q-50 0 -79.5 22.5t-29.5 61.5z" />
    <glyph glyph-name="iogonek" unicode="&#x12f;" 
d="M6 -123q0 72 67 131q-18 11 -18 27v405q0 15 14.5 24.5t37.5 9.5t38 -9.5t15 -24.5v-405q0 -19 -25 -29q-74 -55 -74 -120q0 -46 60 -46q22 0 22 -25q0 -22 -28 -22q-50 0 -79.5 22.5t-29.5 61.5zM46 648q0 23 18 39t43 16t43 -16t18 -39q0 -22 -18 -38.5t-43 -16.5
t-43 16.5t-18 38.5z" />
    <glyph glyph-name="Idotaccent" unicode="&#x130;" horiz-adv-x="238" 
d="M66 35v662q0 17 15.5 25.5t37.5 8.5t37.5 -8.5t15.5 -25.5v-662q0 -16 -15.5 -25.5t-37.5 -9.5q-21 0 -37 9.5t-16 25.5zM74 877q0 19 13 32.5t32 13.5t32 -13.5t13 -32.5t-13 -33t-32 -14t-32 14t-13 33z" />
    <glyph glyph-name="dotlessi" unicode="&#x131;" 
d="M55 35v405q0 15 14.5 24.5t37.5 9.5t38 -9.5t15 -24.5v-405q0 -13 -15.5 -24t-37.5 -11t-37 11t-15 24z" />
    <glyph glyph-name="IJ" unicode="&#x132;" horiz-adv-x="760" 
d="M66 35v662q0 17 15.5 25.5t37.5 8.5t37.5 -8.5t15.5 -25.5v-662q0 -16 -15.5 -25.5t-37.5 -9.5q-21 0 -37 9.5t-16 25.5zM247 185q0 29 13 40t41 11q51 0 52 -35q2 -49 31 -81t87 -32q120 0 120 129v420h-117q-16 0 -25.5 14t-9.5 34q0 19 9 32.5t26 13.5h176
q19 0 33 -9.5t14 -25.5v-479q0 -115 -61 -169t-161 -54q-101 0 -164.5 52.5t-63.5 138.5z" />
    <glyph glyph-name="ij" unicode="&#x133;" horiz-adv-x="414" 
d="M46 648q0 23 18 39t43 16t43 -16t18 -39q0 -22 -18 -38.5t-43 -16.5t-43 16.5t-18 38.5zM55 35v405q0 15 14.5 24.5t37.5 9.5t38 -9.5t15 -24.5v-405q0 -13 -15.5 -24t-37.5 -11t-37 11t-15 24zM161 -181q0 20 12 33t29 13q32 0 42 24.5t10 74.5v476q0 15 14.5 24.5
t37.5 9.5t38 -9.5t15 -24.5v-476q0 -87 -36 -138t-107 -51q-55 0 -55 44zM245 648q0 23 18 39t43 16t43 -16t18 -39q0 -22 -18 -38.5t-43 -16.5t-43 16.5t-18 38.5z" />
    <glyph glyph-name="Jcircumflex" unicode="&#x134;" horiz-adv-x="530" 
d="M17 185q0 29 13 40t41 11q51 0 52 -35q2 -49 31 -81t87 -32q120 0 120 129v420h-117q-16 0 -25.5 14t-9.5 34q0 19 9 32.5t26 13.5h176q19 0 33 -9.5t14 -25.5v-479q0 -115 -61 -169t-161 -54q-101 0 -164.5 52.5t-63.5 138.5zM127 864q0 21 18 31l104 56q10 5 17 5
q9 0 17 -5l104 -55q19 -12 19 -33q0 -13 -7.5 -23.5t-18.5 -10.5q-2 0 -6 1q-2 2 -4 2l-104 56l-104 -56q-4 -3 -9 -3q-11 0 -18.5 10.5t-7.5 24.5z" />
    <glyph glyph-name="jcircumflex" unicode="&#x135;" 
d="M-38 -181q0 20 12 33t29 13q32 0 42 24.5t10 74.5v476q0 15 14.5 24.5t37.5 9.5t38 -9.5t15 -24.5v-476q0 -87 -36 -138t-107 -51q-55 0 -55 44zM-31 617q0 21 18 31l104 56q10 5 17 5q9 0 17 -5l104 -55q19 -12 19 -33q0 -13 -7.5 -23.5t-18.5 -10.5q-2 0 -6 1
q-2 2 -4 2l-104 56l-104 -56q-4 -3 -9 -3q-11 0 -18.5 10.5t-7.5 24.5z" />
    <glyph glyph-name="Kcommaaccent" unicode="&#x136;" horiz-adv-x="541" 
d="M66 35v662q0 17 15.5 25.5t37.5 8.5t37.5 -8.5t15.5 -25.5v-304l244 323q10 15 30 15q21 0 41 -17.5t20 -37.5q0 -12 -8 -21l-192 -240l228 -347q6 -9 6 -19q0 -19 -19.5 -35.5t-42.5 -16.5q-25 0 -38 20l-204 309l-65 -82v-209q0 -16 -15.5 -25.5t-37.5 -9.5
q-21 0 -37 9.5t-16 25.5zM181 -139q0 18 15 26l124 62q6 3 11 3q14 0 24 -13t10 -28q0 -19 -16 -28l-121 -60q-8 -4 -12 -4q-14 0 -24.5 13t-10.5 29z" />
    <glyph glyph-name="kcommaaccent" unicode="&#x137;" horiz-adv-x="480" 
d="M56 35v687q0 15 14 24.5t37 9.5t38.5 -9.5t15.5 -24.5v-445l209 192q9 9 22 9q17 0 34 -16t17 -34q0 -13 -9 -22l-129 -115l157 -226q6 -9 6 -18q0 -18 -20 -35.5t-39 -17.5q-17 0 -28 15l-147 217l-73 -66v-125q0 -13 -16 -24t-38 -11t-36.5 11t-14.5 24zM147 -139
q0 18 15 26l124 62q6 3 11 3q14 0 24 -13t10 -28q0 -19 -16 -28l-121 -60q-8 -4 -12 -4q-14 0 -24.5 13t-10.5 29z" />
    <glyph glyph-name="kgreenlandic" unicode="&#x138;" horiz-adv-x="479" 
d="M55 35v405q0 15 14.5 24.5t36.5 9.5q23 0 38.5 -9.5t15.5 -24.5v-163l209 192q9 9 22 9q17 0 34 -16t17 -34q0 -13 -9 -22l-129 -115l157 -226q6 -9 6 -18q0 -18 -20 -35.5t-39 -17.5q-18 0 -28 15l-147 217l-73 -66v-125q0 -13 -16 -24t-38 -11t-36.5 11t-14.5 24z" />
    <glyph glyph-name="Lacute" unicode="&#x139;" horiz-adv-x="477" 
d="M66 35v662q0 17 15.5 25.5t37.5 8.5t37.5 -8.5t15.5 -25.5v-603h260q15 0 23.5 -14t8.5 -33t-8.5 -33t-23.5 -14h-319q-19 0 -33 9.5t-14 25.5zM166 865q0 18 15 26l124 63q8 2 11 2q14 0 24 -13t10 -28q0 -20 -16 -27l-121 -61q-6 -3 -12 -3q-14 0 -24.5 13t-10.5 28z
" />
    <glyph glyph-name="lacute" unicode="&#x13a;" horiz-adv-x="233" 
d="M41 840q0 18 15 26l124 63q8 2 11 2q14 0 24 -13t10 -28q0 -20 -16 -27l-121 -61q-6 -3 -12 -3q-14 0 -24.5 13t-10.5 28zM64 35v687q0 15 14.5 24.5t37.5 9.5q22 0 37.5 -9.5t15.5 -24.5v-687q0 -13 -16 -24t-37 -11q-22 0 -37 11t-15 24z" />
    <glyph glyph-name="Lcommaaccent" unicode="&#x13b;" horiz-adv-x="477" 
d="M66 35v662q0 17 15.5 25.5t37.5 8.5t37.5 -8.5t15.5 -25.5v-603h260q15 0 23.5 -14t8.5 -33t-8.5 -33t-23.5 -14h-319q-19 0 -33 9.5t-14 25.5zM165 -139q0 18 15 26l124 62q6 3 11 3q14 0 24 -13t10 -28q0 -19 -16 -28l-121 -60q-8 -4 -12 -4q-14 0 -24.5 13t-10.5 29z
" />
    <glyph glyph-name="lcommaaccent" unicode="&#x13c;" horiz-adv-x="233" 
d="M25 -139q0 18 15 26l124 62q6 3 11 3q14 0 24 -13t10 -28q0 -19 -16 -28l-121 -60q-8 -4 -12 -4q-14 0 -24.5 13t-10.5 29zM64 35v687q0 15 14.5 24.5t37.5 9.5q22 0 37.5 -9.5t15.5 -24.5v-687q0 -13 -16 -24t-37 -11q-22 0 -37 11t-15 24z" />
    <glyph glyph-name="Lcaron" unicode="&#x13d;" horiz-adv-x="477" 
d="M66 35v662q0 17 15.5 25.5t37.5 8.5t37.5 -8.5t15.5 -25.5v-603h260q15 0 23.5 -14t8.5 -33t-8.5 -33t-23.5 -14h-319q-19 0 -33 9.5t-14 25.5zM303 681q0 25 17 42.5t42 17.5t42.5 -17.5t17.5 -41.5q0 -21 -50 -134q-7 -15 -23 -15q-13 0 -24.5 8t-11.5 21q0 8 2 12
l23 53q-35 17 -35 54z" />
    <glyph glyph-name="lcaron" unicode="&#x13e;" horiz-adv-x="233" 
d="M64 35v687q0 15 14.5 24.5t37.5 9.5q22 0 37.5 -9.5t15.5 -24.5v-687q0 -13 -16 -24t-37 -11q-22 0 -37 11t-15 24zM226 681q0 25 17 42.5t42 17.5t42.5 -17.5t17.5 -41.5q0 -21 -50 -134q-7 -15 -23 -15q-13 0 -24.5 8t-11.5 21q0 8 2 12l23 53q-35 17 -35 54z" />
    <glyph glyph-name="Ldot" unicode="&#x13f;" horiz-adv-x="477" 
d="M66 35v662q0 17 15.5 25.5t37.5 8.5t37.5 -8.5t15.5 -25.5v-603h260q15 0 23.5 -14t8.5 -33t-8.5 -33t-23.5 -14h-319q-19 0 -33 9.5t-14 25.5zM294 421q0 23 18 39.5t45 16.5q25 0 43.5 -16.5t18.5 -39.5t-18.5 -40t-43.5 -17q-27 0 -45 17t-18 40z" />
    <glyph glyph-name="ldot" unicode="&#x140;" horiz-adv-x="350" 
d="M64 35v687q0 15 14.5 24.5t37.5 9.5q22 0 37.5 -9.5t15.5 -24.5v-687q0 -13 -16 -24t-37 -11q-22 0 -37 11t-15 24zM221 300q0 23 18 39.5t45 16.5q25 0 43.5 -16.5t18.5 -39.5t-18.5 -40t-43.5 -17q-27 0 -45 17t-18 40z" />
    <glyph glyph-name="Lslash" unicode="&#x141;" horiz-adv-x="483" 
d="M-3 304q0 19 14 26l61 31v336q0 17 15.5 25.5t37.5 8.5t37.5 -8.5t15.5 -25.5v-282l74 38q4 2 11 2q15 0 27 -15.5t12 -31.5q0 -18 -15 -26l-109 -56v-232h260q15 0 23.5 -14t8.5 -33t-8.5 -33t-23.5 -14h-319q-19 0 -33 9.5t-14 25.5v237l-26 -13q-6 -3 -12 -3
q-14 0 -25.5 15t-11.5 33z" />
    <glyph glyph-name="lslash" unicode="&#x142;" horiz-adv-x="315" 
d="M13 304q0 19 14 26l75 38v354q0 15 14.5 24.5t37.5 9.5q22 0 37.5 -9.5t15.5 -24.5v-300l46 24q4 2 11 2q15 0 27 -15.5t12 -31.5q0 -18 -15 -26l-81 -42v-298q0 -13 -16 -24t-37 -11q-22 0 -37 11t-15 24v244l-40 -20q-6 -3 -12 -3q-14 0 -25.5 15t-11.5 33z" />
    <glyph glyph-name="Nacute" unicode="&#x143;" horiz-adv-x="593" 
d="M66 35v661q0 35 53 35q28 0 45 -12.5t35 -47.5l222 -433v459q0 17 15.5 25.5t37.5 8.5t37.5 -8.5t15.5 -25.5v-662q0 -16 -15.5 -25.5t-37.5 -9.5q-42 0 -63 39l-239 455v-459q0 -16 -15.5 -25.5t-37.5 -9.5q-21 0 -37 9.5t-16 25.5zM196 865q0 18 15 26l124 63q8 2 11 2
q14 0 24 -13t10 -28q0 -20 -16 -27l-121 -61q-6 -3 -12 -3q-14 0 -24.5 13t-10.5 28z" />
    <glyph glyph-name="nacute" unicode="&#x144;" horiz-adv-x="513" 
d="M55 35v405q0 15 14.5 24.5t37.5 9.5q20 0 33.5 -9.5t13.5 -24.5v-36q16 32 51.5 54t82.5 22q71 0 122.5 -58t51.5 -139v-248q0 -16 -15.5 -25.5t-37.5 -9.5q-20 0 -36 9.5t-16 25.5v248q0 40 -30 72t-71 32q-38 0 -67 -28.5t-29 -75.5v-248q0 -13 -16 -24t-37 -11
q-22 0 -37 11t-15 24zM168 618q0 18 15 26l124 63q8 2 11 2q14 0 24 -13t10 -28q0 -20 -16 -27l-121 -61q-6 -3 -12 -3q-14 0 -24.5 13t-10.5 28z" />
    <glyph glyph-name="Ncommaaccent" unicode="&#x145;" horiz-adv-x="593" 
d="M66 35v661q0 35 53 35q28 0 45 -12.5t35 -47.5l222 -433v459q0 17 15.5 25.5t37.5 8.5t37.5 -8.5t15.5 -25.5v-662q0 -16 -15.5 -25.5t-37.5 -9.5q-42 0 -63 39l-239 455v-459q0 -16 -15.5 -25.5t-37.5 -9.5q-21 0 -37 9.5t-16 25.5zM203 -139q0 18 15 26l124 62
q6 3 11 3q14 0 24 -13t10 -28q0 -19 -16 -28l-121 -60q-8 -4 -12 -4q-14 0 -24.5 13t-10.5 29z" />
    <glyph glyph-name="ncommaaccent" unicode="&#x146;" horiz-adv-x="513" 
d="M55 35v405q0 15 14.5 24.5t37.5 9.5q20 0 33.5 -9.5t13.5 -24.5v-36q16 32 51.5 54t82.5 22q71 0 122.5 -58t51.5 -139v-248q0 -16 -15.5 -25.5t-37.5 -9.5q-20 0 -36 9.5t-16 25.5v248q0 40 -30 72t-71 32q-38 0 -67 -28.5t-29 -75.5v-248q0 -13 -16 -24t-37 -11
q-22 0 -37 11t-15 24zM160 -139q0 18 15 26l124 62q6 3 11 3q14 0 24 -13t10 -28q0 -19 -16 -28l-121 -60q-8 -4 -12 -4q-14 0 -24.5 13t-10.5 29z" />
    <glyph glyph-name="Ncaron" unicode="&#x147;" horiz-adv-x="593" 
d="M66 35v661q0 35 53 35q28 0 45 -12.5t35 -47.5l222 -433v459q0 17 15.5 25.5t37.5 8.5t37.5 -8.5t15.5 -25.5v-662q0 -16 -15.5 -25.5t-37.5 -9.5q-42 0 -63 39l-239 455v-459q0 -16 -15.5 -25.5t-37.5 -9.5q-21 0 -37 9.5t-16 25.5zM158 946q0 13 7 23t17 10q7 0 13 -6
l101 -75l102 75q6 6 13 6q10 0 17 -10t7 -23q0 -21 -18 -33l-102 -75q-11 -7 -19 -7t-18 7l-103 75q-17 13 -17 33z" />
    <glyph glyph-name="ncaron" unicode="&#x148;" horiz-adv-x="513" 
d="M55 35v405q0 15 14.5 24.5t37.5 9.5q20 0 33.5 -9.5t13.5 -24.5v-36q16 32 51.5 54t82.5 22q71 0 122.5 -58t51.5 -139v-248q0 -16 -15.5 -25.5t-37.5 -9.5q-20 0 -36 9.5t-16 25.5v248q0 40 -30 72t-71 32q-38 0 -67 -28.5t-29 -75.5v-248q0 -13 -16 -24t-37 -11
q-22 0 -37 11t-15 24zM114 699q0 13 7 23t17 10q7 0 13 -6l101 -75l102 75q6 6 13 6q10 0 17 -10t7 -23q0 -21 -18 -33l-102 -75q-11 -7 -19 -7t-18 7l-103 75q-17 13 -17 33z" />
    <glyph glyph-name="Eng" unicode="&#x14a;" horiz-adv-x="594" 
d="M66 35v661q0 35 53 35q28 0 45 -12.5t35 -47.5l222 -433v459q0 17 15.5 25.5t37.5 8.5t37.5 -8.5t15.5 -25.5v-733q0 -87 -36.5 -138t-107.5 -51q-54 0 -54 44q0 21 11.5 33.5t29.5 12.5q31 0 41.5 25t10.5 74v41q0 16 -11 34l-239 455v-459q0 -16 -15.5 -25.5
t-37.5 -9.5q-21 0 -37 9.5t-16 25.5z" />
    <glyph glyph-name="eng" unicode="&#x14b;" horiz-adv-x="514" 
d="M55 35v405q0 15 14.5 24.5t37.5 9.5q20 0 33.5 -9.5t13.5 -24.5v-36q16 32 51.5 54t82.5 22q71 0 122.5 -58t51.5 -139v-319q0 -87 -36.5 -138t-106.5 -51q-55 0 -55 44q0 21 11.5 33.5t29.5 12.5q32 0 42 24.5t10 74.5v319q0 40 -30 72t-71 32q-38 0 -67 -28.5
t-29 -75.5v-248q0 -13 -16 -24t-37 -11q-22 0 -37 11t-15 24z" />
    <glyph glyph-name="Omacron" unicode="&#x14c;" horiz-adv-x="566" 
d="M59 217v291q0 115 61 169t163 54t163.5 -54t61.5 -169v-291q0 -115 -61.5 -169t-163.5 -54t-163 54t-61 169zM144 902q0 16 9.5 26.5t24.5 10.5h209q14 0 24.5 -11t10.5 -26t-10.5 -25t-24.5 -10h-209q-15 0 -24.5 9.5t-9.5 25.5zM165 217q0 -129 118 -129q57 0 88 32
t31 97v291q0 65 -31 97t-88 32q-118 0 -118 -129v-291z" />
    <glyph glyph-name="omacron" unicode="&#x14d;" horiz-adv-x="487" 
d="M36 191v92q0 79 61 138t146 59q83 0 145 -58.5t62 -138.5v-92q0 -78 -62.5 -138.5t-144.5 -60.5q-83 0 -145 60t-62 139zM104 655q0 16 9.5 26.5t24.5 10.5h209q14 0 24.5 -11t10.5 -26t-10.5 -25t-24.5 -10h-209q-15 0 -24.5 9.5t-9.5 25.5zM141 191q0 -41 30 -73.5
t72 -32.5q41 0 71.5 32.5t30.5 73.5v92q0 40 -30.5 72t-71.5 32q-42 0 -72 -32t-30 -72v-92z" />
    <glyph glyph-name="Obreve" unicode="&#x14e;" horiz-adv-x="566" 
d="M59 217v291q0 115 61 169t163 54t163.5 -54t61.5 -169v-291q0 -115 -61.5 -169t-163.5 -54t-163 54t-61 169zM156 965h60q0 -32 20.5 -54.5t46.5 -22.5t46 22.5t20 54.5h61q0 -50 -39 -88t-88 -38q-50 0 -88.5 37.5t-38.5 88.5zM165 217q0 -129 118 -129q57 0 88 32
t31 97v291q0 65 -31 97t-88 32q-118 0 -118 -129v-291z" />
    <glyph glyph-name="obreve" unicode="&#x14f;" horiz-adv-x="487" 
d="M36 191v92q0 79 61 138t146 59q83 0 145 -58.5t62 -138.5v-92q0 -78 -62.5 -138.5t-144.5 -60.5q-83 0 -145 60t-62 139zM117 718h60q0 -32 20.5 -54.5t46.5 -22.5t46 22.5t20 54.5h61q0 -50 -39 -88t-88 -38q-50 0 -88.5 37.5t-38.5 88.5zM141 191q0 -41 30 -73.5
t72 -32.5q41 0 71.5 32.5t30.5 73.5v92q0 40 -30.5 72t-71.5 32q-42 0 -72 -32t-30 -72v-92z" />
    <glyph glyph-name="Ohungarumlaut" unicode="&#x150;" horiz-adv-x="566" 
d="M59 217v291q0 115 61 169t163 54t163.5 -54t61.5 -169v-291q0 -115 -61.5 -169t-163.5 -54t-163 54t-61 169zM165 217q0 -129 118 -129q57 0 88 32t31 97v291q0 65 -31 97t-88 32q-118 0 -118 -129v-291zM166 855q0 9 7 15l89 81q5 6 16 6q12 0 22 -10.5t10 -21.5t-8 -18
l-85 -78q-7 -7 -16 -7q-13 0 -24 10.5t-11 22.5zM321 855q0 9 7 15l89 81q5 6 15 6q12 0 22.5 -10.5t10.5 -21.5q0 -10 -8 -18l-86 -78q-6 -7 -16 -7q-13 0 -23.5 10.5t-10.5 22.5z" />
    <glyph glyph-name="ohungarumlaut" unicode="&#x151;" horiz-adv-x="487" 
d="M36 191v92q0 79 61 138t146 59q83 0 145 -58.5t62 -138.5v-92q0 -78 -62.5 -138.5t-144.5 -60.5q-83 0 -145 60t-62 139zM123 609q0 9 7 15l89 81q5 6 16 6q12 0 22 -10.5t10 -21.5t-8 -18l-85 -78q-7 -7 -16 -7q-13 0 -24 10.5t-11 22.5zM141 191q0 -41 30 -73.5
t72 -32.5q41 0 71.5 32.5t30.5 73.5v92q0 40 -30.5 72t-71.5 32q-42 0 -72 -32t-30 -72v-92zM278 609q0 9 7 15l89 81q5 6 15 6q13 0 23 -10.5t10 -21.5q0 -10 -8 -18l-86 -78q-6 -7 -16 -7q-13 0 -23.5 10.5t-10.5 22.5z" />
    <glyph glyph-name="OE" unicode="&#x152;" horiz-adv-x="835" 
d="M60 217v291q0 116 55.5 169.5t150.5 53.5q47 0 87.5 -18.5t62.5 -54.5v38q0 16 14 25.5t33 9.5h319q17 0 25.5 -13.5t8.5 -32.5q0 -20 -9 -34t-25 -14h-273v-229h130q16 0 25 -12.5t9 -30.5q0 -16 -8.5 -28.5t-25.5 -12.5h-130v-230h273q16 0 25 -14t9 -34
q0 -19 -8.5 -32.5t-25.5 -13.5h-319q-19 0 -33 9.5t-14 25.5v32q-22 -36 -62.5 -54.5t-87.5 -18.5q-95 0 -150.5 53.5t-55.5 169.5zM166 217q0 -129 118 -129q57 0 88 32t31 97v291q0 65 -31 97t-88 32q-118 0 -118 -129v-291z" />
    <glyph glyph-name="oe" unicode="&#x153;" horiz-adv-x="782" 
d="M36 191v92q0 79 61 138t146 59q47 0 89 -23t69 -62q27 39 67 62t85 23q81 0 140 -53t59 -132q0 -30 -7 -48.5t-22 -26t-27.5 -9.5t-34.5 -2h-211v-23q0 -50 36 -79.5t95 -29.5q40 0 75.5 19t44.5 19q17 0 29 -15.5t12 -32.5q0 -25 -48.5 -50t-117.5 -25q-116 0 -175 85
q-28 -39 -69.5 -62t-88.5 -23q-83 0 -145 60t-62 139zM141 191q0 -41 30 -73.5t72 -32.5q41 0 71.5 32.5t30.5 73.5v92q0 40 -30.5 72t-71.5 32q-42 0 -72 -32t-30 -72v-92zM450 274h166q21 0 29 6t8 24q0 40 -29.5 68t-72.5 28q-41 0 -71 -26t-30 -66v-34z" />
    <glyph glyph-name="Racute" unicode="&#x154;" horiz-adv-x="559" 
d="M66 35v662q0 14 10 24t25 10h190q230 0 230 -204q0 -85 -38 -133.5t-103 -64.5l140 -263q4 -7 4 -15q0 -20 -20.5 -37t-43.5 -17q-26 0 -42 31l-146 286h-101v-279q0 -16 -15.5 -25.5t-37.5 -9.5q-21 0 -36.5 9.5t-15.5 25.5zM171 399h120q124 0 124 119t-124 119h-120
v-238zM215 865q0 18 15 26l124 63q8 2 11 2q14 0 24 -13t10 -28q0 -20 -16 -27l-121 -61q-6 -3 -12 -3q-14 0 -24.5 13t-10.5 28z" />
    <glyph glyph-name="racute" unicode="&#x155;" horiz-adv-x="360" 
d="M55 35v405q0 15 14.5 24.5t36.5 9.5q20 0 34 -9.5t14 -24.5v-44q17 35 51.5 59.5t75.5 24.5h32q16 0 28 -13.5t12 -32.5t-12 -33t-28 -14h-32q-48 0 -84.5 -41t-36.5 -106v-205q0 -13 -16 -24t-38 -11t-36.5 11t-14.5 24zM100 618q0 18 15 26l124 63q8 2 11 2
q14 0 24 -13t10 -28q0 -20 -16 -27l-121 -61q-6 -3 -12 -3q-14 0 -24.5 13t-10.5 28z" />
    <glyph glyph-name="Rcommaaccent" unicode="&#x156;" horiz-adv-x="559" 
d="M66 35v662q0 14 10 24t25 10h190q230 0 230 -204q0 -85 -38 -133.5t-103 -64.5l140 -263q4 -7 4 -15q0 -20 -20.5 -37t-43.5 -17q-26 0 -42 31l-146 286h-101v-279q0 -16 -15.5 -25.5t-37.5 -9.5q-21 0 -36.5 9.5t-15.5 25.5zM171 399h120q124 0 124 119t-124 119h-120
v-238zM179 -139q0 18 15 26l124 62q6 3 11 3q14 0 24 -13t10 -28q0 -19 -16 -28l-121 -60q-8 -4 -12 -4q-14 0 -24.5 13t-10.5 29z" />
    <glyph glyph-name="rcommaaccent" unicode="&#x157;" horiz-adv-x="360" 
d="M4 -139q0 18 15 26l124 62q6 3 11 3q14 0 24 -13t10 -28q0 -19 -16 -28l-121 -60q-8 -4 -12 -4q-14 0 -24.5 13t-10.5 29zM55 35v405q0 15 14.5 24.5t36.5 9.5q20 0 34 -9.5t14 -24.5v-44q17 35 51.5 59.5t75.5 24.5h32q16 0 28 -13.5t12 -32.5t-12 -33t-28 -14h-32
q-48 0 -84.5 -41t-36.5 -106v-205q0 -13 -16 -24t-38 -11t-36.5 11t-14.5 24z" />
    <glyph glyph-name="Rcaron" unicode="&#x158;" horiz-adv-x="559" 
d="M66 35v662q0 14 10 24t25 10h190q230 0 230 -204q0 -85 -38 -133.5t-103 -64.5l140 -263q4 -7 4 -15q0 -20 -20.5 -37t-43.5 -17q-26 0 -42 31l-146 286h-101v-279q0 -16 -15.5 -25.5t-37.5 -9.5q-21 0 -36.5 9.5t-15.5 25.5zM136 946q0 13 7 23t17 10q7 0 13 -6l101 -75
l102 75q6 6 13 6q10 0 17 -10t7 -23q0 -21 -18 -33l-102 -75q-11 -7 -19 -7t-18 7l-103 75q-17 13 -17 33zM171 399h120q124 0 124 119t-124 119h-120v-238z" />
    <glyph glyph-name="rcaron" unicode="&#x159;" horiz-adv-x="360" 
d="M43 699q0 13 7 23t17 10q7 0 13 -6l101 -75l102 75q6 6 13 6q10 0 17 -10t7 -23q0 -21 -18 -33l-102 -75q-10 -7 -19 -7q-7 0 -18 7l-103 75q-17 13 -17 33zM55 35v405q0 15 14.5 24.5t36.5 9.5q20 0 34 -9.5t14 -24.5v-44q17 35 51.5 59.5t75.5 24.5h32q16 0 28 -13.5
t12 -32.5t-12 -33t-28 -14h-32q-48 0 -84.5 -41t-36.5 -106v-205q0 -13 -16 -24t-38 -11t-36.5 11t-14.5 24z" />
    <glyph glyph-name="Sacute" unicode="&#x15a;" horiz-adv-x="512" 
d="M29 110q0 19 14 38t32 19q11 0 26.5 -12.5t30.5 -27t45.5 -27t68.5 -12.5q57 0 91.5 27t34.5 79q0 48 -33.5 80t-81 51t-95.5 41t-81.5 66t-33.5 110q0 53 20.5 92t55.5 60t73.5 30.5t81.5 9.5q27 0 56.5 -3.5t58.5 -11.5t48 -23t19 -34t-12 -38t-32 -19q-10 0 -27 9.5
t-45.5 19t-65.5 9.5q-57 0 -91 -22.5t-34 -68.5q0 -30 18 -51.5t46.5 -35.5t63.5 -27.5t69.5 -31.5t63 -41.5t46.5 -64.5t18 -95q0 -104 -62.5 -158.5t-165.5 -54.5q-92 0 -156.5 38.5t-64.5 79.5zM175 865q0 18 15 26l124 63q8 2 11 2q14 0 24 -13t10 -28q0 -20 -16 -27
l-121 -61q-6 -3 -12 -3q-14 0 -24.5 13t-10.5 28z" />
    <glyph glyph-name="sacute" unicode="&#x15b;" horiz-adv-x="404" 
d="M27 72q0 15 10.5 31t25.5 16q9 0 25 -11.5t43 -23t65 -11.5q85 0 85 54q0 29 -25 45.5t-60.5 26t-70.5 21.5t-60 41t-25 75q0 59 42 101.5t129 42.5q57 0 103.5 -17.5t46.5 -41.5q0 -14 -11.5 -32.5t-28.5 -18.5q-6 0 -41 14.5t-67 14.5q-40 0 -60.5 -18t-20.5 -40
q0 -24 25 -38t61 -23t71.5 -22t60.5 -45t25 -82q0 -65 -46 -102t-130 -37q-71 0 -121.5 25t-50.5 55zM115 618q0 18 15 26l124 63q8 2 11 2q14 0 24 -13t10 -28q0 -20 -16 -27l-121 -61q-6 -3 -12 -3q-14 0 -24.5 13t-10.5 28z" />
    <glyph glyph-name="Scircumflex" unicode="&#x15c;" horiz-adv-x="512" 
d="M29 110q0 19 14 38t32 19q11 0 26.5 -12.5t30.5 -27t45.5 -27t68.5 -12.5q57 0 91.5 27t34.5 79q0 48 -33.5 80t-81 51t-95.5 41t-81.5 66t-33.5 110q0 53 20.5 92t55.5 60t73.5 30.5t81.5 9.5q27 0 56.5 -3.5t58.5 -11.5t48 -23t19 -34t-12 -38t-32 -19q-10 0 -27 9.5
t-45.5 19t-65.5 9.5q-57 0 -91 -22.5t-34 -68.5q0 -30 18 -51.5t46.5 -35.5t63.5 -27.5t69.5 -31.5t63 -41.5t46.5 -64.5t18 -95q0 -104 -62.5 -158.5t-165.5 -54.5q-92 0 -156.5 38.5t-64.5 79.5zM113 864q0 21 18 31l104 56q10 5 17 5q9 0 17 -5l104 -55q19 -12 19 -33
q0 -13 -7.5 -23.5t-18.5 -10.5q-2 0 -6 1q-2 2 -4 2l-104 56l-104 -56q-4 -3 -9 -3q-11 0 -18.5 10.5t-7.5 24.5z" />
    <glyph glyph-name="scircumflex" unicode="&#x15d;" horiz-adv-x="404" 
d="M27 72q0 15 10.5 31t25.5 16q9 0 25 -11.5t43 -23t65 -11.5q85 0 85 54q0 29 -25 45.5t-60.5 26t-70.5 21.5t-60 41t-25 75q0 59 42 101.5t129 42.5q57 0 103.5 -17.5t46.5 -41.5q0 -14 -11.5 -32.5t-28.5 -18.5q-6 0 -41 14.5t-67 14.5q-40 0 -60.5 -18t-20.5 -40
q0 -24 25 -38t61 -23t71.5 -22t60.5 -45t25 -82q0 -65 -46 -102t-130 -37q-71 0 -121.5 25t-50.5 55zM60 617q0 21 18 31l104 56q10 5 17 5q9 0 17 -5l104 -55q19 -12 19 -33q0 -13 -7.5 -23.5t-18.5 -10.5q-2 0 -6 1q-2 2 -4 2l-104 56l-104 -56q-5 -3 -9 -3
q-11 0 -18.5 10.5t-7.5 24.5z" />
    <glyph glyph-name="Scedilla" unicode="&#x15e;" horiz-adv-x="512" 
d="M29 110q0 19 14 38t32 19q11 0 26.5 -12.5t30.5 -27t45.5 -27t68.5 -12.5q57 0 91.5 27t34.5 79q0 48 -33.5 80t-81 51t-95.5 41t-81.5 66t-33.5 110q0 53 20.5 92t55.5 60t73.5 30.5t81.5 9.5q27 0 56.5 -3.5t58.5 -11.5t48 -23t19 -34t-12 -38t-32 -19q-10 0 -27 9.5
t-45.5 19t-65.5 9.5q-57 0 -91 -22.5t-34 -68.5q0 -30 18 -51.5t46.5 -35.5t63.5 -27.5t69.5 -31.5t63 -41.5t46.5 -64.5t18 -95q0 -92 -49 -145t-132 -65l-14 -50q48 -1 72.5 -22.5t24.5 -52.5q0 -32 -24.5 -58t-74.5 -26q-28 0 -55 7.5t-27 20.5q0 8 5.5 20t14.5 12
q2 0 20 -7t37 -7q50 0 50 36q0 33 -54 38l-48 5l21 81q-90 1 -153 39t-63 79z" />
    <glyph glyph-name="scedilla" unicode="&#x15f;" horiz-adv-x="404" 
d="M27 72q0 15 10.5 31t25.5 16q9 0 25 -11.5t43 -23t65 -11.5q85 0 85 54q0 29 -25 45.5t-60.5 26t-70.5 21.5t-60 41t-25 75q0 59 42 101.5t129 42.5q57 0 103.5 -17.5t46.5 -41.5q0 -14 -11.5 -32.5t-28.5 -18.5q-6 0 -41 14.5t-67 14.5q-40 0 -60.5 -18t-20.5 -40
q0 -24 25 -38t61 -23t71.5 -22t60.5 -45t25 -82q0 -57 -36.5 -93.5t-102.5 -43.5l-14 -49q48 -1 72.5 -22.5t24.5 -52.5q0 -32 -24.5 -58t-74.5 -26q-28 0 -55 7.5t-27 20.5q0 8 5.5 20t14.5 12q2 0 20 -7t37 -7q50 0 50 36q0 33 -54 38l-48 5l21 81q-66 3 -111.5 27.5
t-45.5 52.5z" />
    <glyph glyph-name="Scaron" unicode="&#x160;" horiz-adv-x="512" 
d="M29 110q0 19 14 38t32 19q11 0 26.5 -12.5t30.5 -27t45.5 -27t68.5 -12.5q57 0 91.5 27t34.5 79q0 48 -33.5 80t-81 51t-95.5 41t-81.5 66t-33.5 110q0 53 20.5 92t55.5 60t73.5 30.5t81.5 9.5q27 0 56.5 -3.5t58.5 -11.5t48 -23t19 -34t-12 -38t-32 -19q-10 0 -27 9.5
t-45.5 19t-65.5 9.5q-57 0 -91 -22.5t-34 -68.5q0 -30 18 -51.5t46.5 -35.5t63.5 -27.5t69.5 -31.5t63 -41.5t46.5 -64.5t18 -95q0 -104 -62.5 -158.5t-165.5 -54.5q-92 0 -156.5 38.5t-64.5 79.5zM114 946q0 13 7 23t17 10q7 0 13 -6l101 -75l102 75q6 6 13 6q10 0 17 -10
t7 -23q0 -21 -18 -33l-102 -75q-11 -7 -19 -7t-18 7l-103 75q-17 13 -17 33z" />
    <glyph glyph-name="scaron" unicode="&#x161;" horiz-adv-x="404" 
d="M27 72q0 15 10.5 31t25.5 16q9 0 25 -11.5t43 -23t65 -11.5q85 0 85 54q0 29 -25 45.5t-60.5 26t-70.5 21.5t-60 41t-25 75q0 59 42 101.5t129 42.5q57 0 103.5 -17.5t46.5 -41.5q0 -14 -11.5 -32.5t-28.5 -18.5q-6 0 -41 14.5t-67 14.5q-40 0 -60.5 -18t-20.5 -40
q0 -24 25 -38t61 -23t71.5 -22t60.5 -45t25 -82q0 -65 -46 -102t-130 -37q-71 0 -121.5 25t-50.5 55zM62 699q0 13 7 23t17 10q7 0 13 -6l101 -75l102 75q6 6 13 6q10 0 17 -10t7 -23q0 -21 -18 -33l-102 -75q-11 -7 -19 -7t-18 7l-103 75q-17 13 -17 33z" />
    <glyph glyph-name="Tcommaaccent" unicode="&#x162;" horiz-adv-x="513" 
d="M14 683q0 19 9 33.5t26 14.5h415q17 0 26 -14t9 -33q0 -21 -9.5 -35.5t-25.5 -14.5h-154v-599q0 -16 -16 -25.5t-37 -9.5q-22 0 -37.5 9.5t-15.5 25.5v599h-155q-16 0 -25.5 14.5t-9.5 34.5zM162 -139q0 18 15 26l124 62q6 3 11 3q14 0 24 -13t10 -28q0 -19 -16 -28
l-121 -60q-8 -4 -12 -4q-14 0 -24.5 13t-10.5 29z" />
    <glyph glyph-name="tcommaaccent" unicode="&#x163;" horiz-adv-x="329" 
d="M54 156v501q0 14 16 24t36 10t36.5 -10t16.5 -24v-183h122q13 0 21 -11.5t8 -27.5t-8 -27.5t-21 -11.5h-122v-240q0 -36 15.5 -51t54.5 -15h35q21 0 33 -13t12 -32t-12 -32t-33 -13h-35q-175 0 -175 156zM66 -139q0 18 15 26l124 62q6 3 11 3q14 0 24 -13t10 -28
q0 -19 -16 -28l-121 -60q-8 -4 -12 -4q-14 0 -24.5 13t-10.5 29z" />
    <glyph glyph-name="Tcaron" unicode="&#x164;" horiz-adv-x="513" 
d="M14 683q0 19 9 33.5t26 14.5h415q17 0 26 -14t9 -33q0 -21 -9.5 -35.5t-25.5 -14.5h-154v-599q0 -16 -16 -25.5t-37 -9.5q-22 0 -37.5 9.5t-15.5 25.5v599h-155q-16 0 -25.5 14.5t-9.5 34.5zM117 946q0 13 7 23t17 10q7 0 13 -6l101 -75l102 75q6 6 13 6q10 0 17 -10
t7 -23q0 -21 -18 -33l-102 -75q-10 -7 -19 -7q-7 0 -18 7l-103 75q-17 13 -17 33z" />
    <glyph glyph-name="tcaron" unicode="&#x165;" horiz-adv-x="329" 
d="M54 156v501q0 14 16 24t36 10t36.5 -10t16.5 -24v-183h122q13 0 21 -11.5t8 -27.5t-8 -27.5t-21 -11.5h-122v-240q0 -36 15.5 -51t54.5 -15h35q21 0 33 -13t12 -32t-12 -32t-33 -13h-35q-175 0 -175 156zM209 697q0 25 17 42.5t42 17.5t42.5 -17.5t17.5 -41.5
q0 -21 -50 -134q-7 -15 -23 -15q-13 0 -24.5 8t-11.5 21q0 8 2 12l23 53q-35 17 -35 54z" />
    <glyph glyph-name="Tbar" unicode="&#x166;" horiz-adv-x="513" 
d="M14 683q0 19 9 33.5t26 14.5h415q17 0 26 -14t9 -33q0 -21 -9.5 -35.5t-25.5 -14.5h-154v-229h100q14 0 22 -12t8 -28t-8 -28t-22 -12h-100v-290q0 -16 -16 -25.5t-37 -9.5q-22 0 -37.5 9.5t-15.5 25.5v290h-102q-14 0 -21.5 12t-7.5 28t8 28t21 12h102v229h-155
q-16 0 -25.5 14.5t-9.5 34.5z" />
    <glyph glyph-name="tbar" unicode="&#x167;" horiz-adv-x="331" 
d="M54 156v501q0 14 16 24t36 10t36.5 -10t16.5 -24v-183h122q13 0 21 -11.5t8 -27.5t-8 -27.5t-21 -11.5h-122v-84h122q13 0 21 -12t8 -28t-8 -27.5t-21 -11.5h-122v-77q0 -36 15.5 -51t54.5 -15h35q21 0 33 -13t12 -32t-12 -32t-33 -13h-35q-175 0 -175 156z" />
    <glyph glyph-name="Utilde" unicode="&#x168;" horiz-adv-x="583" 
d="M63 217v480q0 17 15.5 25.5t37.5 8.5t37.5 -8.5t15.5 -25.5v-480q0 -65 32 -97t90 -32q123 0 123 129v480q0 17 15.5 25.5t37.5 8.5t37.5 -8.5t15.5 -25.5v-480q0 -115 -62.5 -169t-166.5 -54q-103 0 -165.5 54t-62.5 169zM123 883q0 34 29 49t58 15q28 0 69.5 -15.5
t68.5 -15.5q24 0 47 12.5t30 12.5q14 0 21 -12t7 -22q0 -36 -28 -50t-57 -14q-32 0 -73 15.5t-66 15.5q-24 0 -47.5 -13.5t-30.5 -13.5q-14 0 -21 12.5t-7 23.5z" />
    <glyph glyph-name="utilde" unicode="&#x169;" horiz-adv-x="515" 
d="M51 189v250q0 14 16 24.5t37 10.5t36.5 -10.5t15.5 -24.5v-250q0 -40 30.5 -72t71.5 -32q42 0 72 31.5t30 72.5v251q0 14 15.5 24t37.5 10t36.5 -10t14.5 -24v-251q0 -79 -61 -138t-145 -59t-145.5 59t-61.5 138zM93 636q0 34 29 49t58 15q28 0 69.5 -15.5t68.5 -15.5
q24 0 47 12.5t30 12.5q14 0 21 -12t7 -22q0 -36 -28 -50t-57 -14q-32 0 -73 15.5t-66 15.5q-24 0 -47.5 -13.5t-30.5 -13.5q-14 0 -21 12.5t-7 23.5z" />
    <glyph glyph-name="Umacron" unicode="&#x16a;" horiz-adv-x="583" 
d="M63 217v480q0 17 15.5 25.5t37.5 8.5t37.5 -8.5t15.5 -25.5v-480q0 -65 32 -97t90 -32q123 0 123 129v480q0 17 15.5 25.5t37.5 8.5t37.5 -8.5t15.5 -25.5v-480q0 -115 -62.5 -169t-166.5 -54q-103 0 -165.5 54t-62.5 169zM151 902q0 16 9.5 26.5t24.5 10.5h209
q14 0 24.5 -11t10.5 -26t-10.5 -25t-24.5 -10h-209q-15 0 -24.5 9.5t-9.5 25.5z" />
    <glyph glyph-name="umacron" unicode="&#x16b;" horiz-adv-x="515" 
d="M51 189v250q0 14 16 24.5t37 10.5t36.5 -10.5t15.5 -24.5v-250q0 -40 30.5 -72t71.5 -32q42 0 72 31.5t30 72.5v251q0 14 15.5 24t37.5 10t36.5 -10t14.5 -24v-251q0 -79 -61 -138t-145 -59t-145.5 59t-61.5 138zM120 655q0 16 9.5 26.5t24.5 10.5h209q14 0 24.5 -11
t10.5 -26t-10.5 -25t-24.5 -10h-209q-15 0 -24.5 9.5t-9.5 25.5z" />
    <glyph glyph-name="Ubreve" unicode="&#x16c;" horiz-adv-x="583" 
d="M63 217v480q0 17 15.5 25.5t37.5 8.5t37.5 -8.5t15.5 -25.5v-480q0 -65 32 -97t90 -32q123 0 123 129v480q0 17 15.5 25.5t37.5 8.5t37.5 -8.5t15.5 -25.5v-480q0 -115 -62.5 -169t-166.5 -54q-103 0 -165.5 54t-62.5 169zM162 965h60q0 -32 20.5 -54.5t46.5 -22.5
t46 22.5t20 54.5h61q0 -50 -39 -88t-88 -38q-50 0 -88.5 37.5t-38.5 88.5z" />
    <glyph glyph-name="ubreve" unicode="&#x16d;" horiz-adv-x="515" 
d="M51 189v250q0 14 16 24.5t37 10.5t36.5 -10.5t15.5 -24.5v-250q0 -40 30.5 -72t71.5 -32q42 0 72 31.5t30 72.5v251q0 14 15.5 24t37.5 10t36.5 -10t14.5 -24v-251q0 -79 -61 -138t-145 -59t-145.5 59t-61.5 138zM132 718h60q0 -32 20.5 -54.5t46.5 -22.5t46 22.5
t20 54.5h61q0 -50 -39 -88t-88 -38q-50 0 -88.5 37.5t-38.5 88.5z" />
    <glyph glyph-name="Uring" unicode="&#x16e;" horiz-adv-x="583" 
d="M63 217v480q0 17 15.5 25.5t37.5 8.5t37.5 -8.5t15.5 -25.5v-480q0 -65 32 -97t90 -32q123 0 123 129v480q0 17 15.5 25.5t37.5 8.5t37.5 -8.5t15.5 -25.5v-480q0 -115 -62.5 -169t-166.5 -54q-103 0 -165.5 54t-62.5 169zM195 919q0 38 28 67.5t67 29.5q38 0 67.5 -29.5
t29.5 -67.5q0 -39 -29.5 -69t-67.5 -30q-39 0 -67 30t-28 69zM239 918q0 -20 15.5 -37t36.5 -17q20 0 35 16.5t15 37.5q0 19 -15 34.5t-35 15.5q-21 0 -36.5 -15.5t-15.5 -34.5z" />
    <glyph glyph-name="uring" unicode="&#x16f;" horiz-adv-x="515" 
d="M51 189v250q0 14 16 24.5t37 10.5t36.5 -10.5t15.5 -24.5v-250q0 -40 30.5 -72t71.5 -32q42 0 72 31.5t30 72.5v251q0 14 15.5 24t37.5 10t36.5 -10t14.5 -24v-251q0 -79 -61 -138t-145 -59t-145.5 59t-61.5 138zM162 672q0 38 28 67.5t67 29.5q38 0 67.5 -29.5
t29.5 -67.5q0 -39 -29.5 -69t-67.5 -30q-39 0 -67 30t-28 69zM206 671q0 -20 15.5 -37t36.5 -17q20 0 35 16.5t15 37.5q0 19 -15 34.5t-35 15.5q-21 0 -36.5 -15.5t-15.5 -34.5z" />
    <glyph glyph-name="Uhungarumlaut" unicode="&#x170;" horiz-adv-x="583" 
d="M63 217v480q0 17 15.5 25.5t37.5 8.5t37.5 -8.5t15.5 -25.5v-480q0 -65 32 -97t90 -32q123 0 123 129v480q0 17 15.5 25.5t37.5 8.5t37.5 -8.5t15.5 -25.5v-480q0 -115 -62.5 -169t-166.5 -54q-103 0 -165.5 54t-62.5 169zM176 855q0 9 7 15l89 81q5 6 16 6
q12 0 22 -10.5t10 -21.5t-8 -18l-85 -78q-7 -7 -16 -7q-13 0 -24 10.5t-11 22.5zM331 855q0 9 7 15l89 81q5 6 15 6q12 0 22.5 -10.5t10.5 -21.5q0 -10 -8 -18l-86 -78q-6 -7 -16 -7q-13 0 -23.5 10.5t-10.5 22.5z" />
    <glyph glyph-name="uhungarumlaut" unicode="&#x171;" horiz-adv-x="515" 
d="M51 189v250q0 14 16 24.5t37 10.5t36.5 -10.5t15.5 -24.5v-250q0 -40 30.5 -72t71.5 -32q42 0 72 31.5t30 72.5v251q0 14 15.5 24t37.5 10t36.5 -10t14.5 -24v-251q0 -79 -61 -138t-145 -59t-145.5 59t-61.5 138zM139 608q0 9 7 15l89 81q5 6 16 6q12 0 22 -10.5
t10 -21.5t-8 -18l-85 -78q-7 -7 -16 -7q-13 0 -24 10.5t-11 22.5zM294 608q0 9 7 15l89 81q5 6 15 6q13 0 23 -10t10 -22q0 -10 -8 -18l-86 -78q-6 -7 -16 -7q-13 0 -23.5 10.5t-10.5 22.5z" />
    <glyph glyph-name="Uogonek" unicode="&#x172;" horiz-adv-x="583" 
d="M63 217v480q0 17 15.5 25.5t37.5 8.5t37.5 -8.5t15.5 -25.5v-480q0 -65 32 -97t90 -32q123 0 123 129v480q0 17 15.5 25.5t37.5 8.5t37.5 -8.5t15.5 -25.5v-480q0 -170 -139 -211q-34 -24 -55 -56.5t-21 -64.5q0 -46 60 -46q22 0 22 -25q0 -22 -28 -22q-50 0 -79.5 22.5
t-29.5 61.5q0 64 54 118h-13q-103 0 -165.5 54t-62.5 169z" />
    <glyph glyph-name="uogonek" unicode="&#x173;" horiz-adv-x="515" 
d="M51 189v250q0 14 16 24.5t37 10.5t36.5 -10.5t15.5 -24.5v-250q0 -40 30.5 -72t71.5 -32q42 0 72 31.5t30 72.5v251q0 14 15.5 24t37.5 10t36.5 -10t14.5 -24v-251q0 -60 -36.5 -110.5t-94.5 -72.5q-34 -24 -55 -56.5t-21 -64.5q0 -46 60 -46q22 0 22 -25q0 -22 -28 -22
q-50 0 -79.5 22.5t-29.5 61.5q0 62 52 116q-83 1 -143 60t-60 137z" />
    <glyph glyph-name="Wcircumflex" unicode="&#x174;" horiz-adv-x="847" 
d="M14 688q0 18 21 30.5t45 12.5q31 0 37 -22l164 -570l90 358q7 31 53 31q44 0 52 -31l91 -358l163 570q6 22 37 22q24 0 45 -12.5t21 -30.5q0 -7 -1 -10l-198 -648q-6 -17 -25.5 -26.5t-42.5 -9.5t-42.5 9.5t-23.5 26.5l-76 302l-76 -302q-4 -17 -23.5 -26.5t-43.5 -9.5
t-43 9.5t-24 26.5l-199 648q-1 3 -1 10zM284 864q0 21 18 31l104 56q10 5 17 5q9 0 17 -5l104 -55q19 -12 19 -33q0 -13 -7.5 -23.5t-18.5 -10.5q-2 0 -6 1q-2 2 -4 2l-104 56l-104 -56q-5 -3 -9 -3q-11 0 -18.5 10.5t-7.5 24.5z" />
    <glyph glyph-name="wcircumflex" unicode="&#x175;" horiz-adv-x="684" 
d="M10 434q0 18 22 31t45 13q25 0 32 -19l111 -311l85 276q7 23 37 23t37 -23l84 -278l112 313q6 19 31 19q22 0 44.5 -13t22.5 -32q0 -8 -4 -16l-155 -406q-8 -21 -42 -21t-43 20l-87 258l-86 -255q-9 -23 -45 -23q-33 0 -42 23l-155 404q-4 12 -4 17zM202 617q0 21 18 31
l104 56q10 5 17 5q9 0 17 -5l104 -55q19 -12 19 -33q0 -13 -7.5 -23.5t-18.5 -10.5q-2 0 -6 1q-2 2 -4 2l-104 56l-104 -56q-5 -3 -9 -3q-11 0 -18.5 10.5t-7.5 24.5z" />
    <glyph glyph-name="Ycircumflex" unicode="&#x176;" horiz-adv-x="558" 
d="M13 687q0 18 22 31t45 13q22 0 35 -24l165 -317l164 317q12 24 35 24t44.5 -13t21.5 -31q0 -9 -3 -15l-207 -373q-2 -6 -2 -11v-253q0 -16 -16 -25.5t-37 -9.5q-22 0 -37.5 9.5t-15.5 25.5v253q0 2 -3 11l-207 373q-4 8 -4 15zM140 864q0 21 18 31l104 56q10 5 17 5
q9 0 17 -5l104 -55q19 -12 19 -33q0 -13 -7.5 -23.5t-18.5 -10.5q-2 0 -6 1q-2 2 -4 2l-104 56l-104 -56q-5 -3 -9 -3q-11 0 -18.5 10.5t-7.5 24.5z" />
    <glyph glyph-name="ycircumflex" unicode="&#x177;" horiz-adv-x="457" 
d="M10 -180q0 45 29 45q45 0 89 43t54 121l-168 388q-4 5 -4 14q0 19 23 34.5t46 15.5q25 0 32 -19l126 -325l108 325q9 19 30 19t45.5 -15.5t24.5 -36.5q0 -9 -2 -12l-148 -391l-17 -45q-6 -14 -18.5 -43t-21.5 -44l-24 -37q-15 -23 -30 -34.5t-34 -24t-42 -18t-49 -5.5
q-49 0 -49 45zM97 617q0 21 18 31l104 56q10 5 17 5q9 0 17 -5l104 -55q19 -12 19 -33q0 -13 -7.5 -23.5t-18.5 -10.5q-2 0 -6 1q-2 2 -4 2l-104 56l-104 -56q-4 -3 -9 -3q-11 0 -18.5 10.5t-7.5 24.5z" />
    <glyph glyph-name="Ydieresis" unicode="&#x178;" horiz-adv-x="558" 
d="M13 687q0 18 22 31t45 13q22 0 35 -24l165 -317l164 317q12 24 35 24t44.5 -13t21.5 -31q0 -9 -3 -15l-207 -373q-2 -6 -2 -11v-253q0 -16 -16 -25.5t-37 -9.5q-22 0 -37.5 9.5t-15.5 25.5v253q0 2 -3 11l-207 373q-4 8 -4 15zM165 877q0 19 13.5 32.5t32.5 13.5
t31.5 -13.5t12.5 -32.5t-13 -33t-31 -14q-19 0 -32.5 14t-13.5 33zM305 877q0 19 13 32.5t32 13.5t32 -13.5t13 -32.5t-13 -33t-32 -14t-32 14t-13 33z" />
    <glyph glyph-name="Zacute" unicode="&#x179;" horiz-adv-x="508" 
d="M18 31q0 19 11 37l310 569h-271q-16 0 -25.5 13.5t-9.5 33.5q0 19 9 33t26 14h373q34 0 34 -30q0 -18 -12 -39l-310 -568h303q16 0 25.5 -14.5t9.5 -32.5t-9.5 -32.5t-25.5 -14.5h-405q-33 0 -33 31zM177 865q0 18 15 26l124 63q8 2 11 2q14 0 24 -13t10 -28
q0 -20 -16 -27l-121 -61q-6 -3 -12 -3q-14 0 -24.5 13t-10.5 28z" />
    <glyph glyph-name="zacute" unicode="&#x17a;" horiz-adv-x="425" 
d="M23 38q0 17 18 42l214 307h-190q-13 0 -23 13t-10 31t9 30.5t24 12.5h289q15 0 25.5 -9.5t10.5 -27.5q0 -21 -16 -43l-215 -307h212q14 0 24 -12.5t10 -31.5q0 -18 -9.5 -30.5t-24.5 -12.5h-311q-18 0 -27.5 11.5t-9.5 26.5zM146 618q0 18 15 26l124 63q8 2 11 2
q14 0 24 -13t10 -28q0 -20 -16 -27l-121 -61q-6 -3 -12 -3q-14 0 -24.5 13t-10.5 28z" />
    <glyph glyph-name="Zdotaccent" unicode="&#x17b;" horiz-adv-x="508" 
d="M18 31q0 19 11 37l310 569h-271q-16 0 -25.5 13.5t-9.5 33.5q0 19 9 33t26 14h373q34 0 34 -30q0 -18 -12 -39l-310 -568h303q16 0 25.5 -14.5t9.5 -32.5t-9.5 -32.5t-25.5 -14.5h-405q-33 0 -33 31zM214 877q0 19 13 32.5t32 13.5t32 -13.5t13 -32.5t-13 -33t-32 -14
t-32 14t-13 33z" />
    <glyph glyph-name="zdotaccent" unicode="&#x17c;" horiz-adv-x="425" 
d="M23 38q0 17 18 42l214 307h-190q-13 0 -23 13t-10 31t9 30.5t24 12.5h289q15 0 25.5 -9.5t10.5 -27.5q0 -21 -16 -43l-215 -307h212q14 0 24 -12.5t10 -31.5q0 -18 -9.5 -30.5t-24.5 -12.5h-311q-18 0 -27.5 11.5t-9.5 26.5zM168 630q0 19 13 32.5t32 13.5t32 -13.5
t13 -32.5t-13 -33t-32 -14t-32 14t-13 33z" />
    <glyph glyph-name="Zcaron" unicode="&#x17d;" horiz-adv-x="508" 
d="M18 31q0 19 11 37l310 569h-271q-16 0 -25.5 13.5t-9.5 33.5q0 19 9 33t26 14h373q34 0 34 -30q0 -18 -12 -39l-310 -568h303q16 0 25.5 -14.5t9.5 -32.5t-9.5 -32.5t-25.5 -14.5h-405q-33 0 -33 31zM114 946q0 13 7 23t17 10q7 0 13 -6l101 -75l102 75q6 6 13 6
q10 0 17 -10t7 -23q0 -21 -18 -33l-102 -75q-11 -7 -19 -7t-18 7l-103 75q-17 13 -17 33z" />
    <glyph glyph-name="zcaron" unicode="&#x17e;" horiz-adv-x="425" 
d="M23 38q0 17 18 42l214 307h-190q-13 0 -23 13t-10 31t9 30.5t24 12.5h289q15 0 25.5 -9.5t10.5 -27.5q0 -21 -16 -43l-215 -307h212q14 0 24 -12.5t10 -31.5q0 -18 -9.5 -30.5t-24.5 -12.5h-311q-18 0 -27.5 11.5t-9.5 26.5zM74 699q0 13 7 23t17 10q7 0 13 -6l101 -75
l102 75q6 6 13 6q10 0 17 -10t7 -23q0 -21 -18 -33l-102 -75q-11 -7 -19 -7t-18 7l-103 75q-17 13 -17 33z" />
    <glyph glyph-name="florin" unicode="&#x192;" horiz-adv-x="372" 
d="M-73 -91q0 22 11 37.5t27 15.5h22q44 0 59 107l69 504q11 81 74.5 138t141.5 57h40q14 0 23 -13t9 -32q0 -21 -11 -34.5t-26 -13.5h-37q-43 0 -72.5 -29t-36.5 -73l-20 -139h132q14 0 21.5 -11.5t7.5 -26.5q0 -16 -8.5 -28.5t-22.5 -12.5h-141l-40 -286
q-13 -90 -53.5 -148t-111.5 -58h-24q-15 0 -24 13.5t-9 32.5z" />
    <glyph glyph-name="AEacute" unicode="&#x1fc;" horiz-adv-x="761" 
d="M63 40v468q0 115 60.5 169t159.5 54h423q17 0 26 -14t9 -32q0 -20 -9.5 -34t-25.5 -14h-230v-229h129q16 0 25.5 -12.5t9.5 -30.5q0 -16 -9 -28.5t-26 -12.5h-129v-230h230q16 0 25.5 -14t9.5 -34q0 -18 -9 -32t-26 -14h-289q-19 0 -33 9.5t-14 25.5v289h-207v-284
q0 -20 -10.5 -30t-42.5 -10q-47 0 -47 40zM163 408h207v229h-87q-120 0 -120 -129v-100zM341 863q0 18 15 26l124 63q8 2 11 2q14 0 24 -13t10 -28q0 -20 -16 -27l-121 -61q-6 -3 -12 -3q-14 0 -24.5 13t-10.5 28z" />
    <glyph glyph-name="aeacute" unicode="&#x1fd;" horiz-adv-x="740" 
d="M25 124q0 80 59.5 111.5t173.5 31.5h44v18q0 45 -24 77t-76 32q-42 0 -74.5 -15.5t-36.5 -15.5q-16 0 -26.5 17t-10.5 37q0 25 48.5 44.5t102.5 19.5q105 0 155 -84q59 83 151 83q80 0 139.5 -51t59.5 -140q0 -50 -21.5 -65t-69.5 -15h-210v-23q0 -50 35.5 -79.5
t92.5 -29.5q40 0 77.5 19t45.5 19q17 0 29 -15.5t12 -31.5q0 -27 -52 -51.5t-119 -24.5q-58 0 -106 25.5t-77 72.5q-33 -47 -79.5 -72.5t-93.5 -25.5q-64 0 -106.5 34t-42.5 98zM131 136q0 -31 18 -47.5t47 -16.5q39 0 72.5 32t33.5 68v37h-25q-70 0 -108 -14.5t-38 -58.5z
M285 618q0 18 15 26l124 63q8 2 11 2q14 0 24 -13t10 -28q0 -20 -16 -27l-121 -61q-6 -3 -12 -3q-14 0 -24.5 13t-10.5 28zM409 274h165q22 0 29.5 6t7.5 23q0 41 -29 69t-72 28q-42 0 -71.5 -26.5t-29.5 -66.5v-33z" />
    <glyph glyph-name="Oslashacute" unicode="&#x1fe;" horiz-adv-x="566" 
d="M59 217v291q0 115 61 169t163 54q75 0 127 -29l25 50q8 18 30 18q16 0 29 -11t13 -27q0 -9 -4 -16l-33 -66q38 -55 38 -142v-291q0 -115 -61.5 -169t-163.5 -54q-75 0 -128 28l-19 -38q-10 -19 -33 -19q-17 0 -28 11.5t-11 25.5q0 8 3 15l29 58q-37 56 -37 142zM165 212
l199 399q-31 26 -81 26q-118 0 -118 -129v-296zM201 114q29 -26 82 -26q57 0 88 32t31 97v297zM205 865q0 18 15 26l124 63q8 2 11 2q14 0 24 -13t10 -28q0 -20 -16 -27l-121 -61q-6 -3 -12 -3q-14 0 -24.5 13t-10.5 28z" />
    <glyph glyph-name="oslashacute" unicode="&#x1ff;" horiz-adv-x="487" 
d="M36 191v92q0 79 61 138t146 59q56 0 107 -30l32 49q7 11 18 11t19 -8t8 -19q0 -5 -6 -17l-31 -47q60 -57 60 -136v-92q0 -78 -62.5 -138.5t-144.5 -60.5q-62 0 -113 34l-32 -49q-6 -9 -17 -9q-9 0 -17 7t-8 17q0 7 5 14l32 50q-57 59 -57 135zM141 191q0 -26 10 -46
l146 224q-26 18 -54 18q-42 0 -72 -32t-30 -72v-92zM178 618q0 18 15 26l124 63q8 2 11 2q14 0 24 -13t10 -28q0 -20 -16 -27l-121 -61q-6 -3 -12 -3q-14 0 -24.5 13t-10.5 28zM183 106q27 -21 60 -21q41 0 71.5 32.5t30.5 73.5v92q0 24 -13 48z" />
    <glyph glyph-name="Scommaaccent" unicode="&#x218;" horiz-adv-x="512" 
d="M29 110q0 19 14 38t32 19q11 0 26.5 -12.5t30.5 -27t45.5 -27t68.5 -12.5q57 0 91.5 27t34.5 79q0 48 -33.5 80t-81 51t-95.5 41t-81.5 66t-33.5 110q0 53 20.5 92t55.5 60t73.5 30.5t81.5 9.5q27 0 56.5 -3.5t58.5 -11.5t48 -23t19 -34t-12 -38t-32 -19q-10 0 -27 9.5
t-45.5 19t-65.5 9.5q-57 0 -91 -22.5t-34 -68.5q0 -30 18 -51.5t46.5 -35.5t63.5 -27.5t69.5 -31.5t63 -41.5t46.5 -64.5t18 -95q0 -104 -62.5 -158.5t-165.5 -54.5q-92 0 -156.5 38.5t-64.5 79.5zM174 -139q0 18 15 26l124 62q6 3 11 3q14 0 24 -13t10 -28q0 -19 -16 -28
l-121 -60q-8 -4 -12 -4q-14 0 -24.5 13t-10.5 29z" />
    <glyph glyph-name="scommaaccent" unicode="&#x219;" horiz-adv-x="404" 
d="M27 72q0 15 10.5 31t25.5 16q9 0 25 -11.5t43 -23t65 -11.5q85 0 85 54q0 29 -25 45.5t-60.5 26t-70.5 21.5t-60 41t-25 75q0 59 42 101.5t129 42.5q57 0 103.5 -17.5t46.5 -41.5q0 -14 -11.5 -32.5t-28.5 -18.5q-6 0 -41 14.5t-67 14.5q-40 0 -60.5 -18t-20.5 -40
q0 -24 25 -38t61 -23t71.5 -22t60.5 -45t25 -82q0 -65 -46 -102t-130 -37q-71 0 -121.5 25t-50.5 55zM112 -139q0 18 15 26l124 62q6 3 11 3q14 0 24 -13t10 -28q0 -19 -16 -28l-121 -60q-8 -4 -12 -4q-14 0 -24.5 13t-10.5 29z" />
    <glyph glyph-name="uni0237" unicode="&#x237;" 
d="M-38 -181q0 20 12 33t29 13q32 0 42 24.5t10 74.5v476q0 15 14.5 24.5t37.5 9.5t38 -9.5t15 -24.5v-476q0 -87 -36 -138t-107 -51q-55 0 -55 44z" />
    <glyph glyph-name="uni0259" unicode="&#x259;" horiz-adv-x="474" 
d="M30 177q0 30 7 48.5t22 26t28 9.5t34 2h212v23q0 50 -36 79.5t-94 29.5q-41 0 -78 -19t-45 -19q-17 0 -28.5 16t-11.5 31q0 26 47.5 51t118.5 25q102 0 166.5 -55t64.5 -144v-95q0 -79 -61 -136.5t-147 -57.5q-81 0 -140 52.5t-59 132.5zM129 168q0 -40 29.5 -68
t72.5 -28q42 0 72 26.5t30 67.5v32h-167q-21 0 -29 -6t-8 -24z" />
    <glyph glyph-name="circumflex" unicode="&#x2c6;" horiz-adv-x="279" 
d="M0 617q0 21 18 31l104 56q10 5 17 5q9 0 17 -5l104 -55q19 -12 19 -33q0 -13 -7.5 -23.5t-18.5 -10.5q-2 0 -6 1q-2 2 -4 2l-104 56l-104 -56q-5 -3 -9 -3q-11 0 -18.5 10.5t-7.5 24.5z" />
    <glyph glyph-name="caron" unicode="&#x2c7;" horiz-adv-x="287" 
d="M5 699q0 13 7 23t17 10q7 0 13 -6l101 -75l102 75q6 6 13 6q10 0 17 -10t7 -23q0 -21 -18 -33l-102 -75q-10 -7 -19 -7q-7 0 -18 7l-103 75q-17 13 -17 33z" />
    <glyph glyph-name="breve" unicode="&#x2d8;" horiz-adv-x="254" 
d="M0 718h60q0 -32 20.5 -54.5t46.5 -22.5t46 22.5t20 54.5h61q0 -50 -39 -88t-88 -38q-50 0 -88.5 37.5t-38.5 88.5z" />
    <glyph glyph-name="dotaccent" unicode="&#x2d9;" horiz-adv-x="195" 
d="M57 630q0 19 13 32.5t32 13.5t32 -13.5t13 -32.5t-13 -33t-32 -14t-32 14t-13 33z" />
    <glyph glyph-name="ring" unicode="&#x2da;" horiz-adv-x="192" 
d="M0 672q0 38 28 67.5t67 29.5q38 0 67.5 -29.5t29.5 -67.5q0 -39 -29.5 -69t-67.5 -30q-39 0 -67 30t-28 69zM44 671q0 -20 15.5 -37t36.5 -17q20 0 35 16.5t15 37.5q0 19 -15 34.5t-35 15.5q-21 0 -36.5 -15.5t-15.5 -34.5z" />
    <glyph glyph-name="ogonek" unicode="&#x2db;" horiz-adv-x="137" 
d="M0 -124q0 85 89 148l42 -18q-34 -24 -55 -56.5t-21 -64.5q0 -46 60 -46q22 0 22 -25q0 -22 -28 -22q-50 0 -79.5 22.5t-29.5 61.5z" />
    <glyph glyph-name="tilde" unicode="&#x2dc;" horiz-adv-x="330" 
d="M0 636q0 34 29 49t58 15q28 0 69.5 -15.5t68.5 -15.5q24 0 47 12.5t30 12.5q14 0 21 -12t7 -22q0 -36 -28 -50t-57 -14q-32 0 -73 15.5t-66 15.5q-24 0 -47.5 -13.5t-30.5 -13.5q-14 0 -21 12.5t-7 23.5z" />
    <glyph glyph-name="hungarumlaut" unicode="&#x2dd;" horiz-adv-x="299" 
d="M0 608q0 9 7 15l89 81q5 6 16 6q12 0 22 -10.5t10 -21.5t-8 -18l-85 -78q-7 -7 -16 -7q-13 0 -24 10.5t-11 22.5zM155 608q0 9 7 15l89 81q5 6 15 6q12 0 22.5 -10t10.5 -22q0 -10 -8 -18l-86 -78q-6 -7 -16 -7q-13 0 -23.5 10.5t-10.5 22.5z" />
    <glyph glyph-name="pi" unicode="&#x3c0;" horiz-adv-x="522" 
d="M55 34v405q0 17 13.5 26t33.5 9h318q20 0 33.5 -9t13.5 -26v-405q0 -17 -15.5 -25.5t-37.5 -8.5t-37.5 8.5t-15.5 25.5v346h-201v-346q0 -17 -15.5 -25.5t-37.5 -8.5t-37 8.5t-15 25.5z" />
    <glyph glyph-name="Wgrave" unicode="&#x1e80;" horiz-adv-x="847" 
d="M14 688q0 18 21 30.5t45 12.5q31 0 37 -22l164 -570l90 358q7 31 53 31q44 0 52 -31l91 -358l163 570q6 22 37 22q24 0 45 -12.5t21 -30.5q0 -7 -1 -10l-198 -648q-6 -17 -25.5 -26.5t-42.5 -9.5t-42.5 9.5t-23.5 26.5l-76 302l-76 -302q-4 -17 -23.5 -26.5t-43.5 -9.5
t-43 9.5t-24 26.5l-199 648q-1 3 -1 10zM320 915q0 15 10 28t24 13q3 0 11 -2l124 -63q15 -8 15 -26q0 -15 -10 -28t-24 -13q-7 0 -13 3l-121 61q-16 7 -16 27z" />
    <glyph glyph-name="wgrave" unicode="&#x1e81;" horiz-adv-x="684" 
d="M10 434q0 18 22 31t45 13q25 0 32 -19l111 -311l85 276q7 23 37 23t37 -23l84 -278l112 313q6 19 31 19q22 0 44.5 -13t22.5 -32q0 -8 -4 -16l-155 -406q-8 -21 -42 -21t-43 20l-87 258l-86 -255q-9 -23 -45 -23q-33 0 -42 23l-155 404q-4 12 -4 17zM232 668q0 15 10 28
t24 13q3 0 11 -2l124 -63q15 -8 15 -26q0 -15 -10 -28t-24 -13q-7 0 -13 3l-121 61q-16 7 -16 27z" />
    <glyph glyph-name="Wacute" unicode="&#x1e82;" horiz-adv-x="847" 
d="M14 688q0 18 21 30.5t45 12.5q31 0 37 -22l164 -570l90 358q7 31 53 31q44 0 52 -31l91 -358l163 570q6 22 37 22q24 0 45 -12.5t21 -30.5q0 -7 -1 -10l-198 -648q-6 -17 -25.5 -26.5t-42.5 -9.5t-42.5 9.5t-23.5 26.5l-76 302l-76 -302q-4 -17 -23.5 -26.5t-43.5 -9.5
t-43 9.5t-24 26.5l-199 648q-1 3 -1 10zM343 865q0 18 15 26l124 63q8 2 11 2q14 0 24 -13t10 -28q0 -20 -16 -27l-121 -61q-6 -3 -12 -3q-14 0 -24.5 13t-10.5 28z" />
    <glyph glyph-name="wacute" unicode="&#x1e83;" horiz-adv-x="684" 
d="M10 434q0 18 22 31t45 13q25 0 32 -19l111 -311l85 276q7 23 37 23t37 -23l84 -278l112 313q6 19 31 19q22 0 44.5 -13t22.5 -32q0 -8 -4 -16l-155 -406q-8 -21 -42 -21t-43 20l-87 258l-86 -255q-9 -23 -45 -23q-33 0 -42 23l-155 404q-4 12 -4 17zM266 618q0 18 15 26
l124 63q8 2 11 2q14 0 24 -13t10 -28q0 -20 -16 -27l-121 -61q-6 -3 -12 -3q-14 0 -24.5 13t-10.5 28z" />
    <glyph glyph-name="Wdieresis" unicode="&#x1e84;" horiz-adv-x="847" 
d="M14 688q0 18 21 30.5t45 12.5q31 0 37 -22l164 -570l90 358q7 31 53 31q44 0 52 -31l91 -358l163 570q6 22 37 22q24 0 45 -12.5t21 -30.5q0 -7 -1 -10l-198 -648q-6 -17 -25.5 -26.5t-42.5 -9.5t-42.5 9.5t-23.5 26.5l-76 302l-76 -302q-4 -17 -23.5 -26.5t-43.5 -9.5
t-43 9.5t-24 26.5l-199 648q-1 3 -1 10zM309 877q0 19 13.5 32.5t32.5 13.5t31.5 -13.5t12.5 -32.5t-13 -33t-31 -14q-19 0 -32.5 14t-13.5 33zM449 877q0 19 13 32.5t32 13.5t32 -13.5t13 -32.5t-13 -33t-32 -14t-32 14t-13 33z" />
    <glyph glyph-name="wdieresis" unicode="&#x1e85;" horiz-adv-x="684" 
d="M10 434q0 18 22 31t45 13q25 0 32 -19l111 -311l85 276q7 23 37 23t37 -23l84 -278l112 313q6 19 31 19q22 0 44.5 -13t22.5 -32q0 -8 -4 -16l-155 -406q-8 -21 -42 -21t-43 20l-87 258l-86 -255q-9 -23 -45 -23q-33 0 -42 23l-155 404q-4 12 -4 17zM227 630
q0 19 13.5 32.5t32.5 13.5t31.5 -13.5t12.5 -32.5t-13 -33t-31 -14q-19 0 -32.5 14t-13.5 33zM367 630q0 19 13 32.5t32 13.5t32 -13.5t13 -32.5t-13 -33t-32 -14t-32 14t-13 33z" />
    <glyph glyph-name="Ygrave" unicode="&#x1ef2;" horiz-adv-x="558" 
d="M13 687q0 18 22 31t45 13q22 0 35 -24l165 -317l164 317q12 24 35 24t44.5 -13t21.5 -31q0 -9 -3 -15l-207 -373q-2 -6 -2 -11v-253q0 -16 -16 -25.5t-37 -9.5q-22 0 -37.5 9.5t-15.5 25.5v253q0 2 -3 11l-207 373q-4 8 -4 15zM176 915q0 15 10 28t24 13q3 0 11 -2
l124 -63q15 -8 15 -26q0 -15 -10 -28t-24 -13q-7 0 -13 3l-121 61q-16 7 -16 27z" />
    <glyph glyph-name="ygrave" unicode="&#x1ef3;" horiz-adv-x="457" 
d="M10 -180q0 45 29 45q45 0 89 43t54 121l-168 388q-4 5 -4 14q0 19 23 34.5t46 15.5q25 0 32 -19l126 -325l108 325q9 19 30 19t45.5 -15.5t24.5 -36.5q0 -9 -2 -12l-148 -391l-17 -45q-6 -14 -18.5 -43t-21.5 -44l-24 -37q-15 -23 -30 -34.5t-34 -24t-42 -18t-49 -5.5
q-49 0 -49 45zM118 668q0 15 10 28t24 13q3 0 11 -2l124 -63q15 -8 15 -26q0 -15 -10 -28t-24 -13q-7 0 -13 3l-121 61q-16 7 -16 27z" />
    <glyph glyph-name="endash" unicode="&#x2013;" horiz-adv-x="472" 
d="M41 240q0 19 9.5 32t24.5 13h320q14 0 25 -13.5t11 -31.5q0 -19 -11 -31.5t-25 -12.5h-320q-15 0 -24.5 12.5t-9.5 31.5z" />
    <glyph glyph-name="emdash" unicode="&#x2014;" horiz-adv-x="752" 
d="M41 240q0 19 9.5 32t24.5 13h601q14 0 24.5 -13.5t10.5 -31.5q0 -19 -10.5 -31.5t-24.5 -12.5h-601q-15 0 -24.5 12.5t-9.5 31.5z" />
    <glyph glyph-name="quoteleft" unicode="&#x2018;" horiz-adv-x="176" 
d="M26 593q0 20 50 133q5 15 23 15q13 0 24.5 -8t11.5 -21q0 -4 -3 -12l-22 -53q35 -15 35 -54q0 -25 -17.5 -42.5t-42.5 -17.5q-24 0 -41.5 17.5t-17.5 42.5z" />
    <glyph glyph-name="quoteright" unicode="&#x2019;" horiz-adv-x="174" 
d="M32 681q0 25 17 42.5t42 17.5q24 0 41.5 -17.5t17.5 -41.5q0 -23 -50 -134q-5 -15 -23 -15q-13 0 -24.5 8t-11.5 21q0 6 3 12l22 53q-34 17 -34 54z" />
    <glyph glyph-name="quotesinglbase" unicode="&#x201a;" horiz-adv-x="185" 
d="M33 54q0 25 17 42.5t42 17.5t42.5 -17.5t17.5 -42.5q0 -20 -50 -133q-7 -15 -24 -15q-12 0 -23.5 8t-11.5 21q0 8 2 12l22 53q-34 15 -34 54z" />
    <glyph glyph-name="quotedblleft" unicode="&#x201c;" horiz-adv-x="348" 
d="M26 593q0 20 50 133q7 15 23 15q13 0 24.5 -8t11.5 -21q0 -4 -3 -12l-22 -53q35 -15 35 -54q0 -25 -17.5 -42.5t-42.5 -17.5q-24 0 -41.5 17.5t-17.5 42.5zM198 593q0 20 50 133q7 15 24 15q12 0 23.5 -8t11.5 -21q0 -7 -2 -12l-22 -53q34 -15 34 -54q0 -25 -17 -42.5
t-42 -17.5t-42.5 17.5t-17.5 42.5z" />
    <glyph glyph-name="quotedblright" unicode="&#x201d;" horiz-adv-x="348" 
d="M32 681q0 25 17.5 42.5t42.5 17.5q24 0 41.5 -17.5t17.5 -41.5q0 -21 -50 -134q-7 -15 -23 -15q-13 0 -24.5 8t-11.5 21q0 6 3 12l22 53q-35 17 -35 54zM205 681q0 25 17 42.5t42 17.5t42.5 -17.5t17.5 -41.5q0 -21 -50 -134q-7 -15 -24 -15q-12 0 -23.5 8t-11.5 21
q0 8 2 12l22 53q-34 17 -34 54z" />
    <glyph glyph-name="quotedblbase" unicode="&#x201e;" horiz-adv-x="357" 
d="M33 54q0 25 17 42.5t42 17.5t42.5 -17.5t17.5 -42.5q0 -20 -50 -133q-7 -15 -24 -15q-12 0 -23.5 8t-11.5 21q0 8 2 12l22 53q-34 15 -34 54zM205 54q0 25 17.5 42.5t42.5 17.5q24 0 41.5 -17.5t17.5 -42.5q0 -20 -50 -133q-7 -15 -23 -15q-13 0 -24.5 8t-11.5 21
q0 6 3 12l22 53q-35 15 -35 54z" />
    <glyph glyph-name="dagger" unicode="&#x2020;" horiz-adv-x="432" 
d="M21 454q0 18 9.5 30t24.5 12l108 -6v207q0 14 15.5 24t36.5 10q20 0 36.5 -10.5t16.5 -23.5v-207l107 6q14 0 25 -12.5t11 -29.5q0 -18 -11 -29.5t-25 -11.5l-107 6v-400q0 -16 -16.5 -28t-36.5 -12q-21 0 -36.5 12t-15.5 28v400l-108 -6q-15 0 -24.5 11t-9.5 30z" />
    <glyph glyph-name="daggerdbl" unicode="&#x2021;" horiz-adv-x="443" 
d="M27 241q0 18 9.5 30t24.5 12l107 -6v142l-107 -6q-15 0 -24.5 11t-9.5 30q0 18 9.5 30t24.5 12l107 -6v207q0 14 15.5 24t37.5 10q20 0 36.5 -10.5t16.5 -23.5v-207l107 6q14 0 24.5 -12.5t10.5 -29.5q0 -18 -10.5 -29.5t-24.5 -11.5l-107 6v-142l107 6q14 0 24.5 -12.5
t10.5 -29.5q0 -18 -10.5 -30t-24.5 -12l-107 6v-186q0 -16 -16.5 -28t-36.5 -12q-22 0 -37.5 12t-15.5 28v186l-107 -6q-15 0 -24.5 11.5t-9.5 30.5z" />
    <glyph glyph-name="bullet" unicode="&#x2022;" horiz-adv-x="321" 
d="M38 300q0 47 37 82t86 35t85 -35t36 -82t-36 -82.5t-85 -35.5t-86 35.5t-37 82.5z" />
    <glyph glyph-name="ellipsis" unicode="&#x2026;" horiz-adv-x="560" 
d="M33 54q0 25 17 42.5t43 17.5q24 0 41.5 -17.5t17.5 -42.5q0 -24 -17.5 -42t-41.5 -18q-26 0 -43 17.5t-17 42.5zM222 54q0 25 17 42.5t43 17.5q24 0 41.5 -17.5t17.5 -42.5q0 -24 -17.5 -42t-41.5 -18q-26 0 -43 17.5t-17 42.5zM409 54q0 25 17 42.5t43 17.5
q24 0 41.5 -17.5t17.5 -42.5q0 -24 -17.5 -42t-41.5 -18q-26 0 -43 17.5t-17 42.5z" />
    <glyph glyph-name="perthousand" unicode="&#x2030;" horiz-adv-x="1100" 
d="M31 460v148q0 123 135 123q61 0 98 -29.5t37 -93.5v-148q0 -64 -37 -93.5t-98 -29.5q-135 0 -135 123zM104 460q0 -59 62 -59q63 0 63 59v148q0 59 -63 59q-62 0 -62 -59v-148zM168 2q0 8 4 15l367 735q8 18 30 18q16 0 29 -11t13 -27q0 -8 -3 -16l-367 -732
q-9 -19 -34 -19q-17 0 -28 11.5t-11 25.5zM473 120v148q0 123 135 123q61 0 98 -29.5t37 -93.5v-148q0 -64 -37 -93.5t-98 -29.5q-135 0 -135 123zM546 120q0 -59 62 -59q63 0 63 59v148q0 59 -63 59q-62 0 -62 -59v-148zM801 120v148q0 123 135 123q61 0 98 -29.5t37 -93.5
v-148q0 -64 -37 -93.5t-98 -29.5q-135 0 -135 123zM874 120q0 -59 62 -59q63 0 63 59v148q0 59 -63 59q-62 0 -62 -59v-148z" />
    <glyph glyph-name="guilsinglleft" unicode="&#x2039;" horiz-adv-x="258" 
d="M28 276q0 11 18 42l79 148q8 14 32 14t43.5 -17t19.5 -35q0 -6 -3 -12l-74 -139l74 -139q3 -4 3 -11q0 -18 -19.5 -35.5t-44.5 -17.5q-24 0 -31 15l-79 147q-18 31 -18 40z" />
    <glyph glyph-name="guilsinglright" unicode="&#x203a;" horiz-adv-x="258" 
d="M38 127q0 7 3 11l74 139l-74 139q-3 6 -3 12q0 18 19.5 35t43.5 17t32 -14l79 -148q18 -31 18 -42q0 -9 -18 -40l-79 -147q-7 -15 -31 -15q-25 0 -44.5 17.5t-19.5 35.5z" />
    <glyph glyph-name="fraction" unicode="&#x2044;" horiz-adv-x="178" 
d="M-133 2q0 8 4 15l367 735q8 18 30 18q16 0 29 -11t13 -27q0 -8 -3 -16l-367 -732q-10 -19 -34 -19q-17 0 -28 11.5t-11 25.5z" />
    <glyph glyph-name="uni2070" unicode="&#x2070;" horiz-adv-x="346" 
d="M36 460v148q0 123 135 123q61 0 98 -29.5t37 -93.5v-148q0 -64 -37 -93.5t-98 -29.5q-135 0 -135 123zM109 460q0 -59 62 -59q63 0 63 59v148q0 59 -63 59q-62 0 -62 -59v-148z" />
    <glyph glyph-name="uni2074" unicode="&#x2074;" horiz-adv-x="306" 
d="M7 450q0 7 4 14l139 248q10 19 31 19q11 0 23.5 -8t12.5 -19q0 -6 -3 -10l-114 -202h73v52q0 23 36 23q37 0 37 -23v-52h27q23 0 23 -34q0 -12 -7 -22.5t-16 -10.5h-27v-62q0 -23 -37 -23q-36 0 -36 23v62h-141q-25 0 -25 25z" />
    <glyph glyph-name="uni2075" unicode="&#x2075;" horiz-adv-x="317" 
d="M22 433q0 19 9 26.5t27 7.5q37 0 37 -28q0 -38 60 -38q65 0 65 57v10q0 58 -63 58h-85q-30 0 -30 28q0 12 1 20l14 134q2 23 15 23h178q22 0 22 -32t-22 -32h-132l-8 -84h47q62 0 99 -27.5t37 -87.5v-10q0 -62 -37.5 -91.5t-97.5 -29.5q-63 0 -99.5 28.5t-36.5 67.5z" />
    <glyph glyph-name="uni2076" unicode="&#x2076;" horiz-adv-x="338" 
d="M36 466v142q0 64 38 93.5t101 29.5q64 0 98 -30t34 -68q0 -30 -34 -30q-38 0 -38 27q0 17 -17.5 27t-44.5 10q-64 0 -64 -59v-56q25 26 78 26q120 0 120 -111v-7q0 -64 -37 -93.5t-98 -29.5q-136 0 -136 129zM109 455q0 -59 63 -59t63 59v7q0 60 -64 60q-62 0 -62 -55
v-12z" />
    <glyph glyph-name="uni2077" unicode="&#x2077;" horiz-adv-x="306" 
d="M19 626v82q0 8 10 15.5t23 7.5h206q11 0 21.5 -7.5t10.5 -15.5v-62q0 -19 -13 -43l-150 -255q-6 -11 -21 -11q-18 0 -32 11t-14 26q0 6 3 12l155 246v35h-126v-41q0 -10 -11 -16.5t-25 -6.5q-15 0 -26 6.5t-11 16.5z" />
    <glyph glyph-name="uni2078" unicode="&#x2078;" horiz-adv-x="330" 
d="M29 447v7q0 77 69 100q-56 19 -56 82q0 95 123 95q122 0 122 -95q0 -63 -56 -82q69 -23 69 -100v-7q0 -56 -37 -83t-98 -27q-62 0 -99 27t-37 83zM102 455q0 -60 63 -60t63 60v11q0 57 -63 57t-63 -57v-11zM112 627q0 -45 53 -45q52 0 52 45t-52 45q-53 0 -53 -45z" />
    <glyph glyph-name="uni2079" unicode="&#x2079;" horiz-adv-x="342" 
d="M31 435q0 30 34 30q38 0 38 -27q0 -17 17.5 -27t44.5 -10q65 0 65 59v56q-25 -26 -78 -26q-121 0 -121 111v7q0 64 37 93.5t99 29.5q61 0 98 -29.5t37 -93.5v-148q0 -123 -139 -123q-64 0 -98 30t-34 68zM104 605q0 -59 63 -59t63 55v11q0 60 -63 60t-63 -60v-7z" />
    <glyph glyph-name="uni2080" unicode="&#x2080;" horiz-adv-x="347" 
d="M38 120v148q0 123 135 123q61 0 98 -29.5t37 -93.5v-148q0 -64 -37 -93.5t-98 -29.5q-135 0 -135 123zM111 120q0 -59 62 -59q63 0 63 59v148q0 59 -63 59q-62 0 -62 -59v-148z" />
    <glyph glyph-name="uni2081" unicode="&#x2081;" horiz-adv-x="184" 
d="M11 314q0 18 13 26l68 48q8 4 16 4q12 0 22 -6.5t10 -16.5v-346q0 -23 -36 -23q-37 0 -37 23v283l-19 -16q-7 -4 -13 -4q-10 0 -17 8.5t-7 19.5z" />
    <glyph glyph-name="uni2082" unicode="&#x2082;" horiz-adv-x="316" 
d="M27 23v52q0 28 29.5 57t64.5 49.5t64.5 47t29.5 51.5q0 18 -14 31.5t-42 13.5q-53 0 -53 -45q0 -10 -11 -18.5t-28 -8.5q-32 0 -32 38q0 45 36.5 72.5t86.5 27.5q53 0 91.5 -30t38.5 -79q0 -38 -29 -71.5t-64 -53t-64 -41t-29 -38.5v-14h164q9 0 16 -9.5t7 -22.5
q0 -12 -7 -22t-16 -10h-207q-11 0 -21.5 6.5t-10.5 16.5z" />
    <glyph glyph-name="uni2083" unicode="&#x2083;" horiz-adv-x="324" 
d="M24 95q0 16 7.5 22t26.5 6q22 0 29.5 -6t7.5 -19q0 -37 63 -37q34 0 49.5 13t15.5 42v10q0 49 -66 49q-23 0 -23 28t23 29q27 1 41 11t14 40q0 46 -53 46q-54 0 -54 -35q0 -27 -34 -27q-24 0 -31 6t-7 24q0 36 30 65t96 29q122 0 122 -96q0 -68 -46 -89q60 -21 60 -80
v-10q0 -62 -38 -90.5t-101 -28.5q-64 0 -98 30t-34 68z" />
    <glyph glyph-name="uni2084" unicode="&#x2084;" horiz-adv-x="306" 
d="M7 110q0 7 4 14l139 248q10 19 31 19q11 0 23.5 -8t12.5 -19q0 -6 -3 -10l-114 -202h73v52q0 23 36 23q37 0 37 -23v-52h27q23 0 23 -34q0 -12 -7 -22.5t-16 -10.5h-27v-62q0 -23 -37 -23q-36 0 -36 23v62h-141q-25 0 -25 25z" />
    <glyph glyph-name="uni2085" unicode="&#x2085;" horiz-adv-x="317" 
d="M22 93q0 19 9 26.5t27 7.5q37 0 37 -28q0 -38 60 -38q65 0 65 57v10q0 58 -63 58h-85q-30 0 -30 28q0 12 1 20l14 134q2 23 15 23h178q22 0 22 -32t-22 -32h-132l-8 -84h47q62 0 99 -27.5t37 -87.5v-10q0 -62 -37.5 -91.5t-97.5 -29.5q-63 0 -99.5 28.5t-36.5 67.5z" />
    <glyph glyph-name="uni2086" unicode="&#x2086;" horiz-adv-x="340" 
d="M38 126v142q0 64 38 93.5t101 29.5q64 0 98 -30t34 -68q0 -30 -34 -30q-38 0 -38 27q0 17 -17.5 27t-44.5 10q-64 0 -64 -59v-56q25 26 78 26q120 0 120 -111v-7q0 -64 -37 -93.5t-98 -29.5q-136 0 -136 129zM111 115q0 -59 63 -59t63 59v7q0 60 -64 60q-62 0 -62 -55
v-12z" />
    <glyph glyph-name="uni2087" unicode="&#x2087;" horiz-adv-x="305" 
d="M19 286v82q0 8 10 15.5t23 7.5h206q11 0 21.5 -7.5t10.5 -15.5v-62q0 -20 -13 -42l-150 -256q-6 -11 -21 -11q-18 0 -32 11t-14 26q0 6 3 12l155 246v35h-126v-41q0 -10 -11 -16.5t-25 -6.5q-15 0 -26 6.5t-11 16.5z" />
    <glyph glyph-name="uni2088" unicode="&#x2088;" horiz-adv-x="329" 
d="M29 107v7q0 77 69 100q-56 19 -56 82q0 95 123 95q122 0 122 -95q0 -63 -56 -82q69 -23 69 -100v-7q0 -56 -37 -83t-98 -27q-62 0 -99 27t-37 83zM102 115q0 -60 63 -60t63 60v11q0 57 -63 57t-63 -57v-11zM112 287q0 -44 53 -44q52 0 52 44q0 46 -52 46q-53 0 -53 -46z
" />
    <glyph glyph-name="uni2089" unicode="&#x2089;" horiz-adv-x="342" 
d="M31 95q0 30 34 30q38 0 38 -27q0 -17 17.5 -27t44.5 -10q65 0 65 59v56q-25 -26 -78 -26q-121 0 -121 111v7q0 64 37 93.5t99 29.5q61 0 98 -29.5t37 -93.5v-148q0 -123 -139 -123q-64 0 -98 30t-34 68zM104 265q0 -59 63 -59t63 55v11q0 60 -63 60t-63 -60v-7z" />
    <glyph glyph-name="Euro" unicode="&#x20ac;" horiz-adv-x="600" 
d="M25 273q0 17 9.5 28.5t24.5 11.5h53v80h-53q-15 0 -24.5 10.5t-9.5 26.5q0 17 9.5 28.5t24.5 11.5h53v38q0 115 61 169t161 54q101 0 164 -50.5t63 -134.5q0 -28 -12.5 -38.5t-40.5 -10.5q-53 0 -53 33q0 44 -29 75.5t-89 31.5q-119 0 -119 -129v-38h122q14 0 25 -11.5
t11 -27.5t-11 -27t-25 -11h-122v-80h122q14 0 25 -11.5t11 -27.5t-11 -27t-25 -11h-122v-29q0 -48 29 -83.5t91 -35.5q59 0 87.5 32t29.5 81q0 33 53 33q29 0 41 -10.5t12 -39.5q0 -86 -63 -138t-164 -52q-104 0 -163 56.5t-59 156.5v29h-53q-15 0 -24.5 10.5t-9.5 26.5z
" />
    <glyph glyph-name="trademark" unicode="&#x2122;" horiz-adv-x="655" 
d="M41 739q0 29 19 29h209q20 0 20 -29t-20 -29h-73v-215q0 -9 -9 -15t-22 -6t-22 6t-9 15v215h-74q-19 0 -19 29zM311 495v242q0 31 31 31q32 0 48 -35l63 -137l63 137q9 21 19.5 28t28.5 7q31 0 31 -31v-242q0 -9 -9 -15t-22 -6q-12 0 -21.5 6t-9.5 15v144l-59 -127
q-7 -15 -21 -15q-15 0 -21 15l-58 131v-148q0 -9 -9.5 -15t-22.5 -6q-12 0 -21.5 6t-9.5 15z" />
    <glyph glyph-name="uni2126" unicode="&#x2126;" horiz-adv-x="565" 
d="M47 47q0 20 10 33t24 13h101v24q-123 43 -123 210v181q0 115 61 169t163 54t163 -54t61 -169v-181q0 -166 -124 -210v-24h101q15 0 25 -13t10 -33t-10 -33.5t-25 -13.5h-165v203q82 18 82 124v181q0 129 -118 129q-119 0 -119 -129v-181q0 -113 82 -124v-203h-165
q-15 0 -24.5 13.5t-9.5 33.5z" />
    <glyph glyph-name="estimated" unicode="&#x212e;" horiz-adv-x="552" 
d="M42 215v47q0 88 71.5 153t170.5 65q94 0 162 -52.5t68 -132.5q0 -27 -7.5 -44.5t-22.5 -24.5t-28 -9t-34 -2h-237v-23q0 -127 123 -127q42 0 74 8t46 17l26 17q12 8 19 8q12 0 21.5 -16t9.5 -31q0 -25 -56.5 -50.5t-139.5 -25.5q-118 0 -192 61.5t-74 161.5zM185 268h158
q21 0 29 6t8 24q0 56 -25.5 86t-71.5 30q-45 0 -71.5 -28.5t-26.5 -85.5v-32z" />
    <glyph glyph-name="onethird" unicode="&#x2153;" horiz-adv-x="652" 
d="M24 654q0 18 13 26l68 47q7 5 16 5q12 0 22 -6.5t10 -16.5v-346q0 -23 -36 -23q-37 0 -37 23v282l-19 -15q-7 -4 -13 -4q-10 0 -17 8.5t-7 19.5zM55 2q0 8 4 15l367 735q8 18 30 18q16 0 29 -11t13 -27q0 -8 -3 -16l-367 -732q-10 -19 -34 -19q-17 0 -28 11.5t-11 25.5z
M355 95q0 16 7.5 22t26.5 6q22 0 29.5 -6t7.5 -19q0 -37 63 -37q34 0 49.5 13t15.5 42v10q0 49 -66 49q-23 0 -23 28t23 29q27 1 41 11t14 40q0 46 -53 46q-54 0 -54 -35q0 -27 -34 -27q-24 0 -31 6t-7 24q0 36 30 65t96 29q122 0 122 -96q0 -68 -46 -89q60 -21 60 -80v-10
q0 -62 -38 -90.5t-101 -28.5q-64 0 -98 30t-34 68z" />
    <glyph glyph-name="twothirds" unicode="&#x2154;" horiz-adv-x="765" 
d="M29 363v52q0 28 29.5 57t64.5 49.5t64.5 47t29.5 51.5q0 18 -14 31.5t-42 13.5q-53 0 -53 -45q0 -10 -11 -18.5t-28 -8.5q-32 0 -32 38q0 45 36.5 72.5t86.5 27.5q53 0 91.5 -30t38.5 -79q0 -38 -29 -71.5t-64 -53t-64 -41t-29 -38.5v-14h164q9 0 16 -9.5t7 -22.5
q0 -12 -7 -22t-16 -10h-207q-11 0 -21.5 6.5t-10.5 16.5zM178 2q0 8 4 15l367 735q8 18 30 18q16 0 29 -11t13 -27q0 -8 -3 -16l-367 -732q-9 -19 -34 -19q-17 0 -28 11.5t-11 25.5zM469 95q0 16 7.5 22t26.5 6q22 0 29.5 -6t7.5 -19q0 -37 63 -37q34 0 49.5 13t15.5 42v10
q0 49 -66 49q-23 0 -23 28t23 29q27 1 41 11t14 40q0 46 -53 46q-54 0 -54 -35q0 -27 -34 -27q-24 0 -31 6t-7 24q0 36 30 65t96 29q122 0 122 -96q0 -68 -46 -89q60 -21 60 -80v-10q0 -62 -38 -90.5t-101 -28.5q-64 0 -98 30t-34 68z" />
    <glyph glyph-name="oneeighth" unicode="&#x215b;" horiz-adv-x="651" 
d="M24 654q0 18 13 26l68 47q7 5 16 5q12 0 22 -6.5t10 -16.5v-346q0 -23 -36 -23q-37 0 -37 23v282l-19 -15q-7 -4 -13 -4q-10 0 -17 8.5t-7 19.5zM55 2q0 8 4 15l367 735q8 18 30 18q16 0 29 -11t13 -27q0 -8 -3 -16l-367 -732q-10 -19 -34 -19q-17 0 -28 11.5t-11 25.5z
M354 107v7q0 77 69 100q-56 19 -56 82q0 95 123 95q122 0 122 -95q0 -63 -56 -82q69 -23 69 -100v-7q0 -56 -37 -83t-98 -27q-62 0 -99 27t-37 83zM427 115q0 -60 63 -60t63 60v11q0 57 -63 57t-63 -57v-11zM437 287q0 -44 53 -44q52 0 52 44q0 46 -52 46q-53 0 -53 -46z
" />
    <glyph glyph-name="threeeighths" unicode="&#x215c;" horiz-adv-x="773" 
d="M25 435q0 16 7.5 22t26.5 6q22 0 29.5 -6t7.5 -19q0 -37 63 -37q34 0 49.5 13t15.5 42v10q0 49 -66 49q-23 0 -23 28t23 29q27 1 41 11t14 40q0 46 -53 46q-54 0 -54 -35q0 -27 -34 -27q-24 0 -31 6t-7 24q0 36 30 65t96 29q122 0 122 -96q0 -68 -46 -89q60 -21 60 -80
v-10q0 -62 -38 -90.5t-101 -28.5q-64 0 -98 30t-34 68zM177 2q0 8 4 15l367 735q8 18 30 18q16 0 29 -11t13 -27q0 -8 -3 -16l-367 -732q-10 -19 -34 -19q-17 0 -28 11.5t-11 25.5zM476 107v7q0 77 69 100q-56 19 -56 82q0 95 123 95q122 0 122 -95q0 -63 -56 -82
q69 -23 69 -100v-7q0 -56 -37 -83t-98 -27q-62 0 -99 27t-37 83zM549 115q0 -60 63 -60t63 60v11q0 57 -63 57t-63 -57v-11zM559 287q0 -44 53 -44q52 0 52 44q0 46 -52 46q-53 0 -53 -46z" />
    <glyph glyph-name="fiveeighths" unicode="&#x215d;" horiz-adv-x="773" 
d="M24 433q0 19 9 26.5t27 7.5q37 0 37 -28q0 -38 60 -38q65 0 65 57v10q0 58 -63 58h-85q-30 0 -30 28q0 12 1 20l14 134q2 23 15 23h178q22 0 22 -32t-22 -32h-132l-8 -84h47q62 0 99 -27.5t37 -87.5v-10q0 -62 -37.5 -91.5t-97.5 -29.5q-63 0 -99.5 28.5t-36.5 67.5z
M176 2q0 8 4 15l367 735q8 18 30 18q16 0 29 -11t13 -27q0 -8 -3 -16l-367 -732q-9 -19 -34 -19q-17 0 -28 11.5t-11 25.5zM475 107v7q0 77 69 100q-56 19 -56 82q0 95 123 95q122 0 122 -95q0 -63 -56 -82q69 -23 69 -100v-7q0 -56 -37 -83t-98 -27q-62 0 -99 27t-37 83z
M548 115q0 -60 63 -60t63 60v11q0 57 -63 57t-63 -57v-11zM558 287q0 -44 53 -44q52 0 52 44q0 46 -52 46q-53 0 -53 -46z" />
    <glyph glyph-name="seveneighths" unicode="&#x215e;" horiz-adv-x="771" 
d="M24 626v82q0 8 10 15.5t23 7.5h206q11 0 21.5 -7.5t10.5 -15.5v-62q0 -19 -13 -43l-150 -255q-6 -11 -21 -11q-18 0 -32 11t-14 26q0 6 3 12l155 246v35h-126v-41q0 -10 -11 -16.5t-25 -6.5q-15 0 -26 6.5t-11 16.5zM126 2q0 8 4 15l367 735q8 18 30 18q16 0 29 -11
t13 -27q0 -8 -3 -16l-367 -732q-9 -19 -34 -19q-17 0 -28 11.5t-11 25.5zM474 107v7q0 77 69 100q-56 19 -56 82q0 95 123 95q122 0 122 -95q0 -63 -56 -82q69 -23 69 -100v-7q0 -56 -37 -83t-98 -27q-62 0 -99 27t-37 83zM547 115q0 -60 63 -60t63 60v11q0 57 -63 57
t-63 -57v-11zM557 287q0 -44 53 -44q52 0 52 44q0 46 -52 46q-53 0 -53 -46z" />
    <glyph glyph-name="arrowleft" unicode="&#x2190;" horiz-adv-x="771" 
d="M70 240q0 12 15 27l201 201q9 9 22 9q18 0 33.5 -15.5t15.5 -34.5q0 -14 -8 -22l-121 -120h439q15 0 24.5 -13t9.5 -32t-9.5 -31.5t-24.5 -12.5h-439l121 -120q8 -8 8 -22q0 -19 -15 -34.5t-34 -15.5q-13 0 -22 9l-201 201q-15 14 -15 26z" />
    <glyph glyph-name="arrowup" unicode="&#x2191;" horiz-adv-x="771" 
d="M149 318q0 13 9 22l201 201q12 13 27 15q12 0 26 -15l201 -201q9 -9 9 -22q0 -18 -15.5 -33.5t-34.5 -15.5q-14 0 -22 8l-120 121v-439q0 -15 -12.5 -24.5t-31.5 -9.5q-20 0 -32.5 9.5t-12.5 24.5v439l-120 -121q-8 -8 -22 -8q-19 0 -34.5 15t-15.5 34z" />
    <glyph glyph-name="arrowright" unicode="&#x2192;" horiz-adv-x="771" 
d="M70 240q0 19 9.5 32t24.5 13h439l-121 120q-8 8 -8 22q0 19 15.5 34.5t33.5 15.5q13 0 22 -9l201 -201q15 -15 15 -27t-15 -26l-201 -201q-9 -9 -22 -9q-19 0 -34 15.5t-15 34.5q0 14 8 22l121 120h-439q-15 0 -24.5 12.5t-9.5 31.5z" />
    <glyph glyph-name="arrowdown" unicode="&#x2193;" horiz-adv-x="771" 
d="M149 163q0 19 15.5 34t34.5 15q14 0 22 -8l120 -121v439q0 15 12.5 24.5t32.5 9.5q19 0 31.5 -9.5t12.5 -24.5v-439l120 121q8 8 22 8q19 0 34.5 -15.5t15.5 -33.5q0 -13 -9 -22l-201 -201q-14 -15 -26 -15q-15 2 -27 15l-201 201q-9 9 -9 22z" />
    <glyph glyph-name="partialdiff" unicode="&#x2202;" horiz-adv-x="505" 
d="M39 191v96q0 81 52 139.5t125 58.5q44 0 82 -23t52 -58q-5 127 -39.5 188.5t-111.5 61.5q-32 0 -63.5 -12.5t-37.5 -12.5q-17 0 -28.5 21t-11.5 35q0 20 46.5 40t103.5 20q110 0 178.5 -92.5t68.5 -290.5v-166q0 -80 -62.5 -142t-145.5 -62q-82 0 -145 60t-63 139z
M144 191q0 -41 30.5 -73.5t72.5 -32.5t72.5 32.5t30.5 73.5v98q0 42 -31.5 72t-72.5 30q-42 0 -72 -31.5t-30 -72.5v-96z" />
    <glyph glyph-name="uni2206" unicode="&#x2206;" horiz-adv-x="563" 
d="M22 38q0 6 4 22l189 637q11 40 67 40q55 0 68 -40l188 -637q3 -12 3 -22q0 -38 -45 -38h-428q-46 0 -46 38zM144 94h275l-137 503z" />
    <glyph glyph-name="product" unicode="&#x220f;" horiz-adv-x="581" 
d="M66 34v662q0 16 14 25.5t33 9.5h355q19 0 33 -9.5t14 -25.5v-662q0 -17 -15.5 -25.5t-37.5 -8.5t-37.5 8.5t-15.5 25.5v603h-238v-603q0 -17 -15.5 -25.5t-37.5 -8.5t-37 8.5t-15 25.5z" />
    <glyph glyph-name="summation" unicode="&#x2211;" horiz-adv-x="501" 
d="M26 -186q0 19 11 43l210 395l-210 395q-11 24 -11 43q0 18 11 29.5t34 11.5h371q16 0 25.5 -14.5t9.5 -32.5q0 -19 -9.5 -33t-25.5 -14h-286l163 -303q33 -62 33 -82q0 -24 -33 -83l-163 -302h286q16 0 25.5 -14t9.5 -33q0 -18 -9.5 -32.5t-25.5 -14.5h-371
q-23 0 -34 11.5t-11 29.5z" />
    <glyph glyph-name="minus" unicode="&#x2212;" horiz-adv-x="493" 
d="M52 284q0 19 9.5 32t24.5 13h320q14 0 25 -13.5t11 -31.5q0 -19 -11 -31.5t-25 -12.5h-320q-15 0 -24.5 12.5t-9.5 31.5z" />
    <glyph glyph-name="radical" unicode="&#x221a;" horiz-adv-x="659" 
d="M5 399q0 19 9.5 32t24.5 13h91q25 0 35 -38l91 -309l183 645q7 26 33 26h154q14 0 24.5 -13.5t10.5 -31.5q0 -19 -10.5 -31.5t-24.5 -12.5h-95l-207 -677q-12 -37 -67 -37t-68 37l-118 353h-32q-15 0 -24.5 12.5t-9.5 31.5z" />
    <glyph glyph-name="infinity" unicode="&#x221e;" horiz-adv-x="884" 
d="M45 236q0 91 58 141.5t141 50.5q55 0 109 -32t88 -87q35 55 88.5 87t109.5 32q83 0 141.5 -50.5t58.5 -141.5t-58.5 -141.5t-142.5 -50.5q-55 0 -108.5 31.5t-88.5 86.5q-34 -55 -87.5 -86.5t-109.5 -31.5q-83 0 -141 50.5t-58 141.5zM139 236q0 -51 30 -77.5t76 -26.5
q45 0 89.5 27t69.5 77q-25 50 -69.5 77t-89.5 27q-46 0 -76 -26.5t-30 -77.5zM480 236q24 -50 68.5 -77t89.5 -27q46 0 76.5 26.5t30.5 77.5t-30.5 77.5t-76.5 26.5q-45 0 -89.5 -27t-68.5 -77z" />
    <glyph glyph-name="integral" unicode="&#x222b;" horiz-adv-x="349" 
d="M2 -159q0 17 9.5 30.5t27.5 13.5q83 0 83 84v612q0 75 46 121t146 46q12 0 23 -11.5t11 -28.5q0 -16 -8.5 -29.5t-25.5 -13.5q-86 0 -86 -88v-607q0 -75 -43 -122.5t-141 -47.5q-18 0 -30 12t-12 29z" />
    <glyph glyph-name="approxequal" unicode="&#x2248;" horiz-adv-x="446" 
d="M58 162q0 35 29 50.5t58 15.5q28 0 70 -15.5t68 -15.5q25 0 47.5 13t29.5 13q14 0 21 -13t7 -24q0 -26 -17 -42t-34 -20t-33 -4q-32 0 -73.5 15.5t-65.5 15.5q-25 0 -49 -13.5t-30 -13.5q-14 0 -21 13t-7 25zM58 368q0 35 29 50.5t58 15.5q28 0 70 -15.5t68 -15.5
q25 0 47.5 13t29.5 13q14 0 21 -13t7 -25q0 -26 -17 -42t-34 -20t-33 -4q-32 0 -73.5 15.5t-65.5 15.5q-25 0 -49 -13t-30 -13q-14 0 -21 13t-7 25z" />
    <glyph glyph-name="notequal" unicode="&#x2260;" horiz-adv-x="500" 
d="M45 152q0 19 10 32t25 13h104l58 114h-162q-16 0 -25.5 12t-9.5 32q0 19 10 32t25 13h213l71 138q6 10 19 10q12 0 22 -8.5t10 -20.5q0 -7 -4 -14l-54 -105h62q14 0 24.5 -13.5t10.5 -31.5q0 -19 -10.5 -31.5t-24.5 -12.5h-114l-58 -114h172q14 0 24.5 -13.5t10.5 -31.5
q0 -19 -10.5 -31.5t-24.5 -12.5h-224l-62 -119q-6 -11 -18 -11q-11 0 -20.5 8t-9.5 19q0 8 4 13l44 90h-53q-16 0 -25.5 12t-9.5 32z" />
    <glyph glyph-name="lessequal" unicode="&#x2264;" horiz-adv-x="441" 
d="M40 84q0 19 10 32t25 13h278q14 0 24.5 -13t10.5 -32t-10.5 -31t-24.5 -12h-278q-15 0 -25 12t-10 31zM40 357q0 29 22 40l263 138q7 4 15 4q18 0 32.5 -16t14.5 -34q0 -21 -18 -29l-206 -103l206 -103q18 -9 18 -29q0 -18 -14.5 -34.5t-32.5 -16.5q-7 0 -15 5l-263 138
q-22 11 -22 40z" />
    <glyph glyph-name="greaterequal" unicode="&#x2265;" horiz-adv-x="441" 
d="M53 84q0 19 10.5 32t24.5 13h278q15 0 25 -13t10 -32t-10 -31t-25 -12h-278q-14 0 -24.5 12t-10.5 31zM54 225q0 20 18 29l206 103l-206 103q-18 8 -18 29q0 18 14.5 34t32.5 16q8 0 15 -4l262 -138q23 -12 23 -40t-23 -40l-262 -138q-8 -5 -15 -5q-18 0 -32.5 16.5
t-14.5 34.5z" />
    <glyph glyph-name="lozenge" unicode="&#x25ca;" horiz-adv-x="497" 
d="M23 366q0 27 31 82l139 256q19 33 55 33q38 0 55 -33l139 -256q32 -57 32 -82t-32 -82l-139 -257q-18 -33 -55 -33t-54 33l-140 257q-31 55 -31 82zM118 366l130 -246l131 246l-131 252z" />
    <glyph glyph-name="uniE000" unicode="&#xe000;" horiz-adv-x="480" 
d="M0 480h480v-480h-480v480z" />
    <glyph glyph-name="uniF6C3" unicode="&#xf6c3;" horiz-adv-x="235" 
d="M20 -139q0 18 15 26l124 62q6 3 11 3q14 0 24 -13t10 -28q0 -19 -16 -28l-121 -60q-8 -4 -12 -4q-14 0 -24.5 13t-10.5 29z" />
    <glyph glyph-name="a.ss01" horiz-adv-x="478" 
d="M25 124q0 80 60 111.5t174 31.5h44v18q0 45 -24 76.5t-80 31.5q-37 0 -70 -15t-38 -15q-16 0 -26 17t-10 33q0 29 48.5 48t107.5 19q99 0 148 -56t49 -138v-139q0 -58 36 -60q27 -4 27 -41q0 -54 -50 -54q-43 0 -70.5 21t-32.5 57q-69 -78 -158 -78q-58 0 -96.5 33.5
t-38.5 98.5zM131 136q0 -31 17.5 -47.5t44.5 -16.5q40 0 75 32t35 68v37h-25q-71 0 -109 -14.5t-38 -58.5z" />
    <glyph glyph-name="b.ss02" horiz-adv-x="502" 
d="M52 179v543q0 16 14 25t37 9t38.5 -9.5t15.5 -24.5v-318q17 32 51 54t79 22q73 0 125.5 -58t52.5 -139v-92q0 -77 -59 -138t-151 -61q-82 0 -142.5 52.5t-60.5 134.5zM157 182q0 -43 28.5 -70t71.5 -27q50 0 76.5 33t26.5 73v92q0 40 -30 72t-72 32q-39 0 -70 -29
t-31 -75v-101z" />
    <glyph glyph-name="caron.alt" horiz-adv-x="119" 
d="M0 681q0 25 17 42.5t42 17.5t42.5 -17.5t17.5 -41.5q0 -21 -50 -134q-7 -15 -23 -15q-13 0 -24.5 8t-11.5 21q0 8 2 12l23 53q-35 17 -35 54z" />
    <glyph glyph-name="g.ss03" horiz-adv-x="507" 
d="M37 197v86q0 81 52.5 139t127.5 58q46 0 81 -22t53 -54v36q0 15 14 24.5t35 9.5t36 -9.5t15 -24.5v-455q0 -96 -59.5 -159t-179.5 -63q-66 0 -116 20.5t-50 58.5q0 20 11.5 35t27.5 15q5 0 47 -18.5t87 -18.5q127 0 127 142v79q-17 -33 -53.5 -56t-79.5 -23
q-70 0 -123 61t-53 139zM142 197q0 -41 31 -73.5t71 -32.5t71 30.5t31 52.5v109q0 46 -30.5 75t-69.5 29q-42 0 -73 -32t-31 -72v-86z" />
    <glyph glyph-name="m.ss04" horiz-adv-x="793" 
d="M51 35v248q0 83 55 140t130 57q97 0 160 -79q61 79 161 79q75 0 130 -57t55 -140v-248q0 -14 -15 -24.5t-37 -10.5q-21 0 -37 10.5t-16 24.5v248q0 45 -28 74.5t-65 29.5q-38 0 -66.5 -31t-28.5 -73v-249q0 -14 -15 -24t-37 -10q-21 0 -37 10t-16 24v249q0 42 -28.5 73
t-66.5 31q-37 0 -65 -29.5t-28 -74.5v-248q0 -14 -15.5 -24.5t-36.5 -10.5t-37 10.5t-16 24.5z" />
    <glyph glyph-name="n.ss04" horiz-adv-x="512" 
d="M51 35v248q0 79 60.5 138t144.5 59t144.5 -59t60.5 -138v-248q0 -14 -15 -24.5t-38 -10.5q-21 0 -36.5 10.5t-15.5 24.5v248q0 40 -29.5 72t-70.5 32t-70.5 -32t-29.5 -72v-248q0 -14 -16 -24.5t-37 -10.5t-36.5 10.5t-15.5 24.5z" />
    <glyph glyph-name="one.lnum" horiz-adv-x="403" 
d="M13 47q0 19 10.5 33t24.5 14h105v497l-35 -44q-10 -10 -22 -10q-15 0 -25.5 13.5t-10.5 29.5q0 26 20 39l106 102q9 11 26 11q18 0 32.5 -9.5t14.5 -25.5v-603h103q13 0 24 -14t11 -33t-11 -33t-24 -14h-314q-14 0 -24.5 14t-10.5 33z" />
    <glyph glyph-name="q.ss02" horiz-adv-x="503" 
d="M37 190v92q0 78 58 138t150 60q84 0 145 -54.5t61 -146.5v-470q0 -14 -15 -24t-37 -10t-37.5 10.5t-15.5 24.5v260q-17 -32 -52.5 -55t-79.5 -23q-71 0 -124 59t-53 139zM142 190q0 -40 31 -72.5t70 -32.5t71 29.5t32 53.5v107q0 53 -29.5 82.5t-73.5 29.5q-49 0 -75 -33
t-26 -72v-92z" />
    <glyph glyph-name="r.ss04" horiz-adv-x="352" 
d="M47 35v195q0 99 55 174.5t148 75.5h54q19 0 30 -13t11 -33q0 -19 -11.5 -33t-27.5 -14h-38q-49 0 -82.5 -46t-33.5 -112v-194q0 -14 -16 -24.5t-38 -10.5q-21 0 -36 10.5t-15 24.5z" />
    <glyph glyph-name="u.ss04" horiz-adv-x="517" 
d="M51 190v249q0 16 15.5 25.5t38.5 9.5q22 0 36.5 -9.5t14.5 -25.5v-249q0 -41 30.5 -73t71.5 -32q38 0 68.5 30.5t30.5 67.5v256q0 15 15.5 25t38.5 10t37 -9.5t14 -25.5v-404q0 -14 -14.5 -24.5t-36.5 -10.5q-19 0 -33.5 10.5t-14.5 24.5v35q-16 -32 -52.5 -55t-82.5 -23
q-71 0 -124 59t-53 139z" />
    </font>
</defs>
</svg>
