<?xml version="1.0" standalone="no"?>
<!DOCTYPE svg PUBLIC "-//W3C//DTD SVG 1.1//EN" "http://www.w3.org/Graphics/SVG/1.1/DTD/svg11.dtd" >
<svg xmlns="http://www.w3.org/2000/svg" xmlns:xlink="http://www.w3.org/1999/xlink" version="1.1">
<metadata>
Created by FontForge 20161013 at Mon Mar 19 21:03:43 2012
 By ,,,
Copyright (c) 2011, Edgar Tolentino, Pablo Impallari, Igino Marini (impallari.com), with Reserved Font Name Dosis.
</metadata>
<defs>
<font id="Dosis-Medium" horiz-adv-x="505" >
  <font-face 
    font-family="Dosis"
    font-weight="500"
    font-stretch="normal"
    units-per-em="1000"
    panose-1="2 1 6 3 2 2 2 6 0 3"
    ascent="800"
    descent="-200"
    x-height="474"
    cap-height="731"
    bbox="-135 -237 1048 1019"
    underline-thickness="26"
    underline-position="-77"
    unicode-range="U+000D-FB02"
  />
<missing-glyph horiz-adv-x="353" 
d="M48 92q0 12 6 19l83 125l-83 125q-6 8 -6 19q0 13 11 22.5t25 9.5q15 0 26 -14l67 -107l67 107q9 14 26 14q14 0 24.5 -9t10.5 -23q0 -10 -5 -19l-83 -125l82 -125q6 -9 6 -19q0 -13 -11 -22t-25 -9q-18 0 -26 14l-66 106l-67 -106q-10 -14 -26 -14q-14 0 -25 9t-11 22z
" />
    <glyph glyph-name="uniFB01" unicode="fi" horiz-adv-x="524" 
d="M60 29v532q0 81 59.5 140t159.5 59q60 0 109 -19.5t49 -45.5q0 -13 -9 -30t-22 -17q-7 0 -21.5 10t-41.5 19.5t-62 9.5q-69 0 -103.5 -36.5t-34.5 -86.5v-90h120q12 0 19 -10t7 -23t-7 -22.5t-19 -9.5h-120v-380q0 -12 -12.5 -20.5t-30.5 -8.5q-17 0 -28.5 8t-11.5 21z
M382 30v415q0 13 11.5 21t28.5 8q18 0 30.5 -8t12.5 -21v-415q0 -12 -12.5 -21t-30.5 -9q-17 0 -28.5 9t-11.5 21z" />
    <glyph glyph-name="uniFB02" unicode="fl" horiz-adv-x="533" 
d="M60 29v532q0 91 68 145t161 54q50 0 99 -17t77 -49v-664q0 -12 -12.5 -21t-29.5 -9t-29 9t-12 21v628q-37 34 -96 34q-57 0 -100 -35t-43 -93v-90h120q12 0 19 -10t7 -23t-7 -22.5t-19 -9.5h-120v-380q0 -12 -12.5 -20.5t-30.5 -8.5q-17 0 -28.5 8t-11.5 21z" />
    <glyph glyph-name=".notdef" horiz-adv-x="353" 
d="M48 92q0 12 6 19l83 125l-83 125q-6 8 -6 19q0 13 11 22.5t25 9.5q15 0 26 -14l67 -107l67 107q9 14 26 14q14 0 24.5 -9t10.5 -23q0 -10 -5 -19l-83 -125l82 -125q6 -9 6 -19q0 -13 -11 -22t-25 -9q-18 0 -26 14l-66 106l-67 -106q-10 -14 -26 -14q-14 0 -25 9t-11 22z
" />
    <glyph glyph-name=".null" horiz-adv-x="0" 
 />
    <glyph glyph-name="nonmarkingreturn" horiz-adv-x="333" 
 />
    <glyph glyph-name="NULL" horiz-adv-x="0" 
 />
    <glyph glyph-name="NULL" horiz-adv-x="0" 
 />
    <glyph glyph-name="uni000D" unicode="&#xd;" horiz-adv-x="0" 
 />
    <glyph glyph-name="space" unicode=" " horiz-adv-x="200" 
 />
    <glyph glyph-name="exclam" unicode="!" horiz-adv-x="209" 
d="M52 46q0 22 15.5 37.5t37.5 15.5q21 0 36 -15.5t15 -37.5q0 -21 -15 -36.5t-36 -15.5q-22 0 -37.5 15.5t-15.5 36.5zM59 698q0 20 12.5 31.5t32.5 11.5q19 0 32 -11.5t13 -31.5q0 -77 -6 -247.5t-6 -248.5q0 -12 -11 -19.5t-22 -7.5q-14 0 -23.5 7t-9.5 20q0 78 -6 248.5
t-6 247.5z" />
    <glyph glyph-name="quotedbl" unicode="&#x22;" horiz-adv-x="279" 
d="M35 743q0 11 11 18t25 7t25.5 -7t11.5 -18l-10 -145q0 -11 -7 -18.5t-20 -7.5q-26 0 -26 26zM171 743q0 11 11 18t25 7t25.5 -7t11.5 -18l-10 -145q0 -11 -7 -18.5t-20 -7.5q-26 0 -26 26z" />
    <glyph glyph-name="numbersign" unicode="#" horiz-adv-x="609" 
d="M24 275q0 14 7 23.5t18 9.5h106l24 149h-91q-28 0 -28 32q0 14 7 23t17 9h107l29 173q3 19 33 19q17 0 28 -9t11 -26l-26 -157h123l28 173q3 19 33 19q17 0 28.5 -9t11.5 -26l-26 -157h92q11 0 20 -9t9 -23q0 -13 -8 -22.5t-18 -9.5h-106l-25 -149h92q11 0 20 -9.5
t9 -23.5q0 -13 -8 -22t-18 -9h-107l-30 -189q-2 -9 -12.5 -15.5t-21.5 -6.5q-17 0 -29 9t-12 25l29 177h-121l-31 -188q-2 -10 -13.5 -16.5t-19.5 -6.5q-17 0 -28.5 9t-11.5 25l27 177h-90q-28 0 -28 31zM231 308h121l24 149h-121z" />
    <glyph glyph-name="dollar" unicode="$" horiz-adv-x="506" 
d="M35 115q0 16 11.5 31t25.5 15q8 0 22 -12t28.5 -26.5t45.5 -27t70 -14.5v266l-54 20q-19 7 -48.5 24t-44 34.5t-26.5 47t-12 66.5q0 45 16 79.5t43.5 54.5t58.5 30.5t67 13.5v30q0 8 7.5 14.5t18.5 6.5q10 0 18 -6.5t8 -14.5v-28q60 -3 109 -20.5t49 -45.5q0 -14 -10 -30
t-26 -16q-5 0 -42 17.5t-80 19.5v-228q39 -14 64.5 -27.5t54 -37t43 -60t14.5 -85.5q0 -88 -47.5 -139t-128.5 -62v-36q0 -8 -8 -14.5t-18 -6.5q-11 0 -18.5 6.5t-7.5 14.5v33q-86 1 -144.5 39t-58.5 74zM133 547q0 -47 27 -70.5t82 -43.5v210q-109 -11 -109 -96zM286 83
q100 16 100 115q0 52 -26 81t-74 49v-245z" />
    <glyph glyph-name="percent" unicode="%" horiz-adv-x="765" 
d="M36 463v150q0 61 35 89.5t94 28.5q58 0 93.5 -28.5t35.5 -89.5v-150q0 -61 -35.5 -89.5t-93.5 -28.5q-59 0 -94 28.5t-35 89.5zM96 463q0 -65 69 -65t69 65v150q0 65 -69 65t-69 -65v-150zM167 0q0 7 3 13l375 742q7 15 25 15q13 0 23.5 -9.5t10.5 -23.5q0 -7 -3 -14
l-374 -737q-7 -16 -28 -16q-13 0 -22.5 9t-9.5 21zM471 115v150q0 61 35 89.5t94 28.5q58 0 93.5 -28.5t35.5 -89.5v-150q0 -61 -35.5 -89.5t-93.5 -28.5q-59 0 -94 28.5t-35 89.5zM531 115q0 -65 69 -65t69 65v150q0 65 -69 65t-69 -65v-150z" />
    <glyph glyph-name="ampersand" unicode="&#x26;" horiz-adv-x="618" 
d="M30 205q0 69 38 120.5t95 79.5q-37 43 -57.5 82t-20.5 88q0 80 54 126.5t135 46.5q76 0 124 -35.5t48 -66.5q0 -16 -11.5 -27.5t-27.5 -11.5q-10 0 -21.5 11.5t-22.5 24.5t-34 24.5t-53 11.5q-49 0 -78.5 -29.5t-29.5 -79.5q0 -31 17 -64.5t32 -51.5t47 -53l191 -208
q29 64 31 169q1 16 9 23t28 7t28 -10t8 -32q0 -116 -52 -211l89 -95q7 -8 7 -17q0 -13 -12.5 -24t-26.5 -11q-11 0 -22 11l-76 80q-76 -93 -201 -93q-107 0 -171 62.5t-64 152.5zM115 212q0 -62 43 -104.5t118 -42.5q92 0 139 71l-205 218q-27 -16 -44.5 -31.5t-34 -45
t-16.5 -65.5z" />
    <glyph glyph-name="quotesingle" unicode="'" horiz-adv-x="143" 
d="M35 743q0 11 11 18t25 7t25.5 -7t11.5 -18l-10 -145q0 -11 -7 -18.5t-20 -7.5q-26 0 -26 26z" />
    <glyph glyph-name="parenleft" unicode="(" horiz-adv-x="310" 
d="M57 155v424q0 79 58 134t136 55q41 0 41 -37q0 -17 -8 -27.5t-21 -10.5q-55 0 -88.5 -34.5t-33.5 -79.5v-424q0 -55 36 -77.5t86 -22.5q29 0 29 -38q0 -37 -43 -37q-81 0 -136.5 45.5t-55.5 129.5z" />
    <glyph glyph-name="parenright" unicode=")" horiz-adv-x="310" 
d="M18 17q0 38 29 38q50 0 86 22.5t36 77.5v424q0 45 -33.5 79.5t-88.5 34.5q-13 0 -21 10.5t-8 27.5q0 37 41 37q78 0 136 -55t58 -134v-424q0 -84 -55.5 -129.5t-137.5 -45.5q-42 0 -42 37z" />
    <glyph glyph-name="asterisk" unicode="*" horiz-adv-x="438" 
d="M28 586q0 13 9.5 23.5t23.5 10.5q5 0 9 -1l122 -42l-5 125q2 29 32 29q31 0 33 -29l-5 -127l122 44q3 1 10 1q12 0 21.5 -11.5t9.5 -24.5q0 -22 -21 -28l-121 -33l79 -107q5 -7 5 -17q0 -14 -11 -23.5t-25 -9.5q-15 0 -23 12l-74 109l-74 -110q-6 -11 -21 -11
q-12 0 -24.5 9t-12.5 22q0 12 7 20l77 103l-122 36q-21 6 -21 30z" />
    <glyph glyph-name="plus" unicode="+" horiz-adv-x="431" 
d="M26 240q0 15 8 25.5t21 10.5h124v124q0 12 11 21t26 9t25 -9t10 -21v-124h124q12 0 21 -10.5t9 -25.5t-9 -25t-21 -10h-124v-125q0 -13 -9.5 -21t-25.5 -8t-26.5 8t-10.5 21v125h-124q-13 0 -21 9.5t-8 25.5z" />
    <glyph glyph-name="comma" unicode="," horiz-adv-x="176" 
d="M36 46q0 22 14.5 37.5t36.5 15.5q21 0 36.5 -15t15.5 -38q0 -18 -43 -121q-6 -14 -22 -14q-11 0 -20 6.5t-9 17.5q0 7 2 11l21 52q-32 13 -32 48z" />
    <glyph glyph-name="hyphen" unicode="-" horiz-adv-x="413" 
d="M47 240q0 15 8 25.5t21 10.5h260q12 0 21 -10.5t9 -25.5t-9 -25t-21 -10h-260q-29 0 -29 35z" />
    <glyph glyph-name="period" unicode="." horiz-adv-x="176" 
d="M37 46q0 22 15 37.5t37 15.5q21 0 36 -15.5t15 -37.5q0 -21 -15 -36.5t-36 -15.5q-22 0 -37 15.5t-15 36.5z" />
    <glyph glyph-name="slash" unicode="/" horiz-adv-x="475" 
d="M19 0q0 9 3 13l375 742q7 15 24 15q13 0 24 -9.5t11 -23.5q0 -7 -4 -14l-373 -737q-7 -16 -28 -16q-14 0 -23 9t-9 21z" />
    <glyph glyph-name="zero" unicode="0" horiz-adv-x="541" 
d="M55 212v301q0 113 58.5 165.5t156.5 52.5t157 -52.5t59 -165.5v-301q0 -113 -59 -165.5t-157 -52.5t-156.5 52.5t-58.5 165.5zM139 212q0 -142 131 -142q63 0 97.5 35.5t34.5 106.5v301q0 71 -34.5 106.5t-97.5 35.5q-131 0 -131 -142v-301zM231 362q0 17 11 28t29 11
q17 0 28 -11t11 -28t-11 -28.5t-28 -11.5q-18 0 -29 11.5t-11 28.5z" />
    <glyph glyph-name="one" unicode="1" horiz-adv-x="248" 
d="M9 575q0 21 18 35l92 109q13 13 26 13q14 0 25.5 -8t11.5 -22v-672q0 -14 -12.5 -22t-29.5 -8t-29.5 8t-12.5 22v576l-37 -55q-10 -11 -21 -11q-13 0 -22 10.5t-9 24.5z" />
    <glyph glyph-name="two" unicode="2" horiz-adv-x="484" 
d="M32 30v97q0 45 34.5 88.5t83.5 78.5l97 72q49 35 83.5 78.5t34.5 88.5q0 48 -31.5 84t-90.5 36q-50 0 -81.5 -28t-31.5 -81q0 -13 -12 -23t-32 -10q-38 0 -38 49q0 75 56.5 123t138.5 48q88 0 147 -55.5t59 -139.5q0 -50 -24.5 -96t-61 -78t-79.5 -64l-80 -57
q-36 -25 -60.5 -55t-24.5 -59v-51h307q12 0 20.5 -11t8.5 -27q0 -15 -8.5 -26.5t-20.5 -11.5h-356q-13 0 -25.5 8.5t-12.5 21.5z" />
    <glyph glyph-name="three" unicode="3" horiz-adv-x="497" 
d="M26 164q0 23 8.5 31t30.5 8q24 0 33.5 -8t9.5 -25q0 -38 32.5 -69t98.5 -31q134 0 134 138v19q0 122 -134 122q-29 0 -29 35t29 35q58 0 87 26t29 94q0 117 -112 117q-64 0 -90.5 -28.5t-26.5 -67.5q0 -37 -40 -37q-27 0 -35.5 9t-8.5 34t9.5 51.5t30.5 53t63.5 43.5
t99.5 17q191 0 191 -177q0 -63 -22 -107t-59 -61q102 -41 102 -159v-19q0 -110 -60 -162t-158 -52q-103 0 -158 52.5t-55 117.5z" />
    <glyph glyph-name="four" unicode="4" horiz-adv-x="460" 
d="M5 201q0 11 5 19l247 487q13 24 38 24q14 0 27.5 -9.5t13.5 -23.5q0 -7 -4 -14l-219 -436h173v168q0 14 12.5 21.5t29.5 7.5t29.5 -7.5t12.5 -21.5v-168h53q14 0 22 -12t8 -28q0 -15 -9 -27.5t-21 -12.5h-53v-138q0 -14 -12.5 -22t-29.5 -8t-29.5 8t-12.5 22v138h-250
q-14 0 -22.5 9t-8.5 24z" />
    <glyph glyph-name="five" unicode="5" horiz-adv-x="485" 
d="M25 167q0 40 42 40t42 -34q0 -48 37 -75.5t94 -27.5q63 0 97.5 35t34.5 105v19q0 68 -34.5 102.5t-96.5 34.5h-142q-39 0 -39 33q0 10 2 22l21 280q2 30 22 30h288q13 0 20 -11.5t7 -26.5t-7 -26.5t-20 -11.5h-237l-15 -219h100q98 0 156.5 -50t58.5 -157v-19
q0 -111 -59 -163.5t-156 -52.5q-100 0 -158 50.5t-58 122.5z" />
    <glyph glyph-name="six" unicode="6" horiz-adv-x="526" 
d="M55 212v301q0 113 59.5 165.5t159.5 52.5t156 -52t56 -122q0 -37 -39 -37q-44 0 -44 33q0 46 -37.5 74t-93.5 28q-133 0 -133 -142v-140q48 62 146 62q201 0 201 -202v-21q0 -113 -58.5 -165.5t-156.5 -52.5t-157 52.5t-59 165.5zM139 208q0 -142 132 -142q131 0 131 142
v21q0 136 -131 136q-132 0 -132 -127v-30z" />
    <glyph glyph-name="seven" unicode="7" horiz-adv-x="470" 
d="M24 550v151q0 11 12 20.5t26 9.5h355q13 0 25.5 -9.5t12.5 -20.5v-93q0 -17 -14 -43l-284 -553q-7 -14 -27 -14t-35.5 11.5t-15.5 28.5q0 9 4 17l288 543v57h-263v-105q0 -13 -12.5 -21.5t-29.5 -8.5t-29.5 8.5t-12.5 21.5z" />
    <glyph glyph-name="eight" unicode="8" horiz-adv-x="511" 
d="M40 200v12q0 144 112 187q-91 36 -91 156q0 176 195 176q194 0 194 -176q0 -119 -90 -156q111 -44 111 -187v-12q0 -106 -58.5 -156t-156.5 -50t-157 50t-59 156zM124 208q0 -142 132 -142q63 0 97 35.5t34 106.5v16q0 70 -34.5 104t-96.5 34q-132 0 -132 -138v-16z
M143 547q0 -113 113 -113t113 113q0 112 -113 112t-113 -112z" />
    <glyph glyph-name="nine" unicode="9" horiz-adv-x="526" 
d="M40 168q0 37 40 37q44 0 44 -33q0 -46 37.5 -74t92.5 -28q133 0 133 142v140q-47 -62 -146 -62q-201 0 -201 202v21q0 113 58.5 165.5t156.5 52.5t157 -52.5t59 -165.5v-301q0 -113 -59.5 -165.5t-159.5 -52.5t-156 52t-56 122zM124 496q0 -136 132 -136q131 0 131 127
v30q0 142 -132 142q-131 0 -131 -142v-21z" />
    <glyph glyph-name="colon" unicode=":" horiz-adv-x="209" 
d="M53 46q0 22 15 37.5t37 15.5q21 0 36 -15.5t15 -37.5q0 -21 -15 -36.5t-36 -15.5q-22 0 -37 15.5t-15 36.5zM53 369q0 22 15 37.5t37 15.5q21 0 36 -15.5t15 -37.5q0 -21 -15 -36.5t-36 -15.5q-22 0 -37 15.5t-15 36.5z" />
    <glyph glyph-name="semicolon" unicode=";" horiz-adv-x="215" 
d="M55 46q0 22 14.5 37.5t36.5 15.5q21 0 36.5 -15t15.5 -38q0 -18 -43 -121q-6 -14 -22 -14q-11 0 -20 6.5t-9 17.5q0 7 2 11l21 52q-32 13 -32 48zM58 369q0 22 15 37.5t37 15.5q21 0 36 -15.5t15 -37.5q0 -21 -15 -36.5t-36 -15.5q-22 0 -37 15.5t-15 36.5z" />
    <glyph glyph-name="less" unicode="&#x3c;" horiz-adv-x="403" 
d="M22 277q0 21 18 34l267 175q5 4 13 4q14 0 26.5 -12t12.5 -28q0 -17 -13 -24l-225 -149l225 -148q13 -9 13 -25t-12.5 -27.5t-26.5 -11.5q-8 0 -13 4l-267 175q-18 12 -18 33z" />
    <glyph glyph-name="equal" unicode="=" horiz-adv-x="438" 
d="M63 160q0 15 8 25.5t21 10.5h254q12 0 21 -10.5t9 -25.5q0 -16 -9 -26t-21 -10h-254q-29 0 -29 36zM63 363q0 15 8 25.5t21 10.5h254q12 0 21 -10.5t9 -25.5q0 -16 -9 -26t-21 -10h-254q-29 0 -29 36z" />
    <glyph glyph-name="greater" unicode="&#x3e;" horiz-adv-x="403" 
d="M44 104q0 16 13 25l225 148l-225 149q-13 7 -13 24q0 16 12.5 28t26.5 12q8 0 13 -4l267 -175q18 -13 18 -34t-18 -33l-267 -175q-5 -4 -13 -4q-14 0 -26.5 11.5t-12.5 27.5z" />
    <glyph glyph-name="question" unicode="?" horiz-adv-x="408" 
d="M22 653q0 30 47 59t115 29q91 0 142.5 -49.5t51.5 -125.5q0 -41 -16.5 -79.5t-33.5 -58t-46 -47t-34 -33.5q-25 -25 -31.5 -55t-6.5 -91q0 -27 -34 -27q-32 0 -32 37q0 121 48 169q7 7 26.5 24t32 30t26.5 32t21.5 42t7.5 50q0 55 -33 85.5t-93 30.5q-31 0 -53.5 -8.5
t-32 -19t-20 -19t-20.5 -8.5q-12 0 -22 9t-10 24zM124 46q0 22 15.5 37.5t36.5 15.5q22 0 37 -15.5t15 -37.5q0 -21 -15 -36.5t-37 -15.5q-21 0 -36.5 15.5t-15.5 36.5z" />
    <glyph glyph-name="at" unicode="@" horiz-adv-x="722" 
d="M49 214q0 154 80.5 250.5t241.5 96.5q151 0 233 -85t82 -240q0 -91 -31.5 -150.5t-97.5 -59.5q-38 0 -65.5 19.5t-33.5 47.5q-28 -30 -55.5 -44.5t-67.5 -14.5q-55 0 -90.5 27t-35.5 84q0 65 50.5 90.5t147.5 25.5h40v18q0 80 -94 80q-37 0 -65 -12.5t-30 -12.5
q-10 0 -17.5 12t-7.5 22q0 22 41.5 37.5t89.5 15.5q67 0 107.5 -33.5t40.5 -95.5v-167q3 -23 17 -36t33 -13q65 0 65 150q0 135 -64 207t-193 72q-72 0 -124.5 -23.5t-81.5 -65t-42.5 -91.5t-13.5 -110q0 -56 12 -102.5t37.5 -86t72 -61.5t109.5 -22q51 0 94 15t45 15
q10 0 17 -9t7 -17q0 -23 -56.5 -40.5t-115.5 -17.5q-56 0 -105.5 20t-89.5 58.5t-63 102t-23 144.5zM279 145q0 -60 67 -60q44 0 73.5 26t29.5 56v49h-36q-66 0 -100 -15t-34 -56z" />
    <glyph glyph-name="A" unicode="A" horiz-adv-x="550" 
d="M17 35q0 2 2 8l204 665q9 29 52 29t52 -29l204 -665q0 -2 0.5 -4t0.5 -3q0 -14 -16.5 -25t-35.5 -11q-24 0 -30 19l-44 149h-263l-44 -149q-6 -19 -31 -19q-18 0 -34.5 10t-16.5 25zM162 237h224l-111 376z" />
    <glyph glyph-name="B" unicode="B" horiz-adv-x="545" 
d="M71 29v672q0 14 11.5 22t26.5 8h172q94 0 148.5 -37t54.5 -134q0 -62 -22.5 -104.5t-62.5 -59.5q51 -20 77 -59t26 -111v-18q0 -108 -54 -158t-144 -50h-195q-17 0 -27.5 8.5t-10.5 20.5zM155 76h135q128 0 128 137v17q0 69 -32.5 100t-95.5 31h-135v-285zM155 431h125
q62 0 91 28t29 89q0 107 -123 107h-122v-224z" />
    <glyph glyph-name="C" unicode="C" horiz-adv-x="531" 
d="M64 212v301q0 112 59.5 165t155.5 53q98 0 157 -49.5t59 -124.5q0 -27 -10 -36.5t-32 -9.5q-40 0 -42 29q-6 115 -130 115q-133 0 -133 -142v-301q0 -142 136 -142q39 0 65 11t38.5 32t16.5 36t7 40q3 29 42 29q22 0 32 -10t10 -37q0 -76 -59.5 -126.5t-157.5 -50.5
q-95 0 -154.5 53t-59.5 165z" />
    <glyph glyph-name="D" unicode="D" horiz-adv-x="566" 
d="M71 29v673q0 12 10.5 20.5t27.5 8.5h177q98 0 157 -52.5t59 -165.5v-295q0 -113 -59 -165.5t-157 -52.5h-177q-17 0 -27.5 8.5t-10.5 20.5zM155 76h131q63 0 97.5 35.5t34.5 106.5v295q0 71 -34.5 106.5t-97.5 35.5h-131v-579z" />
    <glyph glyph-name="E" unicode="E" horiz-adv-x="514" 
d="M71 30v671q0 14 11.5 22t26.5 8h356q14 0 21.5 -11t7.5 -26q0 -16 -8 -27.5t-21 -11.5h-310v-254h156q13 0 21 -10.5t8 -25.5q0 -13 -7.5 -23.5t-21.5 -10.5h-156v-255h310q13 0 21 -11.5t8 -27.5q0 -15 -7.5 -26t-21.5 -11h-356q-15 0 -26.5 8t-11.5 22z" />
    <glyph glyph-name="F" unicode="F" horiz-adv-x="497" 
d="M71 29v672q0 14 11.5 22t26.5 8h352q14 0 21.5 -11t7.5 -26q0 -17 -7.5 -28t-21.5 -11h-306v-254h156q14 0 21.5 -10.5t7.5 -25.5q0 -13 -7.5 -23.5t-21.5 -10.5h-156v-302q0 -14 -12.5 -21.5t-29.5 -7.5t-29.5 7.5t-12.5 21.5z" />
    <glyph glyph-name="G" unicode="G" horiz-adv-x="548" 
d="M64 212v301q0 113 58.5 165.5t154.5 52.5q98 0 158 -49.5t60 -129.5q0 -23 -10.5 -32t-31.5 -9q-41 0 -42 29q-13 115 -132 115q-131 0 -131 -142v-301q0 -142 131 -142q63 0 97.5 35.5t34.5 106.5v102h-119q-14 0 -21.5 10.5t-7.5 24.5t8 24.5t21 10.5h174q14 0 21.5 -9
t7.5 -22v-141q0 -113 -59 -165.5t-157 -52.5t-156.5 52.5t-58.5 165.5z" />
    <glyph glyph-name="H" unicode="H" horiz-adv-x="581" 
d="M71 30v672q0 14 12.5 21.5t29.5 7.5t29.5 -7.5t12.5 -21.5v-288h271v288q0 14 12.5 21.5t29.5 7.5t29.5 -7.5t12.5 -21.5v-672q0 -14 -12.5 -22t-29.5 -8t-29.5 8t-12.5 22v314h-271v-314q0 -14 -12.5 -22t-29.5 -8t-29.5 8t-12.5 22z" />
    <glyph glyph-name="I" unicode="I" horiz-adv-x="226" 
d="M71 30v672q0 14 12.5 21.5t29.5 7.5t29.5 -7.5t12.5 -21.5v-672q0 -14 -12.5 -22t-29.5 -8t-29.5 8t-12.5 22z" />
    <glyph glyph-name="J" unicode="J" horiz-adv-x="519" 
d="M20 177q0 23 10.5 32t31.5 9q42 0 42 -29q0 -53 34.5 -86t96.5 -33q132 0 132 142v443h-130q-14 0 -21.5 11t-7.5 28q0 37 29 37h176q15 0 26.5 -8t11.5 -22v-489q0 -113 -58.5 -165.5t-154.5 -52.5q-98 0 -158 50.5t-60 132.5z" />
    <glyph glyph-name="K" unicode="K" horiz-adv-x="529" 
d="M71 30v672q0 14 12.5 21.5t29.5 7.5t29.5 -7.5t12.5 -21.5v-331l268 348q9 12 25 12t32 -14t16 -29q0 -10 -7 -18l-204 -255l238 -360q5 -8 5 -15q0 -16 -15.5 -29t-33.5 -13q-20 0 -31 17l-219 329l-74 -93v-221q0 -14 -12.5 -22t-29.5 -8t-29.5 8t-12.5 22z" />
    <glyph glyph-name="L" unicode="L" horiz-adv-x="468" 
d="M71 30v672q0 14 12.5 21.5t29.5 7.5t29.5 -7.5t12.5 -21.5v-626h273q13 0 20 -11.5t7 -26.5t-7 -26.5t-20 -11.5h-319q-15 0 -26.5 8t-11.5 22z" />
    <glyph glyph-name="M" unicode="M" horiz-adv-x="675" 
d="M71 30v660q0 41 42 41q40 0 67 -53l157 -301l158 301q29 53 67 53q42 0 42 -41v-660q0 -14 -12.5 -22t-29.5 -8t-29.5 8t-12.5 22v525l-151 -284q-12 -23 -33 -23q-19 0 -31 23l-150 288v-529q0 -14 -12.5 -22t-29.5 -8t-29.5 8t-12.5 22z" />
    <glyph glyph-name="N" unicode="N" horiz-adv-x="581" 
d="M71 30v672q0 29 42 29q21 0 35.5 -12.5t28.5 -40.5l249 -487v511q0 14 12.5 21.5t29.5 7.5t29.5 -7.5t12.5 -21.5v-672q0 -14 -12.5 -22t-29.5 -8q-32 0 -53 38l-260 503v-511q0 -14 -12.5 -22t-29.5 -8t-29.5 8t-12.5 22z" />
    <glyph glyph-name="O" unicode="O" horiz-adv-x="559" 
d="M64 212v301q0 113 58.5 165.5t156.5 52.5t157 -52.5t59 -165.5v-301q0 -113 -59 -165.5t-157 -52.5t-156.5 52.5t-58.5 165.5zM148 212q0 -142 131 -142q63 0 97.5 35.5t34.5 106.5v301q0 71 -34.5 106.5t-97.5 35.5q-131 0 -131 -142v-301z" />
    <glyph glyph-name="P" unicode="P" horiz-adv-x="535" 
d="M71 30v672q0 12 9.5 20.5t24.5 8.5h189q96 0 154 -52t58 -164v-9q0 -112 -59 -164.5t-157 -52.5h-135v-259q0 -14 -12.5 -22t-29.5 -8t-29.5 8t-12.5 22zM155 359h135q63 0 97.5 35.5t34.5 106.5v12q0 71 -34.5 106.5t-97.5 35.5h-135v-296z" />
    <glyph glyph-name="Q" unicode="Q" horiz-adv-x="559" 
d="M64 212v301q0 113 58.5 165.5t156.5 52.5t157 -52.5t59 -165.5v-301q0 -104 -50 -157t-135 -59v-75q0 -14 -9 -22t-21 -8t-21 8t-9 22v75q-86 6 -136 58.5t-50 157.5zM148 212q0 -122 102 -138v68q0 14 9 21.5t21 7.5t21 -7.5t9 -21.5v-67q101 14 101 137v301
q0 71 -34.5 106.5t-97.5 35.5q-131 0 -131 -142v-301z" />
    <glyph glyph-name="R" unicode="R" horiz-adv-x="543" 
d="M71 30v672q0 12 8.5 20t21.5 9h183q100 0 161 -46.5t61 -153.5q0 -165 -149 -195l148 -281q4 -7 4 -14q0 -16 -16 -29.5t-34 -13.5q-21 0 -38 33l-151 293h-115v-294q0 -14 -12.5 -22t-29.5 -8t-29.5 8t-12.5 22zM155 394h129q138 0 138 131q0 130 -138 130h-129v-261z
" />
    <glyph glyph-name="S" unicode="S" horiz-adv-x="502" 
d="M33 105q0 16 11.5 31t25.5 15q9 0 23 -12.5t29 -28t47 -28t72 -12.5q65 0 102 31.5t37 92.5q0 55 -34 89.5t-82 52.5t-96.5 38.5t-82.5 63t-34 109.5q0 52 20 90.5t53.5 58t69.5 28.5t77 9q62 0 118.5 -17.5t56.5 -48.5q0 -14 -10 -30t-26 -16q-4 0 -46 19t-93 19
q-61 0 -98.5 -25t-37.5 -79q0 -46 34 -74.5t82.5 -45.5t96.5 -39t82 -70.5t34 -123.5q0 -104 -60 -157t-159 -53q-89 0 -150.5 38t-61.5 75z" />
    <glyph glyph-name="T" unicode="T" horiz-adv-x="494" 
d="M13 693q0 15 8 26.5t22 11.5h407q14 0 22 -11.5t8 -26.5q0 -16 -8 -28t-22 -12h-161v-623q0 -14 -12.5 -22t-29.5 -8t-29.5 8t-12.5 22v623h-162q-14 0 -22 11.5t-8 28.5z" />
    <glyph glyph-name="U" unicode="U" horiz-adv-x="573" 
d="M68 212v490q0 14 12.5 21.5t29.5 7.5t29.5 -7.5t12.5 -21.5v-490q0 -142 134 -142q65 0 100 35.5t35 106.5v490q0 29 42 29q17 0 29.5 -7.5t12.5 -21.5v-490q0 -113 -60 -165.5t-159 -52.5t-158.5 52.5t-59.5 165.5z" />
    <glyph glyph-name="V" unicode="V" horiz-adv-x="549" 
d="M17 696q0 15 16.5 25t34.5 10q25 0 31 -19l176 -594l175 594q7 19 30 19q19 0 35.5 -11t16.5 -25q0 -1 -0.5 -3t-0.5 -4l-203 -665q-11 -29 -53 -29t-51 29l-205 665q-2 6 -2 8z" />
    <glyph glyph-name="W" unicode="W" horiz-adv-x="813" 
d="M17 697q0 14 16.5 24t34.5 10q25 0 31 -19l169 -594l95 366q7 26 44 26q35 0 42 -26l96 -366l168 594q6 19 32 19q18 0 34 -10t16 -24q0 -6 -1 -9l-197 -665q-9 -29 -52 -29q-45 0 -52 29l-86 330l-87 -330q-8 -29 -51 -29t-52 29l-198 665q-2 6 -2 9z" />
    <glyph glyph-name="X" unicode="X" 
d="M20 39q0 9 6 18l172 309l-168 307q-7 11 -7 22q0 17 15.5 27.5t35.5 10.5q21 0 37 -32l141 -266l142 266q16 32 37 32q20 0 35.5 -10.5t15.5 -27.5q0 -11 -7 -22l-169 -307l173 -309q6 -9 6 -18q0 -16 -17.5 -28.5t-35.5 -12.5q-17 0 -32 28l-148 273l-147 -273
q-15 -28 -32 -28q-18 0 -35.5 12.5t-17.5 28.5z" />
    <glyph glyph-name="Y" unicode="Y" horiz-adv-x="545" 
d="M17 696q0 15 16.5 25t33.5 10q18 0 30 -22l176 -343l175 343q12 22 30 22t34 -10t16 -25q0 -8 -4 -17l-207 -386q-2 -3 -2 -10v-253q0 -14 -12.5 -22t-29.5 -8t-29.5 8t-12.5 22v253q0 5 -3 10l-207 386q-4 9 -4 17z" />
    <glyph glyph-name="Z" unicode="Z" horiz-adv-x="495" 
d="M21 27q0 13 8 29l323 599h-288q-14 0 -21.5 11t-7.5 27t7.5 27t21.5 11h368q29 0 29 -25q0 -14 -10 -32l-322 -598h316q13 0 21.5 -11.5t8.5 -26.5t-8.5 -26.5t-21.5 -11.5h-395q-29 0 -29 27z" />
    <glyph glyph-name="bracketleft" unicode="[" horiz-adv-x="314" 
d="M65 8v731q0 13 11.5 21t26.5 8h164q13 0 21 -11t8 -26q0 -16 -8 -27t-21 -11h-118v-639h118q13 0 21 -11t8 -27q0 -15 -8 -26t-21 -11h-164q-15 0 -26.5 8t-11.5 21z" />
    <glyph glyph-name="backslash" unicode="\" horiz-adv-x="351" 
d="M21 723q0 13 10 22t24 9q20 0 26 -17l247 -698q2 -3 2 -9q0 -12 -10 -21t-23 -9q-22 0 -28 20l-246 692q-2 4 -2 11z" />
    <glyph glyph-name="bracketright" unicode="]" horiz-adv-x="314" 
d="M18 16q0 16 8 27t21 11h118v639h-118q-13 0 -21 11t-8 27q0 15 8 26t21 11h164q15 0 26.5 -8t11.5 -21v-731q0 -13 -11.5 -21t-26.5 -8h-164q-13 0 -21 11t-8 26z" />
    <glyph glyph-name="asciicircum" unicode="^" horiz-adv-x="273" 
d="M0 617q0 19 15 26l104 56q10 5 17 5q9 0 17 -5l104 -55q16 -9 16 -28q0 -11 -6.5 -19.5t-16.5 -8.5q-2 0 -6 1q-2 2 -4 2l-104 56l-104 -56q-4 -3 -9 -3q-9 0 -16 9t-7 20z" />
    <glyph glyph-name="underscore" unicode="_" horiz-adv-x="330" 
d="M-24 -36q0 15 8 25.5t21 10.5h320q12 0 21 -10.5t9 -25.5t-9 -25t-21 -10h-320q-29 0 -29 35z" />
    <glyph glyph-name="grave" unicode="`" horiz-adv-x="168" 
d="M0 670q0 13 8 23.5t20 10.5q4 0 10 -2l117 -62q13 -6 13 -22q0 -13 -9 -23.5t-21 -10.5q-3 0 -11 4l-113 58q-14 7 -14 24z" />
    <glyph glyph-name="a" unicode="a" horiz-adv-x="448" 
d="M28 125q0 78 60 108.5t174 30.5h48v21q0 50 -27.5 87t-82.5 37q-42 0 -74 -14.5t-35 -14.5q-14 0 -22.5 13.5t-8.5 28.5q0 23 45.5 40.5t96.5 17.5q98 0 144.5 -55.5t46.5 -138.5v-256q0 -13 -11.5 -21.5t-29.5 -8.5q-16 0 -27 8.5t-11 21.5v40q-68 -78 -151 -78
q-60 0 -97.5 34t-37.5 99zM112 134q0 -37 21 -56t56 -19q42 0 81.5 33.5t39.5 68.5v52h-35q-29 0 -50 -1.5t-43.5 -6t-37 -13t-23.5 -23t-9 -35.5z" />
    <glyph glyph-name="b" unicode="b" horiz-adv-x="494" 
d="M60 30v701q0 13 11.5 21t29.5 8t30 -8t12 -21v-327q18 32 52 54t79 22q73 0 126 -56.5t53 -135.5v-102q0 -76 -53 -135t-123 -59q-45 0 -83 23t-55 55v-40q0 -12 -11.5 -21t-26.5 -9q-17 0 -29 9t-12 21zM143 159q0 -25 35 -58.5t79 -33.5q45 0 79 36.5t34 82.5v102
q0 45 -34 81t-80 36q-45 0 -79 -32.5t-34 -84.5v-129z" />
    <glyph glyph-name="c" unicode="c" horiz-adv-x="417" 
d="M42 186v100q0 86 50.5 140t148.5 54q62 0 104.5 -22t42.5 -47q0 -14 -10.5 -27.5t-24.5 -13.5q-4 0 -34.5 17.5t-71.5 17.5q-60 0 -91 -31t-31 -88v-100q0 -119 123 -119q42 0 73 18t36 18q16 0 26.5 -13t10.5 -27q0 -25 -44 -48t-108 -23q-99 0 -149.5 53.5t-50.5 140.5
z" />
    <glyph glyph-name="d" unicode="d" horiz-adv-x="494" 
d="M41 186v102q0 79 53 135.5t126 56.5q45 0 79 -22t52 -54v327q0 13 12 21t30 8t29.5 -8t11.5 -21v-701q0 -12 -12 -21t-29 -9q-15 0 -26.5 9t-11.5 21v40q-17 -32 -55 -55t-83 -23q-70 0 -123 59t-53 135zM124 186q0 -46 34 -82.5t79 -36.5q44 0 79 33.5t35 58.5v129
q0 52 -34 84.5t-79 32.5q-46 0 -80 -36t-34 -81v-102z" />
    <glyph glyph-name="e" unicode="e" horiz-adv-x="465" 
d="M41 186v105q0 77 58.5 133t140.5 56q78 0 135 -52.5t57 -131.5q0 -29 -7 -46.5t-21.5 -25t-27 -9.5t-33.5 -2h-219v-30q0 -55 39.5 -88t102.5 -33q33 0 57.5 10t39.5 19.5t24 9.5q14 0 24 -12.5t10 -25.5q0 -23 -45.5 -47t-112.5 -24q-98 0 -160 53.5t-62 140.5zM124 269
h185q26 0 35 6.5t9 25.5q0 45 -33 79t-81 34q-47 0 -81 -31.5t-34 -77.5v-36z" />
    <glyph glyph-name="f" unicode="f" horiz-adv-x="315" 
d="M60 29v544q0 78 52.5 132.5t124.5 54.5h35q16 0 25 -11t9 -26t-9 -25.5t-25 -10.5h-21q-46 0 -76.5 -31t-31.5 -76v-106h137q12 0 19 -10t7 -23t-7 -22.5t-19 -9.5h-137v-380q0 -12 -12.5 -20.5t-30.5 -8.5q-17 0 -28.5 8t-11.5 21z" />
    <glyph glyph-name="g" unicode="g" horiz-adv-x="457" 
d="M22 -94q0 73 81 109q-51 19 -51 67q0 46 50 74q-57 46 -57 126v33q0 73 49 119t129 46q68 0 117 -39q30 65 68 65q16 0 26 -9.5t10 -21.5q0 -15 -17 -23q-34 -9 -54 -42q31 -37 31 -95v-33q0 -72 -51 -119t-130 -47q-41 0 -74 15q-25 -15 -25 -34t23 -29.5t57 -13
t74 -9.5t74 -18t57 -39t23 -71q0 -71 -56.5 -108.5t-146.5 -37.5t-148.5 36.5t-58.5 98.5zM101 -85q0 -39 34.5 -62.5t92.5 -23.5q56 0 89.5 23.5t33.5 62.5q0 16 -5.5 28t-17.5 20t-24 13.5t-31 9t-31.5 5t-33 3.5t-28.5 3q-79 -26 -79 -82zM126 283q0 -48 26.5 -79
t72.5 -31q44 0 71 30.5t27 78.5v33q0 46 -27 77t-72 31q-46 0 -72 -30.5t-26 -77.5v-32z" />
    <glyph glyph-name="h" unicode="h" horiz-adv-x="504" 
d="M60 30v701q0 13 11.5 21t29.5 8t30 -8t12 -21v-327q17 32 50.5 54t79.5 22q71 0 123.5 -56.5t52.5 -135.5v-258q0 -14 -12.5 -22t-29.5 -8q-16 0 -28.5 8t-12.5 22v258q0 45 -34 81t-80 36q-43 0 -76 -32.5t-33 -84.5v-258q0 -11 -12.5 -20.5t-29.5 -9.5t-29 9t-12 21z
" />
    <glyph glyph-name="i" unicode="i" horiz-adv-x="201" 
d="M48 652q0 19 15 33t37 14q21 0 36 -14t15 -33t-15 -33.5t-36 -14.5t-36.5 14.5t-15.5 33.5zM59 30v415q0 13 12 21t29 8q18 0 30 -8t12 -21v-415q0 -11 -12.5 -20.5t-29.5 -9.5t-29 9t-12 21z" />
    <glyph glyph-name="j" unicode="j" horiz-adv-x="203" 
d="M-37 -193q0 16 10 26.5t24 10.5q39 0 51 29t12 87v485q0 13 11.5 21t29.5 8t30 -8t12 -21v-485q0 -87 -34 -138t-103 -51q-43 0 -43 36zM49 652q0 19 15 33t37 14q21 0 36 -14t15 -33t-15 -33.5t-36 -14.5t-36.5 14.5t-15.5 33.5z" />
    <glyph glyph-name="k" unicode="k" horiz-adv-x="467" 
d="M60 30v701q0 13 11.5 21t29.5 8t30 -8t12 -21v-468l228 206q9 7 18 7q15 0 28.5 -12t13.5 -27q0 -12 -9 -20l-139 -123l166 -241q5 -8 5 -15q0 -15 -15 -28.5t-31 -13.5q-14 0 -23 13l-159 233l-83 -74v-138q0 -11 -12.5 -20.5t-29.5 -9.5t-29 9t-12 21z" />
    <glyph glyph-name="l" unicode="l" horiz-adv-x="219" 
d="M68 30v701q0 13 11.5 21t29.5 8t30 -8t12 -21v-701q0 -11 -12.5 -20.5t-29.5 -9.5t-29 9t-12 21z" />
    <glyph glyph-name="m" unicode="m" horiz-adv-x="786" 
d="M59 30v415q0 13 11.5 21t29.5 8q16 0 27 -8t11 -21v-41q18 33 52.5 54.5t80.5 21.5t82.5 -27.5t54.5 -72.5q25 49 66 74.5t86 25.5q70 0 120.5 -52t50.5 -140v-258q0 -11 -12.5 -20.5t-29.5 -9.5q-16 0 -28.5 9.5t-12.5 20.5v258q0 54 -31.5 85.5t-73.5 31.5t-74.5 -32
t-32.5 -82v-262q0 -14 -12.5 -21.5t-29.5 -7.5q-16 0 -28.5 7.5t-12.5 21.5v261q0 50 -30.5 82.5t-73.5 32.5t-75 -32t-32 -85v-258q0 -11 -12.5 -20.5t-29.5 -9.5t-29 9t-12 21z" />
    <glyph glyph-name="n" unicode="n" horiz-adv-x="503" 
d="M59 30v415q0 13 11.5 21t29.5 8q15 0 26.5 -8.5t11.5 -20.5v-41q16 32 51.5 54t82.5 22q71 0 123.5 -56.5t52.5 -135.5v-258q0 -14 -12.5 -22t-29.5 -8q-16 0 -28.5 8t-12.5 22v258q0 45 -34 81t-80 36q-43 0 -76 -32.5t-33 -84.5v-258q0 -11 -13 -20.5t-29 -9.5
q-17 0 -29 9t-12 21z" />
    <glyph glyph-name="o" unicode="o" horiz-adv-x="477" 
d="M41 186v102q0 77 58.5 134.5t138.5 57.5t139 -57t59 -135v-102q0 -76 -59.5 -135t-138.5 -59t-138 58.5t-59 135.5zM124 186q0 -47 34 -83t80 -36q47 0 81 36.5t34 82.5v102q0 45 -34 81t-81 36t-80.5 -36t-33.5 -81v-102z" />
    <glyph glyph-name="p" unicode="p" horiz-adv-x="494" 
d="M60 -199v644q0 13 11.5 21t28.5 8t28 -8t11 -21v-41q18 32 53 54t81 22q75 0 127.5 -56.5t52.5 -135.5v-102q0 -76 -53 -135t-123 -59q-44 0 -80.5 22.5t-53.5 55.5v-269q0 -11 -12.5 -20.5t-29.5 -9.5t-29 9t-12 21zM143 159q0 -25 34.5 -58.5t78.5 -33.5
q45 0 79.5 36.5t34.5 82.5v102q0 45 -34.5 81t-81.5 36q-44 0 -77.5 -32.5t-33.5 -84.5v-129z" />
    <glyph glyph-name="q" unicode="q" horiz-adv-x="494" 
d="M41 186v102q0 79 52.5 135.5t127.5 56.5q46 0 81 -22t53 -54v41q0 13 11 21t28 8t28.5 -8t11.5 -21v-644q0 -12 -12 -21t-29 -9t-29.5 9.5t-12.5 20.5v269q-17 -33 -53.5 -55.5t-80.5 -22.5q-70 0 -123 59t-53 135zM124 186q0 -46 34.5 -82.5t79.5 -36.5q44 0 78.5 33.5
t34.5 58.5v129q0 52 -33.5 84.5t-77.5 32.5q-47 0 -81.5 -36t-34.5 -81v-102z" />
    <glyph glyph-name="r" unicode="r" horiz-adv-x="344" 
d="M59 30v415q0 13 11.5 21t29.5 8q16 0 27 -8t11 -21v-47q18 34 53 58t78 24h34q13 0 22.5 -11.5t9.5 -26.5t-9.5 -26t-22.5 -11h-34q-51 0 -89 -41t-38 -106v-228q0 -11 -12.5 -20.5t-29.5 -9.5t-29 9t-12 21z" />
    <glyph glyph-name="s" unicode="s" horiz-adv-x="392" 
d="M30 68q0 13 8.5 25.5t20.5 12.5q8 0 23 -12t43 -23.5t66 -11.5q50 0 72.5 18t22.5 45q0 33 -25 52.5t-61 29.5t-72 22t-61 40t-25 74q0 57 40.5 98.5t123.5 41.5q53 0 97 -16.5t44 -37.5q0 -12 -9.5 -27t-23.5 -15q-4 0 -38.5 14.5t-68.5 14.5q-46 0 -68.5 -21.5
t-22.5 -48.5q0 -28 25 -44t61.5 -25t72.5 -22t61 -44.5t25 -81.5q0 -62 -44 -98t-123 -36q-68 0 -116 24.5t-48 51.5z" />
    <glyph glyph-name="t" unicode="t" horiz-adv-x="310" 
d="M57 151v515q0 12 13 20.5t28 8.5q16 0 29 -8.5t13 -20.5v-192h126q11 0 18 -10t7 -23t-7 -22.5t-18 -9.5h-126v-258q0 -43 18.5 -60.5t64.5 -17.5h31q17 0 26.5 -10.5t9.5 -25.5t-10 -26t-26 -11h-31q-166 0 -166 151z" />
    <glyph glyph-name="u" unicode="u" 
d="M55 184v260q0 12 12.5 21t29.5 9q16 0 28.5 -9.5t12.5 -20.5v-260q0 -45 34 -81t81 -36q46 0 80 35.5t34 81.5v261q0 11 12.5 20t29.5 9q18 0 29.5 -8.5t11.5 -20.5v-261q0 -77 -58.5 -134.5t-138.5 -57.5q-81 0 -139.5 57.5t-58.5 134.5z" />
    <glyph glyph-name="v" unicode="v" horiz-adv-x="437" 
d="M12 440q0 14 17.5 25t35.5 11q21 0 27 -16l127 -340l125 336q8 20 27 20q16 0 35 -11t19 -25q0 -8 -4 -16l-164 -415q-8 -18 -38 -18q-31 0 -39 18l-164 415q-4 12 -4 16z" />
    <glyph glyph-name="w" unicode="w" horiz-adv-x="675" 
d="M14 440q0 15 16.5 25.5t34.5 10.5q21 0 27 -16l121 -336l94 303q7 20 31 20q25 0 32 -20l92 -306l122 339q5 16 26 16q18 0 35 -10.5t17 -25.5q0 -8 -4 -16l-156 -415q-7 -18 -33 -18q-27 0 -34 18l-97 294l-95 -291q-7 -21 -36 -21q-26 0 -34 21l-155 412q-4 12 -4 16z
" />
    <glyph glyph-name="x" unicode="x" horiz-adv-x="426" 
d="M24 33q0 9 5 17l129 190l-124 182q-6 8 -6 16q0 15 18 28.5t35 13.5q14 0 22 -12l110 -172l112 172q7 12 22 12q16 0 34 -14t18 -28q0 -8 -5 -16l-126 -182l130 -190q5 -7 5 -17q0 -13 -17 -27t-34 -14q-16 0 -23 12l-116 177l-115 -177q-8 -12 -23 -12t-33 13.5
t-18 27.5z" />
    <glyph glyph-name="y" unicode="y" horiz-adv-x="437" 
d="M12 440q0 16 18 28t36 12q21 0 27 -17l132 -348l119 348q7 17 26 17q17 0 35.5 -12t18.5 -29q0 -5 -3 -10l-152 -407l-19 -50q-5 -14 -20 -48t-25 -49t-28 -39.5t-35 -35.5t-40.5 -20t-49.5 -9q-39 0 -39 37q0 36 24 36q45 0 87.5 50.5t57.5 129.5l-166 405q-4 6 -4 11z
" />
    <glyph glyph-name="z" unicode="z" horiz-adv-x="411" 
d="M23 31q0 16 13 33l231 339h-207q-11 0 -19.5 10.5t-8.5 24.5q0 15 8 25.5t20 10.5h286q12 0 21 -9t9 -23q0 -17 -12 -32l-232 -339h229q11 0 19.5 -10.5t8.5 -25.5t-8 -25t-20 -10h-307q-15 0 -23 9.5t-8 21.5z" />
    <glyph glyph-name="braceleft" unicode="{" horiz-adv-x="325" 
d="M28 385q0 16 9.5 23.5t20.5 9t20.5 6.5t9.5 17q0 8 -9.5 75.5t-9.5 84.5q0 66 58.5 116.5t134.5 50.5q23 0 34 -11t11 -26q0 -14 -8 -25t-21 -11q-49 0 -87 -30t-38 -74q0 -15 9.5 -81.5t9.5 -76.5q0 -17 -12.5 -31.5t-23.5 -17.5q11 -3 23.5 -16.5t12.5 -31.5
q0 -11 -9.5 -94.5t-9.5 -99.5q0 -46 41 -67.5t84 -21.5q15 0 22 -11.5t7 -24.5q0 -37 -46 -37q-78 0 -135 44t-57 111q0 19 9.5 102t9.5 92q0 12 -9.5 17t-20.5 6t-20.5 9t-9.5 24z" />
    <glyph glyph-name="bar" unicode="|" horiz-adv-x="213" 
d="M65 8v731q0 13 12 21t30 8q17 0 29.5 -8.5t12.5 -20.5v-731q0 -11 -13 -20t-29 -9q-18 0 -30 8.5t-12 20.5z" />
    <glyph glyph-name="braceright" unicode="}" horiz-adv-x="325" 
d="M18 17q0 36 29 36q43 0 84 21.5t41 67.5q0 16 -9.5 99.5t-9.5 94.5q0 18 12 31.5t24 16.5q-11 3 -23.5 17.5t-12.5 31.5q0 10 9.5 76.5t9.5 81.5q0 44 -38.5 74t-86.5 30q-13 0 -21 11t-8 25q0 15 11 26t34 11q76 0 134.5 -50.5t58.5 -116.5q0 -17 -9.5 -84.5t-9.5 -75.5
q0 -12 9.5 -17t20.5 -6.5t20.5 -9t9.5 -23.5t-9.5 -24t-20.5 -9t-20.5 -6t-9.5 -17q0 -9 9.5 -92t9.5 -102q0 -67 -57 -111t-135 -44q-46 0 -46 37z" />
    <glyph glyph-name="asciitilde" unicode="~" horiz-adv-x="402" 
d="M41 244q0 29 29.5 45t57.5 16q27 0 68 -16.5t67 -16.5q25 0 46 13.5t27 13.5q11 0 17.5 -9.5t6.5 -18.5q0 -31 -28 -45.5t-56 -14.5q-30 0 -70 16.5t-66 16.5q-25 0 -47.5 -14.5t-28.5 -14.5q-11 0 -17 9.5t-6 19.5z" />
    <glyph glyph-name="uni00A0" unicode="&#xa0;" horiz-adv-x="200" 
 />
    <glyph glyph-name="exclamdown" unicode="&#xa1;" horiz-adv-x="206" 
d="M50 689q0 21 15 36.5t37 15.5t37 -15.5t15 -36.5q0 -22 -15 -37.5t-37 -15.5t-37 15.5t-15 37.5zM58 37q0 78 6 248t6 248q0 13 10 20t22 7q14 0 23.5 -7t9.5 -20q0 -78 6.5 -248t6.5 -248q0 -20 -13 -31.5t-33 -11.5q-19 0 -31.5 11.5t-12.5 31.5z" />
    <glyph glyph-name="cent" unicode="&#xa2;" horiz-adv-x="418" 
d="M32 358v20q0 77 40.5 129t121.5 62v99q0 11 8.5 18.5t19.5 7.5q12 0 20.5 -7.5t8.5 -18.5v-98q54 -4 92 -23.5t38 -42.5q0 -15 -10.5 -27.5t-24.5 -12.5q-4 0 -31.5 16t-63.5 18v-259q36 2 63 18t32 16q16 0 27 -12t11 -27q0 -24 -40 -44t-93 -24v-99q0 -10 -9 -18.5
t-20 -8.5t-19.5 8t-8.5 19v100q-80 9 -121 61t-41 130zM107 358q0 -99 87 -118v256q-87 -19 -87 -118v-20z" />
    <glyph glyph-name="sterling" unicode="&#xa3;" horiz-adv-x="502" 
d="M23 38q0 16 7.5 27t21.5 11h57l41 291h-71q-12 0 -18.5 9.5t-6.5 22.5q0 14 7 23.5t18 9.5h80l20 140q12 82 79 139t151 57h24q14 0 23 -11.5t9 -26.5q0 -14 -9 -25.5t-23 -11.5h-29q-56 0 -95 -35t-47 -86l-20 -140h141q11 0 18 -10t7 -23t-7 -22.5t-18 -9.5h-150
l-42 -291h246q13 0 20.5 -11.5t7.5 -26.5t-7.5 -26.5t-20.5 -11.5h-385q-14 0 -21.5 11t-7.5 27z" />
    <glyph glyph-name="currency" unicode="&#xa4;" horiz-adv-x="470" 
d="M58 324q0 7 5 12l31 30q-35 48 -35 106q0 59 35 105l-26 26q-6 6 -6 13q0 9 7.5 16t15.5 7q6 0 13 -5l25 -25q48 43 113 43q60 0 110 -40l26 26q7 5 13 5q9 0 16 -7t7 -16q0 -6 -5 -13l-28 -26q39 -47 39 -109q0 -59 -39 -109l28 -27q5 -7 5 -12q0 -8 -7 -15.5t-16 -7.5
q-8 0 -12 5l-27 26q-50 -42 -110 -42q-62 0 -113 44l-30 -28q-5 -5 -12 -5q-9 0 -16 7t-7 16zM114 472q0 -50 36 -88.5t86 -38.5t86.5 38.5t36.5 88.5q0 48 -36 86.5t-87 38.5q-50 0 -86 -38t-36 -87z" />
    <glyph glyph-name="yen" unicode="&#xa5;" horiz-adv-x="520" 
d="M23 698q0 13 15.5 24.5t32.5 11.5t27 -21l160 -308l165 308q11 21 27 21q17 0 32 -11.5t15 -24.5q0 -8 -2 -11l-177 -313h93q11 0 20.5 -10t9.5 -23t-9 -22t-21 -9h-112v-71h112q12 0 21 -9.5t9 -22.5q0 -14 -9 -23t-21 -9h-112v-146q0 -13 -12 -21t-29 -8t-29.5 8
t-12.5 21v146h-107q-13 0 -21 8.5t-8 22.5t8 23.5t21 9.5h107v71h-107q-13 0 -21 8.5t-8 22.5t8 23.5t21 9.5h88l-171 313q-3 5 -3 11z" />
    <glyph glyph-name="brokenbar" unicode="&#xa6;" horiz-adv-x="213" 
d="M65 8v266q0 13 11.5 21t29.5 8t30 -8t12 -21v-266q0 -11 -12.5 -20t-29.5 -9q-18 0 -29.5 8.5t-11.5 20.5zM65 473v266q0 13 11.5 21t29.5 8t30 -8t12 -21v-266q0 -11 -12.5 -20t-29.5 -9q-18 0 -29.5 8.5t-11.5 20.5z" />
    <glyph glyph-name="section" unicode="&#xa7;" horiz-adv-x="469" 
d="M46 99q0 36 37 36t37 -27q0 -38 23.5 -70.5t81.5 -32.5q55 0 84 28.5t29 78.5q0 42 -29 67t-70 39.5t-82.5 33t-70.5 59.5t-29 105v119q0 57 16.5 97.5t45 60.5t57 29t60.5 9q80 0 123.5 -46t43.5 -116q0 -37 -34 -37q-38 0 -38 34q0 35 -21 64.5t-71 29.5
q-44 0 -74 -27.5t-30 -83.5q0 -35 21.5 -59.5t53 -36t69 -27t69 -33.5t53 -56t21.5 -92v-118q0 -101 -54.5 -147.5t-135.5 -46.5q-85 0 -135.5 49t-50.5 117zM129 404q0 -37 16.5 -62t43 -38.5t55 -23t59 -23.5t47.5 -32v27q0 45 -26 74t-59.5 39t-74.5 27t-61 38v-26z" />
    <glyph glyph-name="dieresis" unicode="&#xa8;" horiz-adv-x="211" 
d="M0 630q0 17 12 29t29 12t28.5 -12t11.5 -29t-12 -29.5t-28 -12.5q-17 0 -29 12.5t-12 29.5zM131 630q0 17 11.5 29t28.5 12t28.5 -12t11.5 -29t-11.5 -29.5t-28.5 -12.5t-28.5 12.5t-11.5 29.5z" />
    <glyph glyph-name="copyright" unicode="&#xa9;" horiz-adv-x="710" 
d="M48 358q0 80 28.5 144.5t74.5 103t99.5 59t107.5 20.5t107 -20.5t97.5 -59t72 -102t27.5 -141.5q0 -80 -28.5 -144.5t-74.5 -103t-99.5 -59t-107.5 -20.5t-107 20.5t-97.5 59t-72 102t-27.5 141.5zM97 358q0 -120 70.5 -197t184.5 -77q115 0 188 77.5t73 200.5
q0 120 -70.5 197t-184.5 77q-115 0 -188 -77.5t-73 -200.5zM247 291v152q0 63 30.5 92.5t78.5 29.5q50 0 80.5 -27.5t30.5 -71.5q0 -17 -6 -23t-21 -6q-27 0 -27 19q-3 59 -55 59q-57 0 -57 -72v-152q0 -73 57 -73q17 0 28 5.5t16.5 17.5t7 19t3.5 21q1 19 27 19
q15 0 21 -6.5t6 -23.5q0 -45 -31 -73t-81 -28q-48 0 -78 29.5t-30 92.5z" />
    <glyph glyph-name="ordfeminine" unicode="&#xaa;" horiz-adv-x="319" 
d="M32 517q0 51 38.5 71t112.5 20h29v12q0 30 -16.5 52t-49.5 22q-28 0 -49 -9.5t-23 -9.5q-10 0 -16 9.5t-6 21.5q0 15 31 27.5t64 12.5q64 0 95 -36t31 -90v-162q0 -9 -8.5 -15.5t-21.5 -6.5q-11 0 -19.5 6.5t-8.5 15.5v23q-42 -49 -101 -49q-36 0 -59 22t-23 63zM94 524
q0 -22 12.5 -33.5t32.5 -11.5q26 0 49.5 21t23.5 44v28h-26q-92 0 -92 -48z" />
    <glyph glyph-name="guillemotleft" unicode="&#xab;" horiz-adv-x="434" 
d="M32 277q0 8 14 34l84 157q8 13 27 13t34 -14t15 -28q0 -5 -3 -11l-81 -151l81 -151q3 -4 3 -11q0 -14 -15.5 -27.5t-34.5 -13.5t-26 13l-84 156q-14 26 -14 34zM220 277q0 8 14 34l84 157q6 13 27 13q19 0 34 -14t15 -28q0 -5 -3 -11l-81 -151l81 -151q3 -4 3 -11
q0 -14 -15.5 -27.5t-34.5 -13.5t-26 13l-84 156q-14 25 -14 34z" />
    <glyph glyph-name="logicalnot" unicode="&#xac;" horiz-adv-x="486" 
d="M44 240q0 15 8 25.5t21 10.5h322q12 0 21 -10.5t9 -25.5v-148q0 -11 -12 -20t-29 -9q-18 0 -30 8.5t-12 20.5v113h-269q-29 0 -29 35z" />
    <glyph glyph-name="uni00AD" unicode="&#xad;" horiz-adv-x="473" 
d="M47 240q0 15 8 25.5t21 10.5h320q12 0 21 -10.5t9 -25.5t-9 -25t-21 -10h-320q-29 0 -29 35z" />
    <glyph glyph-name="registered" unicode="&#xae;" horiz-adv-x="710" 
d="M48 358q0 80 28.5 144.5t74.5 103t99.5 59t107.5 20.5t107 -20.5t97.5 -59t72 -102t27.5 -141.5q0 -80 -28.5 -144.5t-74.5 -103t-99.5 -59t-107.5 -20.5t-107 20.5t-97.5 59t-72 102t-27.5 141.5zM97 358q0 -120 70.5 -197t184.5 -77q115 0 188 77.5t73 200.5
q0 120 -70.5 197t-184.5 77q-115 0 -188 -77.5t-73 -200.5zM257 193v346q0 7 5 12.5t13 5.5h90q110 0 110 -107q0 -85 -67 -103l65 -139q1 -3 1 -7q0 -10 -9 -19t-20 -9q-10 0 -19 18l-69 148h-48v-146q0 -19 -25 -19q-27 0 -27 19zM309 383h56q58 0 58 62q0 65 -58 65h-56
v-127z" />
    <glyph glyph-name="macron" unicode="&#xaf;" horiz-adv-x="271" 
d="M0 658q0 13 8 22t21 9h212q11 0 20.5 -9.5t9.5 -21.5q0 -13 -9 -21.5t-21 -8.5h-212q-13 0 -21 8.5t-8 21.5z" />
    <glyph glyph-name="degree" unicode="&#xb0;" horiz-adv-x="413" 
d="M29 588q0 72 52.5 126t124.5 54t125 -53t53 -127q0 -72 -53.5 -127t-124.5 -55t-124 55t-53 127zM84 588q0 -50 36 -88.5t86 -38.5t86.5 38.5t36.5 88.5q0 48 -36 86.5t-87 38.5q-50 0 -86 -38t-36 -87z" />
    <glyph glyph-name="plusminus" unicode="&#xb1;" horiz-adv-x="470" 
d="M46 85q0 15 8 25.5t21 10.5h320q12 0 21 -10.5t9 -25.5t-9 -25t-21 -10h-320q-13 0 -21 9.5t-8 25.5zM46 357q0 15 8 25.5t21 10.5h125v120q0 12 10.5 21t25.5 9t25 -9t10 -21v-120h124q12 0 21 -10.5t9 -25.5t-9 -25t-21 -10h-124v-121q0 -13 -9.5 -21t-25.5 -8
q-15 0 -25.5 8t-10.5 21v121h-125q-13 0 -21 9.5t-8 25.5z" />
    <glyph glyph-name="uni00B2" unicode="&#xb2;" horiz-adv-x="310" 
d="M30 368v50q0 28 29.5 57t65 49t65 47t29.5 53q0 20 -16 36t-47 16q-58 0 -58 -50q0 -9 -9 -15.5t-23 -6.5q-27 0 -27 32q0 42 34 68.5t83 26.5q52 0 87.5 -29t35.5 -76q0 -31 -19 -58t-46.5 -46t-55 -35.5t-46.5 -33.5t-19 -32v-20h169q8 0 14 -7.5t6 -18.5t-6 -19
t-14 -8h-204q-10 0 -19 6t-9 14z" />
    <glyph glyph-name="uni00B3" unicode="&#xb3;" horiz-adv-x="317" 
d="M26 438q0 14 6 19t22 5q18 0 25 -4.5t7 -16.5q0 -18 17.5 -30.5t50.5 -12.5q36 0 53 14.5t17 47.5v9q0 55 -70 55q-20 0 -20 23q0 25 20 25q29 0 44 11.5t15 43.5q0 51 -57 51q-61 0 -61 -40q0 -23 -28 -23q-20 0 -25.5 5t-5.5 21q0 34 28 62t92 28q116 0 116 -94
q0 -67 -46 -87q58 -20 58 -81v-9q0 -60 -36 -87.5t-95 -27.5q-62 0 -94.5 28.5t-32.5 64.5z" />
    <glyph glyph-name="acute" unicode="&#xb4;" horiz-adv-x="168" 
d="M0 618q0 15 13 22l117 62q6 2 10 2q12 0 20 -10.5t8 -23.5q0 -17 -14 -24l-113 -58q-8 -4 -11 -4q-12 0 -21 10.5t-9 23.5z" />
    <glyph glyph-name="uni00B5" unicode="&#xb5;" horiz-adv-x="497" 
d="M66 -200v644q0 12 12 21t29 9q16 0 29 -9.5t13 -20.5v-274q0 -33 36 -68t79 -35q44 0 77 36t33 81v260q0 12 12.5 21t28.5 9q18 0 30 -8.5t12 -21.5v-260q0 -78 -56.5 -135t-137.5 -57q-77 0 -122 58v-250q0 -11 -10.5 -20t-24.5 -9q-17 0 -28.5 8.5t-11.5 20.5z" />
    <glyph glyph-name="paragraph" unicode="&#xb6;" horiz-adv-x="531" 
d="M29 513v12q0 107 53.5 156.5t142.5 49.5h205q12 0 21 -8t9 -22v-672q0 -14 -9 -21.5t-21 -7.5t-21 7.5t-9 21.5v654h-79v-653q0 -14 -9 -22t-21 -8t-21 8t-9 22v276h-36q-89 0 -142.5 50t-53.5 157z" />
    <glyph glyph-name="periodcentered" unicode="&#xb7;" horiz-adv-x="188" 
d="M40 300q0 20 16 35t39 15q22 0 37.5 -15t15.5 -35t-15.5 -35t-37.5 -15q-23 0 -39 15t-16 35z" />
    <glyph glyph-name="cedilla" unicode="&#xb8;" horiz-adv-x="173" 
d="M0 -185q0 7 5 17.5t13 10.5q2 0 19.5 -7t36.5 -7q52 0 52 37q0 36 -59 41l-43 3l26 99h45l-18 -67q48 -1 72 -22t24 -51q0 -32 -23.5 -56.5t-69.5 -24.5q-27 0 -53.5 7t-26.5 20z" />
    <glyph glyph-name="uni00B9" unicode="&#xb9;" horiz-adv-x="175" 
d="M14 653q0 15 12 22l60 51q6 6 16 6t18 -5.5t8 -14.5v-344q0 -20 -30 -20t-30 20v286l-20 -20q-6 -5 -13 -5q-9 0 -15 7.5t-6 16.5z" />
    <glyph glyph-name="ordmasculine" unicode="&#xba;" horiz-adv-x="331" 
d="M35 558v62q0 51 38 88.5t92 37.5q53 0 92 -37.5t39 -88.5v-62q0 -50 -39.5 -88.5t-91.5 -38.5t-91 38.5t-39 88.5zM97 558q0 -28 20 -50t48 -22t49 22t21 50v62q0 28 -20.5 49t-49.5 21q-28 0 -48 -21t-20 -49v-62z" />
    <glyph glyph-name="guillemotright" unicode="&#xbb;" horiz-adv-x="434" 
d="M40 115q0 7 3 11l81 151l-81 151q-3 6 -3 11q0 14 15 28t34 14t27 -13l84 -157q14 -26 14 -34t-14 -34l-84 -156q-7 -13 -26 -13t-34.5 13.5t-15.5 27.5zM227 115q0 7 3 11l82 151l-82 151q-3 6 -3 11q0 14 15 28t34 14q20 0 27 -13l85 -157q14 -26 14 -34t-14 -34
l-85 -156q-7 -13 -26 -13t-34.5 13.5t-15.5 27.5z" />
    <glyph glyph-name="onequarter" unicode="&#xbc;" horiz-adv-x="619" 
d="M27 653q0 15 12 22l60 51q6 6 16 6t18 -5.5t8 -14.5v-344q0 -20 -30 -20t-30 20v286l-20 -20q-6 -5 -13 -5q-9 0 -15 7.5t-6 16.5zM71 0q0 7 3 13l375 742q7 15 25 15q13 0 23.5 -9.5t10.5 -23.5q0 -7 -3 -14l-374 -737q-7 -16 -28 -16q-13 0 -22.5 9t-9.5 21zM325 107
q0 6 3 12l139 248q10 16 27 16q10 0 20 -6.5t10 -16.5q0 -3 -2 -9l-120 -210h86v66q0 19 29 19q31 0 31 -19v-66h29q20 0 20 -28q0 -11 -6.5 -19.5t-13.5 -8.5h-29v-65q0 -20 -31 -20q-29 0 -29 20v65h-142q-21 0 -21 22z" />
    <glyph glyph-name="onehalf" unicode="&#xbd;" horiz-adv-x="625" 
d="M26 653q0 15 12 22l60 51q6 6 16 6t18 -5.5t8 -14.5v-344q0 -20 -30 -20t-30 20v286l-20 -20q-6 -5 -13 -5q-9 0 -15 7.5t-6 16.5zM54 0q0 7 3 13l375 742q8 15 25 15q13 0 23.5 -9.5t10.5 -23.5q0 -7 -3 -14l-374 -737q-7 -16 -28 -16q-13 0 -22.5 9t-9.5 21zM344 20v51
q0 28 29.5 56.5t65 48.5t65 47t29.5 53q0 20 -16 36t-47 16q-58 0 -58 -50q0 -9 -9 -15.5t-23 -6.5q-27 0 -27 32q0 43 34 69t83 26q52 0 87.5 -29t35.5 -76q0 -31 -19 -58t-46.5 -46t-55 -35.5t-46.5 -33.5t-19 -32v-20h169q8 0 14 -7.5t6 -18.5t-6 -19t-14 -8h-204
q-10 0 -19 6t-9 14z" />
    <glyph glyph-name="threequarters" unicode="&#xbe;" horiz-adv-x="751" 
d="M30 438q0 14 6 19t22 5q18 0 25 -4.5t7 -16.5q0 -18 17.5 -30.5t50.5 -12.5q36 0 53 14.5t17 47.5v9q0 55 -70 55q-20 0 -20 23q0 25 20 25q29 0 44 11.5t15 43.5q0 51 -57 51q-61 0 -61 -40q0 -23 -28 -23q-20 0 -25.5 5t-5.5 21q0 34 28 62t92 28q116 0 116 -94
q0 -67 -46 -87q58 -20 58 -81v-9q0 -60 -36 -87.5t-95 -27.5q-62 0 -94.5 28.5t-32.5 64.5zM197 0q0 7 3 13l375 742q7 15 25 15q13 0 23.5 -9.5t10.5 -23.5q0 -7 -3 -14l-374 -737q-7 -16 -28 -16q-13 0 -22.5 9t-9.5 21zM457 107q0 6 3 12l139 248q10 16 27 16
q10 0 20 -6.5t10 -16.5q0 -3 -2 -9l-120 -210h86v66q0 19 29 19q31 0 31 -19v-66h29q20 0 20 -28q0 -11 -6.5 -19.5t-13.5 -8.5h-29v-65q0 -20 -31 -20q-29 0 -29 20v65h-142q-21 0 -21 22z" />
    <glyph glyph-name="questiondown" unicode="&#xbf;" horiz-adv-x="408" 
d="M30 169q0 41 16.5 79.5t33.5 58.5t45 47l34 33q26 25 32.5 55t6.5 92q0 26 34 26q32 0 32 -37q0 -72 -12.5 -108t-35.5 -61q-8 -9 -33.5 -32t-40 -38.5t-28 -45t-13.5 -61.5q0 -55 33 -85.5t93 -30.5q31 0 53.5 8.5t32 18.5t20 18.5t20.5 8.5q13 0 23 -9t10 -24
q0 -30 -47 -59t-115 -29q-91 0 -142.5 49.5t-51.5 125.5zM179 689q0 21 15 36.5t37 15.5t37 -15.5t15 -36.5q0 -22 -15 -37.5t-37 -15.5q-21 0 -36.5 15.5t-15.5 37.5z" />
    <glyph glyph-name="Agrave" unicode="&#xc0;" horiz-adv-x="550" 
d="M17 35q0 2 2 8l204 665q9 29 52 29t52 -29l204 -665q0 -2 0.5 -4t0.5 -3q0 -14 -16.5 -25t-35.5 -11q-24 0 -30 19l-44 149h-263l-44 -149q-6 -19 -31 -19q-18 0 -34.5 10t-16.5 25zM162 237h224l-111 376zM184 921q0 13 8 23.5t20 10.5q4 0 10 -2l117 -62q13 -7 13 -22
q0 -13 -9 -23.5t-21 -10.5q-3 0 -11 4l-113 58q-14 7 -14 24z" />
    <glyph glyph-name="Aacute" unicode="&#xc1;" horiz-adv-x="550" 
d="M17 35q0 2 2 8l204 665q9 29 52 29t52 -29l204 -665q0 -2 0.5 -4t0.5 -3q0 -14 -16.5 -25t-35.5 -11q-24 0 -30 19l-44 149h-263l-44 -149q-6 -19 -31 -19q-18 0 -34.5 10t-16.5 25zM162 237h224l-111 376zM206 869q0 15 13 22l117 62q6 2 10 2q12 0 20 -10.5t8 -23.5
q0 -17 -14 -24l-113 -58q-8 -4 -11 -4q-12 0 -21 10.5t-9 23.5z" />
    <glyph glyph-name="Acircumflex" unicode="&#xc2;" horiz-adv-x="550" 
d="M17 35q0 2 2 8l204 665q9 29 52 29t52 -29l204 -665q0 -2 0.5 -4t0.5 -3q0 -14 -16.5 -25t-35.5 -11q-24 0 -30 19l-44 149h-263l-44 -149q-6 -19 -31 -19q-18 0 -34.5 10t-16.5 25zM138 868q0 18 15 26l104 56q10 5 17 5q9 0 17 -5l104 -55q16 -9 16 -28
q0 -11 -6.5 -19.5t-16.5 -8.5q-2 0 -6 1q-2 2 -4 2l-104 56l-104 -56q-4 -3 -9 -3q-9 0 -16 9t-7 20zM162 237h224l-111 376z" />
    <glyph glyph-name="Atilde" unicode="&#xc3;" horiz-adv-x="550" 
d="M17 35q0 2 2 8l204 665q9 29 52 29t52 -29l204 -665q0 -2 0.5 -4t0.5 -3q0 -14 -16.5 -25t-35.5 -11q-24 0 -30 19l-44 149h-263l-44 -149q-6 -19 -31 -19q-18 0 -34.5 10t-16.5 25zM115 887q0 29 29.5 45t57.5 16q27 0 68 -16.5t67 -16.5q25 0 46 13.5t27 13.5
q11 0 17.5 -9.5t6.5 -18.5q0 -31 -28 -45.5t-56 -14.5q-30 0 -70 16.5t-66 16.5q-25 0 -47.5 -14.5t-28.5 -14.5q-11 0 -17 9.5t-6 19.5zM162 237h224l-111 376z" />
    <glyph glyph-name="Adieresis" unicode="&#xc4;" horiz-adv-x="550" 
d="M17 35q0 2 2 8l204 665q9 29 52 29t52 -29l204 -665q0 -2 0.5 -4t0.5 -3q0 -14 -16.5 -25t-35.5 -11q-24 0 -30 19l-44 149h-263l-44 -149q-6 -19 -31 -19q-18 0 -34.5 10t-16.5 25zM162 237h224l-111 376zM169 881q0 17 12 29t29 12t28.5 -12t11.5 -29t-12 -29.5
t-28 -12.5q-17 0 -29 12.5t-12 29.5zM300 881q0 17 11.5 29t28.5 12t28.5 -12t11.5 -29t-11.5 -29.5t-28.5 -12.5t-28.5 12.5t-11.5 29.5z" />
    <glyph glyph-name="Aring" unicode="&#xc5;" horiz-adv-x="550" 
d="M17 35q0 2 2 8l204 665q9 29 52 29t52 -29l204 -665q0 -2 0.5 -4t0.5 -3q0 -14 -16.5 -25t-35.5 -11q-24 0 -30 19l-44 149h-263l-44 -149q-6 -19 -31 -19q-18 0 -34.5 10t-16.5 25zM162 237h224l-111 376zM180 924q0 38 27.5 66.5t66.5 28.5q37 0 65.5 -29t28.5 -66
q0 -38 -28.5 -67.5t-65.5 -29.5q-39 0 -66.5 29t-27.5 68zM218 924q0 -22 16.5 -40.5t39.5 -18.5q22 0 38.5 18.5t16.5 40.5q0 21 -16.5 38t-38.5 17q-23 0 -39.5 -17.5t-16.5 -37.5z" />
    <glyph glyph-name="AE" unicode="&#xc6;" horiz-adv-x="735" 
d="M68 35v478q0 113 58 165.5t154 52.5h404q14 0 21.5 -11t7.5 -26q0 -17 -7.5 -28t-21.5 -11h-233v-254h140q13 0 21 -10.5t8 -25.5q0 -13 -7.5 -23.5t-21.5 -10.5h-140v-255h233q14 0 21.5 -11t7.5 -28q0 -15 -7.5 -26t-21.5 -11h-279q-15 0 -26.5 8t-11.5 22v301h-219
v-296q0 -18 -8 -26.5t-34 -8.5q-38 0 -38 35zM148 401h219v254h-87q-63 0 -97.5 -35.5t-34.5 -106.5v-112z" />
    <glyph glyph-name="Ccedilla" unicode="&#xc7;" horiz-adv-x="531" 
d="M64 212v301q0 112 59.5 165t155.5 53q98 0 157 -49.5t59 -124.5q0 -27 -10 -36.5t-32 -9.5q-40 0 -42 29q-6 115 -130 115q-133 0 -133 -142v-301q0 -142 136 -142q39 0 65 11t38.5 32t16.5 36t7 40q3 29 42 29q22 0 32 -10t10 -37q0 -69 -49.5 -117.5t-132.5 -57.5
l-14 -54q48 -1 72 -22t24 -51q0 -32 -23.5 -56.5t-69.5 -24.5q-27 0 -53.5 7t-26.5 20q0 7 5 17.5t13 10.5q2 0 19.5 -7t36.5 -7q52 0 52 37q0 36 -59 41l-43 3l22 84q-92 3 -148 55.5t-56 162.5z" />
    <glyph glyph-name="Egrave" unicode="&#xc8;" horiz-adv-x="514" 
d="M71 30v671q0 14 11.5 22t26.5 8h356q14 0 21.5 -11t7.5 -26q0 -16 -8 -27.5t-21 -11.5h-310v-254h156q13 0 21 -10.5t8 -25.5q0 -13 -7.5 -23.5t-21.5 -10.5h-156v-255h310q13 0 21 -11.5t8 -27.5q0 -15 -7.5 -26t-21.5 -11h-356q-15 0 -26.5 8t-11.5 22zM196 921
q0 13 8 23.5t20 10.5q4 0 10 -2l117 -62q13 -7 13 -22q0 -13 -9 -23.5t-21 -10.5q-3 0 -11 4l-113 58q-14 7 -14 24z" />
    <glyph glyph-name="Eacute" unicode="&#xc9;" horiz-adv-x="514" 
d="M71 30v671q0 14 11.5 22t26.5 8h356q14 0 21.5 -11t7.5 -26q0 -16 -8 -27.5t-21 -11.5h-310v-254h156q13 0 21 -10.5t8 -25.5q0 -13 -7.5 -23.5t-21.5 -10.5h-156v-255h310q13 0 21 -11.5t8 -27.5q0 -15 -7.5 -26t-21.5 -11h-356q-15 0 -26.5 8t-11.5 22zM208 869
q0 15 13 22l117 62q6 2 10 2q12 0 20 -10.5t8 -23.5q0 -17 -14 -24l-113 -58q-8 -4 -11 -4q-12 0 -21 10.5t-9 23.5z" />
    <glyph glyph-name="Ecircumflex" unicode="&#xca;" horiz-adv-x="514" 
d="M71 30v671q0 14 11.5 22t26.5 8h356q14 0 21.5 -11t7.5 -26q0 -16 -8 -27.5t-21 -11.5h-310v-254h156q13 0 21 -10.5t8 -25.5q0 -13 -7.5 -23.5t-21.5 -10.5h-156v-255h310q13 0 21 -11.5t8 -27.5q0 -15 -7.5 -26t-21.5 -11h-356q-15 0 -26.5 8t-11.5 22zM149 868
q0 18 15 26l104 56q10 5 17 5q9 0 17 -5l104 -55q16 -9 16 -28q0 -11 -7 -19.5t-16 -8.5q-2 0 -6 1q-2 2 -4 2l-104 56l-104 -56q-5 -3 -9 -3q-9 0 -16 9t-7 20z" />
    <glyph glyph-name="Edieresis" unicode="&#xcb;" horiz-adv-x="514" 
d="M71 30v671q0 14 11.5 22t26.5 8h356q14 0 21.5 -11t7.5 -26q0 -16 -8 -27.5t-21 -11.5h-310v-254h156q13 0 21 -10.5t8 -25.5q0 -13 -7.5 -23.5t-21.5 -10.5h-156v-255h310q13 0 21 -11.5t8 -27.5q0 -15 -7.5 -26t-21.5 -11h-356q-15 0 -26.5 8t-11.5 22zM177 881
q0 17 12 29t29 12t28.5 -12t11.5 -29t-12 -29.5t-28 -12.5q-17 0 -29 12.5t-12 29.5zM308 881q0 17 11.5 29t28.5 12t28.5 -12t11.5 -29t-11.5 -29.5t-28.5 -12.5t-28.5 12.5t-11.5 29.5z" />
    <glyph glyph-name="Igrave" unicode="&#xcc;" horiz-adv-x="226" 
d="M25 921q0 13 8 23.5t20 10.5q4 0 10 -2l117 -62q13 -7 13 -22q0 -13 -9 -23.5t-21 -10.5q-3 0 -11 4l-113 58q-14 7 -14 24zM71 30v672q0 14 12.5 21.5t29.5 7.5t29.5 -7.5t12.5 -21.5v-672q0 -14 -12.5 -22t-29.5 -8t-29.5 8t-12.5 22z" />
    <glyph glyph-name="Iacute" unicode="&#xcd;" horiz-adv-x="226" 
d="M32 869q0 15 13 22l117 62q6 2 10 2q12 0 20 -10.5t8 -23.5q0 -17 -14 -24l-113 -58q-8 -4 -11 -4q-12 0 -21 10.5t-9 23.5zM71 30v672q0 14 12.5 21.5t29.5 7.5t29.5 -7.5t12.5 -21.5v-672q0 -14 -12.5 -22t-29.5 -8t-29.5 8t-12.5 22z" />
    <glyph glyph-name="Icircumflex" unicode="&#xce;" horiz-adv-x="226" 
d="M-23 868q0 18 15 26l104 56q10 5 17 5q9 0 17 -5l104 -55q16 -9 16 -28q0 -11 -7 -19.5t-16 -8.5q-2 0 -6 1q-2 2 -4 2l-104 56l-104 -56q-5 -3 -9 -3q-9 0 -16 9t-7 20zM71 30v672q0 14 12.5 21.5t29.5 7.5t29.5 -7.5t12.5 -21.5v-672q0 -14 -12.5 -22t-29.5 -8t-29.5 8
t-12.5 22z" />
    <glyph glyph-name="Idieresis" unicode="&#xcf;" horiz-adv-x="226" 
d="M8 881q0 17 12 29t29 12t28.5 -12t11.5 -29t-12 -29.5t-28 -12.5q-17 0 -29 12.5t-12 29.5zM71 30v672q0 14 12.5 21.5t29.5 7.5t29.5 -7.5t12.5 -21.5v-672q0 -14 -12.5 -22t-29.5 -8t-29.5 8t-12.5 22zM139 881q0 17 11.5 29t28.5 12t28.5 -12t11.5 -29t-11.5 -29.5
t-28.5 -12.5t-28.5 12.5t-11.5 29.5z" />
    <glyph glyph-name="Eth" unicode="&#xd0;" horiz-adv-x="574" 
d="M-3 383q0 14 7 23.5t18 9.5h57v286q0 12 10.5 20.5t27.5 8.5h177q98 0 157 -52.5t59 -165.5v-295q0 -113 -59 -165.5t-157 -52.5h-177q-17 0 -27.5 8.5t-10.5 20.5v322h-57q-12 0 -18.5 9.5t-6.5 22.5zM163 76h131q63 0 97.5 35.5t34.5 106.5v295q0 71 -34.5 106.5
t-97.5 35.5h-131v-239h103q11 0 18.5 -10t7.5 -23t-7.5 -22.5t-18.5 -9.5h-103v-275z" />
    <glyph glyph-name="Ntilde" unicode="&#xd1;" horiz-adv-x="581" 
d="M71 30v672q0 29 42 29q21 0 35.5 -12.5t28.5 -40.5l249 -487v511q0 14 12.5 21.5t29.5 7.5t29.5 -7.5t12.5 -21.5v-672q0 -14 -12.5 -22t-29.5 -8q-32 0 -53 38l-260 503v-511q0 -14 -12.5 -22t-29.5 -8t-29.5 8t-12.5 22zM127 887q0 29 29.5 45t57.5 16q27 0 68 -16.5
t67 -16.5q25 0 46 13.5t27 13.5q11 0 17.5 -9.5t6.5 -18.5q0 -31 -28 -45.5t-56 -14.5q-30 0 -70 16.5t-66 16.5q-25 0 -47.5 -14.5t-28.5 -14.5q-11 0 -17 9.5t-6 19.5z" />
    <glyph glyph-name="Ograve" unicode="&#xd2;" horiz-adv-x="559" 
d="M64 212v301q0 113 58.5 165.5t156.5 52.5t157 -52.5t59 -165.5v-301q0 -113 -59 -165.5t-157 -52.5t-156.5 52.5t-58.5 165.5zM148 212q0 -142 131 -142q63 0 97.5 35.5t34.5 106.5v301q0 71 -34.5 106.5t-97.5 35.5q-131 0 -131 -142v-301zM189 921q0 13 8 23.5t20 10.5
q4 0 10 -2l117 -62q13 -7 13 -22q0 -13 -9 -23.5t-21 -10.5q-3 0 -11 4l-113 58q-14 7 -14 24z" />
    <glyph glyph-name="Oacute" unicode="&#xd3;" horiz-adv-x="559" 
d="M64 212v301q0 113 58.5 165.5t156.5 52.5t157 -52.5t59 -165.5v-301q0 -113 -59 -165.5t-157 -52.5t-156.5 52.5t-58.5 165.5zM148 212q0 -142 131 -142q63 0 97.5 35.5t34.5 106.5v301q0 71 -34.5 106.5t-97.5 35.5q-131 0 -131 -142v-301zM213 869q0 15 13 22l117 62
q6 2 10 2q12 0 20 -10.5t8 -23.5q0 -17 -14 -24l-113 -58q-8 -4 -11 -4q-12 0 -21 10.5t-9 23.5z" />
    <glyph glyph-name="Ocircumflex" unicode="&#xd4;" horiz-adv-x="559" 
d="M64 212v301q0 113 58.5 165.5t156.5 52.5t157 -52.5t59 -165.5v-301q0 -113 -59 -165.5t-157 -52.5t-156.5 52.5t-58.5 165.5zM143 868q0 18 15 26l104 56q10 5 17 5q9 0 17 -5l104 -55q16 -9 16 -28q0 -11 -7 -19.5t-16 -8.5q-2 0 -6 1q-2 2 -4 2l-104 56l-104 -56
q-5 -3 -9 -3q-9 0 -16 9t-7 20zM148 212q0 -142 131 -142q63 0 97.5 35.5t34.5 106.5v301q0 71 -34.5 106.5t-97.5 35.5q-131 0 -131 -142v-301z" />
    <glyph glyph-name="Otilde" unicode="&#xd5;" horiz-adv-x="559" 
d="M64 212v301q0 113 58.5 165.5t156.5 52.5t157 -52.5t59 -165.5v-301q0 -113 -59 -165.5t-157 -52.5t-156.5 52.5t-58.5 165.5zM120 887q0 29 29.5 45t57.5 16q27 0 68 -16.5t67 -16.5q25 0 46 13.5t27 13.5q11 0 17.5 -9.5t6.5 -18.5q0 -31 -28 -45.5t-56 -14.5
q-30 0 -70 16.5t-66 16.5q-25 0 -47.5 -14.5t-28.5 -14.5q-11 0 -17 9.5t-6 19.5zM148 212q0 -142 131 -142q63 0 97.5 35.5t34.5 106.5v301q0 71 -34.5 106.5t-97.5 35.5q-131 0 -131 -142v-301z" />
    <glyph glyph-name="Odieresis" unicode="&#xd6;" horiz-adv-x="559" 
d="M64 212v301q0 113 58.5 165.5t156.5 52.5t157 -52.5t59 -165.5v-301q0 -113 -59 -165.5t-157 -52.5t-156.5 52.5t-58.5 165.5zM148 212q0 -142 131 -142q63 0 97.5 35.5t34.5 106.5v301q0 71 -34.5 106.5t-97.5 35.5q-131 0 -131 -142v-301zM174 881q0 17 12 29t29 12
t28.5 -12t11.5 -29t-12 -29.5t-28 -12.5q-17 0 -29 12.5t-12 29.5zM305 881q0 17 11.5 29t28.5 12t28.5 -12t11.5 -29t-11.5 -29.5t-28.5 -12.5t-28.5 12.5t-11.5 29.5z" />
    <glyph glyph-name="multiply" unicode="&#xd7;" horiz-adv-x="400" 
d="M54 168q0 11 7 19l93 88l-92 87q-8 8 -8 20q0 15 12.5 27t26.5 12q12 0 20 -8l87 -87l87 87q8 8 20 8q15 0 27 -12t12 -27q0 -12 -8 -20l-91 -87l92 -88q8 -10 8 -19q0 -14 -12.5 -26.5t-27.5 -12.5q-11 0 -19 7l-88 89l-88 -89q-8 -7 -19 -7q-14 0 -26.5 12.5
t-12.5 26.5z" />
    <glyph glyph-name="Oslash" unicode="&#xd8;" horiz-adv-x="559" 
d="M62 0q0 9 3 13l32 64q-33 52 -33 135v301q0 113 58.5 165.5t156.5 52.5q77 0 132 -34l29 58q8 15 24 15q13 0 24 -9.5t11 -23.5q0 -7 -4 -14l-36 -72q36 -52 36 -138v-301q0 -113 -59 -165.5t-157 -52.5q-83 0 -135 35l-22 -43q-7 -16 -28 -16q-14 0 -23 9t-9 21z
M148 212q0 -13 2 -31l223 442q-34 32 -94 32q-131 0 -131 -142v-301zM182 105q32 -35 97 -35q63 0 97.5 35.5t34.5 106.5v301q0 20 -3 38z" />
    <glyph glyph-name="Ugrave" unicode="&#xd9;" horiz-adv-x="573" 
d="M68 212v490q0 14 12.5 21.5t29.5 7.5t29.5 -7.5t12.5 -21.5v-490q0 -142 134 -142q65 0 100 35.5t35 106.5v490q0 29 42 29q17 0 29.5 -7.5t12.5 -21.5v-490q0 -113 -60 -165.5t-159 -52.5t-158.5 52.5t-59.5 165.5zM193 921q0 13 8 23.5t20 10.5q4 0 10 -2l117 -62
q13 -7 13 -22q0 -13 -9 -23.5t-21 -10.5q-3 0 -11 4l-113 58q-14 7 -14 24z" />
    <glyph glyph-name="Uacute" unicode="&#xda;" horiz-adv-x="573" 
d="M68 212v490q0 14 12.5 21.5t29.5 7.5t29.5 -7.5t12.5 -21.5v-490q0 -142 134 -142q65 0 100 35.5t35 106.5v490q0 29 42 29q17 0 29.5 -7.5t12.5 -21.5v-490q0 -113 -60 -165.5t-159 -52.5t-158.5 52.5t-59.5 165.5zM213 869q0 15 13 22l117 62q6 2 10 2q12 0 20 -10.5
t8 -23.5q0 -17 -14 -24l-113 -58q-8 -4 -11 -4q-12 0 -21 10.5t-9 23.5z" />
    <glyph glyph-name="Ucircumflex" unicode="&#xdb;" horiz-adv-x="573" 
d="M68 212v490q0 14 12.5 21.5t29.5 7.5t29.5 -7.5t12.5 -21.5v-490q0 -142 134 -142q65 0 100 35.5t35 106.5v490q0 29 42 29q17 0 29.5 -7.5t12.5 -21.5v-490q0 -113 -60 -165.5t-159 -52.5t-158.5 52.5t-59.5 165.5zM147 868q0 18 15 26l104 56q10 5 17 5q9 0 17 -5
l104 -55q16 -9 16 -28q0 -11 -7 -19.5t-16 -8.5q-2 0 -6 1q-2 2 -4 2l-104 56l-104 -56q-5 -3 -9 -3q-9 0 -16 9t-7 20z" />
    <glyph glyph-name="Udieresis" unicode="&#xdc;" horiz-adv-x="573" 
d="M68 212v490q0 14 12.5 21.5t29.5 7.5t29.5 -7.5t12.5 -21.5v-490q0 -142 134 -142q65 0 100 35.5t35 106.5v490q0 29 42 29q17 0 29.5 -7.5t12.5 -21.5v-490q0 -113 -60 -165.5t-159 -52.5t-158.5 52.5t-59.5 165.5zM180 881q0 17 12 29t29 12t28.5 -12t11.5 -29
t-12 -29.5t-28 -12.5q-17 0 -29 12.5t-12 29.5zM311 881q0 17 11.5 29t28.5 12t28.5 -12t11.5 -29t-11.5 -29.5t-28.5 -12.5t-28.5 12.5t-11.5 29.5z" />
    <glyph glyph-name="Yacute" unicode="&#xdd;" horiz-adv-x="545" 
d="M17 696q0 15 16.5 25t33.5 10q18 0 30 -22l176 -343l175 343q12 22 30 22t34 -10t16 -25q0 -8 -4 -17l-207 -386q-2 -3 -2 -10v-253q0 -14 -12.5 -22t-29.5 -8t-29.5 8t-12.5 22v253q0 5 -3 10l-207 386q-4 9 -4 17zM196 869q0 15 13 22l117 62q6 2 10 2q12 0 20 -10.5
t8 -23.5q0 -17 -14 -24l-113 -58q-8 -4 -11 -4q-12 0 -21 10.5t-9 23.5z" />
    <glyph glyph-name="Thorn" unicode="&#xde;" horiz-adv-x="501" 
d="M71 30v679q0 13 11.5 21t28.5 8q19 0 31 -8t12 -21v-165q44 76 136 76q72 0 123 -47.5t51 -123.5v-143q0 -74 -51.5 -123.5t-117.5 -49.5q-46 0 -86.5 23t-54.5 56v-182q0 -12 -12 -21t-29 -9t-29.5 9t-12.5 21zM154 301q0 -32 34.5 -62.5t82.5 -30.5q44 0 77 27t33 71
v143q0 43 -32.5 69.5t-77.5 26.5q-47 0 -82 -27t-35 -69v-148z" />
    <glyph glyph-name="germandbls" unicode="&#xdf;" horiz-adv-x="566" 
d="M6 441q0 13 7 23t19 10h68v104q0 84 42.5 137t132.5 53q79 0 128 -46t49 -136q0 -55 -18.5 -102.5t-51.5 -63.5q55 -11 101.5 -68t46.5 -133v-16q0 -107 -56 -165t-137 -58q-104 0 -104 48q0 14 6.5 27t16.5 13q4 0 27.5 -8.5t47.5 -8.5q56 0 87.5 38t31.5 109v15
q0 65 -36.5 109t-107.5 53q-13 2 -19 4.5t-11 10t-5 20.5t5.5 20t11.5 9t19 5q74 8 74 121q0 60 -25.5 94t-76.5 34t-73.5 -32.5t-22.5 -82.5v-549q0 -12 -12.5 -20.5t-30.5 -8.5q-17 0 -28.5 8t-11.5 21v380h-68q-12 0 -19 9.5t-7 22.5z" />
    <glyph glyph-name="agrave" unicode="&#xe0;" horiz-adv-x="448" 
d="M28 125q0 78 60 108.5t174 30.5h48v21q0 50 -27.5 87t-82.5 37q-42 0 -74 -14.5t-35 -14.5q-14 0 -22.5 13.5t-8.5 28.5q0 23 45.5 40.5t96.5 17.5q98 0 144.5 -55.5t46.5 -138.5v-256q0 -13 -11.5 -21.5t-29.5 -8.5q-16 0 -27 8.5t-11 21.5v40q-68 -78 -151 -78
q-60 0 -97.5 34t-37.5 99zM112 134q0 -37 21 -56t56 -19q42 0 81.5 33.5t39.5 68.5v52h-35q-29 0 -50 -1.5t-43.5 -6t-37 -13t-23.5 -23t-9 -35.5zM128 670q0 13 8 23.5t20 10.5q4 0 10 -2l117 -62q13 -6 13 -22q0 -13 -9 -23.5t-21 -10.5q-3 0 -11 4l-113 58q-14 7 -14 24z
" />
    <glyph glyph-name="aacute" unicode="&#xe1;" horiz-adv-x="448" 
d="M28 125q0 78 60 108.5t174 30.5h48v21q0 50 -27.5 87t-82.5 37q-42 0 -74 -14.5t-35 -14.5q-14 0 -22.5 13.5t-8.5 28.5q0 23 45.5 40.5t96.5 17.5q98 0 144.5 -55.5t46.5 -138.5v-256q0 -13 -11.5 -21.5t-29.5 -8.5q-16 0 -27 8.5t-11 21.5v40q-68 -78 -151 -78
q-60 0 -97.5 34t-37.5 99zM112 134q0 -37 21 -56t56 -19q42 0 81.5 33.5t39.5 68.5v52h-35q-29 0 -50 -1.5t-43.5 -6t-37 -13t-23.5 -23t-9 -35.5zM136 618q0 15 13 22l117 62q6 2 10 2q12 0 20 -10.5t8 -23.5q0 -17 -14 -24l-113 -58q-8 -4 -11 -4q-12 0 -21 10.5t-9 23.5z
" />
    <glyph glyph-name="acircumflex" unicode="&#xe2;" horiz-adv-x="448" 
d="M28 125q0 78 60 108.5t174 30.5h48v21q0 50 -27.5 87t-82.5 37q-42 0 -74 -14.5t-35 -14.5q-14 0 -22.5 13.5t-8.5 28.5q0 23 45.5 40.5t96.5 17.5q98 0 144.5 -55.5t46.5 -138.5v-256q0 -13 -11.5 -21.5t-29.5 -8.5q-16 0 -27 8.5t-11 21.5v40q-68 -78 -151 -78
q-60 0 -97.5 34t-37.5 99zM75 617q0 19 15 26l104 56q10 5 17 5q9 0 17 -5l104 -55q16 -9 16 -28q0 -11 -7 -19.5t-16 -8.5q-2 0 -6 1q-2 2 -4 2l-104 56l-104 -56q-5 -3 -9 -3q-9 0 -16 9t-7 20zM112 134q0 -37 21 -56t56 -19q42 0 81.5 33.5t39.5 68.5v52h-35
q-29 0 -50 -1.5t-43.5 -6t-37 -13t-23.5 -23t-9 -35.5z" />
    <glyph glyph-name="atilde" unicode="&#xe3;" horiz-adv-x="448" 
d="M28 125q0 78 60 108.5t174 30.5h48v21q0 50 -27.5 87t-82.5 37q-42 0 -74 -14.5t-35 -14.5q-14 0 -22.5 13.5t-8.5 28.5q0 23 45.5 40.5t96.5 17.5q98 0 144.5 -55.5t46.5 -138.5v-256q0 -13 -11.5 -21.5t-29.5 -8.5q-16 0 -27 8.5t-11 21.5v40q-68 -78 -151 -78
q-60 0 -97.5 34t-37.5 99zM53 636q0 29 29.5 45t57.5 16q27 0 68 -16.5t67 -16.5q25 0 46 13.5t27 13.5q11 0 17.5 -9.5t6.5 -18.5q0 -31 -28 -45.5t-56 -14.5q-30 0 -70 16.5t-66 16.5q-25 0 -47.5 -14.5t-28.5 -14.5q-11 0 -17 9.5t-6 19.5zM112 134q0 -37 21 -56t56 -19
q42 0 81.5 33.5t39.5 68.5v52h-35q-29 0 -50 -1.5t-43.5 -6t-37 -13t-23.5 -23t-9 -35.5z" />
    <glyph glyph-name="adieresis" unicode="&#xe4;" horiz-adv-x="448" 
d="M28 125q0 78 60 108.5t174 30.5h48v21q0 50 -27.5 87t-82.5 37q-42 0 -74 -14.5t-35 -14.5q-14 0 -22.5 13.5t-8.5 28.5q0 23 45.5 40.5t96.5 17.5q98 0 144.5 -55.5t46.5 -138.5v-256q0 -13 -11.5 -21.5t-29.5 -8.5q-16 0 -27 8.5t-11 21.5v40q-68 -78 -151 -78
q-60 0 -97.5 34t-37.5 99zM106 630q0 17 12 29t29 12t28.5 -12t11.5 -29t-12 -29.5t-28 -12.5q-17 0 -29 12.5t-12 29.5zM112 134q0 -37 21 -56t56 -19q42 0 81.5 33.5t39.5 68.5v52h-35q-29 0 -50 -1.5t-43.5 -6t-37 -13t-23.5 -23t-9 -35.5zM237 630q0 17 11.5 29t28.5 12
t28.5 -12t11.5 -29t-11.5 -29.5t-28.5 -12.5t-28.5 12.5t-11.5 29.5z" />
    <glyph glyph-name="aring" unicode="&#xe5;" horiz-adv-x="448" 
d="M28 125q0 78 60 108.5t174 30.5h48v21q0 50 -27.5 87t-82.5 37q-42 0 -74 -14.5t-35 -14.5q-14 0 -22.5 13.5t-8.5 28.5q0 23 45.5 40.5t96.5 17.5q98 0 144.5 -55.5t46.5 -138.5v-256q0 -13 -11.5 -21.5t-29.5 -8.5q-16 0 -27 8.5t-11 21.5v40q-68 -78 -151 -78
q-60 0 -97.5 34t-37.5 99zM112 134q0 -37 21 -56t56 -19q42 0 81.5 33.5t39.5 68.5v52h-35q-29 0 -50 -1.5t-43.5 -6t-37 -13t-23.5 -23t-9 -35.5zM119 673q0 38 27.5 66.5t66.5 28.5q37 0 65.5 -29t28.5 -66q0 -38 -28.5 -67.5t-65.5 -29.5q-39 0 -66.5 29t-27.5 68z
M157 673q0 -22 16.5 -40.5t39.5 -18.5q22 0 38.5 18.5t16.5 40.5q0 21 -16.5 38t-38.5 17q-23 0 -39.5 -17.5t-16.5 -37.5z" />
    <glyph glyph-name="ae" unicode="&#xe6;" horiz-adv-x="733" 
d="M28 124q0 79 59.5 109.5t172.5 30.5h48v22q0 51 -27 87.5t-84 36.5q-40 0 -72.5 -15t-35.5 -15q-13 0 -22 13.5t-9 29.5q0 22 46 39.5t97 17.5q108 0 154 -89q26 40 66 64.5t87 24.5q76 0 134.5 -50.5t58.5 -142.5q0 -46 -20 -60t-69 -14h-218v-30q0 -55 39 -88t101 -33
q43 0 79.5 19.5t42.5 19.5q13 0 23 -12.5t10 -25.5q0 -25 -51.5 -48t-112.5 -23q-57 0 -105 26.5t-75 73.5q-31 -49 -77.5 -74.5t-94.5 -25.5q-62 0 -103.5 34t-41.5 98zM112 132q0 -35 21 -54t55 -19q46 0 83 33.5t37 68.5v52h-34q-38 0 -63 -2.5t-50 -10.5t-37 -25
t-12 -43zM394 269h183q28 0 36.5 6.5t8.5 24.5q0 47 -33 80.5t-82 33.5q-47 0 -80 -31.5t-33 -77.5v-36z" />
    <glyph glyph-name="ccedilla" unicode="&#xe7;" horiz-adv-x="417" 
d="M42 186v100q0 86 50.5 140t148.5 54q62 0 104.5 -22t42.5 -47q0 -14 -10.5 -27.5t-24.5 -13.5q-4 0 -34.5 17.5t-71.5 17.5q-60 0 -91 -31t-31 -88v-100q0 -119 123 -119q42 0 73 18t36 18q16 0 26.5 -13t10.5 -27q0 -23 -38 -44.5t-95 -25.5l-13 -51q48 -1 72 -22
t24 -51q0 -32 -23.5 -56.5t-69.5 -24.5q-27 0 -53.5 7t-26.5 20q0 7 5 17.5t13 10.5q2 0 19.5 -7t36.5 -7q52 0 52 37q0 36 -59 41l-43 3l22 83q-87 6 -131 59t-44 134z" />
    <glyph glyph-name="egrave" unicode="&#xe8;" horiz-adv-x="465" 
d="M41 186v105q0 77 58.5 133t140.5 56q78 0 135 -52.5t57 -131.5q0 -29 -7 -46.5t-21.5 -25t-27 -9.5t-33.5 -2h-219v-30q0 -55 39.5 -88t102.5 -33q33 0 57.5 10t39.5 19.5t24 9.5q14 0 24 -12.5t10 -25.5q0 -23 -45.5 -47t-112.5 -24q-98 0 -160 53.5t-62 140.5zM124 269
h185q26 0 35 6.5t9 25.5q0 45 -33 79t-81 34q-47 0 -81 -31.5t-34 -77.5v-36zM148 670q0 13 8 23.5t20 10.5q4 0 10 -2l117 -62q13 -6 13 -22q0 -13 -9 -23.5t-21 -10.5q-3 0 -11 4l-113 58q-14 7 -14 24z" />
    <glyph glyph-name="eacute" unicode="&#xe9;" horiz-adv-x="465" 
d="M41 186v105q0 77 58.5 133t140.5 56q78 0 135 -52.5t57 -131.5q0 -29 -7 -46.5t-21.5 -25t-27 -9.5t-33.5 -2h-219v-30q0 -55 39.5 -88t102.5 -33q33 0 57.5 10t39.5 19.5t24 9.5q14 0 24 -12.5t10 -25.5q0 -23 -45.5 -47t-112.5 -24q-98 0 -160 53.5t-62 140.5zM124 269
h185q26 0 35 6.5t9 25.5q0 45 -33 79t-81 34q-47 0 -81 -31.5t-34 -77.5v-36zM156 618q0 15 13 22l117 62q6 2 10 2q12 0 20 -10.5t8 -23.5q0 -17 -14 -24l-113 -58q-8 -4 -11 -4q-12 0 -21 10.5t-9 23.5z" />
    <glyph glyph-name="ecircumflex" unicode="&#xea;" horiz-adv-x="465" 
d="M41 186v105q0 77 58.5 133t140.5 56q78 0 135 -52.5t57 -131.5q0 -29 -7 -46.5t-21.5 -25t-27 -9.5t-33.5 -2h-219v-30q0 -55 39.5 -88t102.5 -33q33 0 57.5 10t39.5 19.5t24 9.5q14 0 24 -12.5t10 -25.5q0 -23 -45.5 -47t-112.5 -24q-98 0 -160 53.5t-62 140.5zM102 617
q0 19 15 26l104 56q10 5 17 5q9 0 17 -5l104 -55q16 -9 16 -28q0 -11 -6.5 -19.5t-16.5 -8.5q-2 0 -6 1q-2 2 -4 2l-104 56l-104 -56q-4 -3 -9 -3q-9 0 -16 9t-7 20zM124 269h185q26 0 35 6.5t9 25.5q0 45 -33 79t-81 34q-47 0 -81 -31.5t-34 -77.5v-36z" />
    <glyph glyph-name="edieresis" unicode="&#xeb;" horiz-adv-x="465" 
d="M41 186v105q0 77 58.5 133t140.5 56q78 0 135 -52.5t57 -131.5q0 -29 -7 -46.5t-21.5 -25t-27 -9.5t-33.5 -2h-219v-30q0 -55 39.5 -88t102.5 -33q33 0 57.5 10t39.5 19.5t24 9.5q14 0 24 -12.5t10 -25.5q0 -23 -45.5 -47t-112.5 -24q-98 0 -160 53.5t-62 140.5zM124 269
h185q26 0 35 6.5t9 25.5q0 45 -33 79t-81 34q-47 0 -81 -31.5t-34 -77.5v-36zM132 630q0 17 12 29t29 12t28.5 -12t11.5 -29t-12 -29.5t-28 -12.5q-17 0 -29 12.5t-12 29.5zM263 630q0 17 11.5 29t28.5 12t28.5 -12t11.5 -29t-11.5 -29.5t-28.5 -12.5t-28.5 12.5t-11.5 29.5
z" />
    <glyph glyph-name="igrave" unicode="&#xec;" horiz-adv-x="201" 
d="M8 670q0 13 8 23.5t20 10.5q4 0 10 -2l117 -62q13 -6 13 -22q0 -13 -9 -23.5t-21 -10.5q-3 0 -11 4l-113 58q-14 7 -14 24zM59 30v415q0 13 12 21t29 8q18 0 30 -8t12 -21v-415q0 -11 -12.5 -20.5t-29.5 -9.5t-29 9t-12 21z" />
    <glyph glyph-name="iacute" unicode="&#xed;" horiz-adv-x="201" 
d="M24 618q0 15 13 22l117 62q6 2 10 2q12 0 20 -10.5t8 -23.5q0 -17 -14 -24l-113 -58q-8 -4 -11 -4q-12 0 -21 10.5t-9 23.5zM59 30v415q0 13 12 21t29 8q18 0 30 -8t12 -21v-415q0 -11 -12.5 -20.5t-29.5 -9.5t-29 9t-12 21z" />
    <glyph glyph-name="icircumflex" unicode="&#xee;" horiz-adv-x="201" 
d="M-36 617q0 19 15 26l104 56q10 5 17 5q9 0 17 -5l104 -55q16 -9 16 -28q0 -11 -6.5 -19.5t-16.5 -8.5q-2 0 -6 1q-2 2 -4 2l-104 56l-104 -56q-4 -3 -9 -3q-9 0 -16 9t-7 20zM59 30v415q0 13 12 21t29 8q18 0 30 -8t12 -21v-415q0 -11 -12.5 -20.5t-29.5 -9.5t-29 9
t-12 21z" />
    <glyph glyph-name="idieresis" unicode="&#xef;" horiz-adv-x="201" 
d="M-3 630q0 17 12 29t29 12t28.5 -12t11.5 -29t-12 -29.5t-28 -12.5q-17 0 -29 12.5t-12 29.5zM59 30v415q0 13 12 21t29 8q18 0 30 -8t12 -21v-415q0 -11 -12.5 -20.5t-29.5 -9.5t-29 9t-12 21zM128 630q0 17 11.5 29t28.5 12t28.5 -12t11.5 -29t-11.5 -29.5t-28.5 -12.5
t-28.5 12.5t-11.5 29.5z" />
    <glyph glyph-name="eth" unicode="&#xf0;" horiz-adv-x="492" 
d="M41 186v102q0 78 52.5 135t124.5 57q45 0 84 -23t53 -59q-8 118 -64 199l-75 -44q-4 -3 -11 -3q-11 0 -21 11.5t-10 24.5q0 14 11 19l69 40q-40 41 -86 43q-20 10 -20 31q0 15 11 28t34 13q70 0 133 -72l68 40q4 3 10 3q12 0 22 -11t10 -24q0 -14 -12 -20l-63 -38
q77 -124 77 -282v-170q0 -76 -59.5 -135t-138.5 -59q-80 0 -139.5 58.5t-59.5 135.5zM124 186q0 -47 34.5 -83t81.5 -36t81 36.5t34 82.5v105q0 46 -35 80t-81 34q-48 0 -81.5 -36t-33.5 -81v-102z" />
    <glyph glyph-name="ntilde" unicode="&#xf1;" horiz-adv-x="503" 
d="M59 30v415q0 13 11.5 21t29.5 8q15 0 26.5 -8.5t11.5 -20.5v-41q16 32 51.5 54t82.5 22q71 0 123.5 -56.5t52.5 -135.5v-258q0 -14 -12.5 -22t-29.5 -8q-16 0 -28.5 8t-12.5 22v258q0 45 -34 81t-80 36q-43 0 -76 -32.5t-33 -84.5v-258q0 -11 -13 -20.5t-29 -9.5
q-17 0 -29 9t-12 21zM89 636q0 29 29.5 45t57.5 16q27 0 68 -16.5t67 -16.5q25 0 46 13.5t27 13.5q11 0 17.5 -9.5t6.5 -18.5q0 -31 -28 -45.5t-56 -14.5q-30 0 -70 16.5t-66 16.5q-25 0 -47.5 -14.5t-28.5 -14.5q-11 0 -17 9.5t-6 19.5z" />
    <glyph glyph-name="ograve" unicode="&#xf2;" horiz-adv-x="477" 
d="M41 186v102q0 77 58.5 134.5t138.5 57.5t139 -57t59 -135v-102q0 -76 -59.5 -135t-138.5 -59t-138 58.5t-59 135.5zM124 186q0 -47 34 -83t80 -36q47 0 81 36.5t34 82.5v102q0 45 -34 81t-81 36t-80.5 -36t-33.5 -81v-102zM148 670q0 13 8 23.5t20 10.5q4 0 10 -2
l117 -62q13 -6 13 -22q0 -13 -9 -23.5t-21 -10.5q-3 0 -11 4l-113 58q-14 7 -14 24z" />
    <glyph glyph-name="oacute" unicode="&#xf3;" horiz-adv-x="477" 
d="M41 186v102q0 77 58.5 134.5t138.5 57.5t139 -57t59 -135v-102q0 -76 -59.5 -135t-138.5 -59t-138 58.5t-59 135.5zM124 186q0 -47 34 -83t80 -36q47 0 81 36.5t34 82.5v102q0 45 -34 81t-81 36t-80.5 -36t-33.5 -81v-102zM156 618q0 15 13 22l117 62q6 2 10 2
q12 0 20 -10.5t8 -23.5q0 -17 -14 -24l-113 -58q-8 -4 -11 -4q-12 0 -21 10.5t-9 23.5z" />
    <glyph glyph-name="ocircumflex" unicode="&#xf4;" horiz-adv-x="477" 
d="M41 186v102q0 77 58.5 134.5t138.5 57.5t139 -57t59 -135v-102q0 -76 -59.5 -135t-138.5 -59t-138 58.5t-59 135.5zM102 617q0 19 15 26l104 56q10 5 17 5q9 0 17 -5l104 -55q16 -9 16 -28q0 -11 -6.5 -19.5t-16.5 -8.5q-2 0 -6 1q-2 2 -4 2l-104 56l-104 -56
q-4 -3 -9 -3q-9 0 -16 9t-7 20zM124 186q0 -47 34 -83t80 -36q47 0 81 36.5t34 82.5v102q0 45 -34 81t-81 36t-80.5 -36t-33.5 -81v-102z" />
    <glyph glyph-name="otilde" unicode="&#xf5;" horiz-adv-x="477" 
d="M41 186v102q0 77 58.5 134.5t138.5 57.5t139 -57t59 -135v-102q0 -76 -59.5 -135t-138.5 -59t-138 58.5t-59 135.5zM79 636q0 29 29.5 45t57.5 16q27 0 68 -16.5t67 -16.5q25 0 46 13.5t27 13.5q11 0 17.5 -9.5t6.5 -18.5q0 -31 -28 -45.5t-56 -14.5q-30 0 -70 16.5
t-66 16.5q-25 0 -47.5 -14.5t-28.5 -14.5q-11 0 -17 9.5t-6 19.5zM124 186q0 -47 34 -83t80 -36q47 0 81 36.5t34 82.5v102q0 45 -34 81t-81 36t-80.5 -36t-33.5 -81v-102z" />
    <glyph glyph-name="odieresis" unicode="&#xf6;" horiz-adv-x="477" 
d="M41 186v102q0 77 58.5 134.5t138.5 57.5t139 -57t59 -135v-102q0 -76 -59.5 -135t-138.5 -59t-138 58.5t-59 135.5zM124 186q0 -47 34 -83t80 -36q47 0 81 36.5t34 82.5v102q0 45 -34 81t-81 36t-80.5 -36t-33.5 -81v-102zM133 630q0 17 12 29t29 12t28.5 -12t11.5 -29
t-12 -29.5t-28 -12.5q-17 0 -29 12.5t-12 29.5zM264 630q0 17 11.5 29t28.5 12t28.5 -12t11.5 -29t-11.5 -29.5t-28.5 -12.5t-28.5 12.5t-11.5 29.5z" />
    <glyph glyph-name="divide" unicode="&#xf7;" horiz-adv-x="449" 
d="M35 239q0 15 8.5 25t21.5 10h318q12 0 21.5 -10t9.5 -25t-9.5 -24.5t-21.5 -9.5h-318q-13 0 -21.5 9.5t-8.5 24.5zM168 74q0 21 16 36t37 15t36.5 -15t15.5 -36q0 -20 -16 -35.5t-36 -15.5q-21 0 -37 15.5t-16 35.5zM168 405q0 21 16 36t37 15t36.5 -15t15.5 -36
t-15.5 -36t-36.5 -15t-37 15t-16 36z" />
    <glyph glyph-name="oslash" unicode="&#xf8;" horiz-adv-x="477" 
d="M41 186v102q0 77 58.5 134.5t138.5 57.5q54 0 102 -29l29 48q6 10 17 10q9 0 16.5 -7t7.5 -17q0 -7 -5 -15l-29 -46q60 -57 60 -136v-102q0 -76 -59.5 -135t-138.5 -59q-58 0 -107 33l-29 -47q-6 -10 -17 -10q-8 0 -15 6t-7 15q0 5 4 13l31 50q-57 59 -57 134zM124 186
q0 -33 17 -62l159 261q-30 20 -62 20q-47 0 -80.5 -36t-33.5 -81v-102zM171 90q31 -23 67 -23q47 0 81 36.5t34 82.5v102q0 33 -21 64z" />
    <glyph glyph-name="ugrave" unicode="&#xf9;" 
d="M55 184v260q0 12 12.5 21t29.5 9q16 0 28.5 -9.5t12.5 -20.5v-260q0 -45 34 -81t81 -36q46 0 80 35.5t34 81.5v261q0 11 12.5 20t29.5 9q18 0 29.5 -8.5t11.5 -20.5v-261q0 -77 -58.5 -134.5t-138.5 -57.5q-81 0 -139.5 57.5t-58.5 134.5zM162 670q0 13 8 23.5t20 10.5
q4 0 10 -2l117 -62q13 -6 13 -22q0 -13 -9 -23.5t-21 -10.5q-3 0 -11 4l-113 58q-14 7 -14 24z" />
    <glyph glyph-name="uacute" unicode="&#xfa;" 
d="M55 184v260q0 12 12.5 21t29.5 9q16 0 28.5 -9.5t12.5 -20.5v-260q0 -45 34 -81t81 -36q46 0 80 35.5t34 81.5v261q0 11 12.5 20t29.5 9q18 0 29.5 -8.5t11.5 -20.5v-261q0 -77 -58.5 -134.5t-138.5 -57.5q-81 0 -139.5 57.5t-58.5 134.5zM174 618q0 15 13 22l117 62
q6 2 10 2q12 0 20 -10.5t8 -23.5q0 -17 -14 -24l-113 -58q-8 -4 -11 -4q-12 0 -21 10.5t-9 23.5z" />
    <glyph glyph-name="ucircumflex" unicode="&#xfb;" 
d="M55 184v260q0 12 12.5 21t29.5 9q16 0 28.5 -9.5t12.5 -20.5v-260q0 -45 34 -81t81 -36q46 0 80 35.5t34 81.5v261q0 11 12.5 20t29.5 9q18 0 29.5 -8.5t11.5 -20.5v-261q0 -77 -58.5 -134.5t-138.5 -57.5q-81 0 -139.5 57.5t-58.5 134.5zM116 617q0 19 15 26l104 56
q10 5 17 5q9 0 17 -5l104 -55q16 -9 16 -28q0 -11 -6.5 -19.5t-16.5 -8.5q-2 0 -6 1q-2 2 -4 2l-104 56l-104 -56q-4 -3 -9 -3q-9 0 -16 9t-7 20z" />
    <glyph glyph-name="udieresis" unicode="&#xfc;" 
d="M55 184v260q0 12 12.5 21t29.5 9q16 0 28.5 -9.5t12.5 -20.5v-260q0 -45 34 -81t81 -36q46 0 80 35.5t34 81.5v261q0 11 12.5 20t29.5 9q18 0 29.5 -8.5t11.5 -20.5v-261q0 -77 -58.5 -134.5t-138.5 -57.5q-81 0 -139.5 57.5t-58.5 134.5zM147 630q0 17 12 29t29 12
t28.5 -12t11.5 -29t-12 -29.5t-28 -12.5q-17 0 -29 12.5t-12 29.5zM278 630q0 17 11.5 29t28.5 12t28.5 -12t11.5 -29t-11.5 -29.5t-28.5 -12.5t-28.5 12.5t-11.5 29.5z" />
    <glyph glyph-name="yacute" unicode="&#xfd;" horiz-adv-x="437" 
d="M12 440q0 16 18 28t36 12q21 0 27 -17l132 -348l119 348q7 17 26 17q17 0 35.5 -12t18.5 -29q0 -5 -3 -10l-152 -407l-19 -50q-5 -14 -20 -48t-25 -49t-28 -39.5t-35 -35.5t-40.5 -20t-49.5 -9q-39 0 -39 37q0 36 24 36q45 0 87.5 50.5t57.5 129.5l-166 405q-4 6 -4 11z
M154 618q0 15 13 22l117 62q6 2 10 2q12 0 20 -10.5t8 -23.5q0 -17 -14 -24l-113 -58q-8 -4 -11 -4q-12 0 -21 10.5t-9 23.5z" />
    <glyph glyph-name="thorn" unicode="&#xfe;" horiz-adv-x="494" 
d="M60 -199v930q0 13 11.5 21t28.5 8q19 0 31 -8t12 -21v-327q18 32 52 54t78 22q75 0 127.5 -56.5t52.5 -135.5v-102q0 -76 -53 -135t-123 -59q-44 0 -80.5 22.5t-53.5 55.5v-269q0 -11 -12.5 -20.5t-29.5 -9.5t-29 9t-12 21zM143 159q0 -25 34.5 -58.5t78.5 -33.5
q45 0 79.5 36.5t34.5 82.5v102q0 45 -34.5 81t-81.5 36q-44 0 -77.5 -32.5t-33.5 -84.5v-129z" />
    <glyph glyph-name="ydieresis" unicode="&#xff;" horiz-adv-x="437" 
d="M12 440q0 16 18 28t36 12q21 0 27 -17l132 -348l119 348q7 17 26 17q17 0 35.5 -12t18.5 -29q0 -5 -3 -10l-152 -407l-19 -50q-5 -14 -20 -48t-25 -49t-28 -39.5t-35 -35.5t-40.5 -20t-49.5 -9q-39 0 -39 37q0 36 24 36q45 0 87.5 50.5t57.5 129.5l-166 405q-4 6 -4 11z
M118 630q0 17 12 29t29 12t28.5 -12t11.5 -29t-12 -29.5t-28 -12.5q-17 0 -29 12.5t-12 29.5zM249 630q0 17 11.5 29t28.5 12t28.5 -12t11.5 -29t-11.5 -29.5t-28.5 -12.5t-28.5 12.5t-11.5 29.5z" />
    <glyph glyph-name="Amacron" unicode="&#x100;" horiz-adv-x="550" 
d="M17 35q0 2 2 8l204 665q9 29 52 29t52 -29l204 -665q0 -2 0.5 -4t0.5 -3q0 -14 -16.5 -25t-35.5 -11q-24 0 -30 19l-44 149h-263l-44 -149q-6 -19 -31 -19q-18 0 -34.5 10t-16.5 25zM139 909q0 13 8 22t21 9h212q12 0 21 -9t9 -22t-9 -21.5t-21 -8.5h-212q-13 0 -21 8.5
t-8 21.5zM162 237h224l-111 376z" />
    <glyph glyph-name="amacron" unicode="&#x101;" horiz-adv-x="448" 
d="M28 125q0 78 60 108.5t174 30.5h48v21q0 50 -27.5 87t-82.5 37q-42 0 -74 -14.5t-35 -14.5q-14 0 -22.5 13.5t-8.5 28.5q0 23 45.5 40.5t96.5 17.5q98 0 144.5 -55.5t46.5 -138.5v-256q0 -13 -11.5 -21.5t-29.5 -8.5q-16 0 -27 8.5t-11 21.5v40q-68 -78 -151 -78
q-60 0 -97.5 34t-37.5 99zM84 658q0 13 8 22t21 9h212q11 0 20.5 -9.5t9.5 -21.5q0 -13 -9 -21.5t-21 -8.5h-212q-13 0 -21 8.5t-8 21.5zM112 134q0 -37 21 -56t56 -19q42 0 81.5 33.5t39.5 68.5v52h-35q-29 0 -50 -1.5t-43.5 -6t-37 -13t-23.5 -23t-9 -35.5z" />
    <glyph glyph-name="Abreve" unicode="&#x102;" horiz-adv-x="550" 
d="M17 35q0 2 2 8l204 665q9 29 52 29t52 -29l204 -665q0 -2 0.5 -4t0.5 -3q0 -14 -16.5 -25t-35.5 -11q-24 0 -30 19l-44 149h-263l-44 -149q-6 -19 -31 -19q-18 0 -34.5 10t-16.5 25zM153 967h51q0 -33 21 -56t49 -23t49 23t21 56h51q0 -48 -36.5 -84.5t-84.5 -36.5
t-84.5 36.5t-36.5 84.5zM162 237h224l-111 376z" />
    <glyph glyph-name="abreve" unicode="&#x103;" horiz-adv-x="448" 
d="M28 125q0 78 60 108.5t174 30.5h48v21q0 50 -27.5 87t-82.5 37q-42 0 -74 -14.5t-35 -14.5q-14 0 -22.5 13.5t-8.5 28.5q0 23 45.5 40.5t96.5 17.5q98 0 144.5 -55.5t46.5 -138.5v-256q0 -13 -11.5 -21.5t-29.5 -8.5q-16 0 -27 8.5t-11 21.5v40q-68 -78 -151 -78
q-60 0 -97.5 34t-37.5 99zM96 716h51q0 -33 21 -56t49 -23t49 23t21 56h51q0 -48 -36.5 -84.5t-84.5 -36.5t-84.5 36.5t-36.5 84.5zM112 134q0 -37 21 -56t56 -19q42 0 81.5 33.5t39.5 68.5v52h-35q-29 0 -50 -1.5t-43.5 -6t-37 -13t-23.5 -23t-9 -35.5z" />
    <glyph glyph-name="Aogonek" unicode="&#x104;" horiz-adv-x="550" 
d="M17 35q0 2 2 8l204 665q9 29 52 29t52 -29l204 -665q0 -2 0.5 -4t0.5 -3q0 -21 -31 -32q-72 -60 -72 -122q0 -45 61 -45q20 0 20 -22q0 -19 -26 -19q-45 0 -73.5 20t-28.5 59q0 75 71 136l-47 157h-263l-44 -149q-6 -19 -31 -19q-18 0 -34.5 10t-16.5 25zM162 237h224
l-111 376z" />
    <glyph glyph-name="aogonek" unicode="&#x105;" horiz-adv-x="448" 
d="M28 125q0 78 60 108.5t174 30.5h48v21q0 50 -27.5 87t-82.5 37q-42 0 -74 -14.5t-35 -14.5q-14 0 -22.5 13.5t-8.5 28.5q0 23 45.5 40.5t96.5 17.5q98 0 144.5 -55.5t46.5 -138.5v-256q0 -18 -21 -26q-72 -60 -72 -122q0 -45 61 -45q20 0 20 -22q0 -19 -26 -19
q-45 0 -73.5 20t-28.5 59q0 75 70 135q-9 8 -9 20v40q-68 -78 -151 -78q-60 0 -97.5 34t-37.5 99zM112 134q0 -37 21 -56t56 -19q42 0 81.5 33.5t39.5 68.5v52h-35q-29 0 -50 -1.5t-43.5 -6t-37 -13t-23.5 -23t-9 -35.5z" />
    <glyph glyph-name="Cacute" unicode="&#x106;" horiz-adv-x="531" 
d="M64 212v301q0 112 59.5 165t155.5 53q98 0 157 -49.5t59 -124.5q0 -27 -10 -36.5t-32 -9.5q-40 0 -42 29q-6 115 -130 115q-133 0 -133 -142v-301q0 -142 136 -142q39 0 65 11t38.5 32t16.5 36t7 40q3 29 42 29q22 0 32 -10t10 -37q0 -76 -59.5 -126.5t-157.5 -50.5
q-95 0 -154.5 53t-59.5 165zM205 869q0 15 13 22l117 62q6 2 10 2q12 0 20 -10.5t8 -23.5q0 -17 -14 -24l-113 -58q-8 -4 -11 -4q-12 0 -21 10.5t-9 23.5z" />
    <glyph glyph-name="cacute" unicode="&#x107;" horiz-adv-x="417" 
d="M42 186v100q0 86 50.5 140t148.5 54q62 0 104.5 -22t42.5 -47q0 -14 -10.5 -27.5t-24.5 -13.5q-4 0 -34.5 17.5t-71.5 17.5q-60 0 -91 -31t-31 -88v-100q0 -119 123 -119q42 0 73 18t36 18q16 0 26.5 -13t10.5 -27q0 -25 -44 -48t-108 -23q-99 0 -149.5 53.5t-50.5 140.5
zM143 618q0 15 13 22l117 62q6 2 10 2q12 0 20 -10.5t8 -23.5q0 -17 -14 -24l-113 -58q-8 -4 -11 -4q-12 0 -21 10.5t-9 23.5z" />
    <glyph glyph-name="Ccircumflex" unicode="&#x108;" horiz-adv-x="531" 
d="M64 212v301q0 112 59.5 165t155.5 53q98 0 157 -49.5t59 -124.5q0 -27 -10 -36.5t-32 -9.5q-40 0 -42 29q-6 115 -130 115q-133 0 -133 -142v-301q0 -142 136 -142q39 0 65 11t38.5 32t16.5 36t7 40q3 29 42 29q22 0 32 -10t10 -37q0 -76 -59.5 -126.5t-157.5 -50.5
q-95 0 -154.5 53t-59.5 165zM143 868q0 18 15 26l104 56q10 5 17 5q9 0 17 -5l104 -55q16 -9 16 -28q0 -11 -7 -19.5t-16 -8.5q-2 0 -6 1q-2 2 -4 2l-104 56l-104 -56q-5 -3 -9 -3q-9 0 -16 9t-7 20z" />
    <glyph glyph-name="ccircumflex" unicode="&#x109;" horiz-adv-x="417" 
d="M42 186v100q0 86 50.5 140t148.5 54q62 0 104.5 -22t42.5 -47q0 -14 -10.5 -27.5t-24.5 -13.5q-4 0 -34.5 17.5t-71.5 17.5q-60 0 -91 -31t-31 -88v-100q0 -119 123 -119q42 0 73 18t36 18q16 0 26.5 -13t10.5 -27q0 -25 -44 -48t-108 -23q-99 0 -149.5 53.5t-50.5 140.5
zM87 617q0 19 15 26l104 56q10 5 17 5q9 0 17 -5l104 -55q16 -9 16 -28q0 -11 -7 -19.5t-16 -8.5q-2 0 -6 1q-2 2 -4 2l-104 56l-104 -56q-5 -3 -9 -3q-9 0 -16 9t-7 20z" />
    <glyph glyph-name="Cdotaccent" unicode="&#x10a;" horiz-adv-x="531" 
d="M64 212v301q0 112 59.5 165t155.5 53q98 0 157 -49.5t59 -124.5q0 -27 -10 -36.5t-32 -9.5q-40 0 -42 29q-6 115 -130 115q-133 0 -133 -142v-301q0 -142 136 -142q39 0 65 11t38.5 32t16.5 36t7 40q3 29 42 29q22 0 32 -10t10 -37q0 -76 -59.5 -126.5t-157.5 -50.5
q-95 0 -154.5 53t-59.5 165zM240 881q0 17 12 29t29 12t28.5 -12t11.5 -29t-12 -29.5t-28 -12.5q-17 0 -29 12.5t-12 29.5z" />
    <glyph glyph-name="cdotaccent" unicode="&#x10b;" horiz-adv-x="417" 
d="M42 186v100q0 86 50.5 140t148.5 54q62 0 104.5 -22t42.5 -47q0 -14 -10.5 -27.5t-24.5 -13.5q-4 0 -34.5 17.5t-71.5 17.5q-60 0 -91 -31t-31 -88v-100q0 -119 123 -119q42 0 73 18t36 18q16 0 26.5 -13t10.5 -27q0 -25 -44 -48t-108 -23q-99 0 -149.5 53.5t-50.5 140.5
zM181 630q0 17 12 29t29 12t28.5 -12t11.5 -29t-12 -29.5t-28 -12.5q-17 0 -29 12.5t-12 29.5z" />
    <glyph glyph-name="Ccaron" unicode="&#x10c;" horiz-adv-x="531" 
d="M64 212v301q0 112 59.5 165t155.5 53q98 0 157 -49.5t59 -124.5q0 -27 -10 -36.5t-32 -9.5q-40 0 -42 29q-6 115 -130 115q-133 0 -133 -142v-301q0 -142 136 -142q39 0 65 11t38.5 32t16.5 36t7 40q3 29 42 29q22 0 32 -10t10 -37q0 -76 -59.5 -126.5t-157.5 -50.5
q-95 0 -154.5 53t-59.5 165zM143 955q0 10 6 18.5t15 8.5q8 0 14 -6l100 -84l101 84q5 6 14 6t15 -8.5t6 -18.5q0 -17 -15 -27l-101 -83q-10 -9 -20 -9t-19 9l-102 83q-14 10 -14 27z" />
    <glyph glyph-name="ccaron" unicode="&#x10d;" horiz-adv-x="417" 
d="M42 186v100q0 86 50.5 140t148.5 54q62 0 104.5 -22t42.5 -47q0 -14 -10.5 -27.5t-24.5 -13.5q-4 0 -34.5 17.5t-71.5 17.5q-60 0 -91 -31t-31 -88v-100q0 -119 123 -119q42 0 73 18t36 18q16 0 26.5 -13t10.5 -27q0 -25 -44 -48t-108 -23q-99 0 -149.5 53.5t-50.5 140.5
zM84 704q0 10 6 18.5t15 8.5q8 0 14 -6l100 -84l101 84q5 6 14 6t15 -8.5t6 -18.5q0 -17 -15 -27l-101 -83q-11 -9 -20 -9q-10 0 -19 9l-102 83q-14 10 -14 27z" />
    <glyph glyph-name="Dcaron" unicode="&#x10e;" horiz-adv-x="566" 
d="M71 29v673q0 12 10.5 20.5t27.5 8.5h177q98 0 157 -52.5t59 -165.5v-295q0 -113 -59 -165.5t-157 -52.5h-177q-17 0 -27.5 8.5t-10.5 20.5zM140 955q0 10 6 18.5t15 8.5q8 0 14 -6l100 -84l101 84q5 6 14 6t15 -8.5t6 -18.5q0 -17 -15 -27l-101 -83q-11 -9 -20 -9
q-10 0 -19 9l-102 83q-14 10 -14 27zM155 76h131q63 0 97.5 35.5t34.5 106.5v295q0 71 -34.5 106.5t-97.5 35.5h-131v-579z" />
    <glyph glyph-name="dcaron" unicode="&#x10f;" horiz-adv-x="494" 
d="M41 186v102q0 79 53 135.5t126 56.5q45 0 79 -22t52 -54v327q0 13 12 21t30 8t29.5 -8t11.5 -21v-701q0 -12 -12 -21t-29 -9q-15 0 -26.5 9t-11.5 21v40q-17 -32 -55 -55t-83 -23q-70 0 -123 59t-53 135zM124 186q0 -46 34 -82.5t79 -36.5q44 0 79 33.5t35 58.5v129
q0 52 -34 84.5t-79 32.5q-46 0 -80 -36t-34 -81v-102zM491 689q0 21 15 36.5t37 15.5q21 0 36.5 -15.5t15.5 -36.5t-45 -122q-6 -13 -20 -13q-11 0 -20.5 6.5t-9.5 17.5q0 4 2 10l21 52q-32 13 -32 49z" />
    <glyph glyph-name="Dcroat" unicode="&#x110;" horiz-adv-x="574" 
d="M-3 383q0 14 7 23.5t18 9.5h57v286q0 12 10.5 20.5t27.5 8.5h177q98 0 157 -52.5t59 -165.5v-295q0 -113 -59 -165.5t-157 -52.5h-177q-17 0 -27.5 8.5t-10.5 20.5v322h-57q-12 0 -18.5 9.5t-6.5 22.5zM163 76h131q63 0 97.5 35.5t34.5 106.5v295q0 71 -34.5 106.5
t-97.5 35.5h-131v-239h103q11 0 18.5 -10t7.5 -23t-7.5 -22.5t-18.5 -9.5h-103v-275z" />
    <glyph glyph-name="dcroat" unicode="&#x111;" horiz-adv-x="494" 
d="M41 186v102q0 79 53 135.5t126 56.5q45 0 79 -22t52 -54v164h-107q-12 0 -19 9.5t-7 22.5t7 23t19 10h107v98q0 13 12 21t30 8t29.5 -8t11.5 -21v-98h43q11 0 18.5 -10t7.5 -23q0 -14 -7.5 -23t-18.5 -9h-43v-538q0 -12 -12 -21t-29 -9q-15 0 -26.5 9t-11.5 21v40
q-17 -32 -55 -55t-83 -23q-70 0 -123 59t-53 135zM124 186q0 -46 34 -82.5t79 -36.5q44 0 79 33.5t35 58.5v129q0 52 -34 84.5t-79 32.5q-46 0 -80 -36t-34 -81v-102z" />
    <glyph glyph-name="Emacron" unicode="&#x112;" horiz-adv-x="514" 
d="M71 30v671q0 14 11.5 22t26.5 8h356q14 0 21.5 -11t7.5 -26q0 -16 -8 -27.5t-21 -11.5h-310v-254h156q13 0 21 -10.5t8 -25.5q0 -13 -7.5 -23.5t-21.5 -10.5h-156v-255h310q13 0 21 -11.5t8 -27.5q0 -15 -7.5 -26t-21.5 -11h-356q-15 0 -26.5 8t-11.5 22zM149 909
q0 13 8 22t21 9h212q12 0 21 -9t9 -22t-9 -21.5t-21 -8.5h-212q-13 0 -21 8.5t-8 21.5z" />
    <glyph glyph-name="emacron" unicode="&#x113;" horiz-adv-x="465" 
d="M41 186v105q0 77 58.5 133t140.5 56q78 0 135 -52.5t57 -131.5q0 -29 -7 -46.5t-21.5 -25t-27 -9.5t-33.5 -2h-219v-30q0 -55 39.5 -88t102.5 -33q33 0 57.5 10t39.5 19.5t24 9.5q14 0 24 -12.5t10 -25.5q0 -23 -45.5 -47t-112.5 -24q-98 0 -160 53.5t-62 140.5zM104 658
q0 13 8 22t21 9h212q11 0 20.5 -9.5t9.5 -21.5q0 -13 -9 -21.5t-21 -8.5h-212q-13 0 -21 8.5t-8 21.5zM124 269h185q26 0 35 6.5t9 25.5q0 45 -33 79t-81 34q-47 0 -81 -31.5t-34 -77.5v-36z" />
    <glyph glyph-name="Ebreve" unicode="&#x114;" horiz-adv-x="514" 
d="M71 30v671q0 14 11.5 22t26.5 8h356q14 0 21.5 -11t7.5 -26q0 -16 -8 -27.5t-21 -11.5h-310v-254h156q13 0 21 -10.5t8 -25.5q0 -13 -7.5 -23.5t-21.5 -10.5h-156v-255h310q13 0 21 -11.5t8 -27.5q0 -15 -7.5 -26t-21.5 -11h-356q-15 0 -26.5 8t-11.5 22zM160 967h51
q0 -33 21 -56t49 -23t49 23t21 56h51q0 -48 -36.5 -84.5t-84.5 -36.5t-84.5 36.5t-36.5 84.5z" />
    <glyph glyph-name="ebreve" unicode="&#x115;" horiz-adv-x="465" 
d="M41 186v105q0 77 58.5 133t140.5 56q78 0 135 -52.5t57 -131.5q0 -29 -7 -46.5t-21.5 -25t-27 -9.5t-33.5 -2h-219v-30q0 -55 39.5 -88t102.5 -33q33 0 57.5 10t39.5 19.5t24 9.5q14 0 24 -12.5t10 -25.5q0 -23 -45.5 -47t-112.5 -24q-98 0 -160 53.5t-62 140.5zM117 716
h51q0 -33 21 -56t49 -23t49 23t21 56h51q0 -48 -36.5 -84.5t-84.5 -36.5t-84.5 36.5t-36.5 84.5zM124 269h185q26 0 35 6.5t9 25.5q0 45 -33 79t-81 34q-47 0 -81 -31.5t-34 -77.5v-36z" />
    <glyph glyph-name="Edotaccent" unicode="&#x116;" horiz-adv-x="514" 
d="M71 30v671q0 14 11.5 22t26.5 8h356q14 0 21.5 -11t7.5 -26q0 -16 -8 -27.5t-21 -11.5h-310v-254h156q13 0 21 -10.5t8 -25.5q0 -13 -7.5 -23.5t-21.5 -10.5h-156v-255h310q13 0 21 -11.5t8 -27.5q0 -15 -7.5 -26t-21.5 -11h-356q-15 0 -26.5 8t-11.5 22zM247 881
q0 17 12 29t29 12t28.5 -12t11.5 -29t-12 -29.5t-28 -12.5q-17 0 -29 12.5t-12 29.5z" />
    <glyph glyph-name="edotaccent" unicode="&#x117;" horiz-adv-x="465" 
d="M41 186v105q0 77 58.5 133t140.5 56q78 0 135 -52.5t57 -131.5q0 -29 -7 -46.5t-21.5 -25t-27 -9.5t-33.5 -2h-219v-30q0 -55 39.5 -88t102.5 -33q33 0 57.5 10t39.5 19.5t24 9.5q14 0 24 -12.5t10 -25.5q0 -23 -45.5 -47t-112.5 -24q-98 0 -160 53.5t-62 140.5zM124 269
h185q26 0 35 6.5t9 25.5q0 45 -33 79t-81 34q-47 0 -81 -31.5t-34 -77.5v-36zM198 630q0 17 12 29t29 12t28.5 -12t11.5 -29t-12 -29.5t-28 -12.5q-17 0 -29 12.5t-12 29.5z" />
    <glyph glyph-name="Eogonek" unicode="&#x118;" horiz-adv-x="514" 
d="M71 30v671q0 14 11.5 22t26.5 8h356q14 0 21.5 -11t7.5 -26q0 -16 -8 -27.5t-21 -11.5h-310v-254h156q13 0 21 -10.5t8 -25.5q0 -13 -7.5 -23.5t-21.5 -10.5h-156v-255h310q13 0 21 -11.5t8 -27.5q0 -29 -19 -36q-70 -58 -70 -119q0 -45 61 -45q20 0 20 -22
q0 -19 -26 -19q-45 0 -73.5 20t-28.5 59q0 68 59 125h-308q-15 0 -26.5 8t-11.5 22z" />
    <glyph glyph-name="eogonek" unicode="&#x119;" horiz-adv-x="465" 
d="M41 186v105q0 77 58.5 133t140.5 56q78 0 135 -52.5t57 -131.5q0 -29 -7 -46.5t-21.5 -25t-27 -9.5t-33.5 -2h-219v-30q0 -55 39.5 -88t102.5 -33q33 0 57.5 10t39.5 19.5t24 9.5q14 0 24 -12.5t10 -25.5q0 -12 -14 -25.5t-39 -24.5q-65 -58 -65 -116q0 -45 61 -45
q20 0 20 -22q0 -19 -26 -19q-45 0 -73.5 20t-28.5 59q0 54 40 104q-22 -2 -33 -2q-98 0 -160 53.5t-62 140.5zM124 269h185q26 0 35 6.5t9 25.5q0 45 -33 79t-81 34q-47 0 -81 -31.5t-34 -77.5v-36z" />
    <glyph glyph-name="Ecaron" unicode="&#x11a;" horiz-adv-x="514" 
d="M71 30v671q0 14 11.5 22t26.5 8h356q14 0 21.5 -11t7.5 -26q0 -16 -8 -27.5t-21 -11.5h-310v-254h156q13 0 21 -10.5t8 -25.5q0 -13 -7.5 -23.5t-21.5 -10.5h-156v-255h310q13 0 21 -11.5t8 -27.5q0 -15 -7.5 -26t-21.5 -11h-356q-15 0 -26.5 8t-11.5 22zM145 955
q0 10 6 18.5t15 8.5q8 0 14 -6l100 -84l101 84q5 6 14 6t15 -8.5t6 -18.5q0 -17 -15 -27l-101 -83q-10 -9 -20 -9t-19 9l-102 83q-14 10 -14 27z" />
    <glyph glyph-name="ecaron" unicode="&#x11b;" horiz-adv-x="465" 
d="M41 186v105q0 77 58.5 133t140.5 56q78 0 135 -52.5t57 -131.5q0 -29 -7 -46.5t-21.5 -25t-27 -9.5t-33.5 -2h-219v-30q0 -55 39.5 -88t102.5 -33q33 0 57.5 10t39.5 19.5t24 9.5q14 0 24 -12.5t10 -25.5q0 -23 -45.5 -47t-112.5 -24q-98 0 -160 53.5t-62 140.5zM103 704
q0 10 6 18.5t15 8.5q8 0 14 -6l100 -84l101 84q5 6 14 6t15 -8.5t6 -18.5q0 -17 -15 -27l-101 -83q-10 -9 -20 -9t-19 9l-102 83q-14 10 -14 27zM124 269h185q26 0 35 6.5t9 25.5q0 45 -33 79t-81 34q-47 0 -81 -31.5t-34 -77.5v-36z" />
    <glyph glyph-name="Gcircumflex" unicode="&#x11c;" horiz-adv-x="548" 
d="M64 212v301q0 113 58.5 165.5t154.5 52.5q98 0 158 -49.5t60 -129.5q0 -23 -10.5 -32t-31.5 -9q-41 0 -42 29q-13 115 -132 115q-131 0 -131 -142v-301q0 -142 131 -142q63 0 97.5 35.5t34.5 106.5v102h-119q-14 0 -21.5 10.5t-7.5 24.5t8 24.5t21 10.5h174q14 0 21.5 -9
t7.5 -22v-141q0 -113 -59 -165.5t-157 -52.5t-156.5 52.5t-58.5 165.5zM137 868q0 18 15 26l104 56q10 5 17 5q9 0 17 -5l104 -55q16 -9 16 -28q0 -11 -7 -19.5t-16 -8.5q-2 0 -6 1q-2 2 -4 2l-104 56l-104 -56q-5 -3 -9 -3q-9 0 -16 9t-7 20z" />
    <glyph glyph-name="gcircumflex" unicode="&#x11d;" horiz-adv-x="457" 
d="M22 -94q0 73 81 109q-51 19 -51 67q0 46 50 74q-57 46 -57 126v33q0 73 49 119t129 46q68 0 117 -39q30 65 68 65q16 0 26 -9.5t10 -21.5q0 -15 -17 -23q-34 -9 -54 -42q31 -37 31 -95v-33q0 -72 -51 -119t-130 -47q-41 0 -74 15q-25 -15 -25 -34t23 -29.5t57 -13
t74 -9.5t74 -18t57 -39t23 -71q0 -71 -56.5 -108.5t-146.5 -37.5t-148.5 36.5t-58.5 98.5zM96 617q0 19 15 26l104 56q10 5 17 5q9 0 17 -5l104 -55q16 -9 16 -28q0 -11 -6.5 -19.5t-16.5 -8.5q-2 0 -6 1q-2 2 -4 2l-104 56l-104 -56q-4 -3 -9 -3q-9 0 -16 9t-7 20zM101 -85
q0 -39 34.5 -62.5t92.5 -23.5q56 0 89.5 23.5t33.5 62.5q0 16 -5.5 28t-17.5 20t-24 13.5t-31 9t-31.5 5t-33 3.5t-28.5 3q-79 -26 -79 -82zM126 283q0 -48 26.5 -79t72.5 -31q44 0 71 30.5t27 78.5v33q0 46 -27 77t-72 31q-46 0 -72 -30.5t-26 -77.5v-32z" />
    <glyph glyph-name="Gbreve" unicode="&#x11e;" horiz-adv-x="548" 
d="M64 212v301q0 113 58.5 165.5t154.5 52.5q98 0 158 -49.5t60 -129.5q0 -23 -10.5 -32t-31.5 -9q-41 0 -42 29q-13 115 -132 115q-131 0 -131 -142v-301q0 -142 131 -142q63 0 97.5 35.5t34.5 106.5v102h-119q-14 0 -21.5 10.5t-7.5 24.5t8 24.5t21 10.5h174q14 0 21.5 -9
t7.5 -22v-141q0 -113 -59 -165.5t-157 -52.5t-156.5 52.5t-58.5 165.5zM157 967h51q0 -33 21 -56t49 -23t49 23t21 56h51q0 -48 -36.5 -84.5t-84.5 -36.5t-84.5 36.5t-36.5 84.5z" />
    <glyph glyph-name="gbreve" unicode="&#x11f;" horiz-adv-x="457" 
d="M22 -94q0 73 81 109q-51 19 -51 67q0 46 50 74q-57 46 -57 126v33q0 73 49 119t129 46q68 0 117 -39q30 65 68 65q16 0 26 -9.5t10 -21.5q0 -15 -17 -23q-34 -9 -54 -42q31 -37 31 -95v-33q0 -72 -51 -119t-130 -47q-41 0 -74 15q-25 -15 -25 -34t23 -29.5t57 -13
t74 -9.5t74 -18t57 -39t23 -71q0 -71 -56.5 -108.5t-146.5 -37.5t-148.5 36.5t-58.5 98.5zM101 -85q0 -39 34.5 -62.5t92.5 -23.5q56 0 89.5 23.5t33.5 62.5q0 16 -5.5 28t-17.5 20t-24 13.5t-31 9t-31.5 5t-33 3.5t-28.5 3q-79 -26 -79 -82zM111 716h51q0 -33 21 -56
t49 -23t49 23t21 56h51q0 -48 -36.5 -84.5t-84.5 -36.5t-84.5 36.5t-36.5 84.5zM126 283q0 -48 26.5 -79t72.5 -31q44 0 71 30.5t27 78.5v33q0 46 -27 77t-72 31q-46 0 -72 -30.5t-26 -77.5v-32z" />
    <glyph glyph-name="Gdotaccent" unicode="&#x120;" horiz-adv-x="548" 
d="M64 212v301q0 113 58.5 165.5t154.5 52.5q98 0 158 -49.5t60 -129.5q0 -23 -10.5 -32t-31.5 -9q-41 0 -42 29q-13 115 -132 115q-131 0 -131 -142v-301q0 -142 131 -142q63 0 97.5 35.5t34.5 106.5v102h-119q-14 0 -21.5 10.5t-7.5 24.5t8 24.5t21 10.5h174q14 0 21.5 -9
t7.5 -22v-141q0 -113 -59 -165.5t-157 -52.5t-156.5 52.5t-58.5 165.5zM237 881q0 17 12 29t29 12t28.5 -12t11.5 -29t-12 -29.5t-28 -12.5q-17 0 -29 12.5t-12 29.5z" />
    <glyph glyph-name="gdotaccent" unicode="&#x121;" horiz-adv-x="457" 
d="M22 -94q0 73 81 109q-51 19 -51 67q0 46 50 74q-57 46 -57 126v33q0 73 49 119t129 46q68 0 117 -39q30 65 68 65q16 0 26 -9.5t10 -21.5q0 -15 -17 -23q-34 -9 -54 -42q31 -37 31 -95v-33q0 -72 -51 -119t-130 -47q-41 0 -74 15q-25 -15 -25 -34t23 -29.5t57 -13
t74 -9.5t74 -18t57 -39t23 -71q0 -71 -56.5 -108.5t-146.5 -37.5t-148.5 36.5t-58.5 98.5zM101 -85q0 -39 34.5 -62.5t92.5 -23.5q56 0 89.5 23.5t33.5 62.5q0 16 -5.5 28t-17.5 20t-24 13.5t-31 9t-31.5 5t-33 3.5t-28.5 3q-79 -26 -79 -82zM126 283q0 -48 26.5 -79
t72.5 -31q44 0 71 30.5t27 78.5v33q0 46 -27 77t-72 31q-46 0 -72 -30.5t-26 -77.5v-32zM192 630q0 17 12 29t29 12t28.5 -12t11.5 -29t-12 -29.5t-28 -12.5q-17 0 -29 12.5t-12 29.5z" />
    <glyph glyph-name="Gcommaaccent" unicode="&#x122;" horiz-adv-x="548" 
d="M64 212v301q0 113 58.5 165.5t154.5 52.5q98 0 158 -49.5t60 -129.5q0 -23 -10.5 -32t-31.5 -9q-41 0 -42 29q-13 115 -132 115q-131 0 -131 -142v-301q0 -142 131 -142q63 0 97.5 35.5t34.5 106.5v102h-119q-14 0 -21.5 10.5t-7.5 24.5t8 24.5t21 10.5h174q14 0 21.5 -9
t7.5 -22v-141q0 -113 -59 -165.5t-157 -52.5t-156.5 52.5t-58.5 165.5zM193 -134q0 15 13 22l117 62q8 2 10 2q12 0 20.5 -10.5t8.5 -23.5q0 -16 -14 -24l-113 -59q-6 -3 -12 -3q-12 0 -21 10.5t-9 23.5z" />
    <glyph glyph-name="gcommaaccent" unicode="&#x123;" horiz-adv-x="457" 
d="M22 -94q0 73 81 109q-51 19 -51 67q0 46 50 74q-57 46 -57 126v33q0 73 49 119t129 46q68 0 117 -39q30 65 68 65q16 0 26 -9.5t10 -21.5q0 -15 -17 -23q-34 -9 -54 -42q31 -37 31 -95v-33q0 -72 -51 -119t-130 -47q-41 0 -74 15q-25 -15 -25 -34t23 -29.5t57 -13
t74 -9.5t74 -18t57 -39t23 -71q0 -71 -56.5 -108.5t-146.5 -37.5t-148.5 36.5t-58.5 98.5zM101 -85q0 -39 34.5 -62.5t92.5 -23.5q56 0 89.5 23.5t33.5 62.5q0 16 -5.5 28t-17.5 20t-24 13.5t-31 9t-31.5 5t-33 3.5t-28.5 3q-79 -26 -79 -82zM126 283q0 -48 26.5 -79
t72.5 -31q44 0 71 30.5t27 78.5v33q0 46 -27 77t-72 31q-46 0 -72 -30.5t-26 -77.5v-32zM151 618q0 15 13 22l117 62q6 2 10 2q12 0 20 -10.5t8 -23.5q0 -17 -14 -24l-113 -58q-8 -4 -11 -4q-12 0 -21 10.5t-9 23.5zM177 865q0 21 45 122q6 13 20 13q11 0 20.5 -7t9.5 -18
q0 -6 -2 -10l-21 -52q32 -13 32 -48q0 -22 -15 -37t-37 -15q-21 0 -36.5 15t-15.5 37z" />
    <glyph glyph-name="Hcircumflex" unicode="&#x124;" horiz-adv-x="581" 
d="M71 30v672q0 14 12.5 21.5t29.5 7.5t29.5 -7.5t12.5 -21.5v-288h271v288q0 14 12.5 21.5t29.5 7.5t29.5 -7.5t12.5 -21.5v-672q0 -14 -12.5 -22t-29.5 -8t-29.5 8t-12.5 22v314h-271v-314q0 -14 -12.5 -22t-29.5 -8t-29.5 8t-12.5 22zM154 868q0 18 15 26l104 56
q10 5 17 5q9 0 17 -5l104 -55q16 -9 16 -28q0 -11 -6.5 -19.5t-16.5 -8.5q-2 0 -6 1q-2 2 -4 2l-104 56l-104 -56q-4 -3 -9 -3q-9 0 -16 9t-7 20z" />
    <glyph glyph-name="hcircumflex" unicode="&#x125;" horiz-adv-x="504" 
d="M-35 872q0 18 15 26l104 56q10 5 17 5q9 0 17 -5l104 -55q16 -9 16 -28q0 -11 -7 -19.5t-16 -8.5q-2 0 -6 1q-2 2 -4 2l-104 56l-104 -56q-5 -3 -9 -3q-9 0 -16 9t-7 20zM60 30v701q0 13 11.5 21t29.5 8t30 -8t12 -21v-327q17 32 50.5 54t79.5 22q71 0 123.5 -56.5
t52.5 -135.5v-258q0 -14 -12.5 -22t-29.5 -8q-16 0 -28.5 8t-12.5 22v258q0 45 -34 81t-80 36q-43 0 -76 -32.5t-33 -84.5v-258q0 -11 -12.5 -20.5t-29.5 -9.5t-29 9t-12 21z" />
    <glyph glyph-name="Hbar" unicode="&#x126;" horiz-adv-x="585" 
d="M19 568q0 13 7 22t19 9h28v103q0 14 12.5 21.5t29.5 7.5t29.5 -7.5t12.5 -21.5v-103h271v103q0 14 12.5 21.5t29.5 7.5t29.5 -7.5t12.5 -21.5v-103h27q12 0 19 -9t7 -22q0 -12 -7 -20.5t-19 -8.5h-27v-509q0 -14 -12.5 -22t-29.5 -8t-29.5 8t-12.5 22v314h-271v-314
q0 -14 -12.5 -22t-29.5 -8t-29.5 8t-12.5 22v509h-28q-12 0 -19 8.5t-7 20.5zM157 414h271v125h-271v-125z" />
    <glyph glyph-name="hbar" unicode="&#x127;" horiz-adv-x="504" 
d="M3 603q0 13 8 22t21 9h28v97q0 13 11.5 21t29.5 8t30 -8t12 -21v-97h101q12 0 21 -9t9 -22t-9 -21.5t-21 -8.5h-101v-169q17 32 50.5 54t79.5 22q71 0 123.5 -56.5t52.5 -135.5v-258q0 -14 -12.5 -22t-29.5 -8q-16 0 -28.5 8t-12.5 22v258q0 45 -34 81t-80 36
q-43 0 -76 -32.5t-33 -84.5v-258q0 -11 -12.5 -20.5t-29.5 -9.5t-29 9t-12 21v543h-28q-13 0 -21 8.5t-8 21.5z" />
    <glyph glyph-name="Itilde" unicode="&#x128;" horiz-adv-x="226" 
d="M-47 887q0 29 29.5 45t57.5 16q27 0 68 -16.5t67 -16.5q25 0 46 13.5t27 13.5q11 0 17.5 -9.5t6.5 -18.5q0 -31 -28 -45.5t-56 -14.5q-30 0 -70 16.5t-66 16.5q-25 0 -47.5 -14.5t-28.5 -14.5q-11 0 -17 9.5t-6 19.5zM71 30v672q0 14 12.5 21.5t29.5 7.5t29.5 -7.5
t12.5 -21.5v-672q0 -14 -12.5 -22t-29.5 -8t-29.5 8t-12.5 22z" />
    <glyph glyph-name="itilde" unicode="&#x129;" horiz-adv-x="201" 
d="M-59 636q0 29 29.5 45t57.5 16q27 0 68 -16.5t67 -16.5q25 0 46 13.5t27 13.5q11 0 17.5 -9.5t6.5 -18.5q0 -31 -28 -45.5t-56 -14.5q-30 0 -70 16.5t-66 16.5q-25 0 -47.5 -14.5t-28.5 -14.5q-11 0 -17 9.5t-6 19.5zM59 30v415q0 13 12 21t29 8q18 0 30 -8t12 -21v-415
q0 -11 -12.5 -20.5t-29.5 -9.5t-29 9t-12 21z" />
    <glyph glyph-name="Imacron" unicode="&#x12a;" horiz-adv-x="226" 
d="M-23 909q0 13 8 22t21 9h212q12 0 21 -9t9 -22t-9 -21.5t-21 -8.5h-212q-13 0 -21 8.5t-8 21.5zM71 30v672q0 14 12.5 21.5t29.5 7.5t29.5 -7.5t12.5 -21.5v-672q0 -14 -12.5 -22t-29.5 -8t-29.5 8t-12.5 22z" />
    <glyph glyph-name="imacron" unicode="&#x12b;" horiz-adv-x="201" 
d="M-35 658q0 13 8 22t21 9h212q12 0 21 -9.5t9 -21.5q0 -13 -9 -21.5t-21 -8.5h-212q-13 0 -21 8.5t-8 21.5zM59 30v415q0 13 12 21t29 8q18 0 30 -8t12 -21v-415q0 -11 -12.5 -20.5t-29.5 -9.5t-29 9t-12 21z" />
    <glyph glyph-name="Ibreve" unicode="&#x12c;" horiz-adv-x="226" 
d="M-8 967h51q0 -33 21 -56t49 -23t49 23t21 56h51q0 -48 -36.5 -84.5t-84.5 -36.5t-84.5 36.5t-36.5 84.5zM71 30v672q0 14 12.5 21.5t29.5 7.5t29.5 -7.5t12.5 -21.5v-672q0 -14 -12.5 -22t-29.5 -8t-29.5 8t-12.5 22z" />
    <glyph glyph-name="ibreve" unicode="&#x12d;" horiz-adv-x="201" 
d="M-20 716h51q0 -33 21 -56t49 -23t49 23t21 56h51q0 -48 -36.5 -84.5t-84.5 -36.5t-84.5 36.5t-36.5 84.5zM59 30v415q0 13 12 21t29 8q18 0 30 -8t12 -21v-415q0 -11 -12.5 -20.5t-29.5 -9.5t-29 9t-12 21z" />
    <glyph glyph-name="Iogonek" unicode="&#x12e;" horiz-adv-x="226" 
d="M18 -122q0 72 65 130q-12 9 -12 22v672q0 14 12.5 21.5t29.5 7.5t29.5 -7.5t12.5 -21.5v-672q0 -20 -22 -27q-68 -58 -68 -118q0 -45 61 -45q20 0 20 -22q0 -19 -26 -19q-45 0 -73.5 20t-28.5 59z" />
    <glyph glyph-name="iogonek" unicode="&#x12f;" horiz-adv-x="201" 
d="M3 -124q0 73 68 133q-12 7 -12 21v415q0 13 12 21t29 8q18 0 30 -8t12 -21v-415q0 -15 -19 -25q-73 -57 -73 -122q0 -45 61 -45q20 0 20 -22q0 -19 -26 -19q-45 0 -73.5 20t-28.5 59zM48 652q0 19 15 33t37 14q21 0 36 -14t15 -33t-15 -33.5t-36 -14.5t-36.5 14.5
t-15.5 33.5z" />
    <glyph glyph-name="Idotaccent" unicode="&#x130;" horiz-adv-x="226" 
d="M71 30v672q0 14 12.5 21.5t29.5 7.5t29.5 -7.5t12.5 -21.5v-672q0 -14 -12.5 -22t-29.5 -8t-29.5 8t-12.5 22zM72 881q0 17 12 29t29 12t28.5 -12t11.5 -29t-12 -29.5t-28 -12.5q-17 0 -29 12.5t-12 29.5z" />
    <glyph glyph-name="dotlessi" unicode="&#x131;" horiz-adv-x="201" 
d="M59 30v415q0 13 12 21t29 8q18 0 30 -8t12 -21v-415q0 -11 -12.5 -20.5t-29.5 -9.5t-29 9t-12 21z" />
    <glyph glyph-name="IJ" unicode="&#x132;" horiz-adv-x="739" 
d="M71 30v672q0 14 12.5 21.5t29.5 7.5t29.5 -7.5t12.5 -21.5v-672q0 -14 -12.5 -22t-29.5 -8t-29.5 8t-12.5 22zM240 177q0 23 10.5 32t31.5 9q42 0 42 -29q0 -53 34.5 -86t96.5 -33q132 0 132 142v443h-130q-14 0 -21.5 11t-7.5 28q0 37 29 37h176q15 0 26.5 -8t11.5 -22
v-489q0 -113 -58.5 -165.5t-154.5 -52.5q-98 0 -158 50.5t-60 132.5z" />
    <glyph glyph-name="ij" unicode="&#x133;" horiz-adv-x="393" 
d="M48 652q0 19 15 33t37 14q21 0 36 -14t15 -33t-15 -33.5t-36 -14.5t-36.5 14.5t-15.5 33.5zM59 30v415q0 13 12 21t29 8q18 0 30 -8t12 -21v-415q0 -11 -12.5 -20.5t-29.5 -9.5t-29 9t-12 21zM153 -193q0 16 10 26.5t24 10.5q39 0 51 29t12 87v485q0 13 11.5 21t29.5 8
t30 -8t12 -21v-485q0 -87 -34 -138t-103 -51q-43 0 -43 36zM239 652q0 19 15 33t37 14q21 0 36 -14t15 -33t-15 -33.5t-36 -14.5t-36.5 14.5t-15.5 33.5z" />
    <glyph glyph-name="Jcircumflex" unicode="&#x134;" horiz-adv-x="519" 
d="M20 177q0 23 10.5 32t31.5 9q42 0 42 -29q0 -53 34.5 -86t96.5 -33q132 0 132 142v443h-130q-14 0 -21.5 11t-7.5 28q0 37 29 37h176q15 0 26.5 -8t11.5 -22v-489q0 -113 -58.5 -165.5t-154.5 -52.5q-98 0 -158 50.5t-60 132.5zM124 868q0 18 15 26l104 56q10 5 17 5
q9 0 17 -5l104 -55q16 -9 16 -28q0 -11 -6.5 -19.5t-16.5 -8.5q-2 0 -6 1q-2 2 -4 2l-104 56l-104 -56q-4 -3 -9 -3q-9 0 -16 9t-7 20z" />
    <glyph glyph-name="jcircumflex" unicode="&#x135;" horiz-adv-x="203" 
d="M-37 -193q0 16 10 26.5t24 10.5q39 0 51 29t12 87v485q0 13 11.5 21t29.5 8t30 -8t12 -21v-485q0 -87 -34 -138t-103 -51q-43 0 -43 36zM-34 617q0 19 15 26l104 56q10 5 17 5q9 0 17 -5l104 -55q16 -9 16 -28q0 -11 -6.5 -19.5t-16.5 -8.5q-2 0 -6 1q-2 2 -4 2l-104 56
l-104 -56q-4 -3 -9 -3q-9 0 -16 9t-7 20z" />
    <glyph glyph-name="Kcommaaccent" unicode="&#x136;" horiz-adv-x="529" 
d="M71 30v672q0 14 12.5 21.5t29.5 7.5t29.5 -7.5t12.5 -21.5v-331l268 348q9 12 25 12t32 -14t16 -29q0 -10 -7 -18l-204 -255l238 -360q5 -8 5 -15q0 -16 -15.5 -29t-33.5 -13q-20 0 -31 17l-219 329l-74 -93v-221q0 -14 -12.5 -22t-29.5 -8t-29.5 8t-12.5 22zM182 -134
q0 15 13 22l117 62q8 2 10 2q12 0 20.5 -10.5t8.5 -23.5q0 -16 -14 -24l-113 -59q-6 -3 -12 -3q-12 0 -21 10.5t-9 23.5z" />
    <glyph glyph-name="kcommaaccent" unicode="&#x137;" horiz-adv-x="467" 
d="M60 30v701q0 13 11.5 21t29.5 8t30 -8t12 -21v-468l228 206q9 7 18 7q15 0 28.5 -12t13.5 -27q0 -12 -9 -20l-139 -123l166 -241q5 -8 5 -15q0 -15 -15 -28.5t-31 -13.5q-14 0 -23 13l-159 233l-83 -74v-138q0 -11 -12.5 -20.5t-29.5 -9.5t-29 9t-12 21zM148 -134
q0 15 13 22l117 62q8 2 10 2q12 0 20.5 -10.5t8.5 -23.5q0 -16 -14 -24l-113 -59q-6 -3 -12 -3q-12 0 -21 10.5t-9 23.5z" />
    <glyph glyph-name="kgreenlandic" unicode="&#x138;" horiz-adv-x="466" 
d="M59 30v415q0 13 11.5 21t29.5 8t30 -8t12 -21v-182l228 206q9 7 18 7q15 0 28.5 -12t13.5 -27q0 -12 -9 -20l-139 -123l166 -241q5 -8 5 -15q0 -15 -15 -28.5t-31 -13.5q-14 0 -23 13l-159 233l-83 -74v-138q0 -11 -12.5 -20.5t-29.5 -9.5t-29 9t-12 21z" />
    <glyph glyph-name="Lacute" unicode="&#x139;" horiz-adv-x="468" 
d="M71 30v672q0 14 12.5 21.5t29.5 7.5t29.5 -7.5t12.5 -21.5v-626h273q13 0 20 -11.5t7 -26.5t-7 -26.5t-20 -11.5h-319q-15 0 -26.5 8t-11.5 22zM174 869q0 15 13 22l117 62q6 2 10 2q12 0 20 -10.5t8 -23.5q0 -17 -14 -24l-113 -58q-8 -4 -11 -4q-12 0 -21 10.5t-9 23.5z
" />
    <glyph glyph-name="lacute" unicode="&#x13a;" horiz-adv-x="219" 
d="M37 836q0 15 13 22l117 62q6 2 10 2q12 0 20 -10.5t8 -23.5q0 -17 -14 -24l-113 -58q-8 -4 -11 -4q-12 0 -21 10.5t-9 23.5zM68 30v701q0 13 11.5 21t29.5 8t30 -8t12 -21v-701q0 -11 -12.5 -20.5t-29.5 -9.5t-29 9t-12 21z" />
    <glyph glyph-name="Lcommaaccent" unicode="&#x13b;" horiz-adv-x="468" 
d="M71 30v672q0 14 12.5 21.5t29.5 7.5t29.5 -7.5t12.5 -21.5v-626h273q13 0 20 -11.5t7 -26.5t-7 -26.5t-20 -11.5h-319q-15 0 -26.5 8t-11.5 22zM170 -134q0 15 13 22l117 62q8 2 10 2q12 0 20.5 -10.5t8.5 -23.5q0 -16 -14 -24l-113 -59q-6 -3 -12 -3q-12 0 -21 10.5
t-9 23.5z" />
    <glyph glyph-name="lcommaaccent" unicode="&#x13c;" horiz-adv-x="219" 
d="M27 -134q0 15 13 22l117 62q8 2 10 2q12 0 20.5 -10.5t8.5 -23.5q0 -16 -14 -24l-113 -59q-6 -3 -12 -3q-12 0 -21 10.5t-9 23.5zM68 30v701q0 13 11.5 21t29.5 8t30 -8t12 -21v-701q0 -11 -12.5 -20.5t-29.5 -9.5t-29 9t-12 21z" />
    <glyph glyph-name="Lcaron" unicode="&#x13d;" horiz-adv-x="469" 
d="M71 30v672q0 14 12.5 21.5t29.5 7.5t29.5 -7.5t12.5 -21.5v-626h273q13 0 20 -11.5t7 -26.5t-7 -26.5t-20 -11.5h-319q-15 0 -26.5 8t-11.5 22zM297 689q0 21 15 36.5t37 15.5q21 0 36.5 -15.5t15.5 -36.5t-45 -122q-6 -13 -20 -13q-11 0 -20.5 6.5t-9.5 17.5q0 4 2 10
l21 52q-32 13 -32 49z" />
    <glyph glyph-name="lcaron" unicode="&#x13e;" horiz-adv-x="219" 
d="M68 30v701q0 13 11.5 21t29.5 8t30 -8t12 -21v-701q0 -11 -12.5 -20.5t-29.5 -9.5t-29 9t-12 21zM212 689q0 21 15 36.5t37 15.5q21 0 36.5 -15.5t15.5 -36.5t-45 -122q-6 -13 -20 -13q-11 0 -20.5 6.5t-9.5 17.5q0 4 2 10l21 52q-32 13 -32 49z" />
    <glyph glyph-name="Ldot" unicode="&#x13f;" horiz-adv-x="469" 
d="M71 30v672q0 14 12.5 21.5t29.5 7.5t29.5 -7.5t12.5 -21.5v-626h273q13 0 20 -11.5t7 -26.5t-7 -26.5t-20 -11.5h-319q-15 0 -26.5 8t-11.5 22zM290 421q0 20 16 35t39 15q22 0 37.5 -15t15.5 -35t-15.5 -35t-37.5 -15q-23 0 -39 15t-16 35z" />
    <glyph glyph-name="ldot" unicode="&#x140;" horiz-adv-x="329" 
d="M68 30v701q0 13 11.5 21t29.5 8t30 -8t12 -21v-701q0 -11 -12.5 -20.5t-29.5 -9.5t-29 9t-12 21zM215 300q0 20 16 35t39 15q22 0 37.5 -15t15.5 -35t-15.5 -35t-37.5 -15q-23 0 -39 15t-16 35z" />
    <glyph glyph-name="Lslash" unicode="&#x141;" horiz-adv-x="474" 
d="M-1 298q0 16 13 22l65 34v348q0 14 12.5 21.5t29.5 7.5t29.5 -7.5t12.5 -21.5v-303l87 47q3 2 10 2q12 0 22 -12t10 -25q0 -17 -13 -23l-116 -62v-250h273q13 0 20 -11.5t7 -26.5t-7 -26.5t-20 -11.5h-319q-15 0 -26.5 8t-11.5 22v251l-36 -19q-6 -3 -11 -3
q-12 0 -21.5 12.5t-9.5 26.5z" />
    <glyph glyph-name="lslash" unicode="&#x142;" horiz-adv-x="310" 
d="M16 298q0 16 12 22l82 44v367q0 13 11.5 21t29.5 8t30 -8t12 -21v-323l61 33q4 2 10 2q12 0 22 -12t10 -25q0 -16 -13 -23l-90 -48v-305q0 -11 -12.5 -20.5t-29.5 -9.5t-29 9t-12 21v260l-53 -28q-5 -3 -10 -3q-12 0 -21.5 12.5t-9.5 26.5z" />
    <glyph glyph-name="Nacute" unicode="&#x143;" horiz-adv-x="581" 
d="M71 30v672q0 29 42 29q21 0 35.5 -12.5t28.5 -40.5l249 -487v511q0 14 12.5 21.5t29.5 7.5t29.5 -7.5t12.5 -21.5v-672q0 -14 -12.5 -22t-29.5 -8q-32 0 -53 38l-260 503v-511q0 -14 -12.5 -22t-29.5 -8t-29.5 8t-12.5 22zM200 869q0 15 13 22l117 62q6 2 10 2
q12 0 20 -10.5t8 -23.5q0 -17 -14 -24l-113 -58q-8 -4 -11 -4q-12 0 -21 10.5t-9 23.5z" />
    <glyph glyph-name="nacute" unicode="&#x144;" horiz-adv-x="503" 
d="M59 30v415q0 13 11.5 21t29.5 8q15 0 26.5 -8.5t11.5 -20.5v-41q16 32 51.5 54t82.5 22q71 0 123.5 -56.5t52.5 -135.5v-258q0 -14 -12.5 -22t-29.5 -8q-16 0 -28.5 8t-12.5 22v258q0 45 -34 81t-80 36q-43 0 -76 -32.5t-33 -84.5v-258q0 -11 -13 -20.5t-29 -9.5
q-17 0 -29 9t-12 21zM169 618q0 15 13 22l117 62q6 2 10 2q12 0 20 -10.5t8 -23.5q0 -17 -14 -24l-113 -58q-8 -4 -11 -4q-12 0 -21 10.5t-9 23.5z" />
    <glyph glyph-name="Ncommaaccent" unicode="&#x145;" horiz-adv-x="581" 
d="M71 30v672q0 29 42 29q21 0 35.5 -12.5t28.5 -40.5l249 -487v511q0 14 12.5 21.5t29.5 7.5t29.5 -7.5t12.5 -21.5v-672q0 -14 -12.5 -22t-29.5 -8q-32 0 -53 38l-260 503v-511q0 -14 -12.5 -22t-29.5 -8t-29.5 8t-12.5 22zM204 -134q0 15 13 22l117 62q8 2 10 2
q12 0 20.5 -10.5t8.5 -23.5q0 -16 -14 -24l-113 -59q-6 -3 -12 -3q-12 0 -21 10.5t-9 23.5z" />
    <glyph glyph-name="ncommaaccent" unicode="&#x146;" horiz-adv-x="503" 
d="M59 30v415q0 13 11.5 21t29.5 8q15 0 26.5 -8.5t11.5 -20.5v-41q16 32 51.5 54t82.5 22q71 0 123.5 -56.5t52.5 -135.5v-258q0 -14 -12.5 -22t-29.5 -8q-16 0 -28.5 8t-12.5 22v258q0 45 -34 81t-80 36q-43 0 -76 -32.5t-33 -84.5v-258q0 -11 -13 -20.5t-29 -9.5
q-17 0 -29 9t-12 21zM160 -134q0 15 13 22l117 62q8 2 10 2q12 0 20.5 -10.5t8.5 -23.5q0 -16 -14 -24l-113 -59q-6 -3 -12 -3q-12 0 -21 10.5t-9 23.5z" />
    <glyph glyph-name="Ncaron" unicode="&#x147;" horiz-adv-x="581" 
d="M71 30v672q0 29 42 29q21 0 35.5 -12.5t28.5 -40.5l249 -487v511q0 14 12.5 21.5t29.5 7.5t29.5 -7.5t12.5 -21.5v-672q0 -14 -12.5 -22t-29.5 -8q-32 0 -53 38l-260 503v-511q0 -14 -12.5 -22t-29.5 -8t-29.5 8t-12.5 22zM154 955q0 10 6 18.5t15 8.5q8 0 14 -6l100 -84
l101 84q5 6 14 6t15 -8.5t6 -18.5q0 -17 -15 -27l-101 -83q-11 -9 -20 -9q-10 0 -19 9l-102 83q-14 10 -14 27z" />
    <glyph glyph-name="ncaron" unicode="&#x148;" horiz-adv-x="503" 
d="M59 30v415q0 13 11.5 21t29.5 8q15 0 26.5 -8.5t11.5 -20.5v-41q16 32 51.5 54t82.5 22q71 0 123.5 -56.5t52.5 -135.5v-258q0 -14 -12.5 -22t-29.5 -8q-16 0 -28.5 8t-12.5 22v258q0 45 -34 81t-80 36q-43 0 -76 -32.5t-33 -84.5v-258q0 -11 -13 -20.5t-29 -9.5
q-17 0 -29 9t-12 21zM112 704q0 10 6 18.5t15 8.5q8 0 14 -6l100 -84l101 84q5 6 14 6t15 -8.5t6 -18.5q0 -17 -15 -27l-101 -83q-11 -9 -20 -9q-10 0 -19 9l-102 83q-14 10 -14 27z" />
    <glyph glyph-name="Eng" unicode="&#x14a;" horiz-adv-x="582" 
d="M71 30v672q0 29 42 29q21 0 35.5 -12.5t28.5 -40.5l249 -487v511q0 14 12.5 21.5t29.5 7.5t29.5 -7.5t12.5 -21.5v-742q0 -87 -34 -138t-103 -51q-43 0 -43 36q0 16 10 26.5t24 10.5q38 0 50 29t12 87v43q0 14 -11 35l-260 503v-511q0 -14 -12.5 -22t-29.5 -8t-29.5 8
t-12.5 22z" />
    <glyph glyph-name="eng" unicode="&#x14b;" horiz-adv-x="503" 
d="M59 30v415q0 13 11.5 21t29.5 8q15 0 26.5 -8.5t11.5 -20.5v-41q16 32 51.5 54t82.5 22q71 0 123.5 -56.5t52.5 -135.5v-328q0 -87 -34 -138t-103 -51q-43 0 -43 36q0 16 10 26.5t24 10.5q38 0 50.5 29t12.5 87v328q0 45 -34 81t-80 36q-43 0 -76 -32.5t-33 -84.5v-258
q0 -11 -13 -20.5t-29 -9.5q-17 0 -29 9t-12 21z" />
    <glyph glyph-name="Omacron" unicode="&#x14c;" horiz-adv-x="559" 
d="M64 212v301q0 113 58.5 165.5t156.5 52.5t157 -52.5t59 -165.5v-301q0 -113 -59 -165.5t-157 -52.5t-156.5 52.5t-58.5 165.5zM144 909q0 13 8 22t21 9h212q11 0 20.5 -9t9.5 -22t-9 -21.5t-21 -8.5h-212q-13 0 -21 8.5t-8 21.5zM148 212q0 -142 131 -142q63 0 97.5 35.5
t34.5 106.5v301q0 71 -34.5 106.5t-97.5 35.5q-131 0 -131 -142v-301z" />
    <glyph glyph-name="omacron" unicode="&#x14d;" horiz-adv-x="477" 
d="M41 186v102q0 77 58.5 134.5t138.5 57.5t139 -57t59 -135v-102q0 -76 -59.5 -135t-138.5 -59t-138 58.5t-59 135.5zM103 658q0 13 8 22t21 9h212q12 0 21 -9.5t9 -21.5q0 -13 -9 -21.5t-21 -8.5h-212q-13 0 -21 8.5t-8 21.5zM124 186q0 -47 34 -83t80 -36q47 0 81 36.5
t34 82.5v102q0 45 -34 81t-81 36t-80.5 -36t-33.5 -81v-102z" />
    <glyph glyph-name="Obreve" unicode="&#x14e;" horiz-adv-x="559" 
d="M64 212v301q0 113 58.5 165.5t156.5 52.5t157 -52.5t59 -165.5v-301q0 -113 -59 -165.5t-157 -52.5t-156.5 52.5t-58.5 165.5zM148 212q0 -142 131 -142q63 0 97.5 35.5t34.5 106.5v301q0 71 -34.5 106.5t-97.5 35.5q-131 0 -131 -142v-301zM158 967h51q0 -33 21 -56
t49 -23t49 23t21 56h51q0 -48 -36.5 -84.5t-84.5 -36.5t-84.5 36.5t-36.5 84.5z" />
    <glyph glyph-name="obreve" unicode="&#x14f;" horiz-adv-x="477" 
d="M41 186v102q0 77 58.5 134.5t138.5 57.5t139 -57t59 -135v-102q0 -76 -59.5 -135t-138.5 -59t-138 58.5t-59 135.5zM117 716h51q0 -33 21 -56t49 -23t49 23t21 56h51q0 -48 -36.5 -84.5t-84.5 -36.5t-84.5 36.5t-36.5 84.5zM124 186q0 -47 34 -83t80 -36q47 0 81 36.5
t34 82.5v102q0 45 -34 81t-81 36t-80.5 -36t-33.5 -81v-102z" />
    <glyph glyph-name="Ohungarumlaut" unicode="&#x150;" horiz-adv-x="559" 
d="M64 212v301q0 113 58.5 165.5t156.5 52.5t157 -52.5t59 -165.5v-301q0 -113 -59 -165.5t-157 -52.5t-156.5 52.5t-58.5 165.5zM148 212q0 -142 131 -142q63 0 97.5 35.5t34.5 106.5v301q0 71 -34.5 106.5t-97.5 35.5q-131 0 -131 -142v-301zM167 862q0 10 8 15l92 74
q5 5 13 5q11 0 19.5 -9t8.5 -19q0 -11 -9 -17l-88 -71q-7 -6 -14 -6q-11 0 -20.5 9t-9.5 19zM319 862q0 10 8 15l93 74q4 5 13 5q10 0 18.5 -9t8.5 -19q0 -11 -9 -17l-88 -71q-6 -6 -14 -6q-11 0 -20.5 9t-9.5 19z" />
    <glyph glyph-name="ohungarumlaut" unicode="&#x151;" horiz-adv-x="477" 
d="M41 186v102q0 77 58.5 134.5t138.5 57.5t139 -57t59 -135v-102q0 -76 -59.5 -135t-138.5 -59t-138 58.5t-59 135.5zM120 612q0 10 8 15l92 74q5 5 13 5q11 0 19.5 -9t8.5 -19q0 -11 -9 -17l-88 -71q-8 -6 -14 -6q-11 0 -20.5 9t-9.5 19zM124 186q0 -47 34 -83t80 -36
q47 0 81 36.5t34 82.5v102q0 45 -34 81t-81 36t-80.5 -36t-33.5 -81v-102zM272 612q0 10 8 15l93 74q4 5 13 5q10 0 18.5 -9t8.5 -19q0 -11 -9 -17l-88 -71q-6 -6 -14 -6q-11 0 -20.5 9t-9.5 19z" />
    <glyph glyph-name="OE" unicode="&#x152;" horiz-adv-x="837" 
d="M64 212v301q0 113 55 165.5t148 52.5q48 0 89.5 -18.5t63.5 -54.5v43q0 14 11.5 22t26.5 8h330q14 0 21.5 -11t7.5 -26q0 -17 -7.5 -28t-21.5 -11h-293v-254h139q14 0 21.5 -10.5t7.5 -25.5q0 -13 -7.5 -23.5t-21.5 -10.5h-139v-255h293q14 0 21.5 -11t7.5 -28
q0 -15 -7.5 -26t-21.5 -11h-330q-15 0 -26.5 8t-11.5 22v37q-44 -73 -153 -73q-93 0 -148 52.5t-55 165.5zM148 212q0 -142 131 -142q63 0 97.5 35.5t34.5 106.5v301q0 71 -34.5 106.5t-97.5 35.5q-131 0 -131 -142v-301z" />
    <glyph glyph-name="oe" unicode="&#x153;" horiz-adv-x="777" 
d="M41 186v102q0 77 58.5 134.5t138.5 57.5q49 0 91.5 -25t67.5 -66q25 42 66 66.5t89 24.5q78 0 135 -52.5t57 -130.5q0 -29 -6.5 -47t-21 -25.5t-27 -9.5t-34.5 -2h-219v-30q0 -55 39.5 -88t104.5 -33q32 0 56 10t38.5 19.5t23.5 9.5q14 0 24.5 -12.5t10.5 -26.5
q0 -22 -46.5 -46t-111.5 -24q-59 0 -105.5 24.5t-72.5 67.5q-26 -42 -68.5 -67t-90.5 -25q-79 0 -138 58.5t-59 135.5zM124 186q0 -47 34 -83t80 -36q47 0 81 36.5t34 82.5v102q0 45 -34 81t-81 36t-80.5 -36t-33.5 -81v-102zM436 269h185q26 0 35 6.5t9 25.5q0 45 -33 79
t-81 34t-81.5 -31t-33.5 -76v-38z" />
    <glyph glyph-name="Racute" unicode="&#x154;" horiz-adv-x="543" 
d="M71 30v672q0 12 8.5 20t21.5 9h183q100 0 161 -46.5t61 -153.5q0 -165 -149 -195l148 -281q4 -7 4 -14q0 -16 -16 -29.5t-34 -13.5q-21 0 -38 33l-151 293h-115v-294q0 -14 -12.5 -22t-29.5 -8t-29.5 8t-12.5 22zM155 394h129q138 0 138 131q0 130 -138 130h-129v-261z
M214 869q0 15 13 22l117 62q6 2 10 2q12 0 20 -10.5t8 -23.5q0 -17 -14 -24l-113 -58q-8 -4 -11 -4q-12 0 -21 10.5t-9 23.5z" />
    <glyph glyph-name="racute" unicode="&#x155;" horiz-adv-x="344" 
d="M59 30v415q0 13 11.5 21t29.5 8q16 0 27 -8t11 -21v-47q18 34 53 58t78 24h34q13 0 22.5 -11.5t9.5 -26.5t-9.5 -26t-22.5 -11h-34q-51 0 -89 -41t-38 -106v-228q0 -11 -12.5 -20.5t-29.5 -9.5t-29 9t-12 21zM93 618q0 15 13 22l117 62q6 2 10 2q12 0 20 -10.5t8 -23.5
q0 -17 -14 -24l-113 -58q-8 -4 -11 -4q-12 0 -21 10.5t-9 23.5z" />
    <glyph glyph-name="Rcommaaccent" unicode="&#x156;" horiz-adv-x="543" 
d="M71 30v672q0 12 8.5 20t21.5 9h183q100 0 161 -46.5t61 -153.5q0 -165 -149 -195l148 -281q4 -7 4 -14q0 -16 -16 -29.5t-34 -13.5q-21 0 -38 33l-151 293h-115v-294q0 -14 -12.5 -22t-29.5 -8t-29.5 8t-12.5 22zM155 394h129q138 0 138 131q0 130 -138 130h-129v-261z
M177 -134q0 15 13 22l117 62q8 2 10 2q12 0 20.5 -10.5t8.5 -23.5q0 -16 -14 -24l-113 -59q-6 -3 -12 -3q-12 0 -21 10.5t-9 23.5z" />
    <glyph glyph-name="rcommaaccent" unicode="&#x157;" horiz-adv-x="344" 
d="M0 -134q0 15 13 22l117 62q8 2 10 2q12 0 20.5 -10.5t8.5 -23.5q0 -16 -14 -24l-113 -59q-6 -3 -12 -3q-12 0 -21 10.5t-9 23.5zM59 30v415q0 13 11.5 21t29.5 8q16 0 27 -8t11 -21v-47q18 34 53 58t78 24h34q13 0 22.5 -11.5t9.5 -26.5t-9.5 -26t-22.5 -11h-34
q-51 0 -89 -41t-38 -106v-228q0 -11 -12.5 -20.5t-29.5 -9.5t-29 9t-12 21z" />
    <glyph glyph-name="Rcaron" unicode="&#x158;" horiz-adv-x="543" 
d="M71 30v672q0 12 8.5 20t21.5 9h183q100 0 161 -46.5t61 -153.5q0 -165 -149 -195l148 -281q4 -7 4 -14q0 -16 -16 -29.5t-34 -13.5q-21 0 -38 33l-151 293h-115v-294q0 -14 -12.5 -22t-29.5 -8t-29.5 8t-12.5 22zM140 955q0 10 6 18.5t15 8.5q8 0 14 -6l100 -84l101 84
q5 6 14 6t15 -8.5t6 -18.5q0 -17 -15 -27l-101 -83q-11 -9 -20 -9q-10 0 -19 9l-102 83q-14 10 -14 27zM155 394h129q138 0 138 131q0 130 -138 130h-129v-261z" />
    <glyph glyph-name="rcaron" unicode="&#x159;" horiz-adv-x="343" 
d="M34 704q0 10 6 18.5t15 8.5q8 0 14 -6l100 -84l101 84q5 6 14 6t15 -8.5t6 -18.5q0 -17 -15 -27l-101 -83q-11 -9 -20 -9q-10 0 -19 9l-102 83q-14 10 -14 27zM59 30v415q0 13 11.5 21t29.5 8q16 0 27 -8t11 -21v-47q18 34 53 58t78 24h34q13 0 22.5 -11.5t9.5 -26.5
t-9.5 -26t-22.5 -11h-34q-51 0 -89 -41t-38 -106v-228q0 -11 -12.5 -20.5t-29.5 -9.5t-29 9t-12 21z" />
    <glyph glyph-name="Sacute" unicode="&#x15a;" horiz-adv-x="502" 
d="M33 105q0 16 11.5 31t25.5 15q9 0 23 -12.5t29 -28t47 -28t72 -12.5q65 0 102 31.5t37 92.5q0 55 -34 89.5t-82 52.5t-96.5 38.5t-82.5 63t-34 109.5q0 52 20 90.5t53.5 58t69.5 28.5t77 9q62 0 118.5 -17.5t56.5 -48.5q0 -14 -10 -30t-26 -16q-4 0 -46 19t-93 19
q-61 0 -98.5 -25t-37.5 -79q0 -46 34 -74.5t82.5 -45.5t96.5 -39t82 -70.5t34 -123.5q0 -104 -60 -157t-159 -53q-89 0 -150.5 38t-61.5 75zM174 869q0 15 13 22l117 62q6 2 10 2q12 0 20 -10.5t8 -23.5q0 -17 -14 -24l-113 -58q-8 -4 -11 -4q-12 0 -21 10.5t-9 23.5z" />
    <glyph glyph-name="sacute" unicode="&#x15b;" horiz-adv-x="392" 
d="M30 68q0 13 8.5 25.5t20.5 12.5q8 0 23 -12t43 -23.5t66 -11.5q50 0 72.5 18t22.5 45q0 33 -25 52.5t-61 29.5t-72 22t-61 40t-25 74q0 57 40.5 98.5t123.5 41.5q53 0 97 -16.5t44 -37.5q0 -12 -9.5 -27t-23.5 -15q-4 0 -38.5 14.5t-68.5 14.5q-46 0 -68.5 -21.5
t-22.5 -48.5q0 -28 25 -44t61.5 -25t72.5 -22t61 -44.5t25 -81.5q0 -62 -44 -98t-123 -36q-68 0 -116 24.5t-48 51.5zM114 618q0 15 13 22l117 62q6 2 10 2q12 0 20 -10.5t8 -23.5q0 -17 -14 -24l-113 -58q-8 -4 -11 -4q-12 0 -21 10.5t-9 23.5z" />
    <glyph glyph-name="Scircumflex" unicode="&#x15c;" horiz-adv-x="502" 
d="M33 105q0 16 11.5 31t25.5 15q9 0 23 -12.5t29 -28t47 -28t72 -12.5q65 0 102 31.5t37 92.5q0 55 -34 89.5t-82 52.5t-96.5 38.5t-82.5 63t-34 109.5q0 52 20 90.5t53.5 58t69.5 28.5t77 9q62 0 118.5 -17.5t56.5 -48.5q0 -14 -10 -30t-26 -16q-4 0 -46 19t-93 19
q-61 0 -98.5 -25t-37.5 -79q0 -46 34 -74.5t82.5 -45.5t96.5 -39t82 -70.5t34 -123.5q0 -104 -60 -157t-159 -53q-89 0 -150.5 38t-61.5 75zM111 868q0 18 15 26l104 56q10 5 17 5q9 0 17 -5l104 -55q16 -9 16 -28q0 -11 -7 -19.5t-16 -8.5q-2 0 -6 1q-2 2 -4 2l-104 56
l-104 -56q-5 -3 -9 -3q-9 0 -16 9t-7 20z" />
    <glyph glyph-name="scircumflex" unicode="&#x15d;" horiz-adv-x="392" 
d="M30 68q0 13 8.5 25.5t20.5 12.5q8 0 23 -12t43 -23.5t66 -11.5q50 0 72.5 18t22.5 45q0 33 -25 52.5t-61 29.5t-72 22t-61 40t-25 74q0 57 40.5 98.5t123.5 41.5q53 0 97 -16.5t44 -37.5q0 -12 -9.5 -27t-23.5 -15q-4 0 -38.5 14.5t-68.5 14.5q-46 0 -68.5 -21.5
t-22.5 -48.5q0 -28 25 -44t61.5 -25t72.5 -22t61 -44.5t25 -81.5q0 -62 -44 -98t-123 -36q-68 0 -116 24.5t-48 51.5zM56 617q0 19 15 26l104 56q10 5 17 5q9 0 17 -5l104 -55q16 -9 16 -28q0 -11 -6.5 -19.5t-16.5 -8.5q-2 0 -6 1q-2 2 -4 2l-104 56l-104 -56q-4 -3 -9 -3
q-9 0 -16 9t-7 20z" />
    <glyph glyph-name="Scedilla" unicode="&#x15e;" horiz-adv-x="502" 
d="M33 105q0 16 11.5 31t25.5 15q9 0 23 -12.5t29 -28t47 -28t72 -12.5q65 0 102 31.5t37 92.5q0 55 -34 89.5t-82 52.5t-96.5 38.5t-82.5 63t-34 109.5q0 52 20 90.5t53.5 58t69.5 28.5t77 9q62 0 118.5 -17.5t56.5 -48.5q0 -14 -10 -30t-26 -16q-4 0 -46 19t-93 19
q-61 0 -98.5 -25t-37.5 -79q0 -46 34 -74.5t82.5 -45.5t96.5 -39t82 -70.5t34 -123.5q0 -91 -46.5 -143t-126.5 -64l-14 -53q48 -1 72 -22t24 -51q0 -32 -23.5 -56.5t-69.5 -24.5q-27 0 -53.5 7t-26.5 20q0 7 5 17.5t13 10.5q2 0 19.5 -7t36.5 -7q52 0 52 37q0 36 -59 41
l-43 3l21 82q-89 0 -150.5 38t-61.5 75z" />
    <glyph glyph-name="scedilla" unicode="&#x15f;" horiz-adv-x="392" 
d="M30 68q0 13 8.5 25.5t20.5 12.5q8 0 23 -12t43 -23.5t66 -11.5q50 0 72.5 18t22.5 45q0 33 -25 52.5t-61 29.5t-72 22t-61 40t-25 74q0 57 40.5 98.5t123.5 41.5q53 0 97 -16.5t44 -37.5q0 -12 -9.5 -27t-23.5 -15q-4 0 -38.5 14.5t-68.5 14.5q-46 0 -68.5 -21.5
t-22.5 -48.5q0 -28 25 -44t61.5 -25t72.5 -22t61 -44.5t25 -81.5q0 -55 -35 -90t-99 -42l-14 -52q48 -1 72 -22t24 -51q0 -32 -23.5 -56.5t-69.5 -24.5q-27 0 -53.5 7t-26.5 20q0 7 5 17.5t13 10.5q2 0 19.5 -7t36.5 -7q52 0 52 37q0 36 -59 41l-43 3l21 82
q-64 3 -107.5 26.5t-43.5 49.5z" />
    <glyph glyph-name="Scaron" unicode="&#x160;" horiz-adv-x="502" 
d="M33 105q0 16 11.5 31t25.5 15q9 0 23 -12.5t29 -28t47 -28t72 -12.5q65 0 102 31.5t37 92.5q0 55 -34 89.5t-82 52.5t-96.5 38.5t-82.5 63t-34 109.5q0 52 20 90.5t53.5 58t69.5 28.5t77 9q62 0 118.5 -17.5t56.5 -48.5q0 -14 -10 -30t-26 -16q-4 0 -46 19t-93 19
q-61 0 -98.5 -25t-37.5 -79q0 -46 34 -74.5t82.5 -45.5t96.5 -39t82 -70.5t34 -123.5q0 -104 -60 -157t-159 -53q-89 0 -150.5 38t-61.5 75zM112 955q0 10 6 18.5t15 8.5q8 0 14 -6l100 -84l101 84q5 6 14 6t15 -8.5t6 -18.5q0 -17 -15 -27l-101 -83q-11 -9 -20 -9
q-10 0 -19 9l-102 83q-14 10 -14 27z" />
    <glyph glyph-name="scaron" unicode="&#x161;" horiz-adv-x="392" 
d="M30 68q0 13 8.5 25.5t20.5 12.5q8 0 23 -12t43 -23.5t66 -11.5q50 0 72.5 18t22.5 45q0 33 -25 52.5t-61 29.5t-72 22t-61 40t-25 74q0 57 40.5 98.5t123.5 41.5q53 0 97 -16.5t44 -37.5q0 -12 -9.5 -27t-23.5 -15q-4 0 -38.5 14.5t-68.5 14.5q-46 0 -68.5 -21.5
t-22.5 -48.5q0 -28 25 -44t61.5 -25t72.5 -22t61 -44.5t25 -81.5q0 -62 -44 -98t-123 -36q-68 0 -116 24.5t-48 51.5zM58 704q0 10 6 18.5t15 8.5q8 0 14 -6l100 -84l101 84q5 6 14 6t15 -8.5t6 -18.5q0 -17 -15 -27l-101 -83q-11 -9 -20 -9q-10 0 -19 9l-102 83
q-14 10 -14 27z" />
    <glyph glyph-name="Tcommaaccent" unicode="&#x162;" horiz-adv-x="494" 
d="M13 693q0 15 8 26.5t22 11.5h407q14 0 22 -11.5t8 -26.5q0 -16 -8 -28t-22 -12h-161v-623q0 -14 -12.5 -22t-29.5 -8t-29.5 8t-12.5 22v623h-162q-14 0 -22 11.5t-8 28.5zM160 -134q0 15 13 22l117 62q8 2 10 2q12 0 20.5 -10.5t8.5 -23.5q0 -16 -14 -24l-113 -59
q-6 -3 -12 -3q-12 0 -21 10.5t-9 23.5z" />
    <glyph glyph-name="tcommaaccent" unicode="&#x163;" horiz-adv-x="310" 
d="M57 151v515q0 12 13 20.5t28 8.5q16 0 29 -8.5t13 -20.5v-192h126q11 0 18 -10t7 -23t-7 -22.5t-18 -9.5h-126v-258q0 -43 18.5 -60.5t64.5 -17.5h31q17 0 26.5 -10.5t9.5 -25.5t-10 -26t-26 -11h-31q-166 0 -166 151zM64 -134q0 15 13 22l117 62q8 2 10 2
q12 0 20.5 -10.5t8.5 -23.5q0 -16 -14 -24l-113 -59q-6 -3 -12 -3q-12 0 -21 10.5t-9 23.5z" />
    <glyph glyph-name="Tcaron" unicode="&#x164;" horiz-adv-x="494" 
d="M13 693q0 15 8 26.5t22 11.5h407q14 0 22 -11.5t8 -26.5q0 -16 -8 -28t-22 -12h-161v-623q0 -14 -12.5 -22t-29.5 -8t-29.5 8t-12.5 22v623h-162q-14 0 -22 11.5t-8 28.5zM110 955q0 10 6 18.5t15 8.5q8 0 14 -6l100 -84l101 84q5 6 14 6t15 -8.5t6 -18.5q0 -17 -15 -27
l-101 -83q-11 -9 -20 -9q-10 0 -19 9l-102 83q-14 10 -14 27z" />
    <glyph glyph-name="tcaron" unicode="&#x165;" horiz-adv-x="310" 
d="M57 151v515q0 12 13 20.5t28 8.5q16 0 29 -8.5t13 -20.5v-192h126q11 0 18 -10t7 -23t-7 -22.5t-18 -9.5h-126v-258q0 -43 18.5 -60.5t64.5 -17.5h31q17 0 26.5 -10.5t9.5 -25.5t-10 -26t-26 -11h-31q-166 0 -166 151zM198 700q0 21 15 36.5t37 15.5q21 0 36.5 -15.5
t15.5 -36.5t-45 -122q-6 -13 -20 -13q-11 0 -20.5 6.5t-9.5 17.5q0 4 2 10l21 52q-32 13 -32 49z" />
    <glyph glyph-name="Tbar" unicode="&#x166;" horiz-adv-x="496" 
d="M14 693q0 15 8 26.5t22 11.5h407q14 0 22 -11.5t8 -26.5q0 -16 -8 -28t-22 -12h-161v-255h115q12 0 19 -9.5t7 -22.5q0 -14 -7 -24t-19 -10h-115v-302q0 -14 -12.5 -22t-29.5 -8t-29.5 8t-12.5 22v302h-116q-12 0 -19 9.5t-7 23.5q0 13 7 23t19 10h116v255h-162
q-14 0 -22 11.5t-8 28.5z" />
    <glyph glyph-name="tbar" unicode="&#x167;" horiz-adv-x="313" 
d="M57 151v515q0 12 13 20.5t28 8.5q16 0 29 -8.5t13 -20.5v-192h126q11 0 18 -10t7 -23t-7 -22.5t-18 -9.5h-126v-94h126q11 0 18 -10t7 -23t-7 -22.5t-18 -9.5h-126v-99q0 -43 18.5 -60.5t64.5 -17.5h31q17 0 26.5 -10.5t9.5 -25.5t-10 -26t-26 -11h-31q-166 0 -166 151z
" />
    <glyph glyph-name="Utilde" unicode="&#x168;" horiz-adv-x="573" 
d="M68 212v490q0 14 12.5 21.5t29.5 7.5t29.5 -7.5t12.5 -21.5v-490q0 -142 134 -142q65 0 100 35.5t35 106.5v490q0 29 42 29q17 0 29.5 -7.5t12.5 -21.5v-490q0 -113 -60 -165.5t-159 -52.5t-158.5 52.5t-59.5 165.5zM124 887q0 29 29.5 45t57.5 16q27 0 68 -16.5
t67 -16.5q25 0 46 13.5t27 13.5q11 0 17.5 -9.5t6.5 -18.5q0 -31 -28 -45.5t-56 -14.5q-30 0 -70 16.5t-66 16.5q-25 0 -47.5 -14.5t-28.5 -14.5q-11 0 -17 9.5t-6 19.5z" />
    <glyph glyph-name="utilde" unicode="&#x169;" 
d="M55 184v260q0 12 12.5 21t29.5 9q16 0 28.5 -9.5t12.5 -20.5v-260q0 -45 34 -81t81 -36q46 0 80 35.5t34 81.5v261q0 11 12.5 20t29.5 9q18 0 29.5 -8.5t11.5 -20.5v-261q0 -77 -58.5 -134.5t-138.5 -57.5q-81 0 -139.5 57.5t-58.5 134.5zM93 636q0 29 29.5 45t57.5 16
q27 0 68 -16.5t67 -16.5q25 0 46 13.5t27 13.5q11 0 17.5 -9.5t6.5 -18.5q0 -31 -28 -45.5t-56 -14.5q-30 0 -70 16.5t-66 16.5q-25 0 -47.5 -14.5t-28.5 -14.5q-11 0 -17 9.5t-6 19.5z" />
    <glyph glyph-name="Umacron" unicode="&#x16a;" horiz-adv-x="573" 
d="M68 212v490q0 14 12.5 21.5t29.5 7.5t29.5 -7.5t12.5 -21.5v-490q0 -142 134 -142q65 0 100 35.5t35 106.5v490q0 29 42 29q17 0 29.5 -7.5t12.5 -21.5v-490q0 -113 -60 -165.5t-159 -52.5t-158.5 52.5t-59.5 165.5zM150 909q0 13 8 22t21 9h212q11 0 20.5 -9t9.5 -22
t-9 -21.5t-21 -8.5h-212q-13 0 -21 8.5t-8 21.5z" />
    <glyph glyph-name="umacron" unicode="&#x16b;" 
d="M55 184v260q0 12 12.5 21t29.5 9q16 0 28.5 -9.5t12.5 -20.5v-260q0 -45 34 -81t81 -36q46 0 80 35.5t34 81.5v261q0 11 12.5 20t29.5 9q18 0 29.5 -8.5t11.5 -20.5v-261q0 -77 -58.5 -134.5t-138.5 -57.5q-81 0 -139.5 57.5t-58.5 134.5zM118 658q0 13 8 22t21 9h212
q11 0 20.5 -9.5t9.5 -21.5q0 -13 -9 -21.5t-21 -8.5h-212q-13 0 -21 8.5t-8 21.5z" />
    <glyph glyph-name="Ubreve" unicode="&#x16c;" horiz-adv-x="573" 
d="M68 212v490q0 14 12.5 21.5t29.5 7.5t29.5 -7.5t12.5 -21.5v-490q0 -142 134 -142q65 0 100 35.5t35 106.5v490q0 29 42 29q17 0 29.5 -7.5t12.5 -21.5v-490q0 -113 -60 -165.5t-159 -52.5t-158.5 52.5t-59.5 165.5zM163 967h51q0 -33 21 -56t49 -23t49 23t21 56h51
q0 -48 -36.5 -84.5t-84.5 -36.5t-84.5 36.5t-36.5 84.5z" />
    <glyph glyph-name="ubreve" unicode="&#x16d;" 
d="M55 184v260q0 12 12.5 21t29.5 9q16 0 28.5 -9.5t12.5 -20.5v-260q0 -45 34 -81t81 -36q46 0 80 35.5t34 81.5v261q0 11 12.5 20t29.5 9q18 0 29.5 -8.5t11.5 -20.5v-261q0 -77 -58.5 -134.5t-138.5 -57.5q-81 0 -139.5 57.5t-58.5 134.5zM131 716h51q0 -33 21 -56
t49 -23t49 23t21 56h51q0 -48 -36.5 -84.5t-84.5 -36.5t-84.5 36.5t-36.5 84.5z" />
    <glyph glyph-name="Uring" unicode="&#x16e;" horiz-adv-x="573" 
d="M68 212v490q0 14 12.5 21.5t29.5 7.5t29.5 -7.5t12.5 -21.5v-490q0 -142 134 -142q65 0 100 35.5t35 106.5v490q0 29 42 29q17 0 29.5 -7.5t12.5 -21.5v-490q0 -113 -60 -165.5t-159 -52.5t-158.5 52.5t-59.5 165.5zM192 924q0 38 27.5 66.5t66.5 28.5q37 0 65.5 -29
t28.5 -66q0 -38 -28.5 -67.5t-65.5 -29.5q-39 0 -66.5 29t-27.5 68zM230 924q0 -22 16.5 -40.5t39.5 -18.5q22 0 38.5 18.5t16.5 40.5q0 21 -16.5 38t-38.5 17q-23 0 -39.5 -17.5t-16.5 -37.5z" />
    <glyph glyph-name="uring" unicode="&#x16f;" 
d="M55 184v260q0 12 12.5 21t29.5 9q16 0 28.5 -9.5t12.5 -20.5v-260q0 -45 34 -81t81 -36q46 0 80 35.5t34 81.5v261q0 11 12.5 20t29.5 9q18 0 29.5 -8.5t11.5 -20.5v-261q0 -77 -58.5 -134.5t-138.5 -57.5q-81 0 -139.5 57.5t-58.5 134.5zM158 673q0 38 27.5 66.5
t66.5 28.5q37 0 65.5 -29t28.5 -66q0 -38 -28.5 -67.5t-65.5 -29.5q-39 0 -66.5 29t-27.5 68zM196 673q0 -22 16.5 -40.5t39.5 -18.5q22 0 38.5 18.5t16.5 40.5q0 21 -16.5 38t-38.5 17q-23 0 -39.5 -17.5t-16.5 -37.5z" />
    <glyph glyph-name="Uhungarumlaut" unicode="&#x170;" horiz-adv-x="573" 
d="M68 212v490q0 14 12.5 21.5t29.5 7.5t29.5 -7.5t12.5 -21.5v-490q0 -142 134 -142q65 0 100 35.5t35 106.5v490q0 29 42 29q17 0 29.5 -7.5t12.5 -21.5v-490q0 -113 -60 -165.5t-159 -52.5t-158.5 52.5t-59.5 165.5zM179 862q0 10 8 15l92 74q5 5 13 5q11 0 19.5 -9
t8.5 -19q0 -11 -9 -17l-88 -71q-7 -6 -14 -6q-11 0 -20.5 9t-9.5 19zM331 862q0 10 8 15l93 74q4 5 13 5q10 0 18.5 -9t8.5 -19q0 -11 -9 -17l-88 -71q-6 -6 -14 -6q-11 0 -20.5 9t-9.5 19z" />
    <glyph glyph-name="uhungarumlaut" unicode="&#x171;" 
d="M55 184v260q0 12 12.5 21t29.5 9q16 0 28.5 -9.5t12.5 -20.5v-260q0 -45 34 -81t81 -36q46 0 80 35.5t34 81.5v261q0 11 12.5 20t29.5 9q18 0 29.5 -8.5t11.5 -20.5v-261q0 -77 -58.5 -134.5t-138.5 -57.5q-81 0 -139.5 57.5t-58.5 134.5zM139 611q0 10 8 15l92 74
q5 5 13 5q11 0 19.5 -9t8.5 -19q0 -11 -9 -17l-88 -71q-7 -6 -14 -6q-11 0 -20.5 8.5t-9.5 19.5zM291 611q0 10 8 15l93 74q4 5 13 5q10 0 18.5 -9t8.5 -19q0 -11 -9 -17l-88 -71q-6 -6 -14 -6q-11 0 -20.5 8.5t-9.5 19.5z" />
    <glyph glyph-name="Uogonek" unicode="&#x172;" horiz-adv-x="573" 
d="M68 212v490q0 14 12.5 21.5t29.5 7.5t29.5 -7.5t12.5 -21.5v-490q0 -142 134 -142q65 0 100 35.5t35 106.5v490q0 29 42 29q17 0 29.5 -7.5t12.5 -21.5v-490q0 -169 -138 -208q-73 -57 -73 -122q0 -45 61 -45q20 0 20 -22q0 -19 -26 -19q-45 0 -73.5 20t-28.5 59
q0 64 54 120q-3 0 -8 -0.5t-7 -0.5q-99 0 -158.5 52.5t-59.5 165.5z" />
    <glyph glyph-name="uogonek" unicode="&#x173;" 
d="M55 184v260q0 12 12.5 21t29.5 9q16 0 28.5 -9.5t12.5 -20.5v-260q0 -45 34 -81t81 -36q46 0 80 35.5t34 81.5v261q0 11 12.5 20t29.5 9q18 0 29.5 -8.5t11.5 -20.5v-261q0 -60 -38 -111t-96 -71q-71 -57 -71 -120q0 -45 61 -45q20 0 20 -22q0 -19 -26 -19
q-45 0 -73.5 20t-28.5 59q0 63 51 117q-80 1 -137 58.5t-57 133.5z" />
    <glyph glyph-name="Wcircumflex" unicode="&#x174;" horiz-adv-x="813" 
d="M17 697q0 14 16.5 24t34.5 10q25 0 31 -19l169 -594l95 366q7 26 44 26q35 0 42 -26l96 -366l168 594q6 19 32 19q18 0 34 -10t16 -24q0 -6 -1 -9l-197 -665q-9 -29 -52 -29q-45 0 -52 29l-86 330l-87 -330q-8 -29 -51 -29t-52 29l-198 665q-2 6 -2 9zM270 868
q0 18 15 26l104 56q10 5 17 5q9 0 17 -5l104 -55q16 -9 16 -28q0 -11 -6.5 -19.5t-16.5 -8.5q-2 0 -6 1q-2 2 -4 2l-104 56l-104 -56q-4 -3 -9 -3q-9 0 -16 9t-7 20z" />
    <glyph glyph-name="wcircumflex" unicode="&#x175;" horiz-adv-x="675" 
d="M14 440q0 15 16.5 25.5t34.5 10.5q21 0 27 -16l121 -336l94 303q7 20 31 20q25 0 32 -20l92 -306l122 339q5 16 26 16q18 0 35 -10.5t17 -25.5q0 -8 -4 -16l-156 -415q-7 -18 -33 -18q-27 0 -34 18l-97 294l-95 -291q-7 -21 -36 -21q-26 0 -34 21l-155 412q-4 12 -4 16z
M201 617q0 19 15 26l104 56q10 5 17 5q9 0 17 -5l104 -55q16 -9 16 -28q0 -11 -7 -19.5t-16 -8.5q-2 0 -6 1q-2 2 -4 2l-104 56l-104 -56q-5 -3 -9 -3q-9 0 -16 9t-7 20z" />
    <glyph glyph-name="Ycircumflex" unicode="&#x176;" horiz-adv-x="545" 
d="M17 696q0 15 16.5 25t33.5 10q18 0 30 -22l176 -343l175 343q12 22 30 22t34 -10t16 -25q0 -8 -4 -17l-207 -386q-2 -3 -2 -10v-253q0 -14 -12.5 -22t-29.5 -8t-29.5 8t-12.5 22v253q0 5 -3 10l-207 386q-4 9 -4 17zM136 868q0 18 15 26l104 56q10 5 17 5q9 0 17 -5
l104 -55q16 -9 16 -28q0 -11 -6.5 -19.5t-16.5 -8.5q-2 0 -6 1q-2 2 -4 2l-104 56l-104 -56q-4 -3 -9 -3q-9 0 -16 9t-7 20z" />
    <glyph glyph-name="ycircumflex" unicode="&#x177;" horiz-adv-x="437" 
d="M12 440q0 16 18 28t36 12q21 0 27 -17l132 -348l119 348q7 17 26 17q17 0 35.5 -12t18.5 -29q0 -5 -3 -10l-152 -407l-19 -50q-5 -14 -20 -48t-25 -49t-28 -39.5t-35 -35.5t-40.5 -20t-49.5 -9q-39 0 -39 37q0 36 24 36q45 0 87.5 50.5t57.5 129.5l-166 405q-4 6 -4 11z
M88 617q0 19 15 26l104 56q10 5 17 5q9 0 17 -5l104 -55q16 -9 16 -28q0 -11 -6.5 -19.5t-16.5 -8.5q-2 0 -6 1q-2 2 -4 2l-104 56l-104 -56q-4 -3 -9 -3q-9 0 -16 9t-7 20z" />
    <glyph glyph-name="Ydieresis" unicode="&#x178;" horiz-adv-x="545" 
d="M17 696q0 15 16.5 25t33.5 10q18 0 30 -22l176 -343l175 343q12 22 30 22t34 -10t16 -25q0 -8 -4 -17l-207 -386q-2 -3 -2 -10v-253q0 -14 -12.5 -22t-29.5 -8t-29.5 8t-12.5 22v253q0 5 -3 10l-207 386q-4 9 -4 17zM167 881q0 17 12 29t29 12t28.5 -12t11.5 -29
t-12 -29.5t-28 -12.5q-17 0 -29 12.5t-12 29.5zM298 881q0 17 11.5 29t28.5 12t28.5 -12t11.5 -29t-11.5 -29.5t-28.5 -12.5t-28.5 12.5t-11.5 29.5z" />
    <glyph glyph-name="Zacute" unicode="&#x179;" horiz-adv-x="495" 
d="M21 27q0 13 8 29l323 599h-288q-14 0 -21.5 11t-7.5 27t7.5 27t21.5 11h368q29 0 29 -25q0 -14 -10 -32l-322 -598h316q13 0 21.5 -11.5t8.5 -26.5t-8.5 -26.5t-21.5 -11.5h-395q-29 0 -29 27zM171 869q0 15 13 22l117 62q6 2 10 2q12 0 20 -10.5t8 -23.5q0 -17 -14 -24
l-113 -58q-8 -4 -11 -4q-12 0 -21 10.5t-9 23.5z" />
    <glyph glyph-name="zacute" unicode="&#x17a;" horiz-adv-x="411" 
d="M23 31q0 16 13 33l231 339h-207q-11 0 -19.5 10.5t-8.5 24.5q0 15 8 25.5t20 10.5h286q12 0 21 -9t9 -23q0 -17 -12 -32l-232 -339h229q11 0 19.5 -10.5t8.5 -25.5t-8 -25t-20 -10h-307q-15 0 -23 9.5t-8 21.5zM137 618q0 15 13 22l117 62q6 2 10 2q12 0 20 -10.5
t8 -23.5q0 -17 -14 -24l-113 -58q-8 -4 -11 -4q-12 0 -21 10.5t-9 23.5z" />
    <glyph glyph-name="Zdotaccent" unicode="&#x17b;" horiz-adv-x="495" 
d="M21 27q0 13 8 29l323 599h-288q-14 0 -21.5 11t-7.5 27t7.5 27t21.5 11h368q29 0 29 -25q0 -14 -10 -32l-322 -598h316q13 0 21.5 -11.5t8.5 -26.5t-8.5 -26.5t-21.5 -11.5h-395q-29 0 -29 27zM207 881q0 17 12 29t29 12t28.5 -12t11.5 -29t-12 -29.5t-28 -12.5
q-17 0 -29 12.5t-12 29.5z" />
    <glyph glyph-name="zdotaccent" unicode="&#x17c;" horiz-adv-x="411" 
d="M23 31q0 16 13 33l231 339h-207q-11 0 -19.5 10.5t-8.5 24.5q0 15 8 25.5t20 10.5h286q12 0 21 -9t9 -23q0 -17 -12 -32l-232 -339h229q11 0 19.5 -10.5t8.5 -25.5t-8 -25t-20 -10h-307q-15 0 -23 9.5t-8 21.5zM163 630q0 17 12 29t29 12t28.5 -12t11.5 -29t-12 -29.5
t-28 -12.5q-17 0 -29 12.5t-12 29.5z" />
    <glyph glyph-name="Zcaron" unicode="&#x17d;" horiz-adv-x="495" 
d="M21 27q0 13 8 29l323 599h-288q-14 0 -21.5 11t-7.5 27t7.5 27t21.5 11h368q29 0 29 -25q0 -14 -10 -32l-322 -598h316q13 0 21.5 -11.5t8.5 -26.5t-8.5 -26.5t-21.5 -11.5h-395q-29 0 -29 27zM108 955q0 10 6 18.5t15 8.5q8 0 14 -6l100 -84l101 84q5 6 14 6t15 -8.5
t6 -18.5q0 -17 -15 -27l-101 -83q-11 -9 -20 -9q-10 0 -19 9l-102 83q-14 10 -14 27z" />
    <glyph glyph-name="zcaron" unicode="&#x17e;" horiz-adv-x="411" 
d="M23 31q0 16 13 33l231 339h-207q-11 0 -19.5 10.5t-8.5 24.5q0 15 8 25.5t20 10.5h286q12 0 21 -9t9 -23q0 -17 -12 -32l-232 -339h229q11 0 19.5 -10.5t8.5 -25.5t-8 -25t-20 -10h-307q-15 0 -23 9.5t-8 21.5zM68 704q0 10 6 18.5t15 8.5q8 0 14 -6l100 -84l101 84
q5 6 14 6t15 -8.5t6 -18.5q0 -17 -15 -27l-101 -83q-11 -9 -20 -9q-10 0 -19 9l-102 83q-14 10 -14 27z" />
    <glyph glyph-name="florin" unicode="&#x192;" horiz-adv-x="357" 
d="M-74 -100q0 17 9.5 29.5t23.5 12.5h21q51 0 68 122l71 514q10 78 72.5 134t139.5 56h29q12 0 19.5 -10.5t7.5 -25.5q0 -17 -9.5 -28t-22.5 -11h-27q-48 0 -83 -33.5t-43 -81.5l-22 -154h138q11 0 18 -9t7 -22q0 -14 -8 -24t-20 -10h-144l-41 -295q-13 -89 -50 -145
t-104 -56h-22q-13 0 -20.5 11t-7.5 26z" />
    <glyph glyph-name="AEacute" unicode="&#x1fc;" horiz-adv-x="735" 
d="M68 35v478q0 113 58 165.5t154 52.5h404q14 0 21.5 -11t7.5 -26q0 -17 -7.5 -28t-21.5 -11h-233v-254h140q13 0 21 -10.5t8 -25.5q0 -13 -7.5 -23.5t-21.5 -10.5h-140v-255h233q14 0 21.5 -11t7.5 -28q0 -15 -7.5 -26t-21.5 -11h-279q-15 0 -26.5 8t-11.5 22v301h-219
v-296q0 -18 -8 -26.5t-34 -8.5q-38 0 -38 35zM148 401h219v254h-87q-63 0 -97.5 -35.5t-34.5 -106.5v-112zM321 867q0 15 13 22l117 62q6 2 10 2q12 0 20 -10.5t8 -23.5q0 -17 -14 -24l-113 -58q-8 -4 -11 -4q-12 0 -21 10.5t-9 23.5z" />
    <glyph glyph-name="aeacute" unicode="&#x1fd;" horiz-adv-x="733" 
d="M28 124q0 79 59.5 109.5t172.5 30.5h48v22q0 51 -27 87.5t-84 36.5q-40 0 -72.5 -15t-35.5 -15q-13 0 -22 13.5t-9 29.5q0 22 46 39.5t97 17.5q108 0 154 -89q26 40 66 64.5t87 24.5q76 0 134.5 -50.5t58.5 -142.5q0 -46 -20 -60t-69 -14h-218v-30q0 -55 39 -88t101 -33
q43 0 79.5 19.5t42.5 19.5q13 0 23 -12.5t10 -25.5q0 -25 -51.5 -48t-112.5 -23q-57 0 -105 26.5t-75 73.5q-31 -49 -77.5 -74.5t-94.5 -25.5q-62 0 -103.5 34t-41.5 98zM112 132q0 -35 21 -54t55 -19q46 0 83 33.5t37 68.5v52h-34q-38 0 -63 -2.5t-50 -10.5t-37 -25
t-12 -43zM288 618q0 15 13 22l117 62q6 2 10 2q12 0 20 -10.5t8 -23.5q0 -17 -14 -24l-113 -58q-8 -4 -11 -4q-12 0 -21 10.5t-9 23.5zM394 269h183q28 0 36.5 6.5t8.5 24.5q0 47 -33 80.5t-82 33.5q-47 0 -80 -31.5t-33 -77.5v-36z" />
    <glyph glyph-name="Oslashacute" unicode="&#x1fe;" horiz-adv-x="559" 
d="M62 0q0 9 3 13l32 64q-33 52 -33 135v301q0 113 58.5 165.5t156.5 52.5q77 0 132 -34l29 58q8 15 24 15q13 0 24 -9.5t11 -23.5q0 -7 -4 -14l-36 -72q36 -52 36 -138v-301q0 -113 -59 -165.5t-157 -52.5q-83 0 -135 35l-22 -43q-7 -16 -28 -16q-14 0 -23 9t-9 21z
M148 212q0 -13 2 -31l223 442q-34 32 -94 32q-131 0 -131 -142v-301zM182 105q32 -35 97 -35q63 0 97.5 35.5t34.5 106.5v301q0 20 -3 38zM205 869q0 15 13 22l117 62q6 2 10 2q12 0 20 -10.5t8 -23.5q0 -17 -14 -24l-113 -58q-8 -4 -11 -4q-12 0 -21 10.5t-9 23.5z" />
    <glyph glyph-name="oslashacute" unicode="&#x1ff;" horiz-adv-x="477" 
d="M41 186v102q0 77 58.5 134.5t138.5 57.5q54 0 102 -29l29 48q6 10 17 10q9 0 16.5 -7t7.5 -17q0 -7 -5 -15l-29 -46q60 -57 60 -136v-102q0 -76 -59.5 -135t-138.5 -59q-58 0 -107 33l-29 -47q-6 -10 -17 -10q-8 0 -15 6t-7 15q0 5 4 13l31 50q-57 59 -57 134zM124 186
q0 -33 17 -62l159 261q-30 20 -62 20q-47 0 -80.5 -36t-33.5 -81v-102zM171 90q31 -23 67 -23q47 0 81 36.5t34 82.5v102q0 33 -21 64zM173 618q0 15 13 22l117 62q6 2 10 2q12 0 20 -10.5t8 -23.5q0 -17 -14 -24l-113 -58q-8 -4 -11 -4q-12 0 -21 10.5t-9 23.5z" />
    <glyph glyph-name="Scommaaccent" unicode="&#x218;" horiz-adv-x="502" 
d="M33 105q0 16 11.5 31t25.5 15q9 0 23 -12.5t29 -28t47 -28t72 -12.5q65 0 102 31.5t37 92.5q0 55 -34 89.5t-82 52.5t-96.5 38.5t-82.5 63t-34 109.5q0 52 20 90.5t53.5 58t69.5 28.5t77 9q62 0 118.5 -17.5t56.5 -48.5q0 -14 -10 -30t-26 -16q-4 0 -46 19t-93 19
q-61 0 -98.5 -25t-37.5 -79q0 -46 34 -74.5t82.5 -45.5t96.5 -39t82 -70.5t34 -123.5q0 -104 -60 -157t-159 -53q-89 0 -150.5 38t-61.5 75zM177 -134q0 15 13 22l117 62q8 2 10 2q12 0 20.5 -10.5t8.5 -23.5q0 -16 -14 -24l-113 -59q-6 -3 -12 -3q-12 0 -21 10.5t-9 23.5z
" />
    <glyph glyph-name="scommaaccent" unicode="&#x219;" horiz-adv-x="392" 
d="M30 68q0 13 8.5 25.5t20.5 12.5q8 0 23 -12t43 -23.5t66 -11.5q50 0 72.5 18t22.5 45q0 33 -25 52.5t-61 29.5t-72 22t-61 40t-25 74q0 57 40.5 98.5t123.5 41.5q53 0 97 -16.5t44 -37.5q0 -12 -9.5 -27t-23.5 -15q-4 0 -38.5 14.5t-68.5 14.5q-46 0 -68.5 -21.5
t-22.5 -48.5q0 -28 25 -44t61.5 -25t72.5 -22t61 -44.5t25 -81.5q0 -62 -44 -98t-123 -36q-68 0 -116 24.5t-48 51.5zM114 -134q0 15 13 22l117 62q8 2 10 2q12 0 20.5 -10.5t8.5 -23.5q0 -16 -14 -24l-113 -59q-6 -3 -12 -3q-12 0 -21 10.5t-9 23.5z" />
    <glyph glyph-name="uni0237" unicode="&#x237;" horiz-adv-x="203" 
d="M-37 -193q0 16 10 26.5t24 10.5q39 0 51 29t12 87v485q0 13 11.5 21t29.5 8t30 -8t12 -21v-485q0 -87 -34 -138t-103 -51q-43 0 -43 36z" />
    <glyph glyph-name="uni0259" unicode="&#x259;" horiz-adv-x="464" 
d="M32 176q0 29 7 46.5t21.5 25t27 9.5t33.5 2h219v30q0 55 -39.5 88t-102.5 33q-33 0 -57.5 -10t-39.5 -19.5t-24 -9.5q-14 0 -24 12.5t-10 25.5q0 23 45.5 47t112.5 24q98 0 160 -53.5t62 -140.5v-105q0 -77 -58.5 -133t-140.5 -56q-78 0 -135 52.5t-57 131.5zM111 171
q0 -45 33 -79t81 -34q47 0 81 31.5t34 77.5v36h-185q-26 0 -35 -6.5t-9 -25.5z" />
    <glyph glyph-name="circumflex" unicode="&#x2c6;" horiz-adv-x="273" 
d="M0 617q0 19 15 26l104 56q10 5 17 5q9 0 17 -5l104 -55q16 -9 16 -28q0 -11 -6.5 -19.5t-16.5 -8.5q-2 0 -6 1q-2 2 -4 2l-104 56l-104 -56q-4 -3 -9 -3q-9 0 -16 9t-7 20z" />
    <glyph glyph-name="caron" unicode="&#x2c7;" horiz-adv-x="285" 
d="M7 704q0 10 6 18.5t15 8.5q8 0 14 -6l100 -84l101 84q5 6 14 6t15 -8.5t6 -18.5q0 -17 -15 -27l-101 -83q-10 -9 -20 -9t-19 9l-102 83q-14 10 -14 27z" />
    <glyph glyph-name="breve" unicode="&#x2d8;" horiz-adv-x="242" 
d="M0 716h51q0 -33 21 -56t49 -23t49 23t21 56h51q0 -48 -36.5 -84.5t-84.5 -36.5t-84.5 36.5t-36.5 84.5z" />
    <glyph glyph-name="dotaccent" unicode="&#x2d9;" horiz-adv-x="199" 
d="M64 630q0 17 12 29t29 12t28.5 -12t11.5 -29t-12 -29.5t-28 -12.5q-17 0 -29 12.5t-12 29.5z" />
    <glyph glyph-name="ring" unicode="&#x2da;" horiz-adv-x="188" 
d="M0 673q0 38 27.5 66.5t66.5 28.5q37 0 65.5 -29t28.5 -66q0 -38 -28.5 -67.5t-65.5 -29.5q-39 0 -66.5 29t-27.5 68zM38 673q0 -22 16.5 -40.5t39.5 -18.5q22 0 38.5 18.5t16.5 40.5q0 21 -16.5 38t-38.5 17q-23 0 -39.5 -17.5t-16.5 -37.5z" />
    <glyph glyph-name="ogonek" unicode="&#x2db;" horiz-adv-x="128" 
d="M0 -125q0 82 85 147l36 -17q-74 -60 -74 -123q0 -45 61 -45q20 0 20 -22q0 -19 -26 -19q-45 0 -73.5 20t-28.5 59z" />
    <glyph glyph-name="tilde" unicode="&#x2dc;" horiz-adv-x="319" 
d="M0 636q0 29 29.5 45t57.5 16q27 0 68 -16.5t67 -16.5q25 0 46 13.5t27 13.5q11 0 17.5 -9.5t6.5 -18.5q0 -31 -28 -45.5t-56 -14.5q-30 0 -70 16.5t-66 16.5q-25 0 -47.5 -14.5t-28.5 -14.5q-11 0 -17 9.5t-6 19.5z" />
    <glyph glyph-name="hungarumlaut" unicode="&#x2dd;" horiz-adv-x="293" 
d="M0 611q0 10 8 15l92 74q5 5 13 5q11 0 19.5 -9t8.5 -19q0 -11 -9 -17l-88 -71q-8 -6 -14 -6q-11 0 -20.5 8.5t-9.5 19.5zM152 611q0 10 8 15l93 74q4 5 13 5q10 0 18.5 -9t8.5 -19q0 -11 -9 -17l-88 -71q-6 -6 -14 -6q-11 0 -20.5 8.5t-9.5 19.5z" />
    <glyph glyph-name="pi" unicode="&#x3c0;" 
d="M59 29v415q0 14 11.5 22t26.5 8h311q15 0 26.5 -8t11.5 -22v-415q0 -14 -12.5 -21.5t-29.5 -7.5t-29.5 7.5t-12.5 21.5v369h-219v-369q0 -14 -12.5 -21.5t-29.5 -7.5t-29.5 7.5t-12.5 21.5z" />
    <glyph glyph-name="Wgrave" unicode="&#x1e80;" horiz-adv-x="813" 
d="M17 697q0 14 16.5 24t34.5 10q25 0 31 -19l169 -594l95 366q7 26 44 26q35 0 42 -26l96 -366l168 594q6 19 32 19q18 0 34 -10t16 -24q0 -6 -1 -9l-197 -665q-9 -29 -52 -29q-45 0 -52 29l-86 330l-87 -330q-8 -29 -51 -29t-52 29l-198 665q-2 6 -2 9zM314 921
q0 13 8 23.5t20 10.5q4 0 10 -2l117 -62q13 -7 13 -22q0 -13 -9 -23.5t-21 -10.5q-3 0 -11 4l-113 58q-14 7 -14 24z" />
    <glyph glyph-name="wgrave" unicode="&#x1e81;" horiz-adv-x="675" 
d="M14 440q0 15 16.5 25.5t34.5 10.5q21 0 27 -16l121 -336l94 303q7 20 31 20q25 0 32 -20l92 -306l122 339q5 16 26 16q18 0 35 -10.5t17 -25.5q0 -8 -4 -16l-156 -415q-7 -18 -33 -18q-27 0 -34 18l-97 294l-95 -291q-7 -21 -36 -21q-26 0 -34 21l-155 412q-4 12 -4 16z
M241 670q0 13 8 23.5t20 10.5q4 0 10 -2l117 -62q13 -6 13 -22q0 -13 -9 -23.5t-21 -10.5q-3 0 -11 4l-113 58q-14 7 -14 24z" />
    <glyph glyph-name="Wacute" unicode="&#x1e82;" horiz-adv-x="813" 
d="M17 697q0 14 16.5 24t34.5 10q25 0 31 -19l169 -594l95 366q7 26 44 26q35 0 42 -26l96 -366l168 594q6 19 32 19q18 0 34 -10t16 -24q0 -6 -1 -9l-197 -665q-9 -29 -52 -29q-45 0 -52 29l-86 330l-87 -330q-8 -29 -51 -29t-52 29l-198 665q-2 6 -2 9zM330 869
q0 15 13 22l117 62q6 2 10 2q12 0 20 -10.5t8 -23.5q0 -17 -14 -24l-113 -58q-8 -4 -11 -4q-12 0 -21 10.5t-9 23.5z" />
    <glyph glyph-name="wacute" unicode="&#x1e83;" horiz-adv-x="675" 
d="M14 440q0 15 16.5 25.5t34.5 10.5q21 0 27 -16l121 -336l94 303q7 20 31 20q25 0 32 -20l92 -306l122 339q5 16 26 16q18 0 35 -10.5t17 -25.5q0 -8 -4 -16l-156 -415q-7 -18 -33 -18q-27 0 -34 18l-97 294l-95 -291q-7 -21 -36 -21q-26 0 -34 21l-155 412q-4 12 -4 16z
M265 618q0 15 13 22l117 62q6 2 10 2q12 0 20 -10.5t8 -23.5q0 -17 -14 -24l-113 -58q-8 -4 -11 -4q-12 0 -21 10.5t-9 23.5z" />
    <glyph glyph-name="Wdieresis" unicode="&#x1e84;" horiz-adv-x="813" 
d="M17 697q0 14 16.5 24t34.5 10q25 0 31 -19l169 -594l95 366q7 26 44 26q35 0 42 -26l96 -366l168 594q6 19 32 19q18 0 34 -10t16 -24q0 -6 -1 -9l-197 -665q-9 -29 -52 -29q-45 0 -52 29l-86 330l-87 -330q-8 -29 -51 -29t-52 29l-198 665q-2 6 -2 9zM301 881
q0 17 12 29t29 12t28.5 -12t11.5 -29t-12 -29.5t-28 -12.5q-17 0 -29 12.5t-12 29.5zM432 881q0 17 11.5 29t28.5 12t28.5 -12t11.5 -29t-11.5 -29.5t-28.5 -12.5t-28.5 12.5t-11.5 29.5z" />
    <glyph glyph-name="wdieresis" unicode="&#x1e85;" horiz-adv-x="675" 
d="M14 440q0 15 16.5 25.5t34.5 10.5q21 0 27 -16l121 -336l94 303q7 20 31 20q25 0 32 -20l92 -306l122 339q5 16 26 16q18 0 35 -10.5t17 -25.5q0 -8 -4 -16l-156 -415q-7 -18 -33 -18q-27 0 -34 18l-97 294l-95 -291q-7 -21 -36 -21q-26 0 -34 21l-155 412q-4 12 -4 16z
M232 630q0 17 12 29t29 12t28.5 -12t11.5 -29t-12 -29.5t-28 -12.5q-17 0 -29 12.5t-12 29.5zM363 630q0 17 11.5 29t28.5 12t28.5 -12t11.5 -29t-11.5 -29.5t-28.5 -12.5t-28.5 12.5t-11.5 29.5z" />
    <glyph glyph-name="Ygrave" unicode="&#x1ef2;" horiz-adv-x="545" 
d="M17 696q0 15 16.5 25t33.5 10q18 0 30 -22l176 -343l175 343q12 22 30 22t34 -10t16 -25q0 -8 -4 -17l-207 -386q-2 -3 -2 -10v-253q0 -14 -12.5 -22t-29.5 -8t-29.5 8t-12.5 22v253q0 5 -3 10l-207 386q-4 9 -4 17zM181 921q0 13 8 23.5t20 10.5q4 0 10 -2l117 -62
q13 -7 13 -22q0 -13 -9 -23.5t-21 -10.5q-3 0 -11 4l-113 58q-14 7 -14 24z" />
    <glyph glyph-name="ygrave" unicode="&#x1ef3;" horiz-adv-x="437" 
d="M12 440q0 16 18 28t36 12q21 0 27 -17l132 -348l119 348q7 17 26 17q17 0 35.5 -12t18.5 -29q0 -5 -3 -10l-152 -407l-19 -50q-5 -14 -20 -48t-25 -49t-28 -39.5t-35 -35.5t-40.5 -20t-49.5 -9q-39 0 -39 37q0 36 24 36q45 0 87.5 50.5t57.5 129.5l-166 405q-4 6 -4 11z
M122 670q0 13 8 23.5t20 10.5q4 0 10 -2l117 -62q13 -6 13 -22q0 -13 -9 -23.5t-21 -10.5q-3 0 -11 4l-113 58q-14 7 -14 24z" />
    <glyph glyph-name="endash" unicode="&#x2013;" horiz-adv-x="473" 
d="M47 240q0 15 8 25.5t21 10.5h320q12 0 21 -10.5t9 -25.5t-9 -25t-21 -10h-320q-29 0 -29 35z" />
    <glyph glyph-name="emdash" unicode="&#x2014;" horiz-adv-x="753" 
d="M47 240q0 15 8 25.5t21 10.5h600q12 0 21 -10.5t9 -25.5t-9 -25t-21 -10h-600q-29 0 -29 35z" />
    <glyph glyph-name="quoteleft" unicode="&#x2018;" horiz-adv-x="167" 
d="M30 606q0 21 45 122q6 13 20 13q11 0 20.5 -7t9.5 -18q0 -6 -2 -10l-21 -52q32 -13 32 -48q0 -22 -15 -37t-37 -15q-21 0 -36.5 15t-15.5 37z" />
    <glyph glyph-name="quoteright" unicode="&#x2019;" horiz-adv-x="165" 
d="M34 689q0 21 15 36.5t37 15.5q21 0 36.5 -15.5t15.5 -36.5t-45 -122q-6 -13 -20 -13q-11 0 -20.5 6.5t-9.5 17.5q0 7 2 10l21 52q-32 13 -32 49z" />
    <glyph glyph-name="quotesinglbase" unicode="&#x201a;" horiz-adv-x="176" 
d="M36 46q0 22 15 37.5t37 15.5q21 0 36 -15.5t15 -36.5q0 -23 -44 -122q-6 -14 -21 -14q-11 0 -20 7t-9 18q0 6 2 10l21 52q-32 13 -32 48z" />
    <glyph glyph-name="quotedblleft" unicode="&#x201c;" horiz-adv-x="328" 
d="M30 606q0 21 45 122q6 13 20 13q11 0 20.5 -7t9.5 -18q0 -6 -2 -10l-21 -52q32 -13 32 -48q0 -22 -15 -37t-37 -15q-21 0 -36.5 15t-15.5 37zM191 606q0 23 44 122q7 13 21 13q11 0 20 -7t9 -18q0 -6 -2 -10l-21 -52q33 -13 33 -48q0 -22 -15 -37t-37 -15t-37 15t-15 37z
" />
    <glyph glyph-name="quotedblright" unicode="&#x201d;" horiz-adv-x="325" 
d="M34 689q0 21 15 36.5t37 15.5q21 0 36.5 -15.5t15.5 -36.5q0 -24 -45 -122q-6 -13 -20 -13q-11 0 -20.5 6.5t-9.5 17.5q0 6 3 10l20 52q-32 13 -32 49zM195 689q0 21 15 36.5t37 15.5q21 0 36 -15.5t15 -36.5q0 -23 -44 -122q-6 -13 -21 -13q-11 0 -20 6.5t-9 17.5
q0 7 2 10l21 52q-32 13 -32 49z" />
    <glyph glyph-name="quotedblbase" unicode="&#x201e;" horiz-adv-x="337" 
d="M36 46q0 22 15 37.5t37 15.5q21 0 36 -15.5t15 -36.5q0 -23 -44 -122q-6 -14 -21 -14q-11 0 -20 7t-9 18q0 6 2 10l21 52q-32 13 -32 48zM196 46q0 22 15 37.5t37 15.5q21 0 36.5 -15.5t15.5 -36.5t-45 -122q-6 -14 -20 -14q-11 0 -20.5 7t-9.5 18q0 2 2 10l21 52
q-32 13 -32 48z" />
    <glyph glyph-name="dagger" unicode="&#x2020;" horiz-adv-x="422" 
d="M22 454q0 14 8 24t21 11l118 -6v219q0 11 12.5 20t29.5 9q16 0 29 -9t13 -20v-219l118 6q12 -1 21 -11t9 -24t-9 -23.5t-21 -10.5l-118 6v-414q0 -13 -13 -23t-29 -10q-17 0 -29.5 10t-12.5 23v414l-118 -6q-29 2 -29 34z" />
    <glyph glyph-name="daggerdbl" unicode="&#x2021;" horiz-adv-x="441" 
d="M31 241q0 14 8 23.5t21 10.5l118 -6v157l-118 -6q-29 2 -29 34q0 14 8 24t21 11l118 -6v219q0 11 12.5 20t29.5 9q16 0 29 -9t13 -20v-219l118 6q12 -1 21 -11t9 -24t-9 -23.5t-21 -10.5l-118 6v-157l118 6q12 -1 21 -10.5t9 -23.5t-9 -23.5t-21 -10.5l-118 6v-201
q0 -13 -13 -23t-29 -10q-17 0 -29.5 10t-12.5 23v201l-118 -6q-29 2 -29 34z" />
    <glyph glyph-name="bullet" unicode="&#x2022;" horiz-adv-x="318" 
d="M45 300q0 44 34.5 77t80.5 33q45 0 79 -33t34 -77t-34 -77.5t-79 -33.5q-46 0 -80.5 33.5t-34.5 77.5z" />
    <glyph glyph-name="ellipsis" unicode="&#x2026;" horiz-adv-x="545" 
d="M37 46q0 22 15 37.5t37 15.5q21 0 36 -15.5t15 -37.5q0 -21 -15 -36.5t-36 -15.5q-22 0 -37 15.5t-15 36.5zM222 46q0 22 15 37.5t37 15.5q21 0 36 -15.5t15 -37.5q0 -21 -15 -36.5t-36 -15.5q-22 0 -37 15.5t-15 36.5zM406 46q0 22 15 37.5t37 15.5q21 0 36 -15.5
t15 -37.5q0 -21 -15 -36.5t-36 -15.5q-22 0 -37 15.5t-15 36.5z" />
    <glyph glyph-name="perthousand" unicode="&#x2030;" horiz-adv-x="1081" 
d="M36 463v150q0 61 35 89.5t94 28.5q58 0 93.5 -28.5t35.5 -89.5v-150q0 -61 -35.5 -89.5t-93.5 -28.5q-59 0 -94 28.5t-35 89.5zM96 463q0 -65 69 -65t69 65v150q0 65 -69 65t-69 -65v-150zM167 0q0 7 3 13l375 742q7 15 25 15q13 0 23.5 -9.5t10.5 -23.5q0 -7 -3 -14
l-374 -737q-7 -16 -28 -16q-13 0 -22.5 9t-9.5 21zM471 115v150q0 61 35 89.5t94 28.5q58 0 93.5 -28.5t35.5 -89.5v-150q0 -61 -35.5 -89.5t-93.5 -28.5q-59 0 -94 28.5t-35 89.5zM531 115q0 -65 69 -65t69 65v150q0 65 -69 65t-69 -65v-150zM790 115v150q0 61 35 89.5
t94 28.5q58 0 93.5 -28.5t35.5 -89.5v-150q0 -61 -35.5 -89.5t-93.5 -28.5q-59 0 -94 28.5t-35 89.5zM850 115q0 -65 69 -65t69 65v150q0 65 -69 65t-69 -65v-150z" />
    <glyph glyph-name="guilsinglleft" unicode="&#x2039;" horiz-adv-x="246" 
d="M32 277q0 8 14 34l84 157q8 13 27 13t34 -14t15 -28q0 -5 -3 -11l-81 -151l81 -151q3 -4 3 -11q0 -14 -15.5 -27.5t-34.5 -13.5t-26 13l-84 156q-14 26 -14 34z" />
    <glyph glyph-name="guilsinglright" unicode="&#x203a;" horiz-adv-x="246" 
d="M40 115q0 7 3 11l81 151l-81 151q-3 6 -3 11q0 14 15 28t34 14q21 0 27 -13l84 -157q14 -26 14 -34t-14 -34l-84 -156q-7 -13 -26 -13t-34.5 13.5t-15.5 27.5z" />
    <glyph glyph-name="fraction" unicode="&#x2044;" horiz-adv-x="167" 
d="M-135 0q0 7 3 13l375 742q7 15 25 15q13 0 23.5 -9.5t10.5 -23.5q0 -7 -3 -14l-374 -737q-7 -16 -28 -16q-13 0 -22.5 9t-9.5 21z" />
    <glyph glyph-name="uni2070" unicode="&#x2070;" horiz-adv-x="343" 
d="M42 463v150q0 61 35 89.5t94 28.5q58 0 93.5 -28.5t35.5 -89.5v-150q0 -61 -35.5 -89.5t-93.5 -28.5q-59 0 -94 28.5t-35 89.5zM102 463q0 -65 69 -65t69 65v150q0 65 -69 65t-69 -65v-150z" />
    <glyph glyph-name="uni2074" unicode="&#x2074;" horiz-adv-x="294" 
d="M10 455q0 5 3 12l139 247q10 17 27 17q10 0 20 -6.5t10 -16.5q0 -3 -2 -9l-120 -210h86v66q0 19 29 19q31 0 31 -19v-66h29q20 0 20 -28q0 -11 -6 -19.5t-14 -8.5h-29v-65q0 -20 -31 -20q-29 0 -29 20v65h-142q-21 0 -21 22z" />
    <glyph glyph-name="uni2075" unicode="&#x2075;" horiz-adv-x="310" 
d="M25 436q0 30 30 30q31 0 31 -24q2 -44 65 -44q71 0 71 63v10q0 63 -68 63h-83q-26 0 -26 23q0 12 1 20l13 134q3 20 14 20h171q18 0 18 -27q0 -26 -18 -26h-134l-8 -96h52q59 0 94 -26.5t35 -84.5v-10q0 -60 -35.5 -88t-92.5 -28q-60 0 -95 27t-35 64z" />
    <glyph glyph-name="uni2076" unicode="&#x2076;" horiz-adv-x="334" 
d="M42 475v138q0 61 36 89.5t96 28.5t93 -29t33 -65q0 -26 -28 -26q-31 0 -31 23q0 20 -19.5 32t-48.5 12q-70 0 -70 -65v-63q25 29 80 29q117 0 117 -108v-8q0 -61 -35 -89.5t-93 -28.5q-130 0 -130 130zM103 459q0 -64 69 -64t69 64v8q0 64 -70 64q-68 0 -68 -59v-13z" />
    <glyph glyph-name="uni2077" unicode="&#x2077;" horiz-adv-x="298" 
d="M23 631v80q0 8 8.5 14t18.5 6h204q9 0 18 -6.5t9 -13.5v-56q0 -16 -11 -34l-155 -266q-6 -9 -19 -9q-15 0 -26 8.5t-11 21.5q0 2 2 10l160 259v33h-137v-47q0 -8 -9.5 -14t-21.5 -6q-13 0 -21.5 6t-8.5 14z" />
    <glyph glyph-name="uni2078" unicode="&#x2078;" horiz-adv-x="324" 
d="M33 453v6q0 75 67 98q-54 19 -54 81q0 93 117 93q116 0 116 -93q0 -63 -54 -81q66 -23 66 -98v-6q0 -55 -35 -81.5t-93 -26.5q-59 0 -94.5 26.5t-35.5 81.5zM94 459q0 -65 69 -65t69 65v10q0 62 -69 62t-69 -62v-10zM105 631q0 -50 58 -50t58 50t-58 50t-58 -50z" />
    <glyph glyph-name="uni2079" unicode="&#x2079;" horiz-adv-x="334" 
d="M34 439q0 25 28 25q31 0 31 -23q0 -20 20 -31.5t49 -11.5q70 0 70 65v62q-27 -28 -81 -28q-117 0 -117 107v9q0 61 35 89.5t94 28.5q58 0 93.5 -28.5t35.5 -89.5v-150q0 -61 -36 -89.5t-96 -28.5t-93 28.5t-33 65.5zM95 607q0 -62 68 -62q69 0 69 58v13q0 65 -69 65
q-68 0 -68 -65v-9z" />
    <glyph glyph-name="uni2080" unicode="&#x2080;" horiz-adv-x="340" 
d="M39 115v150q0 61 35 89.5t94 28.5q58 0 93.5 -28.5t35.5 -89.5v-150q0 -61 -35.5 -89.5t-93.5 -28.5q-59 0 -94 28.5t-35 89.5zM99 115q0 -65 69 -65t69 65v150q0 65 -69 65t-69 -65v-150z" />
    <glyph glyph-name="uni2081" unicode="&#x2081;" horiz-adv-x="175" 
d="M14 305q0 15 12 22l60 52q7 5 16 5q10 0 18 -5.5t8 -14.5v-344q0 -20 -30 -20t-30 20v287l-20 -21q-6 -5 -13 -5q-9 0 -15 7.5t-6 16.5z" />
    <glyph glyph-name="uni2082" unicode="&#x2082;" horiz-adv-x="311" 
d="M30 20v51q0 28 29.5 56.5t65 48.5t65 47t29.5 53q0 20 -16 36t-47 16q-58 0 -58 -50q0 -9 -9 -15.5t-23 -6.5q-27 0 -27 32q0 43 34 69t83 26q52 0 87.5 -29t35.5 -76q0 -31 -19 -58t-46.5 -46t-55 -35.5t-46.5 -33.5t-19 -32v-20h169q8 0 14 -7.5t6 -18.5t-6 -19t-14 -8
h-204q-10 0 -19 6t-9 14z" />
    <glyph glyph-name="uni2083" unicode="&#x2083;" horiz-adv-x="318" 
d="M27 90q0 15 6.5 20t21.5 5q32 0 32 -22q0 -18 17.5 -30.5t50.5 -12.5q70 0 70 62v10q0 54 -70 54q-20 0 -20 24t20 24q29 1 44 12.5t15 42.5q0 52 -57 52q-61 0 -61 -41q0 -23 -28 -23q-20 0 -25.5 5t-5.5 21q0 34 28 62t92 28q116 0 116 -93q0 -68 -46 -88
q58 -20 58 -80v-10q0 -60 -36 -87.5t-95 -27.5q-62 0 -94.5 28.5t-32.5 64.5z" />
    <glyph glyph-name="uni2084" unicode="&#x2084;" horiz-adv-x="296" 
d="M11 107q0 6 3 12l139 248q10 16 27 16q10 0 20 -6.5t10 -16.5q0 -3 -2 -9l-120 -210h86v66q0 19 29 19q31 0 31 -19v-66h29q20 0 20 -28q0 -11 -6.5 -19.5t-13.5 -8.5h-29v-65q0 -20 -31 -20q-29 0 -29 20v65h-142q-21 0 -21 22z" />
    <glyph glyph-name="uni2085" unicode="&#x2085;" horiz-adv-x="310" 
d="M25 89q0 29 30 29q31 0 31 -24q2 -44 65 -44q71 0 71 63v10q0 63 -68 63h-83q-26 0 -26 23q0 12 1 21l13 133q3 20 14 20h171q18 0 18 -27q0 -26 -18 -26h-134l-8 -96h52q59 0 94 -26.5t35 -84.5v-10q0 -60 -35.5 -88t-92.5 -28q-60 0 -95 27t-35 65z" />
    <glyph glyph-name="uni2086" unicode="&#x2086;" horiz-adv-x="333" 
d="M41 127v138q0 61 36 89.5t96 28.5q61 0 93.5 -28.5t32.5 -65.5q0 -26 -28 -26q-31 0 -31 24q0 20 -19.5 31.5t-48.5 11.5q-70 0 -70 -65v-63q25 29 80 29q117 0 117 -107v-9q0 -61 -35 -89.5t-93 -28.5q-130 0 -130 130zM102 111q0 -64 69 -64t69 64v9q0 63 -70 63
q-68 0 -68 -58v-14z" />
    <glyph glyph-name="uni2087" unicode="&#x2087;" horiz-adv-x="298" 
d="M23 283v80q0 8 8.5 14t18.5 6h204q9 0 18 -6.5t9 -13.5v-56q0 -16 -11 -34l-155 -266q-6 -9 -19 -9q-15 0 -26 8.5t-11 21.5q0 4 2 10l160 259v33h-137v-47q0 -8 -9.5 -14t-21.5 -6q-13 0 -21.5 6t-8.5 14z" />
    <glyph glyph-name="uni2088" unicode="&#x2088;" horiz-adv-x="324" 
d="M33 105v6q0 76 67 98q-54 19 -54 81q0 93 117 93q116 0 116 -93q0 -63 -54 -81q66 -21 66 -98v-6q0 -55 -35 -81.5t-93 -26.5q-59 0 -94.5 26.5t-35.5 81.5zM94 111q0 -65 69 -65t69 65v10q0 63 -69 63t-69 -63v-10zM105 283q0 -49 58 -49t58 49q0 51 -58 51t-58 -51z
" />
    <glyph glyph-name="uni2089" unicode="&#x2089;" horiz-adv-x="332" 
d="M34 91q0 25 28 25q31 0 31 -22q0 -20 19.5 -32t49.5 -12q70 0 70 65v62q-27 -28 -81 -28q-117 0 -117 108v8q0 61 35 89.5t94 28.5q58 0 93.5 -28.5t35.5 -89.5v-150q0 -61 -36 -89.5t-96 -28.5t-93 28.5t-33 65.5zM95 260q0 -63 68 -63q69 0 69 59v12q0 65 -69 65
q-68 0 -68 -65v-8z" />
    <glyph glyph-name="Euro" unicode="&#x20ac;" horiz-adv-x="591" 
d="M29 276q0 14 8 23.5t21 9.5h58v88h-58q-13 0 -21 8.5t-8 22.5t8 23.5t21 9.5h58v52q0 113 58.5 165.5t155.5 52.5t157 -49.5t60 -129.5q0 -22 -10 -31t-32 -9q-42 0 -42 28q0 50 -34 82.5t-97 32.5q-132 0 -132 -142v-52h148q12 0 21 -9.5t9 -22.5q0 -14 -9 -23t-21 -9
h-148v-88h148q11 0 20.5 -10t9.5 -23t-9 -22t-21 -9h-148v-40q0 -60 33 -97.5t100 -37.5q62 0 96 32.5t34 86.5q0 28 42 28q22 0 32 -9t10 -32q0 -81 -60 -131.5t-157 -50.5q-99 0 -156.5 54.5t-57.5 156.5v40h-58q-13 0 -21 8.5t-8 22.5z" />
    <glyph glyph-name="trademark" unicode="&#x2122;" horiz-adv-x="638" 
d="M41 743q0 25 18 25h202q17 0 17 -25q0 -26 -17 -26h-74v-225q0 -18 -27 -18t-27 18v225h-74q-8 0 -13 8t-5 18zM303 492v249q0 27 27 27t42 -32l67 -149l67 149q15 32 41 32q27 0 27 -27v-249q0 -18 -27 -18q-26 0 -26 18v163l-64 -140q-6 -14 -19 -14t-18 14l-63 143
v-166q0 -18 -27 -18t-27 18z" />
    <glyph glyph-name="uni2126" unicode="&#x2126;" horiz-adv-x="555" 
d="M51 38q0 16 8.5 26.5t20.5 10.5h103v29q-120 42 -120 205v204q0 113 58.5 165.5t156.5 52.5t156.5 -52.5t58.5 -165.5v-204q0 -162 -120 -205v-29h103q12 0 20.5 -10.5t8.5 -26.5t-8 -27t-21 -11h-158v172q91 20 91 137v204q0 142 -131 142t-131 -142v-204
q0 -123 91 -137v-172h-158q-13 0 -21 11t-8 27z" />
    <glyph glyph-name="estimated" unicode="&#x212e;" horiz-adv-x="546" 
d="M47 212v53q0 87 69.5 151t165.5 64q90 0 156 -52.5t66 -131.5q0 -27 -7 -44t-21.5 -24t-27 -9t-33.5 -2h-243v-30q0 -63 34 -98t100 -35q51 0 85.5 12t50.5 23.5t24 11.5q10 0 18.5 -13t8.5 -25q0 -23 -54 -47t-134 -24q-114 0 -186 61t-72 159zM172 265h173q26 0 35 6.5
t9 25.5q0 56 -29.5 91t-78.5 35t-79 -32.5t-30 -89.5v-36z" />
    <glyph glyph-name="onethird" unicode="&#x2153;" horiz-adv-x="639" 
d="M26 653q0 15 12 22l60 51q6 6 16 6t18 -5.5t8 -14.5v-344q0 -20 -30 -20t-30 20v286l-20 -20q-6 -5 -13 -5q-9 0 -15 7.5t-6 16.5zM54 0q0 7 3 13l375 742q8 15 25 15q13 0 23.5 -9.5t10.5 -23.5q0 -7 -3 -14l-374 -737q-7 -16 -28 -16q-13 0 -22.5 9t-9.5 21zM351 90
q0 15 6.5 20t21.5 5q32 0 32 -22q0 -18 17.5 -30.5t50.5 -12.5q70 0 70 62v10q0 54 -70 54q-20 0 -20 24t20 24q29 1 44 12.5t15 42.5q0 52 -57 52q-61 0 -61 -41q0 -23 -28 -23q-20 0 -25.5 5t-5.5 21q0 34 28 62t92 28q116 0 116 -93q0 -68 -46 -88q58 -20 58 -80v-10
q0 -60 -36 -87.5t-95 -27.5q-62 0 -94.5 28.5t-32.5 64.5z" />
    <glyph glyph-name="twothirds" unicode="&#x2154;" horiz-adv-x="753" 
d="M32 368v50q0 28 29.5 57t65 49t65 47t29.5 53q0 20 -16 36t-47 16q-58 0 -58 -50q0 -9 -9 -15.5t-23 -6.5q-27 0 -27 32q0 42 34 68.5t83 26.5q52 0 87.5 -29t35.5 -76q0 -31 -19 -58t-46.5 -46t-55 -35.5t-46.5 -33.5t-19 -32v-20h169q8 0 14 -7.5t6 -18.5t-6 -19
t-14 -8h-204q-10 0 -19 6t-9 14zM177 0q0 7 3 13l375 742q7 15 25 15q13 0 23.5 -9.5t10.5 -23.5q0 -7 -3 -14l-374 -737q-7 -16 -28 -16q-13 0 -22.5 9t-9.5 21zM465 90q0 15 6.5 20t21.5 5q32 0 32 -22q0 -18 17.5 -30.5t50.5 -12.5q70 0 70 62v10q0 54 -70 54
q-20 0 -20 24t20 24q29 1 44 12.5t15 42.5q0 52 -57 52q-61 0 -61 -41q0 -23 -28 -23q-20 0 -25.5 5t-5.5 21q0 34 28 62t92 28q116 0 116 -93q0 -68 -46 -88q58 -20 58 -80v-10q0 -60 -36 -87.5t-95 -27.5q-62 0 -94.5 28.5t-32.5 64.5z" />
    <glyph glyph-name="oneeighth" unicode="&#x215b;" horiz-adv-x="638" 
d="M26 653q0 15 12 22l60 51q6 6 16 6t18 -5.5t8 -14.5v-344q0 -20 -30 -20t-30 20v286l-20 -20q-6 -5 -13 -5q-9 0 -15 7.5t-6 16.5zM54 0q0 7 3 13l375 742q8 15 25 15q13 0 23.5 -9.5t10.5 -23.5q0 -7 -3 -14l-374 -737q-7 -16 -28 -16q-13 0 -22.5 9t-9.5 21zM350 105v6
q0 76 67 98q-54 19 -54 81q0 93 117 93q116 0 116 -93q0 -63 -54 -81q66 -21 66 -98v-6q0 -55 -35 -81.5t-93 -26.5q-59 0 -94.5 26.5t-35.5 81.5zM411 111q0 -65 69 -65t69 65v10q0 63 -69 63t-69 -63v-10zM422 283q0 -49 58 -49t58 49q0 51 -58 51t-58 -51z" />
    <glyph glyph-name="threeeighths" unicode="&#x215c;" horiz-adv-x="757" 
d="M26 438q0 14 6 19t22 5q18 0 25 -4.5t7 -16.5q0 -18 17.5 -30.5t50.5 -12.5q36 0 53 14.5t17 47.5v9q0 55 -70 55q-20 0 -20 23q0 25 20 25q29 0 44 11.5t15 43.5q0 51 -57 51q-61 0 -61 -40q0 -23 -28 -23q-20 0 -25.5 5t-5.5 21q0 34 28 62t92 28q116 0 116 -94
q0 -67 -46 -87q58 -20 58 -81v-9q0 -60 -36 -87.5t-95 -27.5q-62 0 -94.5 28.5t-32.5 64.5zM173 0q0 7 3 13l375 742q7 15 25 15q13 0 23.5 -9.5t10.5 -23.5q0 -7 -3 -14l-374 -737q-7 -16 -28 -16q-13 0 -22.5 9t-9.5 21zM469 105v6q0 76 67 98q-54 19 -54 81q0 93 117 93
q116 0 116 -93q0 -63 -54 -81q66 -21 66 -98v-6q0 -55 -35 -81.5t-93 -26.5q-59 0 -94.5 26.5t-35.5 81.5zM530 111q0 -65 69 -65t69 65v10q0 63 -69 63t-69 -63v-10zM541 283q0 -49 58 -49t58 49q0 51 -58 51t-58 -51z" />
    <glyph glyph-name="fiveeighths" unicode="&#x215d;" horiz-adv-x="756" 
d="M25 436q0 30 30 30q31 0 31 -24q2 -44 65 -44q71 0 71 63v10q0 63 -68 63h-83q-26 0 -26 23q0 12 1 20l13 134q3 20 14 20h171q18 0 18 -27q0 -26 -18 -26h-134l-8 -96h52q59 0 94 -26.5t35 -84.5v-10q0 -60 -35.5 -88t-92.5 -28q-60 0 -95 27t-35 64zM172 0q0 7 3 13
l375 742q8 15 25 15q13 0 23.5 -9.5t10.5 -23.5q0 -7 -3 -14l-374 -737q-7 -16 -28 -16q-13 0 -22.5 9t-9.5 21zM468 105v6q0 76 67 98q-54 19 -54 81q0 93 117 93q116 0 116 -93q0 -63 -54 -81q66 -21 66 -98v-6q0 -55 -35 -81.5t-93 -26.5q-59 0 -94.5 26.5t-35.5 81.5z
M529 111q0 -65 69 -65t69 65v10q0 63 -69 63t-69 -63v-10zM540 283q0 -49 58 -49t58 49q0 51 -58 51t-58 -51z" />
    <glyph glyph-name="seveneighths" unicode="&#x215e;" horiz-adv-x="753" 
d="M25 631v80q0 8 8.5 14t18.5 6h204q9 0 18 -6.5t9 -13.5v-56q0 -16 -11 -34l-155 -266q-6 -9 -19 -9q-15 0 -26 8.5t-11 21.5q0 2 2 10l160 259v33h-137v-47q0 -8 -9.5 -14t-21.5 -6q-13 0 -21.5 6t-8.5 14zM121 0q0 7 3 13l375 742q7 15 25 15q13 0 23.5 -9.5t10.5 -23.5
q0 -7 -3 -14l-374 -737q-7 -16 -28 -16q-13 0 -22.5 9t-9.5 21zM467 105v6q0 76 67 98q-54 19 -54 81q0 93 117 93q116 0 116 -93q0 -63 -54 -81q66 -21 66 -98v-6q0 -55 -35 -81.5t-93 -26.5q-59 0 -94.5 26.5t-35.5 81.5zM528 111q0 -65 69 -65t69 65v10q0 63 -69 63
t-69 -63v-10zM539 283q0 -49 58 -49t58 49q0 51 -58 51t-58 -51z" />
    <glyph glyph-name="arrowleft" unicode="&#x2190;" horiz-adv-x="771" 
d="M70 240q0 12 13 24l205 205q10 8 20 8q14 0 26.5 -12.5t12.5 -27.5q0 -11 -8 -19l-142 -142h475q13 0 21 -10.5t8 -25.5q0 -16 -8 -25.5t-21 -9.5h-475l142 -142q8 -7 8 -19q0 -15 -12 -27.5t-27 -12.5q-12 0 -20 8l-205 205q-13 13 -13 23z" />
    <glyph glyph-name="arrowup" unicode="&#x2191;" horiz-adv-x="771" 
d="M149 318q0 12 8 20l205 205q13 13 23 13q11 0 24 -13l205 -205q8 -10 8 -20q0 -14 -12.5 -26.5t-27.5 -12.5q-11 0 -19 8l-142 142v-475q0 -13 -10 -21t-26 -8q-15 0 -25 8t-10 21v475l-142 -142q-7 -8 -19 -8q-15 0 -27.5 12t-12.5 27z" />
    <glyph glyph-name="arrowright" unicode="&#x2192;" horiz-adv-x="771" 
d="M70 240q0 15 8 25.5t21 10.5h475l-142 142q-8 8 -8 19q0 15 12.5 27.5t26.5 12.5q10 0 20 -8l205 -205q13 -13 13 -24q0 -10 -13 -23l-205 -205q-8 -8 -20 -8q-15 0 -27 12.5t-12 27.5q0 12 8 19l142 142h-475q-13 0 -21 9.5t-8 25.5z" />
    <glyph glyph-name="arrowdown" unicode="&#x2193;" horiz-adv-x="771" 
d="M149 163q0 15 12.5 27t27.5 12q12 0 19 -8l142 -142v475q0 13 10 21t25 8q16 0 26 -8t10 -21v-475l142 142q8 8 19 8q15 0 27.5 -12.5t12.5 -26.5q0 -10 -8 -20l-205 -205q-13 -13 -24 -13q-10 0 -23 13l-205 205q-8 8 -8 20z" />
    <glyph glyph-name="partialdiff" unicode="&#x2202;" horiz-adv-x="497" 
d="M45 186v108q0 78 52 135t124 57q45 0 84.5 -23t53.5 -59q-3 131 -39.5 198.5t-119.5 67.5q-34 0 -66.5 -12.5t-36.5 -12.5q-13 0 -23 16.5t-10 27.5q0 19 44 37t98 18q110 0 173 -92.5t63 -285.5v-176q0 -77 -60 -137.5t-139 -60.5t-138.5 58.5t-59.5 135.5zM128 186
q0 -47 34 -83t81 -36t81.5 36t34.5 83v111q0 46 -35 80t-82 34t-80.5 -36t-33.5 -81v-108z" />
    <glyph glyph-name="uni2206" unicode="&#x2206;" horiz-adv-x="537" 
d="M23 31q0 8 3 17l191 657q10 32 52 32t52 -32l190 -657q3 -9 3 -17q0 -31 -36 -31h-419q-36 0 -36 31zM120 76h297l-148 541z" />
    <glyph glyph-name="product" unicode="&#x220f;" horiz-adv-x="573" 
d="M71 29v672q0 14 11.5 22t26.5 8h355q15 0 26.5 -8t11.5 -22v-672q0 -14 -12.5 -21.5t-29.5 -7.5t-29.5 7.5t-12.5 21.5v626h-263v-626q0 -14 -12.5 -21.5t-29.5 -7.5t-29.5 7.5t-12.5 21.5z" />
    <glyph glyph-name="summation" unicode="&#x2211;" horiz-adv-x="482" 
d="M26 -193q0 17 9 33l215 412l-215 412q-9 16 -9 33q0 34 36 34h367q13 0 21 -11.5t8 -26.5t-8 -26.5t-21 -11.5h-299l177 -334q27 -49 27 -69t-27 -69l-177 -334h299q13 0 21 -11.5t8 -26.5t-8 -26.5t-21 -11.5h-367q-36 0 -36 34z" />
    <glyph glyph-name="minus" unicode="&#x2212;" horiz-adv-x="499" 
d="M60 284q0 15 8 25.5t21 10.5h320q12 0 21 -10.5t9 -25.5t-9 -25t-21 -10h-320q-29 0 -29 35z" />
    <glyph glyph-name="radical" unicode="&#x221a;" horiz-adv-x="637" 
d="M9 408q0 15 8 25.5t21 10.5h78q21 0 30 -30l104 -335l194 667q7 22 28 22h134q11 0 20 -10.5t9 -25.5q0 -16 -8.5 -26t-20.5 -10h-90l-214 -701q-9 -30 -52 -30q-42 0 -52 30l-126 377h-34q-13 0 -21 10t-8 26z" />
    <glyph glyph-name="infinity" unicode="&#x221e;" horiz-adv-x="871" 
d="M51 236q0 86 55 133.5t132 47.5q55 0 109 -32.5t88 -86.5q35 55 88.5 87t109.5 32q77 0 132 -47.5t55 -133.5t-55 -133.5t-133 -47.5q-55 0 -108.5 32t-88.5 86q-34 -54 -88 -86t-109 -32q-77 0 -132 47.5t-55 133.5zM127 236q0 -53 32 -81t80 -28q47 0 92.5 28t71.5 81
q-26 53 -71.5 81t-92.5 28q-48 0 -80 -28t-32 -81zM468 236q26 -53 71.5 -81t92.5 -28q48 0 80 28t32 81t-32 81t-80 28q-47 0 -92.5 -28t-71.5 -81z" />
    <glyph glyph-name="integral" unicode="&#x222b;" horiz-adv-x="342" 
d="M4 -166q0 14 8 24.5t23 10.5q94 0 94 89v629q0 70 45 115.5t135 45.5q10 0 19.5 -9.5t9.5 -23.5q0 -13 -8 -24t-21 -11q-48 0 -72 -26t-24 -69v-627q0 -71 -43 -114.5t-132 -43.5q-14 0 -24 10t-10 24z" />
    <glyph glyph-name="approxequal" unicode="&#x2248;" horiz-adv-x="444" 
d="M63 161q0 31 29.5 46.5t58.5 15.5q27 0 67.5 -16.5t66.5 -16.5t47 14t27 14q11 0 17 -10.5t6 -20.5q0 -32 -28 -46.5t-56 -14.5q-29 0 -69.5 16.5t-66.5 16.5q-24 0 -47 -14.5t-29 -14.5q-11 0 -17 10.5t-6 20.5zM63 365q0 31 29.5 46.5t58.5 15.5q27 0 67.5 -16.5
t66.5 -16.5t47 14t27 14q11 0 17 -10.5t6 -19.5q0 -32 -28 -47t-56 -15q-29 0 -69.5 16.5t-66.5 16.5q-24 0 -47 -14.5t-29 -14.5q-11 0 -17 10.5t-6 20.5z" />
    <glyph glyph-name="notequal" unicode="&#x2260;" horiz-adv-x="489" 
d="M50 160q0 15 8 25.5t21 10.5h103l63 131h-166q-13 0 -21 10t-8 26q0 15 8 25.5t21 10.5h206l74 151q5 10 17 10q10 0 19 -8t9 -18q0 -3 -4 -13l-60 -122h69q12 0 21 -10.5t9 -25.5q0 -16 -9 -26t-21 -10h-109l-64 -131h173q12 0 21 -10.5t9 -25.5q0 -16 -9 -26t-21 -10
h-213l-66 -134q-6 -11 -17 -11q-9 0 -17.5 7t-8.5 16q0 6 3 12l52 110h-63q-13 0 -21 10t-8 26z" />
    <glyph glyph-name="lessequal" unicode="&#x2264;" horiz-adv-x="435" 
d="M46 85q0 15 8.5 25.5t21.5 10.5h277q12 0 21 -10.5t9 -25.5q0 -16 -9 -26t-21 -10h-277q-13 0 -21.5 10t-8.5 26zM46 353q0 23 18 34l267 143q5 4 13 4q14 0 26 -12.5t12 -27.5q0 -18 -15 -25l-222 -116l222 -116q15 -7 15 -24q0 -15 -12 -28t-26 -13q-5 0 -13 4
l-267 144q-18 8 -18 33z" />
    <glyph glyph-name="greaterequal" unicode="&#x2265;" horiz-adv-x="435" 
d="M53 85q0 15 9 25.5t20 10.5h278q12 0 20.5 -10.5t8.5 -25.5q0 -16 -8.5 -26t-20.5 -10h-278q-12 0 -20.5 10t-8.5 26zM53 213q0 17 16 24l222 116l-222 116q-16 7 -16 25q0 15 12 27.5t26 12.5q8 0 13 -4l267 -143q18 -11 18 -34q0 -25 -18 -33l-267 -144q-8 -4 -13 -4
q-14 0 -26 13t-12 28z" />
    <glyph glyph-name="lozenge" unicode="&#x25ca;" horiz-adv-x="480" 
d="M24 365q0 21 26 70l142 266q17 34 48 34q30 0 49 -34l142 -266q26 -49 26 -70t-26 -68l-143 -267q-18 -34 -48 -34q-29 0 -48 34l-142 267q-26 47 -26 68zM100 366l140 -269l141 269l-141 273z" />
    <glyph glyph-name="uniE000" unicode="&#xe000;" horiz-adv-x="480" 
d="M0 480h480v-480h-480v480z" />
    <glyph glyph-name="uniF6C3" unicode="&#xf6c3;" horiz-adv-x="226" 
d="M22 -134q0 15 13 22l117 62q8 2 10 2q12 0 20.5 -10.5t8.5 -23.5q0 -16 -14 -24l-113 -59q-6 -3 -12 -3q-12 0 -21 10.5t-9 23.5z" />
    <glyph glyph-name="a.ss01" horiz-adv-x="462" 
d="M27 124q0 79 60 109.5t174 30.5h48v21q0 51 -27 87.5t-86 36.5q-37 0 -70.5 -14.5t-36.5 -14.5q-13 0 -21.5 13.5t-8.5 26.5q0 25 45.5 42.5t100.5 17.5q94 0 140.5 -56t46.5 -138v-157q0 -58 38 -60q24 -3 24 -34q0 -22 -11.5 -32.5t-28.5 -10.5q-41 0 -65 21t-29 57
q-70 -78 -157 -78q-58 0 -97 34t-39 98zM111 132q0 -35 21 -54t53 -19q46 0 85 33.5t39 68.5v52h-35q-38 0 -63 -2.5t-50 -10.5t-37.5 -25t-12.5 -43z" />
    <glyph glyph-name="b.ss02" horiz-adv-x="490" 
d="M56 168v564q0 13 11.5 20.5t29.5 7.5t30 -8t12 -21v-327q18 32 52 54t79 22q73 0 126 -56.5t53 -135.5v-102q0 -74 -55 -134t-146 -60q-77 0 -134.5 48t-57.5 128zM139 174q0 -49 32 -78t79 -29q58 0 87 37.5t29 81.5v102q0 45 -34 81t-80 36q-45 0 -79 -32.5t-34 -84.5
v-114z" />
    <glyph glyph-name="caron.alt" horiz-adv-x="104" 
d="M0 689q0 21 15 36.5t37 15.5q21 0 36.5 -15.5t15.5 -36.5t-45 -122q-6 -13 -20 -13q-11 0 -20.5 6.5t-9.5 17.5q0 4 2 10l21 52q-32 13 -32 49z" />
    <glyph glyph-name="g.ss03" horiz-adv-x="494" 
d="M41 190v98q0 79 52.5 135.5t127.5 56.5q46 0 81 -22t53 -54v41q0 13 11 21t28 8t28.5 -8t11.5 -21v-465q0 -94 -54 -155.5t-165 -61.5q-63 0 -112.5 20.5t-49.5 53.5q0 15 9.5 27.5t22.5 12.5q4 0 45.5 -20t89.5 -20q41 0 69 13t40.5 37t17 48t4.5 55v84
q-17 -33 -53.5 -55.5t-80.5 -22.5q-70 0 -123 59t-53 135zM124 190q0 -46 34.5 -82.5t79.5 -36.5q44 0 78.5 33.5t34.5 58.5v125q0 52 -33.5 84.5t-77.5 32.5q-47 0 -81.5 -36t-34.5 -81v-98z" />
    <glyph glyph-name="m.ss04" horiz-adv-x="784" 
d="M55 29v259q0 83 52.5 137.5t124.5 54.5q98 0 160 -87q58 87 158 87q73 0 126 -54.5t53 -137.5v-258q0 -12 -12 -21t-30 -9q-16 0 -28.5 9t-12.5 21v258q0 52 -32 84.5t-73 32.5q-43 0 -75 -34t-32 -83v-259q0 -13 -12 -21t-30 -8q-17 0 -29 8t-12 21v259q0 49 -32.5 83
t-75.5 34q-41 0 -73 -32.5t-32 -84.5v-259q0 -11 -12.5 -20t-28.5 -9q-17 0 -29.5 9t-12.5 20z" />
    <glyph glyph-name="n.ss04" horiz-adv-x="502" 
d="M55 29v259q0 77 58 134.5t138 57.5t138 -58t58 -134v-258q0 -12 -11.5 -21t-29.5 -9q-17 0 -29.5 9t-12.5 21v258q0 45 -33.5 81t-79.5 36t-79.5 -35.5t-33.5 -81.5v-259q0 -11 -13 -20t-29 -9q-17 0 -29 9t-12 20z" />
    <glyph glyph-name="one.lnum" horiz-adv-x="397" 
d="M14 38q0 16 8.5 27t21.5 11h116v530l-37 -55q-10 -11 -21 -11q-12 0 -21 10.5t-9 24.5q0 21 16 32l94 112q11 13 25 13t25.5 -8t11.5 -22v-626h115q12 0 21 -11.5t9 -26.5t-9 -26.5t-21 -11.5h-315q-13 0 -21.5 11t-8.5 27z" />
    <glyph glyph-name="q.ss02" horiz-adv-x="489" 
d="M41 185v101q0 76 53 135t145 59q80 0 137.5 -51t57.5 -147v-482q0 -12 -11.5 -20.5t-29.5 -8.5q-17 0 -29.5 9t-12.5 20v270q-17 -33 -52 -55.5t-80 -22.5q-72 0 -125 57.5t-53 135.5zM124 185q0 -45 34.5 -81.5t78.5 -36.5q43 0 78.5 32t35.5 60v118q0 63 -32.5 95.5
t-81.5 32.5q-58 0 -85.5 -37.5t-27.5 -81.5v-101z" />
    <glyph glyph-name="r.ss04" horiz-adv-x="337" 
d="M52 29v214q0 94 52.5 165.5t137.5 71.5h52q15 0 24.5 -10.5t9.5 -26.5t-9.5 -27t-22.5 -11h-42q-51 0 -85 -48t-34 -115v-213q0 -11 -12.5 -20t-30.5 -9q-17 0 -28.5 8.5t-11.5 20.5z" />
    <glyph glyph-name="u.ss04" horiz-adv-x="506" 
d="M55 185v259q0 13 12.5 21.5t30.5 8.5q17 0 28.5 -8.5t11.5 -21.5v-259q0 -45 34 -81.5t80 -36.5q43 0 77.5 34t34.5 79v264q0 13 12 21.5t30 8.5t29.5 -8.5t11.5 -21.5v-415q0 -12 -11.5 -20.5t-29.5 -8.5q-16 0 -27 9t-11 20v41q-17 -33 -53 -55.5t-82 -22.5
q-72 0 -125 57.5t-53 135.5z" />
    </font>
</defs>
</svg>
